<svg width="16" height="16" viewBox="0 0 16 16" fill="none" xmlns="http://www.w3.org/2000/svg">
<path d="M10.6666 3.99996C10.6666 4.73634 10.0697 5.33329 9.33329 5.33329C8.59691 5.33329 7.99996 4.73634 7.99996 3.99996M10.6666 3.99996C10.6666 3.26358 10.0697 2.66663 9.33329 2.66663C8.59691 2.66663 7.99996 3.26358 7.99996 3.99996M10.6666 3.99996L13.3333 3.99996M7.99996 3.99996L2.66663 3.99996M6.66663 7.99996C6.66663 8.73634 6.06967 9.33329 5.33329 9.33329C4.59691 9.33329 3.99996 8.73634 3.99996 7.99996M6.66663 7.99996C6.66663 7.26358 6.06967 6.66663 5.33329 6.66663C4.59691 6.66663 3.99996 7.26358 3.99996 7.99996M6.66663 7.99996H13.3333M3.99996 7.99996H2.66663M12.6666 12C12.6666 12.7363 12.0697 13.3333 11.3333 13.3333C10.5969 13.3333 9.99996 12.7363 9.99996 12M12.6666 12C12.6666 11.2636 12.0697 10.6666 11.3333 10.6666C10.5969 10.6666 9.99996 11.2636 9.99996 12M12.6666 12L13.3333 12M9.99996 12L2.66663 12" stroke="white" stroke-linecap="round" stroke-linejoin="round"/>
</svg>
