<svg width="24" height="24" viewBox="0 0 24 24" fill="none" xmlns="http://www.w3.org/2000/svg">
<path d="M5.5 6.75C5.5 6.33579 5.16421 6 4.75 6C4.33579 6 4 6.33579 4 6.75V17.2533C4 17.6675 4.33579 18.0033 4.75 18.0033C5.16421 18.0033 5.5 17.6675 5.5 17.2533V6.75Z" fill="currentColor"/>
<path d="M14.3322 6.21057C14.0343 5.9228 13.5595 5.93104 13.2717 6.22897C12.9839 6.5269 12.9922 7.00171 13.2901 7.28947L17.3922 11.2516H8.37403C7.95982 11.2516 7.62403 11.5874 7.62403 12.0016C7.62403 12.4159 7.95982 12.7516 8.37403 12.7516H17.3922L13.2901 16.7138C12.9922 17.0016 12.9839 17.4764 13.2717 17.7743C13.5595 18.0723 14.0343 18.0805 14.3322 17.7927L19.7693 12.5411C19.9156 12.3998 19.9983 12.2051 19.9983 12.0016C19.9983 11.7982 19.9156 11.6035 19.7693 11.4622L14.3322 6.21057Z" fill="currentColor"/>
</svg>
