<svg width="16" height="16" viewBox="0 0 16 16" fill="none" xmlns="http://www.w3.org/2000/svg">
<path fill-rule="evenodd" clip-rule="evenodd" d="M14.5 11.3333C14.5 11.6094 14.2761 11.8333 14 11.8333L2 11.8333C1.72386 11.8333 1.5 11.6094 1.5 11.3333C1.5 11.0571 1.72386 10.8333 2 10.8333L14 10.8333C14.2761 10.8333 14.5 11.0571 14.5 11.3333Z" fill="white"/>
<path fill-rule="evenodd" clip-rule="evenodd" d="M4.35355 2.31319C4.54882 2.50846 4.54882 2.82504 4.35355 3.0203L2.70711 4.66675L4.35355 6.31319C4.54882 6.50846 4.54882 6.82504 4.35355 7.0203C4.15829 7.21556 3.84171 7.21556 3.64645 7.0203L1.64645 5.0203C1.45118 4.82504 1.45118 4.50846 1.64645 4.31319L3.64645 2.31319C3.84171 2.11793 4.15829 2.11793 4.35355 2.31319Z" fill="white"/>
<path fill-rule="evenodd" clip-rule="evenodd" d="M14.5 4.66675C14.5 4.94289 14.2761 5.16675 14 5.16675L2 5.16675C1.72386 5.16675 1.5 4.94289 1.5 4.66675C1.5 4.39061 1.72386 4.16675 2 4.16675L14 4.16675C14.2761 4.16675 14.5 4.39061 14.5 4.66675Z" fill="white"/>
<path fill-rule="evenodd" clip-rule="evenodd" d="M14.3536 10.9797C14.5488 11.175 14.5488 11.4915 14.3536 11.6868L12.3536 13.6868C12.1583 13.8821 11.8417 13.8821 11.6464 13.6868C11.4512 13.4915 11.4512 13.175 11.6464 12.9797L13.2929 11.3333L11.6464 9.68681C11.4512 9.49154 11.4512 9.17496 11.6464 8.9797C11.8417 8.78444 12.1583 8.78444 12.3536 8.9797L14.3536 10.9797Z" fill="white"/>
</svg>
