<svg width="24" height="24" viewBox="0 0 24 24" fill="none" xmlns="http://www.w3.org/2000/svg">
<path fill-rule="evenodd" clip-rule="evenodd" d="M9 4.75C8.9337 4.75 8.87011 4.77634 8.82322 4.82322C8.77634 4.87011 8.75 4.9337 8.75 5C8.75 5.72935 8.46027 6.42882 7.94454 6.94454C7.42882 7.46027 6.72935 7.75 6 7.75H5C4.66848 7.75 4.35054 7.8817 4.11612 8.11612C3.8817 8.35054 3.75 8.66848 3.75 9V18C3.75 18.3315 3.8817 18.6495 4.11612 18.8839C4.35054 19.1183 4.66848 19.25 5 19.25H19C19.3315 19.25 19.6495 19.1183 19.8839 18.8839C20.1183 18.6495 20.25 18.3315 20.25 18V9C20.25 8.66848 20.1183 8.35054 19.8839 8.11612C19.6495 7.8817 19.3315 7.75 19 7.75H18C17.2707 7.75 16.5712 7.46027 16.0555 6.94454C15.5397 6.42882 15.25 5.72935 15.25 5C15.25 4.9337 15.2237 4.87011 15.1768 4.82322C15.1299 4.77634 15.0663 4.75 15 4.75H9ZM5 6.25C4.27065 6.25 3.57118 6.53973 3.05546 7.05546C2.53973 7.57118 2.25 8.27065 2.25 9V18C2.25 18.7293 2.53973 19.4288 3.05546 19.9445C3.57118 20.4603 4.27065 20.75 5 20.75H19C19.7293 20.75 20.4288 20.4603 20.9445 19.9445C21.4603 19.4288 21.75 18.7293 21.75 18V9C21.75 8.27065 21.4603 7.57118 20.9445 7.05546C20.4288 6.53973 19.7293 6.25 19 6.25H18C17.6685 6.25 17.3505 6.1183 17.1161 5.88388C16.8817 5.64946 16.75 5.33152 16.75 5C16.75 4.53587 16.5656 4.09075 16.2374 3.76256C15.9092 3.43438 15.4641 3.25 15 3.25H9C8.53587 3.25 8.09075 3.43438 7.76256 3.76256C7.43437 4.09075 7.25 4.53587 7.25 5C7.25 5.33152 7.1183 5.64946 6.88388 5.88388C6.64946 6.1183 6.33152 6.25 6 6.25H5Z" fill="currentColor"/>
<path fill-rule="evenodd" clip-rule="evenodd" d="M12 10.75C10.7574 10.75 9.75 11.7574 9.75 13C9.75 14.2426 10.7574 15.25 12 15.25C13.2426 15.25 14.25 14.2426 14.25 13C14.25 11.7574 13.2426 10.75 12 10.75ZM8.25 13C8.25 10.9289 9.92893 9.25 12 9.25C14.0711 9.25 15.75 10.9289 15.75 13C15.75 15.0711 14.0711 16.75 12 16.75C9.92893 16.75 8.25 15.0711 8.25 13Z" fill="currentColor"/>
</svg>
