<svg width="24" height="24" viewBox="0 0 24 24" fill="none" xmlns="http://www.w3.org/2000/svg">
<path fill-rule="evenodd" clip-rule="evenodd" d="M4.99992 7.75C4.30956 7.75 3.74992 8.30964 3.74992 9V18C3.74992 18.6904 4.30956 19.25 4.99992 19.25H18.9999C19.6903 19.25 20.2499 18.6904 20.2499 18V9C20.2499 8.30964 19.6903 7.75 18.9999 7.75H4.99992ZM2.24992 9C2.24992 7.48122 3.48114 6.25 4.99992 6.25H18.9999C20.5187 6.25 21.7499 7.48122 21.7499 9V18C21.7499 19.5188 20.5187 20.75 18.9999 20.75H4.99992C3.48114 20.75 2.24992 19.5188 2.24992 18V9Z" fill="currentColor"/>
<path fill-rule="evenodd" clip-rule="evenodd" d="M9.99992 3.75C9.6684 3.75 9.35046 3.8817 9.11603 4.11612C8.88161 4.35054 8.74992 4.66848 8.74992 5V7C8.74992 7.41421 8.41413 7.75 7.99992 7.75C7.5857 7.75 7.24992 7.41421 7.24992 7V5C7.24992 4.27065 7.53965 3.57118 8.05538 3.05546C8.5711 2.53973 9.27057 2.25 9.99992 2.25H13.9999C14.7293 2.25 15.4287 2.53973 15.9445 3.05546C16.4602 3.57118 16.7499 4.27065 16.7499 5V7C16.7499 7.41421 16.4141 7.75 15.9999 7.75C15.5857 7.75 15.2499 7.41421 15.2499 7V5C15.2499 4.66848 15.1182 4.35054 14.8838 4.11612C14.6494 3.8817 14.3314 3.75 13.9999 3.75H9.99992Z" fill="currentColor"/>
<path fill-rule="evenodd" clip-rule="evenodd" d="M11.9999 11C12.5522 11 12.9999 11.4477 12.9999 12V12.01C12.9999 12.5623 12.5522 13.01 11.9999 13.01C11.4476 13.01 10.9999 12.5623 10.9999 12.01V12C10.9999 11.4477 11.4476 11 11.9999 11Z" fill="currentColor"/>
<path fill-rule="evenodd" clip-rule="evenodd" d="M2.33015 12.6625C2.51654 12.2926 2.96751 12.1438 3.33742 12.3302C6.02432 13.6842 8.99117 14.3894 11.9999 14.3894C15.0087 14.3894 17.9755 13.6842 20.6624 12.3302C21.0323 12.1438 21.4833 12.2926 21.6697 12.6625C21.8561 13.0324 21.7073 13.4834 21.3374 13.6698C18.4412 15.1292 15.2431 15.8894 11.9999 15.8894C8.75672 15.8894 5.55868 15.1292 2.66242 13.6698C2.29251 13.4834 2.14375 13.0324 2.33015 12.6625Z" fill="currentColor"/>
</svg>
