<svg width="25" height="24" viewBox="0 0 25 24" fill="none" xmlns="http://www.w3.org/2000/svg">
<path fill-rule="evenodd" clip-rule="evenodd" d="M4.375 12.75C4.23693 12.75 4.125 12.8619 4.125 13V19C4.125 19.1381 4.23693 19.25 4.375 19.25H8.375C8.51307 19.25 8.625 19.1381 8.625 19V13C8.625 12.8619 8.51307 12.75 8.375 12.75H4.375ZM2.625 13C2.625 12.0335 3.4085 11.25 4.375 11.25H8.375C9.3415 11.25 10.125 12.0335 10.125 13V19C10.125 19.9665 9.3415 20.75 8.375 20.75H4.375C3.4085 20.75 2.625 19.9665 2.625 19V13Z" fill="currentColor"/>
<path fill-rule="evenodd" clip-rule="evenodd" d="M10.375 8.75C10.2369 8.75 10.125 8.86193 10.125 9V19C10.125 19.1381 10.2369 19.25 10.375 19.25H14.375C14.5131 19.25 14.625 19.1381 14.625 19V9C14.625 8.86193 14.5131 8.75 14.375 8.75H10.375ZM8.625 9C8.625 8.0335 9.4085 7.25 10.375 7.25H14.375C15.3415 7.25 16.125 8.0335 16.125 9V19C16.125 19.9665 15.3415 20.75 14.375 20.75H10.375C9.4085 20.75 8.625 19.9665 8.625 19V9Z" fill="currentColor"/>
<path fill-rule="evenodd" clip-rule="evenodd" d="M16.375 4.75C16.2369 4.75 16.125 4.86193 16.125 5V19C16.125 19.1381 16.2369 19.25 16.375 19.25H20.375C20.5131 19.25 20.625 19.1381 20.625 19V5C20.625 4.86193 20.5131 4.75 20.375 4.75H16.375ZM14.625 5C14.625 4.0335 15.4085 3.25 16.375 3.25H20.375C21.3415 3.25 22.125 4.0335 22.125 5V19C22.125 19.9665 21.3415 20.75 20.375 20.75H16.375C15.4085 20.75 14.625 19.9665 14.625 19V5Z" fill="currentColor"/>
<path fill-rule="evenodd" clip-rule="evenodd" d="M3.625 20C3.625 19.5858 3.96079 19.25 4.375 19.25H18.375C18.7892 19.25 19.125 19.5858 19.125 20C19.125 20.4142 18.7892 20.75 18.375 20.75H4.375C3.96079 20.75 3.625 20.4142 3.625 20Z" fill="currentColor"/>
</svg>
