<svg width="24" height="24" viewBox="0 0 24 24" fill="none" xmlns="http://www.w3.org/2000/svg">
<path d="M4.095 20.055L7.266 18.9975L7.821 19.275C9.096 19.911 10.5135 20.25 12 20.25C16.965 20.25 21 16.341 21 12C21 7.659 16.965 3.75 12 3.75C7.035 3.75 3 7.659 3 12C3 13.62 3.585 15.264 4.6605 16.6695L5.178 17.3445L4.0935 20.0535L4.095 20.055ZM3.0345 21.99C2.89876 22.0355 2.75284 22.0412 2.61397 22.0064C2.47511 21.9716 2.3491 21.8978 2.25084 21.7937C2.15257 21.6896 2.08615 21.5595 2.05942 21.4189C2.03269 21.2782 2.04677 21.1329 2.1 21L3.468 17.58C2.22 15.945 1.5 13.989 1.5 12C1.5 7.029 6 2.25 12 2.25C18 2.25 22.5 7.029 22.5 12C22.5 16.971 18 21.75 12 21.75C10.3173 21.7547 8.65665 21.3664 7.1505 20.616L3.0345 21.9885V21.99Z" fill="currentColor"/>
<path d="M12 13.2C11.8424 13.2 11.6864 13.169 11.5408 13.1087C11.3952 13.0483 11.2629 12.96 11.1515 12.8485C11.04 12.7371 10.9516 12.6048 10.8913 12.4592C10.831 12.3136 10.8 12.1576 10.8 12C10.8 11.8424 10.831 11.6864 10.8913 11.5408C10.9516 11.3952 11.04 11.2629 11.1515 11.1515C11.2629 11.04 11.3952 10.9516 11.5408 10.8913C11.6864 10.831 11.8424 10.8 12 10.8C12.3183 10.8 12.6235 10.9264 12.8485 11.1515C13.0736 11.3765 13.2 11.6817 13.2 12C13.2 12.3183 13.0736 12.6235 12.8485 12.8485C12.6235 13.0736 12.3183 13.2 12 13.2ZM16.5 13.2C16.3424 13.2 16.1864 13.169 16.0408 13.1087C15.8952 13.0483 15.7629 12.96 15.6515 12.8485C15.54 12.7371 15.4517 12.6048 15.3913 12.4592C15.331 12.3136 15.3 12.1576 15.3 12C15.3 11.8424 15.331 11.6864 15.3913 11.5408C15.4517 11.3952 15.54 11.2629 15.6515 11.1515C15.7629 11.04 15.8952 10.9516 16.0408 10.8913C16.1864 10.831 16.3424 10.8 16.5 10.8C16.8183 10.8 17.1235 10.9264 17.3485 11.1515C17.5736 11.3765 17.7 11.6817 17.7 12C17.7 12.3183 17.5736 12.6235 17.3485 12.8485C17.1235 13.0736 16.8183 13.2 16.5 13.2ZM7.5 13.2C7.34241 13.2 7.18637 13.169 7.04078 13.1087C6.89519 13.0483 6.7629 12.96 6.65147 12.8485C6.54004 12.7371 6.45165 12.6048 6.39134 12.4592C6.33104 12.3136 6.3 12.1576 6.3 12C6.3 11.8424 6.33104 11.6864 6.39134 11.5408C6.45165 11.3952 6.54004 11.2629 6.65147 11.1515C6.7629 11.04 6.89519 10.9516 7.04078 10.8913C7.18637 10.831 7.34241 10.8 7.5 10.8C7.81826 10.8 8.12348 10.9264 8.34853 11.1515C8.57357 11.3765 8.7 11.6817 8.7 12C8.7 12.3183 8.57357 12.6235 8.34853 12.8485C8.12348 13.0736 7.81826 13.2 7.5 13.2Z" fill="currentColor"/>
</svg>
