<svg width="24" height="24" viewBox="0 0 24 24" fill="none" xmlns="http://www.w3.org/2000/svg">
<path fill-rule="evenodd" clip-rule="evenodd" d="M12 4.75C7.99562 4.75 4.75 7.99562 4.75 12C4.75 16.0044 7.99562 19.25 12 19.25C16.0044 19.25 19.25 16.0044 19.25 12C19.25 7.99562 16.0044 4.75 12 4.75ZM3.25 12C3.25 7.16719 7.16719 3.25 12 3.25C16.8328 3.25 20.75 7.16719 20.75 12C20.75 16.8328 16.8328 20.75 12 20.75C7.16719 20.75 3.25 16.8328 3.25 12ZM11.7054 7.65625C12.1196 7.65625 12.4554 7.99204 12.4554 8.40625V12.1723L15.3501 13.8992C15.7059 14.1114 15.8222 14.5718 15.61 14.9276C15.3978 15.2833 14.9374 15.3996 14.5817 15.1874L11.3211 13.2423C11.0943 13.107 10.9554 12.8624 10.9554 12.5983V8.40625C10.9554 7.99204 11.2911 7.65625 11.7054 7.65625Z" fill="currentColor"/>
</svg>
