<svg width="32" height="32" viewBox="0 0 32 32" fill="none" xmlns="http://www.w3.org/2000/svg">
<g filter="url(#filter0_b_34_963)">
<circle cx="16" cy="16" r="16" fill="white" fill-opacity="0.2"/>
</g>
<path d="M18.0046 16L21.7077 12.297C22.0974 11.9072 22.0974 11.2947 21.7077 10.9327L21.0673 10.2923C20.6775 9.90255 20.065 9.90255 19.703 10.2923L16 13.9954L12.297 10.2923C11.9072 9.90255 11.2947 9.90255 10.9327 10.2923L10.2923 10.9327C9.90255 11.3225 9.90255 11.935 10.2923 12.297L13.9954 16L10.2923 19.703C9.90255 20.0928 9.90255 20.7053 10.2923 21.0673L10.9327 21.7077C11.3225 22.0974 11.935 22.0974 12.297 21.7077L16 18.0046L19.703 21.7077C20.0928 22.0974 20.7053 22.0974 21.0673 21.7077L21.7077 21.0673C22.0974 20.6775 22.0974 20.065 21.7077 19.703L18.0046 16Z" fill="white"/>
<defs>
<filter id="filter0_b_34_963" x="-28" y="-28" width="88" height="88" filterUnits="userSpaceOnUse" color-interpolation-filters="sRGB">
<feFlood flood-opacity="0" result="BackgroundImageFix"/>
<feGaussianBlur in="BackgroundImageFix" stdDeviation="14"/>
<feComposite in2="SourceAlpha" operator="in" result="effect1_backgroundBlur_34_963"/>
<feBlend mode="normal" in="SourceGraphic" in2="effect1_backgroundBlur_34_963" result="shape"/>
</filter>
</defs>
</svg>
