<svg width="16" height="16" viewBox="0 0 16 16" fill="none" xmlns="http://www.w3.org/2000/svg">
<path fill-rule="evenodd" clip-rule="evenodd" d="M2.86193 2.86193C3.12228 2.60158 3.54439 2.60158 3.80474 2.86193L7.99995 7.05714L12.1923 2.86568C12.4527 2.60535 12.8748 2.6054 13.1351 2.86578C13.3954 3.12615 13.3954 3.54826 13.135 3.80858L8.94276 7.99994L13.1381 12.1953C13.3984 12.4556 13.3984 12.8777 13.1381 13.1381C12.8777 13.3984 12.4556 13.3984 12.1953 13.1381L7.99985 8.94266L3.80944 13.1322C3.54907 13.3925 3.12696 13.3925 2.86664 13.1321C2.60631 12.8717 2.60636 12.4496 2.86673 12.1893L7.05704 7.99985L2.86193 3.80474C2.60158 3.54439 2.60158 3.12228 2.86193 2.86193Z" fill="currentColor"/>
</svg>
