<svg width="24" height="24" viewBox="0 0 24 24" fill="none" xmlns="http://www.w3.org/2000/svg">
<path fill-rule="evenodd" clip-rule="evenodd" d="M6.79289 6.29289C7.18342 5.90237 7.81658 5.90237 8.20711 6.29289L12.5 10.5858L16.7897 6.29689C17.1803 5.90641 17.8134 5.90647 18.2039 6.29704C18.5944 6.6876 18.5943 7.32077 18.2038 7.71125L13.9142 12L18.2071 16.2929C18.5976 16.6834 18.5976 17.3166 18.2071 17.7071C17.8166 18.0976 17.1834 18.0976 16.7929 17.7071L12.4998 13.414L8.21212 17.7008C7.82156 18.0913 7.18839 18.0912 6.79791 17.7007C6.40743 17.3101 6.40749 16.677 6.79806 16.2865L11.0856 11.9998L6.79289 7.70711C6.40237 7.31658 6.40237 6.68342 6.79289 6.29289Z" fill="currentColor"/>
</svg>
