<svg width="16" height="16" viewBox="0 0 16 16" fill="none" xmlns="http://www.w3.org/2000/svg">
<path fill-rule="evenodd" clip-rule="evenodd" d="M4.41854 2.2334H11.5815V3.4883H14.1V5.17654C14.1 6.8034 12.777 8.11967 11.1482 8.11967H10.7263C10.1575 8.78456 9.34829 9.23864 8.43336 9.34869V10.3903H9.25928C10.1927 10.3903 10.9519 11.1447 10.9519 12.0785V13.7667H5.04817V12.0785C5.04817 11.1447 5.80739 10.3903 6.74077 10.3903H7.56669V9.34869C6.65176 9.23864 5.84259 8.78456 5.27377 8.11967H4.85188C3.22303 8.11967 1.90002 6.8034 1.90002 5.17654V3.4883H4.41854V2.2334ZM4.41854 4.35497H2.76669V5.17654C2.76669 6.27926 3.63069 7.18334 4.72398 7.24917C4.52764 6.80744 4.41854 6.3185 4.41854 5.80399V4.35497ZM11.2761 7.24917C12.3694 7.18334 13.2334 6.27926 13.2334 5.17654V4.35497H11.5815V5.80399C11.5815 6.3185 11.4724 6.80744 11.2761 7.24917ZM5.28521 3.10007V5.80399C5.28521 7.29591 6.49926 8.50791 8.00002 8.50791C9.50079 8.50791 10.7148 7.29591 10.7148 5.80399V3.10007H5.28521ZM6.74077 11.2569C6.2832 11.2569 5.91484 11.6262 5.91484 12.0785V12.9001H10.0852V12.0785C10.0852 11.6262 9.71685 11.2569 9.25928 11.2569H6.74077Z" fill="white"/>
</svg>
