<svg width="16" height="16" viewBox="0 0 16 16" fill="none" xmlns="http://www.w3.org/2000/svg">
<path fill-rule="evenodd" clip-rule="evenodd" d="M2.66663 10.8333C2.94277 10.8333 3.16663 11.0572 3.16663 11.3333V12.6667C3.16663 12.8877 3.25442 13.0996 3.4107 13.2559C3.56698 13.4122 3.77895 13.5 3.99996 13.5H12C12.221 13.5 12.4329 13.4122 12.5892 13.2559C12.7455 13.0996 12.8333 12.8877 12.8333 12.6667V11.3333C12.8333 11.0572 13.0572 10.8333 13.3333 10.8333C13.6094 10.8333 13.8333 11.0572 13.8333 11.3333V12.6667C13.8333 13.1529 13.6401 13.6192 13.2963 13.963C12.9525 14.3068 12.4862 14.5 12 14.5H3.99996C3.51373 14.5 3.04741 14.3068 2.7036 13.963C2.35978 13.6192 2.16663 13.1529 2.16663 12.6667V11.3333C2.16663 11.0572 2.39048 10.8333 2.66663 10.8333Z" fill="currentColor"/>
<path fill-rule="evenodd" clip-rule="evenodd" d="M4.31307 6.97978C4.50833 6.78451 4.82492 6.78451 5.02018 6.97978L7.99996 9.95956L10.9797 6.97978C11.175 6.78451 11.4916 6.78451 11.6868 6.97978C11.8821 7.17504 11.8821 7.49162 11.6868 7.68688L8.35351 11.0202C8.15825 11.2155 7.84167 11.2155 7.64641 11.0202L4.31307 7.68688C4.11781 7.49162 4.11781 7.17504 4.31307 6.97978Z" fill="currentColor"/>
<path fill-rule="evenodd" clip-rule="evenodd" d="M7.99996 2.16666C8.2761 2.16666 8.49996 2.39052 8.49996 2.66666V10.6667C8.49996 10.9428 8.2761 11.1667 7.99996 11.1667C7.72382 11.1667 7.49996 10.9428 7.49996 10.6667V2.66666C7.49996 2.39052 7.72382 2.16666 7.99996 2.16666Z" fill="currentColor"/>
</svg>
