<svg width="24" height="24" viewBox="0 0 24 24" fill="none" xmlns="http://www.w3.org/2000/svg">
<path d="M12.304 5.12814C14.2322 6.09065 17.2731 8.25762 17.7993 12.5141C18.2627 16.2624 15.5771 18.8807 12.7039 19.2459L12.6323 19.255C12.5707 19.272 12.517 19.2788 12.4633 19.2857C12.4454 19.2879 12.4275 19.2902 12.4096 19.2925C9.45581 19.6679 6.7417 17.57 6.23713 14.5184C5.96243 12.8848 6.37585 11.2283 7.34663 9.9618C7.7229 10.8727 8.19654 11.8357 8.76071 12.5015L9.3898 13.2512L10.0754 12.5464C11.515 11.1005 12.2604 8.59976 12.304 5.12814ZM11.3972 3.75003C11.3256 3.75914 11.9049 9.40085 9.43185 11.8999C8.67515 11.0005 8.04238 9.3387 7.68733 8.30529C5.83828 9.82166 4.93952 12.2589 5.34653 14.6685C5.93967 18.2159 9.12047 20.6324 12.5218 20.2001C12.6203 20.1875 12.7187 20.175 12.8161 20.1534C16.8082 19.646 19.1466 16.0578 18.6944 12.4003C18.1031 7.61746 14.469 4.84374 11.3972 3.75003Z" fill="currentColor"/>
<path fill-rule="evenodd" clip-rule="evenodd" d="M11.4248 3.49451L11.481 3.51452C14.6074 4.62765 18.3357 7.46138 18.9425 12.3697C19.4092 16.1445 16.9961 19.868 12.8587 20.4C12.7539 20.4226 12.6501 20.4358 12.558 20.4475L12.5533 20.4481C9.01193 20.8982 5.71418 18.3826 5.09998 14.7099C4.67849 12.2141 5.60881 9.68653 7.5288 8.11198L7.8069 7.88391L7.92376 8.22405C8.10009 8.73727 8.34416 9.40288 8.63676 10.0498C8.88231 10.5928 9.15702 11.1112 9.44812 11.5138C10.4786 10.3169 10.9038 8.48333 11.0663 6.86624C11.1517 6.01653 11.1632 5.24221 11.1577 4.67832C11.1553 4.43918 11.1499 4.23867 11.1458 4.08501C11.145 4.05742 11.1443 4.03135 11.1437 4.00683C11.1416 3.92769 11.1402 3.86116 11.1405 3.81387C11.1406 3.79145 11.1412 3.7657 11.1435 3.74275C11.1444 3.7332 11.1468 3.71099 11.1539 3.686C11.1571 3.67475 11.1655 3.6471 11.1849 3.61674C11.2016 3.59058 11.2568 3.51587 11.3657 3.50203L11.4248 3.49451ZM11.5638 6.91624C11.3897 8.64912 10.9106 10.761 9.60955 12.0758L9.41688 12.2705L9.24055 12.0609C8.83987 11.5846 8.48126 10.9194 8.18118 10.2559C7.94309 9.72943 7.73731 9.19373 7.57328 8.73558C5.98019 10.2032 5.22122 12.4256 5.59303 14.6268C6.1652 18.0488 9.22907 20.3666 12.4903 19.952C12.5906 19.9393 12.6777 19.9281 12.7619 19.9094L12.7732 19.9069L12.7846 19.9054C16.6246 19.4173 18.8836 15.9678 18.4463 12.431C17.8916 7.94404 14.5858 5.26113 11.6466 4.11014C11.6506 4.25879 11.6555 4.44981 11.6577 4.6734C11.6633 5.24799 11.6517 6.042 11.5638 6.91624ZM12.059 4.72644L12.4156 4.90446C14.3763 5.88315 17.5062 8.10569 18.0474 12.4834C18.5296 16.3837 15.7294 19.1133 12.7354 19.4939L12.6804 19.5009C12.6092 19.5191 12.5471 19.527 12.4988 19.5332L12.4411 19.5405C9.3459 19.9339 6.51581 17.7353 5.99054 14.5595C5.70465 12.8588 6.13458 11.1321 7.14822 9.80971L7.41209 9.46546L7.57769 9.86635C7.95203 10.7725 8.41368 11.7053 8.95144 12.3398L8.95222 12.3408L9.4035 12.8786L9.89827 12.37C11.2685 10.9937 12.0107 8.57489 12.054 5.12501L12.059 4.72644ZM12.5456 5.53569C12.4506 8.82359 11.703 11.2652 10.2537 12.7217L9.3761 13.6237L8.56998 12.6631C8.068 12.0706 7.64145 11.2634 7.29267 10.4725C6.54708 11.6287 6.24555 13.0609 6.48367 14.4769C6.96768 17.4043 9.56582 19.4019 12.3781 19.0445L12.4318 19.0376C12.4863 19.0307 12.5235 19.0257 12.5655 19.014L12.5829 19.0092L12.6724 18.9979C15.4248 18.648 17.9958 16.141 17.5512 12.5448C17.0707 8.65861 14.4349 6.55984 12.5456 5.53569Z" fill="currentColor"/>
</svg>
