<svg width="16" height="16" viewBox="0 0 16 16" fill="none" xmlns="http://www.w3.org/2000/svg">
<g clip-path="url(#clip0_1804_1763)">
<path d="M8.98708 0.478027L9.09658 3.94562L10.0821 0.478027H8.98708ZM5.99395 0.485465L5.93926 7.86193L0.610107 6.50787L4.0777 11.8028L1.30364 11.6411L4.87964 15.1523L3.49008 12.7814L5.84051 13.0312L4.22339 9.59562L7.66445 12.0942L7.26961 6.30581L7.26967 6.3059L9.62004 11.6362L11.9893 8.82528L11.7824 13.656L13.6628 12.4067L13.0257 14.8906L15.3931 10.4285L13.0205 10.4891L15.2288 4.87093L11.1225 7.15468L10.7392 2.78937L8.69514 7.17487L5.99405 0.485496H5.99395V0.485465ZM1.42198 1.37796L1.22986 2.37312L4.82142 6.8125H4.82148L2.39648 1.59887L1.42195 1.37793L1.42198 1.37796ZM14.6179 2.15221L13.6434 2.37315L12.2766 5.72847L14.81 3.14753L14.6179 2.15221H14.6179ZM8.72526 12.6128C7.46976 12.6128 6.45314 13.6296 6.45314 14.885C6.45314 15.0639 6.47301 15.2196 6.51211 15.3866C6.73867 14.3695 7.64014 13.6161 8.72523 13.6161C9.81336 13.6161 10.715 14.3652 10.9384 15.3866C10.9764 15.2217 10.9974 15.0615 10.9974 14.885C10.9974 13.6296 9.98061 12.6128 8.72517 12.6128L8.72526 12.6128Z" fill="white"/>
</g>
<defs>
<clipPath id="clip0_1804_1763">
<rect width="16" height="16" fill="white"/>
</clipPath>
</defs>
</svg>
