<svg width="24" height="24" viewBox="0 0 24 24" fill="none" xmlns="http://www.w3.org/2000/svg">
<path fill-rule="evenodd" clip-rule="evenodd" d="M6 13.75C5.30964 13.75 4.75 14.3096 4.75 15V17C4.75 17.6904 5.30964 18.25 6 18.25C6.69036 18.25 7.25 17.6904 7.25 17V15C7.25 14.3096 6.69036 13.75 6 13.75ZM3.25 15C3.25 13.4812 4.48122 12.25 6 12.25C7.51878 12.25 8.75 13.4812 8.75 15V17C8.75 18.5188 7.51878 19.75 6 19.75C4.48122 19.75 3.25 18.5188 3.25 17V15Z" fill="currentColor"/>
<path fill-rule="evenodd" clip-rule="evenodd" d="M18 13.75C17.3096 13.75 16.75 14.3096 16.75 15V17C16.75 17.6904 17.3096 18.25 18 18.25C18.6904 18.25 19.25 17.6904 19.25 17V15C19.25 14.3096 18.6904 13.75 18 13.75ZM15.25 15C15.25 13.4812 16.4812 12.25 18 12.25C19.5188 12.25 20.75 13.4812 20.75 15V17C20.75 18.5188 19.5188 19.75 18 19.75C16.4812 19.75 15.25 18.5188 15.25 17V15Z" fill="currentColor"/>
<path fill-rule="evenodd" clip-rule="evenodd" d="M12 4.75C10.0772 4.75 8.23311 5.51384 6.87348 6.87348C5.51384 8.23311 4.75 10.0772 4.75 12V15C4.75 15.4142 4.41421 15.75 4 15.75C3.58579 15.75 3.25 15.4142 3.25 15V12C3.25 9.67936 4.17187 7.45376 5.81282 5.81282C7.45376 4.17187 9.67936 3.25 12 3.25C14.3206 3.25 16.5462 4.17187 18.1872 5.81282C19.8281 7.45376 20.75 9.67936 20.75 12V15C20.75 15.4142 20.4142 15.75 20 15.75C19.5858 15.75 19.25 15.4142 19.25 15V12C19.25 10.0772 18.4862 8.23311 17.1265 6.87348C15.7669 5.51384 13.9228 4.75 12 4.75Z" fill="currentColor"/>
<path fill-rule="evenodd" clip-rule="evenodd" d="M18 18.25C18.4142 18.25 18.75 18.5858 18.75 19C18.75 20.2236 17.7962 21.1831 16.5781 21.7921C15.3248 22.4188 13.6777 22.75 12 22.75C11.5858 22.75 11.25 22.4142 11.25 22C11.25 21.5858 11.5858 21.25 12 21.25C13.5049 21.25 14.91 20.9491 15.9072 20.4505C16.9395 19.9344 17.25 19.3677 17.25 19C17.25 18.5858 17.5858 18.25 18 18.25Z" fill="currentColor"/>
</svg>
