<svg width="25" height="24" viewBox="0 0 25 24" fill="none" xmlns="http://www.w3.org/2000/svg">
<path fill-rule="evenodd" clip-rule="evenodd" d="M11.9697 2.46967C12.2626 2.17678 12.7375 2.17678 13.0304 2.46967L22.0304 11.4697C22.2449 11.6842 22.309 12.0068 22.1929 12.287C22.0768 12.5673 21.8034 12.75 21.5 12.75H19.5C19.0858 12.75 18.75 12.4142 18.75 12C18.75 11.5858 19.0858 11.25 19.5 11.25H19.6894L12.5 4.06066L5.31068 11.25H5.50002C5.91424 11.25 6.25002 11.5858 6.25002 12C6.25002 12.4142 5.91424 12.75 5.50002 12.75H3.50002C3.19668 12.75 2.9232 12.5673 2.80711 12.287C2.69103 12.0068 2.75519 11.6842 2.96969 11.4697L11.9697 2.46967Z" fill="currentColor"/>
<path fill-rule="evenodd" clip-rule="evenodd" d="M5.50002 11.25C5.91424 11.25 6.25002 11.5858 6.25002 12V19C6.25002 19.3315 6.38172 19.6495 6.61614 19.8839C6.85056 20.1183 7.1685 20.25 7.50002 20.25H17.5C17.8315 20.25 18.1495 20.1183 18.3839 19.8839C18.6183 19.6495 18.75 19.3315 18.75 19V12C18.75 11.5858 19.0858 11.25 19.5 11.25C19.9142 11.25 20.25 11.5858 20.25 12V19C20.25 19.7293 19.9603 20.4288 19.4446 20.9445C18.9288 21.4603 18.2294 21.75 17.5 21.75H7.50002C6.77068 21.75 6.0712 21.4603 5.55548 20.9445C5.03975 20.4288 4.75002 19.7293 4.75002 19V12C4.75002 11.5858 5.08581 11.25 5.50002 11.25Z" fill="currentColor"/>
<path fill-rule="evenodd" clip-rule="evenodd" d="M11.5 13.75C11.1685 13.75 10.8506 13.8817 10.6161 14.1161C10.3817 14.3505 10.25 14.6685 10.25 15V21C10.25 21.4142 9.91424 21.75 9.50002 21.75C9.08581 21.75 8.75002 21.4142 8.75002 21V15C8.75002 14.2707 9.03975 13.5712 9.55548 13.0555C10.0712 12.5397 10.7707 12.25 11.5 12.25H13.5C14.2294 12.25 14.9288 12.5397 15.4446 13.0555C15.9603 13.5712 16.25 14.2707 16.25 15V21C16.25 21.4142 15.9142 21.75 15.5 21.75C15.0858 21.75 14.75 21.4142 14.75 21V15C14.75 14.6685 14.6183 14.3505 14.3839 14.1161C14.1495 13.8817 13.8315 13.75 13.5 13.75H11.5Z" fill="currentColor"/>
</svg>
