<svg width="25" height="24" viewBox="0 0 25 24" fill="none" xmlns="http://www.w3.org/2000/svg">
<path fill-rule="evenodd" clip-rule="evenodd" d="M12.875 3.75C8.31865 3.75 4.625 7.44365 4.625 12C4.625 16.5563 8.31865 20.25 12.875 20.25C17.4313 20.25 21.125 16.5563 21.125 12C21.125 7.44365 17.4313 3.75 12.875 3.75ZM3.125 12C3.125 6.61522 7.49022 2.25 12.875 2.25C18.2598 2.25 22.625 6.61522 22.625 12C22.625 17.3848 18.2598 21.75 12.875 21.75C7.49022 21.75 3.125 17.3848 3.125 12Z" fill="currentColor"/>
<path fill-rule="evenodd" clip-rule="evenodd" d="M12.125 8C12.125 7.58579 12.4608 7.25 12.875 7.25H12.885C13.2992 7.25 13.635 7.58579 13.635 8C13.635 8.41421 13.2992 8.75 12.885 8.75H12.875C12.4608 8.75 12.125 8.41421 12.125 8Z" fill="currentColor"/>
<path fill-rule="evenodd" clip-rule="evenodd" d="M11.125 12C11.125 11.5858 11.4608 11.25 11.875 11.25H12.875C13.2892 11.25 13.625 11.5858 13.625 12V15.25H13.875C14.2892 15.25 14.625 15.5858 14.625 16C14.625 16.4142 14.2892 16.75 13.875 16.75H12.875C12.4608 16.75 12.125 16.4142 12.125 16V12.75H11.875C11.4608 12.75 11.125 12.4142 11.125 12Z" fill="currentColor"/>
</svg>
