<svg width="24" height="24" viewBox="0 0 24 24" fill="none" xmlns="http://www.w3.org/2000/svg">
<path fill-rule="evenodd" clip-rule="evenodd" d="M13.4696 4.46968C14.2733 3.66599 15.3633 3.21448 16.4999 3.21448C17.6365 3.21448 18.7265 3.66599 19.5302 4.46968C20.3339 5.27338 20.7854 6.36342 20.7854 7.50001C20.7854 8.63661 20.3339 9.72665 19.5302 10.5303L15.5328 14.5277C15.1377 14.9303 14.6663 15.2501 14.1463 15.4687C13.625 15.6877 13.0653 15.8005 12.4999 15.8005C11.9345 15.8005 11.3747 15.6877 10.8535 15.4687C10.3322 15.2496 9.85989 14.9288 9.46418 14.5249C9.17429 14.229 9.17913 13.7542 9.475 13.4643C9.77087 13.1744 10.2457 13.1793 10.5356 13.4751C10.7917 13.7364 11.0973 13.9441 11.4346 14.0858C11.7719 14.2275 12.134 14.3005 12.4999 14.3005C12.8657 14.3005 13.2279 14.2275 13.5652 14.0858C13.9025 13.9441 14.2081 13.7364 14.4642 13.4751L14.4695 13.4697L18.4696 9.46968C18.9919 8.94729 19.2854 8.23878 19.2854 7.50001C19.2854 6.76124 18.9919 6.05273 18.4696 5.53034C17.9472 5.00795 17.2387 4.71448 16.4999 4.71448C15.7611 4.71448 15.0526 5.00795 14.5302 5.53034L14.0302 6.03034C13.7373 6.32323 13.2625 6.32323 12.9696 6.03034C12.6767 5.73745 12.6767 5.26257 12.9696 4.96968L13.4696 4.46968Z" fill="currentColor"/>
<path fill-rule="evenodd" clip-rule="evenodd" d="M9.85347 8.53136C10.3747 8.31233 10.9345 8.1995 11.4999 8.1995C12.0653 8.1995 12.625 8.31233 13.1463 8.53136C13.6676 8.7504 14.1399 9.07125 14.5356 9.47512C14.8255 9.77099 14.8206 10.2458 14.5248 10.5357C14.2289 10.8256 13.7541 10.8208 13.4642 10.5249C13.2081 10.2636 12.9025 10.056 12.5652 9.91424C12.2279 9.7725 11.8657 9.6995 11.4999 9.6995C11.134 9.6995 10.7719 9.7725 10.4346 9.91424C10.0973 10.056 9.79165 10.2636 9.5356 10.5249L9.53025 10.5304L5.53022 14.5303C5.00783 15.0527 4.71436 15.7612 4.71436 16.5C4.71436 17.2388 5.00783 17.9473 5.53022 18.4697C6.05261 18.9921 6.76112 19.2855 7.49989 19.2855C8.23866 19.2855 8.94717 18.9921 9.46956 18.4697L9.96956 17.9697C10.2625 17.6768 10.7373 17.6768 11.0302 17.9697C11.3231 18.2626 11.3231 18.7374 11.0302 19.0303L10.5302 19.5303C9.72653 20.334 8.63648 20.7855 7.49989 20.7855C6.3633 20.7855 5.27325 20.334 4.46956 19.5303C3.66587 18.7266 3.21436 17.6366 3.21436 16.5C3.21436 15.3634 3.66587 14.2734 4.46956 13.4697L8.467 9.47225C8.86213 9.06973 9.33344 8.74988 9.85347 8.53136Z" fill="currentColor"/>
</svg>
