<svg width="24" height="24" viewBox="0 0 24 24" fill="none" xmlns="http://www.w3.org/2000/svg">
<path fill-rule="evenodd" clip-rule="evenodd" d="M7 3.75C6.66848 3.75 6.35054 3.8817 6.11612 4.11612C5.8817 4.35054 5.75 4.66848 5.75 5V19.5986L7.58397 18.376C7.88144 18.1777 8.27753 18.2169 8.53033 18.4697L10 19.9393L11.4697 18.4697C11.7626 18.1768 12.2374 18.1768 12.5303 18.4697L14 19.9393L15.4697 18.4697C15.7225 18.2169 16.1186 18.1777 16.416 18.376L18.25 19.5986V5C18.25 4.66848 18.1183 4.35054 17.8839 4.11612C17.6495 3.8817 17.3315 3.75 17 3.75H7ZM5.05546 3.05546C5.57118 2.53973 6.27065 2.25 7 2.25H17C17.7293 2.25 18.4288 2.53973 18.9445 3.05546C19.4603 3.57118 19.75 4.27065 19.75 5V21C19.75 21.2766 19.5978 21.5307 19.3539 21.6613C19.11 21.7918 18.8141 21.7775 18.584 21.624L16.0956 19.9651L14.5303 21.5303C14.2374 21.8232 13.7626 21.8232 13.4697 21.5303L12 20.0607L10.5303 21.5303C10.2374 21.8232 9.76256 21.8232 9.46967 21.5303L7.90444 19.9651L5.41603 21.624C5.18588 21.7775 4.88997 21.7918 4.64611 21.6613C4.40224 21.5307 4.25 21.2766 4.25 21V5C4.25 4.27065 4.53973 3.57118 5.05546 3.05546ZM8.25 7C8.25 6.58579 8.58579 6.25 9 6.25H15C15.4142 6.25 15.75 6.58579 15.75 7C15.75 7.41421 15.4142 7.75 15 7.75H9C8.58579 7.75 8.25 7.41421 8.25 7ZM8.25 11C8.25 10.5858 8.58579 10.25 9 10.25H15C15.4142 10.25 15.75 10.5858 15.75 11C15.75 11.4142 15.4142 11.75 15 11.75H9C8.58579 11.75 8.25 11.4142 8.25 11ZM12.25 15C12.25 14.5858 12.5858 14.25 13 14.25H15C15.4142 14.25 15.75 14.5858 15.75 15C15.75 15.4142 15.4142 15.75 15 15.75H13C12.5858 15.75 12.25 15.4142 12.25 15Z" fill="currentColor"/>
</svg>
