<svg width="24" height="24" viewBox="0 0 24 24" fill="none" xmlns="http://www.w3.org/2000/svg">
<path fill-rule="evenodd" clip-rule="evenodd" d="M11.9999 11.25C12.4142 11.25 12.7499 11.5858 12.7499 12V12.01C12.7499 12.4242 12.4142 12.76 11.9999 12.76C11.5857 12.76 11.2499 12.4242 11.2499 12.01V12C11.2499 11.5858 11.5857 11.25 11.9999 11.25Z" fill="currentColor"/>
<path fill-rule="evenodd" clip-rule="evenodd" d="M14.2977 8.64161C14.5906 8.34876 15.0655 8.34883 15.3584 8.64177C16.2488 9.53252 16.7491 10.7405 16.7491 12C16.7491 13.2595 16.2488 14.4675 15.3584 15.3583C15.0655 15.6512 14.5906 15.6513 14.2977 15.3584C14.0048 15.0656 14.0047 14.5907 14.2975 14.2978C14.9068 13.6883 15.2491 12.8618 15.2491 12C15.2491 11.1382 14.9068 10.3117 14.2975 9.70227C14.0047 9.40933 14.0048 8.93446 14.2977 8.64161Z" fill="currentColor"/>
<path fill-rule="evenodd" clip-rule="evenodd" d="M17.1266 5.8127C17.4195 5.5198 17.8944 5.51979 18.1873 5.81267C18.9998 6.62519 19.6444 7.58981 20.0841 8.65143C20.5239 9.71306 20.7502 10.8509 20.7502 12C20.7502 13.1491 20.5239 14.287 20.0841 15.3486C19.6444 16.4102 18.9998 17.3748 18.1873 18.1874C17.8944 18.4802 17.4195 18.4802 17.1266 18.1873C16.8337 17.8944 16.8337 17.4196 17.1266 17.1267C17.7999 16.4534 18.334 15.6542 18.6983 14.7746C19.0627 13.8949 19.2502 12.9521 19.2502 12C19.2502 11.0479 19.0627 10.1051 18.6983 9.22548C18.334 8.34584 17.7999 7.54659 17.1266 6.87336C16.8337 6.58048 16.8337 6.1056 17.1266 5.8127Z" fill="currentColor"/>
<path fill-rule="evenodd" clip-rule="evenodd" d="M9.69819 8.64161C9.99113 8.93446 9.9912 9.40933 9.69835 9.70227C9.08907 10.3117 8.7468 11.1382 8.7468 12C8.7468 12.8618 9.08907 13.6883 9.69835 14.2978C9.9912 14.5907 9.99113 15.0656 9.69819 15.3584C9.40526 15.6513 8.93038 15.6512 8.63753 15.3583C7.74705 14.4675 7.2468 13.2595 7.2468 12C7.2468 10.7405 7.74705 9.53252 8.63753 8.64177C8.93038 8.34883 9.40526 8.34876 9.69819 8.64161Z" fill="currentColor"/>
<path fill-rule="evenodd" clip-rule="evenodd" d="M6.86729 5.8127C7.16017 6.1056 7.16016 6.58048 6.86726 6.87336C6.194 7.54659 5.65993 8.34584 5.29556 9.22548C4.93119 10.1051 4.74365 11.0479 4.74365 12C4.74365 12.9521 4.93119 13.8949 5.29556 14.7746C5.65993 15.6542 6.194 16.4534 6.86726 17.1267C7.16016 17.4196 7.16017 17.8944 6.86729 18.1873C6.5744 18.4802 6.09953 18.4802 5.80663 18.1874C4.99407 17.3748 4.34951 16.4102 3.90975 15.3486C3.46999 14.287 3.24365 13.1491 3.24365 12C3.24365 10.8509 3.46999 9.71306 3.90975 8.65143C4.34951 7.58981 4.99407 6.62519 5.80663 5.81267C6.09953 5.51979 6.5744 5.5198 6.86729 5.8127Z" fill="currentColor"/>
</svg>
