<svg width="24" height="24" viewBox="0 0 24 24" fill="none" xmlns="http://www.w3.org/2000/svg">
<path fill-rule="evenodd" clip-rule="evenodd" d="M5.00008 5.75C4.30972 5.75 3.75008 6.30964 3.75008 7V17C3.75008 17.6904 4.30972 18.25 5.00008 18.25H19.0001C19.6904 18.25 20.2501 17.6904 20.2501 17V7C20.2501 6.30964 19.6904 5.75 19.0001 5.75H5.00008ZM2.25008 7C2.25008 5.48122 3.4813 4.25 5.00008 4.25H19.0001C20.5189 4.25 21.7501 5.48122 21.7501 7V17C21.7501 18.5188 20.5189 19.75 19.0001 19.75H5.00008C3.4813 19.75 2.25008 18.5188 2.25008 17V7Z" fill="currentColor"/>
<path fill-rule="evenodd" clip-rule="evenodd" d="M2.37604 6.58397C2.60581 6.23933 3.07146 6.1462 3.4161 6.37596L12.0001 12.0986L20.5841 6.37596C20.9287 6.1462 21.3944 6.23933 21.6241 6.58397C21.8539 6.92862 21.7608 7.39427 21.4161 7.62404L12.4161 13.624C12.1642 13.792 11.836 13.792 11.5841 13.624L2.58405 7.62404C2.23941 7.39427 2.14628 6.92862 2.37604 6.58397Z" fill="currentColor"/>
</svg>
