<svg width="16" height="16" viewBox="0 0 16 16" fill="none" xmlns="http://www.w3.org/2000/svg">
<path d="M6.26665 8.13325C6.26665 8.13325 7.79998 10.1999 9.19998 11.5999C9.79998 12.1999 10.4 12.5999 10.8666 12.9333C11.4 13.2666 11.5333 13.9999 11.0666 14.4666C10.8 14.7333 10.3333 14.8666 9.99998 14.6666C9.46665 14.3999 8.66665 13.8666 7.79998 13.0666C6.39998 11.6666 4.86665 9.59992 4.86665 9.59992L6.26665 8.13325ZM8.13331 6.26659C8.13331 6.26659 10.2 7.79992 11.6 9.19992C12.2 9.79992 12.6 10.3999 12.9333 10.8666C13.2666 11.3999 14 11.5333 14.4666 11.0666C14.7333 10.7999 14.8666 10.3333 14.6666 9.99992C14.4 9.46659 13.8666 8.66659 13.0666 7.79992C11.6666 6.39992 9.59998 4.86659 9.59998 4.86659L8.13331 6.26659ZM6.93331 3.66659L5.06665 1.79992L2.73331 1.33325L2.39998 1.66659L3.93331 3.19992C4.26665 3.13325 4.59998 3.19992 4.86665 3.46659C5.26665 3.86659 5.26665 4.46659 4.86665 4.86659C4.46665 5.26659 3.86665 5.26659 3.46665 4.86659C3.19998 4.59992 3.13331 4.19992 3.19998 3.86659L1.66665 2.39992L1.33331 2.73325L1.79998 5.06659L3.66665 6.93325L4.59998 8.79992L5.86665 7.53325L5.19998 6.33325L6.26665 5.26659L7.53331 5.86659L8.79998 4.59992L6.93331 3.66659Z" fill="white"/>
</svg>
