<svg width="24" height="24" viewBox="0 0 24 24" fill="none" xmlns="http://www.w3.org/2000/svg">
<path fill-rule="evenodd" clip-rule="evenodd" d="M9.59307 4.00468C10.0541 4.38734 10.3349 5.01194 10.2824 5.67034C10.2665 5.86927 10.2584 6.07054 10.2584 6.27386C10.2584 10.3981 13.6018 13.7415 17.7261 13.7415C17.9294 13.7415 18.1306 13.7334 18.3296 13.7175C18.988 13.665 19.6126 13.9458 19.9952 14.4068C20.398 14.8921 20.5495 15.6201 20.1172 16.2862C18.5199 18.7471 15.7456 20.3776 12.59 20.3776C7.63728 20.3776 3.62231 16.3626 3.62231 11.4099C3.62231 8.25432 5.25279 5.47997 7.71371 3.88272C8.3798 3.4504 9.10776 3.60189 9.59307 4.00468ZM8.56597 5.12336C8.56321 5.12404 8.55129 5.12734 8.53034 5.14094C6.47753 6.4733 5.12231 8.78356 5.12231 11.4099C5.12231 15.5342 8.46571 18.8776 12.59 18.8776C15.2164 18.8776 17.5266 17.5224 18.859 15.4696C18.8726 15.4486 18.8759 15.4367 18.8766 15.4339C18.8772 15.4314 18.877 15.43 18.877 15.43C18.877 15.43 18.8738 15.4043 18.841 15.3648C18.7681 15.277 18.6175 15.1993 18.449 15.2128C18.2104 15.2318 17.9693 15.2415 17.7261 15.2415C12.7733 15.2415 8.75837 11.2266 8.75837 6.27386C8.75837 6.03064 8.76807 5.78954 8.78712 5.55093C8.80058 5.38245 8.72295 5.23184 8.63508 5.15892C8.59561 5.12616 8.57 5.1229 8.57 5.1229C8.57 5.1229 8.56849 5.12273 8.56597 5.12336Z" fill="currentColor"/>
</svg>
