<svg width="24" height="24" viewBox="0 0 24 24" fill="none" xmlns="http://www.w3.org/2000/svg">
<path fill-rule="evenodd" clip-rule="evenodd" d="M6.25 4C6.25 3.58579 6.58579 3.25 7 3.25H18C18.4142 3.25 18.75 3.58579 18.75 4V18C18.75 18.4142 18.4142 18.75 18 18.75H12.923C12.5088 18.75 12.173 18.4142 12.173 18C12.173 17.5858 12.5088 17.25 12.923 17.25H17.25V4.75H7.75V19.25H12.077C12.4912 19.25 12.827 19.5858 12.827 20C12.827 20.4142 12.4912 20.75 12.077 20.75H7C6.58579 20.75 6.25 20.4142 6.25 20V4Z" fill="currentColor"/>
</svg>
