<svg width="24" height="24" viewBox="0 0 24 24" fill="none" xmlns="http://www.w3.org/2000/svg">
<path fill-rule="evenodd" clip-rule="evenodd" d="M15 17C15 15.8954 15.8954 15 17 15C18.1046 15 19 15.8954 19 17C19 18.1046 18.1046 19 17 19C15.8954 19 15 18.1046 15 17Z" fill="currentColor"/>
<path fill-rule="evenodd" clip-rule="evenodd" d="M5 7C5 5.89543 5.89543 5 7 5C8.10457 5 9 5.89543 9 7C9 8.10457 8.10457 9 7 9C5.89543 9 5 8.10457 5 7Z" fill="currentColor"/>
<path fill-rule="evenodd" clip-rule="evenodd" d="M18.5303 5.46967C18.8232 5.76256 18.8232 6.23744 18.5303 6.53033L6.53033 18.5303C6.23744 18.8232 5.76256 18.8232 5.46967 18.5303C5.17678 18.2374 5.17678 17.7626 5.46967 17.4697L17.4697 5.46967C17.7626 5.17678 18.2374 5.17678 18.5303 5.46967Z" fill="currentColor"/>
</svg>
