<svg width="24" height="24" viewBox="0 0 24 24" fill="none" xmlns="http://www.w3.org/2000/svg">
<path fill-rule="evenodd" clip-rule="evenodd" d="M8.82609 3.5C8.1965 3.5 7.60047 3.74392 7.16712 4.16591C6.73512 4.58659 6.5 5.14853 6.5 5.72581V18.2742C6.5 18.8515 6.73512 19.4134 7.16712 19.8341C7.60047 20.2561 8.1965 20.5 8.82609 20.5H15.1739C15.8035 20.5 16.3995 20.2561 16.8329 19.8341C17.2649 19.4134 17.5 18.8515 17.5 18.2742V5.72581C17.5 5.14853 17.2649 4.58659 16.8329 4.16591C16.3995 3.74392 15.8035 3.5 15.1739 3.5H8.82609ZM8.82609 2C7.81135 2 6.83816 2.39254 6.12063 3.09126C5.4031 3.78999 5 4.73766 5 5.72581V18.2742C5 19.2623 5.4031 20.21 6.12063 20.9087C6.83816 21.6075 7.81135 22 8.82609 22H15.1739C16.1887 22 17.1618 21.6075 17.8794 20.9087C18.5969 20.21 19 19.2623 19 18.2742V5.72581C19 4.73766 18.5969 3.78999 17.8794 3.09126C17.1618 2.39254 16.1887 2 15.1739 2H8.82609Z" fill="currentColor"/>
<path d="M10 5.5C10 5.22386 10.2239 5 10.5 5H13.5C13.7761 5 14 5.22386 14 5.5C14 5.77614 13.7761 6 13.5 6H10.5C10.2239 6 10 5.77614 10 5.5Z" fill="currentColor"/>
<path fill-rule="evenodd" clip-rule="evenodd" d="M10.5 5H13.5C13.7761 5 14 5.22386 14 5.5C14 5.77614 13.7761 6 13.5 6H10.5C10.2239 6 10 5.77614 10 5.5C10 5.22386 10.2239 5 10.5 5Z" fill="currentColor"/>
</svg>
