<svg width="82" height="82" viewBox="0 0 82 82" fill="none" xmlns="http://www.w3.org/2000/svg">
<g filter="url(#filter0_b_26_598)">
<circle cx="41" cy="41" r="40" fill="white" fill-opacity="0.1"/>
<circle cx="41" cy="41" r="40.5" stroke="white" stroke-opacity="0.2"/>
</g>
<path d="M54.7482 36.9666C56.8298 38.3096 57.8706 38.981 58.2304 39.8341C58.5448 40.5796 58.5448 41.4204 58.2304 42.1659C57.8706 43.0189 56.8298 43.6904 54.7482 45.0334L37.4022 56.2244C34.9918 57.7795 33.7866 58.557 32.7897 58.487C31.9209 58.4259 31.1216 57.9904 30.5993 57.2935C30 56.4937 30 55.0595 30 52.191L30 29.809C30 26.9405 30 25.5063 30.5993 24.7065C31.1216 24.0096 31.9209 23.5741 32.7897 23.513C33.7866 23.443 34.9918 24.2205 37.4022 25.7756L54.7482 36.9666Z" fill="white"/>
<defs>
<filter id="filter0_b_26_598" x="-36" y="-36" width="154" height="154" filterUnits="userSpaceOnUse" color-interpolation-filters="sRGB">
<feFlood flood-opacity="0" result="BackgroundImageFix"/>
<feGaussianBlur in="BackgroundImageFix" stdDeviation="18"/>
<feComposite in2="SourceAlpha" operator="in" result="effect1_backgroundBlur_26_598"/>
<feBlend mode="normal" in="SourceGraphic" in2="effect1_backgroundBlur_26_598" result="shape"/>
</filter>
</defs>
</svg>
