<svg width="25" height="24" viewBox="0 0 25 24" fill="none" xmlns="http://www.w3.org/2000/svg">
<path fill-rule="evenodd" clip-rule="evenodd" d="M2.375 4C2.375 3.58579 2.71079 3.25 3.125 3.25H21.125C21.5392 3.25 21.875 3.58579 21.875 4C21.875 4.41421 21.5392 4.75 21.125 4.75H3.125C2.71079 4.75 2.375 4.41421 2.375 4Z" fill="currentColor"/>
<path fill-rule="evenodd" clip-rule="evenodd" d="M4.125 3.25C4.53921 3.25 4.875 3.58579 4.875 4V14C4.875 14.3315 5.0067 14.6495 5.24112 14.8839C5.47554 15.1183 5.79348 15.25 6.125 15.25H18.125C18.4565 15.25 18.7745 15.1183 19.0089 14.8839C19.2433 14.6495 19.375 14.3315 19.375 14V4C19.375 3.58579 19.7108 3.25 20.125 3.25C20.5392 3.25 20.875 3.58579 20.875 4V14C20.875 14.7293 20.5853 15.4288 20.0695 15.9445C19.5538 16.4603 18.8543 16.75 18.125 16.75H6.125C5.39565 16.75 4.69618 16.4603 4.18046 15.9445C3.66473 15.4288 3.375 14.7293 3.375 14V4C3.375 3.58579 3.71079 3.25 4.125 3.25Z" fill="currentColor"/>
<path fill-rule="evenodd" clip-rule="evenodd" d="M12.125 15.25C12.5392 15.25 12.875 15.5858 12.875 16V20C12.875 20.4142 12.5392 20.75 12.125 20.75C11.7108 20.75 11.375 20.4142 11.375 20V16C11.375 15.5858 11.7108 15.25 12.125 15.25Z" fill="currentColor"/>
<path fill-rule="evenodd" clip-rule="evenodd" d="M8.375 20C8.375 19.5858 8.71079 19.25 9.125 19.25H15.125C15.5392 19.25 15.875 19.5858 15.875 20C15.875 20.4142 15.5392 20.75 15.125 20.75H9.125C8.71079 20.75 8.375 20.4142 8.375 20Z" fill="currentColor"/>
<path fill-rule="evenodd" clip-rule="evenodd" d="M16.6553 7.46967C16.9482 7.76256 16.9482 8.23744 16.6553 8.53033L13.6553 11.5303C13.3624 11.8232 12.8876 11.8232 12.5947 11.5303L11.125 10.0607L8.65533 12.5303C8.36244 12.8232 7.88756 12.8232 7.59467 12.5303C7.30178 12.2374 7.30178 11.7626 7.59467 11.4697L10.5947 8.46967C10.8876 8.17678 11.3624 8.17678 11.6553 8.46967L13.125 9.93934L15.5947 7.46967C15.8876 7.17678 16.3624 7.17678 16.6553 7.46967Z" fill="currentColor"/>
</svg>
