<svg width="16" height="16" viewBox="0 0 16 16" fill="none" xmlns="http://www.w3.org/2000/svg">
<path d="M12.9735 5.56994C12.9735 2.98294 10.9835 0.866943 7.667 0.866943C4.3505 0.866943 2.526 2.98294 2.526 5.56994C2.526 8.15694 3.256 7.82494 3.256 9.28494C3.256 9.83244 2.725 9.56694 2.725 10.7449C2.725 12.0379 4.5325 11.8559 5.0635 12.3859C5.5935 12.9169 5.5435 13.8959 5.5435 13.8959C5.5435 13.8959 5.6435 14.2934 5.826 14.1769C5.826 14.1769 5.942 14.4589 6.075 14.2929C6.075 14.2929 6.2075 14.5744 6.34 14.3429C6.34 14.3429 6.473 14.6579 6.6885 14.4259C6.6885 14.4259 6.9035 14.7409 7.1535 14.4924C7.1535 14.4924 7.435 14.7574 7.75 14.5589C8.065 14.7574 8.347 14.4924 8.347 14.4924C8.5955 14.7409 8.812 14.4259 8.812 14.4259C9.027 14.6584 9.159 14.3429 9.159 14.3429C9.293 14.5749 9.424 14.2929 9.424 14.2929C9.5575 14.4589 9.674 14.1769 9.674 14.1769C9.856 14.2929 9.9555 13.8954 9.9555 13.8954C9.9555 13.8954 9.9055 12.9174 10.4365 12.3864C10.9675 11.8564 12.7745 12.0384 12.7745 10.7449C12.7745 9.56744 12.2445 9.83244 12.2445 9.28494C12.2445 7.82494 12.9745 8.15694 12.9745 5.56994H12.9735ZM5.1665 10.4959C4.275 10.6384 3.8715 10.3884 3.774 9.74994C3.52 8.08594 5.0515 7.81694 5.814 7.90844C6.179 7.95244 6.809 8.33944 6.809 8.82094C6.809 10.1144 5.996 10.3634 5.1665 10.4959ZM8.2305 12.6509C8.0655 12.6509 7.8005 12.4359 7.7835 12.0379C7.767 12.4359 7.4685 12.6514 7.3035 12.6514C7.137 12.6514 6.8885 12.4864 6.8715 12.0879C6.855 11.6899 7.3855 10.0814 7.7675 10.0814C8.1485 10.0814 8.6795 11.6899 8.6625 12.0879C8.6455 12.4859 8.3975 12.6514 8.231 12.6514L8.2305 12.6509ZM11.6805 9.74994C11.5835 10.3884 11.179 10.6384 10.2875 10.4959C9.4585 10.3629 8.646 10.1144 8.646 8.82094C8.646 8.33944 9.276 7.95244 9.641 7.90844C10.4035 7.81694 11.9355 8.08594 11.6805 9.74994Z" fill="white"/>
</svg>
