<svg width="24" height="24" viewBox="0 0 24 24" fill="none" xmlns="http://www.w3.org/2000/svg">
<path fill-rule="evenodd" clip-rule="evenodd" d="M6 17.75C5.30964 17.75 4.75 18.3096 4.75 19C4.75 19.6904 5.30964 20.25 6 20.25C6.69036 20.25 7.25 19.6904 7.25 19C7.25 18.3096 6.69036 17.75 6 17.75ZM3.25 19C3.25 17.4812 4.48122 16.25 6 16.25C7.51878 16.25 8.75 17.4812 8.75 19C8.75 20.5188 7.51878 21.75 6 21.75C4.48122 21.75 3.25 20.5188 3.25 19Z" fill="currentColor"/>
<path fill-rule="evenodd" clip-rule="evenodd" d="M18 3.75C17.3096 3.75 16.75 4.30964 16.75 5C16.75 5.69036 17.3096 6.25 18 6.25C18.6904 6.25 19.25 5.69036 19.25 5C19.25 4.30964 18.6904 3.75 18 3.75ZM15.25 5C15.25 3.48122 16.4812 2.25 18 2.25C19.5188 2.25 20.75 3.48122 20.75 5C20.75 6.51878 19.5188 7.75 18 7.75C16.4812 7.75 15.25 6.51878 15.25 5Z" fill="currentColor"/>
<path fill-rule="evenodd" clip-rule="evenodd" d="M8.5 5.75C7.77065 5.75 7.07118 6.03973 6.55546 6.55546C6.03973 7.07118 5.75 7.77065 5.75 8.5C5.75 9.22935 6.03973 9.92882 6.55546 10.4445C7.07118 10.9603 7.77065 11.25 8.5 11.25H16.5C17.6272 11.25 18.7082 11.6978 19.5052 12.4948C20.3022 13.2918 20.75 14.3728 20.75 15.5C20.75 16.6272 20.3022 17.7082 19.5052 18.5052C18.7082 19.3022 17.6272 19.75 16.5 19.75H12C11.5858 19.75 11.25 19.4142 11.25 19C11.25 18.5858 11.5858 18.25 12 18.25H16.5C17.2293 18.25 17.9288 17.9603 18.4445 17.4445C18.9603 16.9288 19.25 16.2293 19.25 15.5C19.25 14.7707 18.9603 14.0712 18.4445 13.5555C17.9288 13.0397 17.2293 12.75 16.5 12.75H8.5C7.37283 12.75 6.29183 12.3022 5.4948 11.5052C4.69777 10.7082 4.25 9.62717 4.25 8.5C4.25 7.37283 4.69777 6.29183 5.4948 5.4948C6.29183 4.69777 7.37283 4.25 8.5 4.25H12C12.4142 4.25 12.75 4.58579 12.75 5C12.75 5.41421 12.4142 5.75 12 5.75H8.5Z" fill="currentColor"/>
</svg>
