<svg width="25" height="24" viewBox="0 0 25 24" fill="none" xmlns="http://www.w3.org/2000/svg">
<path fill-rule="evenodd" clip-rule="evenodd" d="M12.625 9.75C11.3824 9.75 10.375 10.7574 10.375 12C10.375 13.2426 11.3824 14.25 12.625 14.25C13.8676 14.25 14.875 13.2426 14.875 12C14.875 10.7574 13.8676 9.75 12.625 9.75ZM8.875 12C8.875 9.92893 10.5539 8.25 12.625 8.25C14.6961 8.25 16.375 9.92893 16.375 12C16.375 14.0711 14.6961 15.75 12.625 15.75C10.5539 15.75 8.875 14.0711 8.875 12Z" fill="currentColor"/>
<path fill-rule="evenodd" clip-rule="evenodd" d="M2.875 9C2.875 8.58579 3.21079 8.25 3.625 8.25H6.625C7.03921 8.25 7.375 8.58579 7.375 9V15C7.375 15.4142 7.03921 15.75 6.625 15.75H3.625C3.21079 15.75 2.875 15.4142 2.875 15V9ZM4.375 9.75V14.25H5.875V9.75H4.375Z" fill="currentColor"/>
<path fill-rule="evenodd" clip-rule="evenodd" d="M17.875 9C17.875 8.58579 18.2108 8.25 18.625 8.25H21.625C22.0392 8.25 22.375 8.58579 22.375 9V15C22.375 15.4142 22.0392 15.75 21.625 15.75H18.625C18.2108 15.75 17.875 15.4142 17.875 15V9ZM19.375 9.75V14.25H20.875V9.75H19.375Z" fill="currentColor"/>
<path fill-rule="evenodd" clip-rule="evenodd" d="M5.625 5.75C4.93464 5.75 4.375 6.30964 4.375 7V17C4.375 17.6904 4.93464 18.25 5.625 18.25H19.625C20.3154 18.25 20.875 17.6904 20.875 17V7C20.875 6.30964 20.3154 5.75 19.625 5.75H5.625ZM2.875 7C2.875 5.48122 4.10622 4.25 5.625 4.25H19.625C21.1438 4.25 22.375 5.48122 22.375 7V17C22.375 18.5188 21.1438 19.75 19.625 19.75H5.625C4.10622 19.75 2.875 18.5188 2.875 17V7Z" fill="currentColor"/>
<path fill-rule="evenodd" clip-rule="evenodd" d="M12.625 4.25C13.0392 4.25 13.375 4.58579 13.375 5V19C13.375 19.4142 13.0392 19.75 12.625 19.75C12.2108 19.75 11.875 19.4142 11.875 19V5C11.875 4.58579 12.2108 4.25 12.625 4.25Z" fill="currentColor"/>
</svg>
