<svg width="24" height="24" viewBox="0 0 24 24" fill="none" xmlns="http://www.w3.org/2000/svg">
<path fill-rule="evenodd" clip-rule="evenodd" d="M11.6532 5.44323C11.714 5.32648 11.8378 5.25 11.9999 5.25L11.6532 5.44323ZM11.6532 5.44323L9.97918 8.66418C9.69753 9.2067 9.16346 9.5653 8.56697 9.64777M8.56697 9.64777L4.81996 10.1669C4.64528 10.1913 4.551 10.2936 4.51592 10.3964C4.48197 10.4958 4.49715 10.6045 4.60136 10.7008L7.31153 13.2074C7.75974 13.6223 7.97478 14.2321 7.86488 14.8399L7.22633 18.3783C7.20626 18.4892 7.24731 18.5961 7.36285 18.6758C7.48084 18.7572 7.63883 18.7789 7.78958 18.7034L11.1395 17.0313C11.6791 16.7626 12.3209 16.7619 12.8605 17.0314L16.2096 18.7031C16.3604 18.7785 16.5191 18.7572 16.6373 18.6757C16.7531 18.5959 16.7944 18.489 16.7744 18.3779L16.1351 14.8404C16.0251 14.2324 16.2399 13.6225 16.6882 13.2076L19.3981 10.7011C19.5024 10.6049 19.5179 10.4958 19.484 10.3964C19.4489 10.2936 19.3549 10.1914 19.1802 10.167L15.4333 9.64782C14.8359 9.56522 14.3029 9.20595 14.0217 8.66418L12.3468 5.44343C12.286 5.32659 12.1622 5.25 11.9999 5.25M10.3223 4.75129C11.0167 3.41624 12.9832 3.41624 13.6776 4.75129L15.3527 7.97258C15.3997 8.06317 15.501 8.14293 15.6384 8.16192L19.3861 8.68117C20.8803 8.88882 21.5943 10.7141 20.4167 11.8023L17.707 14.3085C17.6228 14.3865 17.5952 14.4852 17.6111 14.5731L18.2506 18.1117C18.5326 19.6788 16.8413 20.6959 15.5397 20.0452L12.1904 18.3734C12.0734 18.315 11.9279 18.3144 11.8089 18.3737L8.46082 20.0449C7.15976 20.6956 5.46664 19.68 5.75017 18.1119L6.38873 14.5735C6.40464 14.4856 6.37714 14.3865 6.29285 14.3085L3.58361 11.8027C2.406 10.7145 3.11929 8.88886 4.61348 8.68121L8.36111 8.16196C8.49945 8.14286 8.60125 8.06288 8.64789 7.97304L10.3223 4.75129Z" fill="currentColor"/>
</svg>
