<svg width="24" height="24" viewBox="0 0 24 24" fill="none" xmlns="http://www.w3.org/2000/svg">
<path fill-rule="evenodd" clip-rule="evenodd" d="M13 4.75C12.6685 4.75 12.3505 4.8817 12.1161 5.11612C11.8817 5.35054 11.75 5.66848 11.75 6V7C11.75 8.25978 11.2496 9.46796 10.3588 10.3588C9.64671 11.0708 8.73188 11.5334 7.75 11.6904V17C7.75 17.5967 7.98705 18.169 8.40901 18.591C8.83097 19.0129 9.40326 19.25 10 19.25H17C17.0212 19.25 17.0424 19.2509 17.0636 19.2527C17.2369 19.2674 17.4577 19.2052 17.6923 18.9706C17.9316 18.7314 18.1471 18.3441 18.2671 17.8402L19.2483 12.9344C19.2321 12.6267 19.1028 12.335 18.8839 12.1161C18.6495 11.8817 18.3315 11.75 18 11.75H15C14.5858 11.75 14.25 11.4142 14.25 11V6C14.25 5.66848 14.1183 5.35054 13.8839 5.11612C13.6495 4.8817 13.3315 4.75 13 4.75ZM7.54031 19.8306C7.46035 19.9789 7.35872 20.1162 7.23744 20.2374C6.90925 20.5656 6.46413 20.75 6 20.75H4C3.53587 20.75 3.09075 20.5656 2.76256 20.2374C2.43437 19.9092 2.25 19.4641 2.25 19V12C2.25 11.5359 2.43437 11.0908 2.76256 10.7626C3.09075 10.4344 3.53587 10.25 4 10.25H7C7.86195 10.25 8.6886 9.90759 9.2981 9.2981C9.90759 8.6886 10.25 7.86195 10.25 7V6C10.25 5.27065 10.5397 4.57118 11.0555 4.05546C11.5712 3.53973 12.2707 3.25 13 3.25C13.7293 3.25 14.4288 3.53973 14.9445 4.05546C15.4603 4.57118 15.75 5.27065 15.75 6V10.25H18C18.7293 10.25 19.4288 10.5397 19.9445 11.0555C20.4603 11.5712 20.75 12.2707 20.75 13C20.75 13.0494 20.7451 13.0987 20.7354 13.1471L19.7354 18.1471C19.7338 18.1551 19.7321 18.1632 19.7302 18.1712C19.562 18.8887 19.2333 19.5509 18.753 20.0313C18.2744 20.5099 17.6504 20.7964 16.9716 20.75H10C9.09323 20.75 8.22033 20.4216 7.54031 19.8306ZM6.25 11.75H4C3.9337 11.75 3.87011 11.7763 3.82322 11.8232C3.77634 11.8701 3.75 11.9337 3.75 12V19C3.75 19.0663 3.77634 19.1299 3.82322 19.1768C3.87011 19.2237 3.93369 19.25 4 19.25H6C6.06631 19.25 6.12989 19.2237 6.17678 19.1768C6.22366 19.1299 6.25 19.0663 6.25 19V11.75Z" fill="currentColor"/>
</svg>
