<svg width="24" height="24" viewBox="0 0 24 24" fill="none" xmlns="http://www.w3.org/2000/svg">
<path fill-rule="evenodd" clip-rule="evenodd" d="M16.9716 3.25001C17.6504 3.20364 18.2744 3.49015 18.753 3.96872C19.2333 4.44908 19.562 5.11129 19.7302 5.82883C19.7321 5.83683 19.7338 5.84486 19.7354 5.85292L20.7354 10.8529C20.7451 10.9014 20.75 10.9506 20.75 11C20.75 11.7294 20.4603 12.4288 19.9445 12.9446C19.4288 13.4603 18.7293 13.75 18 13.75H15.75V18C15.75 18.7294 15.4603 19.4288 14.9445 19.9446C14.4288 20.4603 13.7293 20.75 13 20.75C12.2707 20.75 11.5712 20.4603 11.0555 19.9446C10.5397 19.4288 10.25 18.7294 10.25 18V17C10.25 16.1381 9.90759 15.3114 9.2981 14.7019C8.6886 14.0924 7.86195 13.75 7 13.75H4C3.53587 13.75 3.09075 13.5656 2.76256 13.2374C2.43437 12.9093 2.25 12.4641 2.25 12V5.00001C2.25 4.53588 2.43437 4.09076 2.76256 3.76257C3.09075 3.43439 3.53587 3.25001 4 3.25001H6C6.46413 3.25001 6.90925 3.43439 7.23744 3.76257C7.35872 3.88385 7.46036 4.0211 7.54031 4.16938C8.22033 3.57842 9.09324 3.25001 10 3.25001H16.9716ZM6.25 5.00001C6.25 4.93371 6.22366 4.87012 6.17678 4.82323C6.12989 4.77635 6.0663 4.75001 6 4.75001H4C3.9337 4.75001 3.87011 4.77635 3.82322 4.82323C3.77634 4.87012 3.75 4.93371 3.75 5.00001V12C3.75 12.0663 3.77634 12.1299 3.82322 12.1768C3.87011 12.2237 3.9337 12.25 4 12.25H6.25V5.00001ZM7.75 12.3096V7.00001C7.75 6.40327 7.98705 5.83098 8.40901 5.40902C8.83097 4.98706 9.40326 4.75001 10 4.75001H17C17.0212 4.75001 17.0424 4.74911 17.0636 4.74731C17.2369 4.73257 17.4577 4.79476 17.6923 5.02938C17.9316 5.26865 18.1471 5.65594 18.2671 6.15979L19.2483 11.0657C19.2321 11.3733 19.1028 11.665 18.8839 11.8839C18.6495 12.1183 18.3315 12.25 18 12.25H15C14.5858 12.25 14.25 12.5858 14.25 13V18C14.25 18.3315 14.1183 18.6495 13.8839 18.8839C13.6495 19.1183 13.3315 19.25 13 19.25C12.6685 19.25 12.3505 19.1183 12.1161 18.8839C11.8817 18.6495 11.75 18.3315 11.75 18V17C11.75 15.7402 11.2496 14.5321 10.3588 13.6413C9.64671 12.9292 8.73188 12.4666 7.75 12.3096Z" fill="currentColor"/>
</svg>
