<svg width="24" height="24" viewBox="0 0 24 24" fill="none" xmlns="http://www.w3.org/2000/svg">
<path fill-rule="evenodd" clip-rule="evenodd" d="M14.4 7.55001C14.6486 7.21864 15.1187 7.15149 15.45 7.40001C16.1642 7.93561 16.7438 8.63012 17.143 9.42854C17.5422 10.227 17.75 11.1074 17.75 12C17.75 12.8927 17.5422 13.7731 17.143 14.5715C16.7438 15.3699 16.1642 16.0644 15.45 16.6C15.1187 16.8485 14.6486 16.7814 14.4 16.45C14.1515 16.1186 14.2187 15.6485 14.55 15.4C15.0779 15.0041 15.5063 14.4908 15.8014 13.9007C16.0964 13.3105 16.25 12.6598 16.25 12C16.25 11.3402 16.0964 10.6895 15.8014 10.0994C15.5063 9.50922 15.0779 8.99589 14.55 8.60001C14.2187 8.35149 14.1515 7.88138 14.4 7.55001Z" fill="white"/>
<path fill-rule="evenodd" clip-rule="evenodd" d="M17.1169 4.52859C17.3772 4.20642 17.8495 4.15631 18.1716 4.41666C19.3026 5.33062 20.2148 6.48596 20.8415 7.79809C21.4681 9.11022 21.7934 10.5459 21.7934 12C21.7934 13.4541 21.4681 14.8898 20.8415 16.2019C20.2148 17.514 19.3026 18.6694 18.1716 19.5833C17.8495 19.8437 17.3772 19.7936 17.1169 19.4714C16.8565 19.1492 16.9066 18.677 17.2288 18.4167C18.1858 17.6433 18.9577 16.6657 19.4879 15.5555C20.0182 14.4452 20.2934 13.2304 20.2934 12C20.2934 10.7696 20.0182 9.5548 19.4879 8.44454C18.9577 7.33428 18.1858 6.35667 17.2288 5.58333C16.9066 5.32298 16.8565 4.85076 17.1169 4.52859Z" fill="white"/>
<path fill-rule="evenodd" clip-rule="evenodd" d="M10.2271 4.81876C10.2158 4.81498 10.2035 4.81538 10.1924 4.81989C10.1814 4.82439 10.1723 4.8327 10.1668 4.84331C10.1456 4.88459 10.1205 4.92381 10.092 4.96046L6.59201 9.46046C6.44992 9.64315 6.23144 9.75 6 9.75H4C3.9337 9.75 3.87011 9.77634 3.82322 9.82323C3.77634 9.87011 3.75 9.9337 3.75 10V14C3.75 14.0663 3.77634 14.1299 3.82322 14.1768C3.87011 14.2237 3.9337 14.25 4 14.25H6C6.23144 14.25 6.44992 14.3569 6.59201 14.5395L10.092 19.0395C10.1205 19.0762 10.1456 19.1154 10.1668 19.1567C10.1723 19.1673 10.1814 19.1756 10.1924 19.1801C10.2035 19.1846 10.2158 19.185 10.2271 19.1812C10.2384 19.1775 10.248 19.1698 10.2541 19.1595C10.2603 19.1493 10.2626 19.1372 10.2606 19.1255C10.2535 19.084 10.25 19.042 10.25 19V5C10.25 4.95797 10.2535 4.916 10.2606 4.87456C10.2626 4.86279 10.2603 4.8507 10.2541 4.84046C10.248 4.83023 10.2384 4.82253 10.2271 4.81876ZM9.62657 3.4307C9.9692 3.29115 10.3504 3.27874 10.7014 3.39573C11.0524 3.51273 11.35 3.7514 11.5403 4.06862C11.7181 4.36481 11.7914 4.71124 11.75 5.05278V18.9472C11.7914 19.2888 11.7181 19.6352 11.5403 19.9314C11.35 20.2486 11.0524 20.4873 10.7014 20.6043C10.3504 20.7213 9.9692 20.7089 9.62657 20.5693C9.30905 20.44 9.0441 20.2093 8.87219 19.9144L5.63319 15.75H4C3.53587 15.75 3.09075 15.5656 2.76256 15.2374C2.43437 14.9093 2.25 14.4641 2.25 14V10C2.25 9.53587 2.43437 9.09076 2.76256 8.76257C3.09075 8.43438 3.53587 8.25 4 8.25H5.63319L8.87219 4.08557C9.0441 3.79067 9.30905 3.56004 9.62657 3.4307Z" fill="white"/>
</svg>
