<svg width="24" height="24" viewBox="0 0 24 24" fill="none" xmlns="http://www.w3.org/2000/svg">
<path fill-rule="evenodd" clip-rule="evenodd" d="M9.18012 4H13.4353C14.6976 3.99998 15.7152 3.99997 16.5155 4.10358C17.3463 4.21115 18.0459 4.44128 18.6015 4.97631C19.1571 5.51135 19.3961 6.18502 19.5078 6.98511C19.5796 7.49915 19.6035 8.10627 19.6114 8.81436C19.8948 8.8966 20.1608 9.03017 20.3917 9.25246C20.7445 9.59223 20.8821 10.0111 20.9431 10.4481C21.0001 10.8559 21 11.3651 21 11.9561V12.0439C21 12.6349 21.0001 13.1441 20.9431 13.5519C20.8821 13.9889 20.7445 14.4078 20.3917 14.7475C20.1608 14.9698 19.8948 15.1034 19.6114 15.1856C19.6035 15.8937 19.5796 16.5009 19.5078 17.0149C19.3961 17.815 19.1571 18.4887 18.6015 19.0237C18.0459 19.5587 17.3463 19.7889 16.5155 19.8964C15.7152 20 14.6976 20 13.4352 20H9.18014C7.91774 20 6.9002 20 6.09992 19.8964C5.26905 19.7889 4.56948 19.5587 4.01386 19.0237C3.45825 18.4887 3.21927 17.815 3.10756 17.0149C2.99997 16.2443 2.99998 15.2644 3 14.0488V9.95122C2.99998 8.73561 2.99997 7.75574 3.10756 6.98511C3.21927 6.18502 3.45825 5.51135 4.01386 4.97631C4.56948 4.44128 5.26905 4.21115 6.09992 4.10358C6.90019 3.99997 7.91774 3.99998 9.18012 4ZM18.2246 15.3307C18.0232 15.3334 17.8094 15.3333 17.584 15.3333H14.7237C14.1099 15.3334 13.5811 15.3334 13.1577 15.2786C12.7039 15.2198 12.2689 15.0873 11.916 14.7475C11.5632 14.4078 11.4256 13.9889 11.3646 13.5519C11.3076 13.1441 11.3077 12.6349 11.3077 12.0439V11.9561C11.3077 11.3651 11.3076 10.8559 11.3646 10.4481C11.4256 10.0111 11.5632 9.59223 11.916 9.25246C12.2689 8.91268 12.7039 8.78018 13.1577 8.72143C13.5811 8.66661 14.1099 8.66663 14.7237 8.66667H17.584C17.8094 8.66666 18.0232 8.66664 18.2246 8.66935C18.2155 8.06104 18.1926 7.57144 18.1356 7.16278C18.0445 6.51053 17.8779 6.16513 17.6224 5.91912C17.367 5.67311 17.0083 5.51271 16.331 5.42502C15.6337 5.33475 14.7096 5.33334 13.3846 5.33334H9.23077C7.90577 5.33334 6.98167 5.33475 6.28442 5.42502C5.60709 5.51271 5.24841 5.67311 4.99293 5.91912C4.73746 6.16513 4.57089 6.51053 4.47983 7.16278C4.38609 7.8342 4.38462 8.72408 4.38462 10V14C4.38462 15.2759 4.38609 16.1658 4.47983 16.8372C4.57089 17.4895 4.73746 17.8349 4.99293 18.0809C5.24841 18.3269 5.60709 18.4873 6.28442 18.575C6.98167 18.6653 7.90577 18.6667 9.23077 18.6667H13.3846C14.7096 18.6667 15.6337 18.6653 16.331 18.575C17.0083 18.4873 17.367 18.3269 17.6224 18.0809C17.8779 17.8349 18.0445 17.4895 18.1356 16.8372C18.1926 16.4286 18.2155 15.939 18.2246 15.3307ZM12.8951 10.1953C12.9478 10.1445 13.0419 10.0817 13.3422 10.0429C13.6624 10.0014 14.0969 10 14.7692 10H17.5385C18.2107 10 18.6453 10.0014 18.9655 10.0429C19.2658 10.0817 19.3599 10.1445 19.4126 10.1953C19.4653 10.246 19.5305 10.3366 19.5709 10.6258C19.6139 10.9341 19.6154 11.3526 19.6154 12C19.6154 12.6474 19.6139 13.0659 19.5709 13.3742C19.5305 13.6634 19.4653 13.754 19.4126 13.8047C19.3599 13.8555 19.2658 13.9183 18.9655 13.9571C18.6453 13.9986 18.2107 14 17.5385 14H14.7692C14.0969 14 13.6624 13.9986 13.3422 13.9571C13.0419 13.9183 12.9478 13.8555 12.8951 13.8047C12.8424 13.754 12.7772 13.6634 12.7368 13.3742C12.6938 13.0659 12.6923 12.6474 12.6923 12C12.6923 11.3526 12.6938 10.9341 12.7368 10.6258C12.7772 10.3366 12.8424 10.246 12.8951 10.1953Z" fill="currentColor"/>
</svg>
