<svg width="24" height="24" viewBox="0 0 24 24" fill="none" xmlns="http://www.w3.org/2000/svg">
<path fill-rule="evenodd" clip-rule="evenodd" d="M12.6878 2.27386C12.5917 2.24905 12.4909 2.24319 12.3914 2.25769C12.2616 2.25257 12.1311 2.24998 12 2.24998C11.8689 2.24998 11.7384 2.25257 11.6086 2.25769C11.5091 2.24319 11.4083 2.24905 11.3122 2.27386C6.24839 2.62674 2.25 6.84642 2.25 12C2.25 17.1535 6.24839 21.3732 11.3122 21.7261C11.4083 21.7509 11.5091 21.7568 11.6086 21.7423C11.7384 21.7474 11.8689 21.75 12 21.75C12.1311 21.75 12.2616 21.7474 12.3914 21.7423C12.4909 21.7568 12.5917 21.7509 12.6878 21.7261C17.7516 21.3732 21.75 17.1535 21.75 12C21.75 6.84642 17.7516 2.62674 12.6878 2.27386ZM11.922 3.75034C11.948 3.7501 11.974 3.74998 12 3.74998C12.026 3.74998 12.052 3.7501 12.078 3.75034C12.9067 5.15659 13.5154 6.67403 13.8892 8.24998H10.1108C10.4846 6.67403 11.0933 5.15659 11.922 3.75034ZM10.0915 3.97184C7.7145 4.5348 5.73529 6.12608 4.64956 8.24998H8.57285C8.89323 6.76776 9.4029 5.32964 10.0915 3.97184ZM8.31538 9.74998H4.06055C3.85825 10.4652 3.75 11.22 3.75 12C3.75 12.78 3.85825 13.5347 4.06055 14.25H8.31538C8.22034 13.5063 8.1722 12.7549 8.1722 12C8.1722 11.2451 8.22034 10.4936 8.31538 9.74998ZM8.57285 15.75H4.64956C5.73529 17.8739 7.7145 19.4652 10.0915 20.0281C9.4029 18.6703 8.89323 17.2322 8.57285 15.75ZM11.922 20.2496C11.0933 18.8434 10.4846 17.3259 10.1108 15.75H13.8892C13.5154 17.3259 12.9067 18.8434 12.078 20.2496C12.052 20.2499 12.026 20.25 12 20.25C11.974 20.25 11.948 20.2499 11.922 20.2496ZM13.9085 20.0281C16.2855 19.4652 18.2647 17.8739 19.3504 15.75H15.4271C15.1068 17.2322 14.5971 18.6703 13.9085 20.0281ZM15.6846 14.25H19.9395C20.1417 13.5347 20.25 12.78 20.25 12C20.25 11.22 20.1417 10.4652 19.9395 9.74998H15.6846C15.7797 10.4936 15.8278 11.2451 15.8278 12C15.8278 12.7549 15.7797 13.5063 15.6846 14.25ZM14.1713 9.74998H9.82872C9.72487 10.4927 9.6722 11.2445 9.6722 12C9.6722 12.7555 9.72487 13.5072 9.82872 14.25H14.1713C14.2751 13.5072 14.3278 12.7555 14.3278 12C14.3278 11.2445 14.2751 10.4927 14.1713 9.74998ZM15.4271 8.24998C15.1068 6.76776 14.5971 5.32964 13.9085 3.97184C16.2855 4.5348 18.2647 6.12608 19.3504 8.24998H15.4271Z" fill="currentColor"/>
</svg>
