<svg width="33" height="32" viewBox="0 0 33 32" fill="none" xmlns="http://www.w3.org/2000/svg">
<path fill-rule="evenodd" clip-rule="evenodd" d="M9.33702 4.4668H23.663V6.9766H28.7V10.3531C28.7 13.6068 26.054 16.2393 22.7963 16.2393H21.9525C20.8148 17.5691 19.1965 18.4773 17.3667 18.6974V20.7805H19.0185C20.8853 20.7805 22.4037 22.2894 22.4037 24.157V27.5335H10.5963V24.157C10.5963 22.2894 12.1147 20.7805 13.9815 20.7805H15.6333V18.6974C13.8035 18.4773 12.1851 17.5691 11.0475 16.2393H10.2037C6.946 16.2393 4.29999 13.6068 4.29999 10.3531V6.9766H9.33702V4.4668ZM9.33702 8.70993H6.03332V10.3531C6.03332 12.5585 7.76132 14.3667 9.94789 14.4983C9.55522 13.6149 9.33702 12.637 9.33702 11.608V8.70993ZM23.0521 14.4983C25.2387 14.3667 26.9667 12.5585 26.9667 10.3531V8.70993H23.663V11.608C23.663 12.637 23.4448 13.6149 23.0521 14.4983ZM11.0704 6.20013V11.608C11.0704 14.5918 13.4985 17.0158 16.5 17.0158C19.5015 17.0158 21.9296 14.5918 21.9296 11.608V6.20013H11.0704ZM13.9815 22.5139C13.0663 22.5139 12.3296 23.2523 12.3296 24.157V25.8001H20.6704V24.157C20.6704 23.2523 19.9336 22.5139 19.0185 22.5139H13.9815Z" fill="currentColor"/>
</svg>
