<svg width="32" height="32" viewBox="0 0 32 32" fill="none" xmlns="http://www.w3.org/2000/svg">
<path d="M20.4113 17.7178C20.954 17.7178 21.3939 17.2925 21.3939 16.7677C21.3939 16.243 20.954 15.8177 20.4113 15.8177C19.8686 15.8177 19.4287 16.243 19.4287 16.7677C19.4287 17.2925 19.8686 17.7178 20.4113 17.7178Z" fill="currentColor"/>
<path d="M18.1186 14.5509C18.6613 14.5509 19.1012 14.1255 19.1012 13.6008C19.1012 13.076 18.6613 12.6507 18.1186 12.6507C17.5759 12.6507 17.136 13.076 17.136 13.6008C17.136 14.1255 17.5759 14.5509 18.1186 14.5509Z" fill="currentColor"/>
<path d="M14.1882 6V8.85029H12.2231C10.5726 8.85029 8.98974 9.48425 7.82269 10.6127C6.65564 11.7412 6 13.2717 6 14.8676V21.5752C6.00042 22.3104 6.24535 23.0259 6.6986 23.6161C7.15185 24.2064 7.78939 24.64 8.51707 24.853C9.24475 25.066 10.024 25.0471 10.7397 24.799C11.4554 24.551 12.0696 24.0869 12.4916 23.4754L14.0605 21.2015H16.9395L18.5084 23.4754C18.9304 24.0869 19.5446 24.551 20.2603 24.799C20.976 25.0471 21.7552 25.066 22.4829 24.853C23.2106 24.64 23.8482 24.2064 24.3014 23.6161C24.7547 23.0259 24.9996 22.3104 25 21.5752V14.8676C25 14.0771 24.8389 13.2944 24.526 12.5641C24.213 11.8339 23.7544 11.1704 23.1761 10.6116C22.5979 10.0528 21.9115 9.60962 21.1561 9.30741C20.4007 9.0052 19.5912 8.84987 18.7737 8.85029H16.1534V6H14.1882ZM23.0315 14.8676V21.5752C23.0302 21.9018 22.9206 22.2194 22.7187 22.4813C22.5169 22.7431 22.2335 22.9355 21.9103 23.0301C21.587 23.1248 21.2409 23.1166 20.9227 23.007C20.6046 22.8973 20.3312 22.6918 20.1427 22.4208L17.9909 19.3013H13.0059L10.854 22.424C10.6654 22.6952 10.3917 22.9008 10.0732 23.0104C9.75478 23.12 9.40833 23.1279 9.0849 23.0328C8.76146 22.9378 8.47811 22.7449 8.27654 22.4825C8.07497 22.2201 7.96583 21.9021 7.96518 21.5752V14.8676C7.96518 13.7756 8.41378 12.7284 9.21228 11.9563C10.0108 11.1842 11.0938 10.7505 12.2231 10.7505H18.7737C19.9029 10.7505 20.9859 11.1842 21.7844 11.9563C22.5829 12.7284 23.0315 13.7756 23.0315 14.8676Z" fill="currentColor"/>
<path d="M12.5506 13.2841H10.5854V17.0844H12.5506V13.2841Z" fill="currentColor"/>
</svg>
