<svg width="32" height="32" viewBox="0 0 32 32" fill="none" xmlns="http://www.w3.org/2000/svg">
<path d="M24.6419 11.033L18.7935 6.04862C17.9976 5.36931 17.0143 5 16.0016 5C14.9889 5 14.0056 5.36931 13.2097 6.04862L7.35807 11.033C6.93404 11.392 6.59125 11.8514 6.35588 12.3762C6.1205 12.9009 5.99878 13.4771 6.00001 14.0607V22.1497C6.00001 22.6554 6.09179 23.156 6.27011 23.6232C6.44844 24.0903 6.70981 24.5148 7.03931 24.8723C7.3688 25.2298 7.75997 25.5134 8.19048 25.7069C8.62099 25.9004 9.08241 26 9.54839 26H22.4516C22.9176 26 23.379 25.9004 23.8095 25.7069C24.24 25.5134 24.6312 25.2298 24.9607 24.8723C25.2902 24.5148 25.5516 24.0903 25.7299 23.6232C25.9082 23.156 26 22.6554 26 22.1497V14.0607C26.0015 13.477 25.8798 12.9008 25.6444 12.376C25.4091 11.8512 25.0661 11.3918 24.6419 11.033ZM17.6129 23.8999H14.3871V18.6495H17.6129V23.8999ZM24.0645 22.1497C24.0645 22.6139 23.8946 23.059 23.5921 23.3873C23.2896 23.7155 22.8794 23.8999 22.4516 23.8999H19.5484V18.9995C19.5484 18.3497 19.3105 17.7265 18.887 17.267C18.4635 16.8075 17.8892 16.5493 17.2903 16.5493H14.7097C14.1108 16.5493 13.5365 16.8075 13.113 17.267C12.6895 17.7265 12.4516 18.3497 12.4516 18.9995V23.8999H9.54839C9.12062 23.8999 8.71038 23.7155 8.4079 23.3873C8.10542 23.059 7.93549 22.6139 7.93549 22.1497V14.0607C7.93748 13.7981 7.99389 13.5394 8.10054 13.3037C8.2072 13.068 8.36136 12.8613 8.55162 12.6991L14.4161 7.68674C14.8677 7.29978 15.4262 7.0893 16.0016 7.0893C16.577 7.0893 17.1356 7.29978 17.5871 7.68674L23.4484 12.6991C23.6386 12.8613 23.7928 13.068 23.8995 13.3037C24.0061 13.5394 24.0625 13.7981 24.0645 14.0607V22.1497Z" fill="currentColor"/>
</svg>
