<svg width="33" height="32" viewBox="0 0 33 32" fill="none" xmlns="http://www.w3.org/2000/svg">
<path fill-rule="evenodd" clip-rule="evenodd" d="M4.83325 8C4.83325 7.44772 5.28097 7 5.83325 7H27.1666C27.7189 7 28.1666 7.44772 28.1666 8C28.1666 8.55228 27.7189 9 27.1666 9H5.83325C5.28097 9 4.83325 8.55228 4.83325 8Z" fill="currentColor"/>
<path fill-rule="evenodd" clip-rule="evenodd" d="M4.83325 16C4.83325 15.4477 5.28097 15 5.83325 15H27.1666C27.7189 15 28.1666 15.4477 28.1666 16C28.1666 16.5523 27.7189 17 27.1666 17H5.83325C5.28097 17 4.83325 16.5523 4.83325 16Z" fill="currentColor"/>
<path fill-rule="evenodd" clip-rule="evenodd" d="M4.83325 24C4.83325 23.4477 5.28097 23 5.83325 23H27.1666C27.7189 23 28.1666 23.4477 28.1666 24C28.1666 24.5523 27.7189 25 27.1666 25H5.83325C5.28097 25 4.83325 24.5523 4.83325 24Z" fill="currentColor"/>
</svg>
