<svg width="32" height="32" viewBox="0 0 32 32" fill="none" xmlns="http://www.w3.org/2000/svg">
<path d="M25.0323 7.29032H21.4839V6H10.5161V7.29032H6.96774C6.71108 7.29032 6.46493 7.39228 6.28344 7.57377C6.10196 7.75525 6 8.0014 6 8.25806V10.8387C6 11.7798 6.37385 12.6823 7.0393 13.3478C7.70475 14.0133 8.6073 14.3871 9.54839 14.3871H11.0097C11.376 15.1965 11.9336 15.9047 12.6343 16.4509C13.335 16.9971 14.1579 17.3649 15.0323 17.5226V19.5484H13.4194C12.8205 19.5484 12.2461 19.7863 11.8227 20.2098C11.3992 20.6332 11.1613 21.2076 11.1613 21.8065V24.0645H9.87097V26H22.129V24.0645H20.8387V21.8065C20.8387 21.2076 20.6008 20.6332 20.1773 20.2098C19.7539 19.7863 19.1795 19.5484 18.5806 19.5484H16.9677V17.5226C17.8421 17.3649 18.665 16.9971 19.3657 16.4509C20.0664 15.9047 20.624 15.1965 20.9903 14.3871H22.4516C23.3927 14.3871 24.2952 14.0133 24.9607 13.3478C25.6262 12.6823 26 11.7798 26 10.8387V8.25806C26 8.0014 25.898 7.75525 25.7166 7.57377C25.5351 7.39228 25.2889 7.29032 25.0323 7.29032ZM9.54839 12.4516C9.12062 12.4516 8.71037 12.2817 8.40789 11.9792C8.10541 11.6767 7.93548 11.2665 7.93548 10.8387V9.22581H10.5161V12.129C10.5161 12.2387 10.5161 12.3452 10.5323 12.4516H9.54839ZM18.5806 21.4839C18.6662 21.4839 18.7482 21.5179 18.8087 21.5784C18.8692 21.6388 18.9032 21.7209 18.9032 21.8065V24.0645H13.0968V21.8065C13.0968 21.7209 13.1308 21.6388 13.1913 21.5784C13.2518 21.5179 13.3338 21.4839 13.4194 21.4839H18.5806ZM19.5484 12.129C19.5484 13.0701 19.1745 13.9727 18.5091 14.6381C17.8436 15.3036 16.9411 15.6774 16 15.6774C15.0589 15.6774 14.1564 15.3036 13.4909 14.6381C12.8255 13.9727 12.4516 13.0701 12.4516 12.129V7.93548H19.5484V12.129ZM24.0645 10.8387C24.0645 11.2665 23.8946 11.6767 23.5921 11.9792C23.2896 12.2817 22.8794 12.4516 22.4516 12.4516H21.4677C21.4677 12.3452 21.4839 12.2387 21.4839 12.129V9.22581H24.0645V10.8387Z" fill="#191919"/>
</svg>
