<svg width="32" height="32" viewBox="0 0 32 32" fill="none" xmlns="http://www.w3.org/2000/svg">
<path d="M24.2505 12.0961C24.1903 12.0495 24.1466 11.9858 24.1255 11.9139V11.75C24.1255 10.6228 23.6645 9.54183 22.844 8.7448C22.0235 7.94777 20.9106 7.5 19.7502 7.5H12.2498C11.0894 7.5 9.97653 7.94777 9.15601 8.7448C8.33549 9.54183 7.87453 10.6228 7.87453 11.75V11.9139C7.85364 11.9859 7.80989 12.0497 7.74952 12.0961C7.19755 12.5952 6.75734 13.1994 6.45634 13.8711C6.15534 14.5428 6 15.2675 6 16C6 16.7325 6.15534 17.4572 6.45634 18.1289C6.75734 18.8006 7.19755 19.4048 7.74952 19.9039C7.80989 19.9503 7.85364 20.0141 7.87453 20.0861V20.25C7.87453 21.3772 8.33549 22.4582 9.15601 23.2552C9.97653 24.0522 11.0894 24.5 12.2498 24.5H19.7502C20.9106 24.5 22.0235 24.0522 22.844 23.2552C23.6645 22.4582 24.1255 21.3772 24.1255 20.25V20.0861C24.1466 20.0142 24.1903 19.9505 24.2505 19.9039C24.8025 19.4048 25.2427 18.8006 25.5437 18.1289C25.8447 17.4572 26 16.7325 26 16C26 15.2675 25.8447 14.5428 25.5437 13.8711C25.2427 13.1994 24.8025 12.5952 24.2505 12.0961ZM22.5629 18.125C22.2756 18.3712 22.0439 18.6726 21.8826 19.0101C21.7212 19.3476 21.6336 19.714 21.6253 20.0861V20.25C21.6253 20.7331 21.4278 21.1964 21.0761 21.5379C20.7245 21.8795 20.2475 22.0714 19.7502 22.0714H12.2498C11.7525 22.0714 11.2755 21.8795 10.9239 21.5379C10.5722 21.1964 10.3747 20.7331 10.3747 20.25V20.0861C10.3684 19.7151 10.2832 19.3495 10.1246 19.012C9.96593 18.6745 9.7372 18.3726 9.45275 18.125C9.15255 17.8532 8.91317 17.5242 8.74949 17.1586C8.58582 16.793 8.50135 16.3987 8.50135 16C8.50135 15.6013 8.58582 15.207 8.74949 14.8414C8.91317 14.4758 9.15255 14.1468 9.45275 13.875C9.7372 13.6274 9.96593 13.3255 10.1246 12.988C10.2832 12.6505 10.3684 12.2849 10.3747 11.9139V11.75C10.3747 11.2669 10.5722 10.8036 10.9239 10.4621C11.2755 10.1205 11.7525 9.92857 12.2498 9.92857H19.7502C20.2475 9.92857 20.7245 10.1205 21.0761 10.4621C21.4278 10.8036 21.6253 11.2669 21.6253 11.75V11.9139C21.6336 12.286 21.7212 12.6524 21.8826 12.9899C22.0439 13.3274 22.2756 13.6288 22.5629 13.875C22.8631 14.1468 23.1025 14.4758 23.2661 14.8414C23.4298 15.207 23.5143 15.6013 23.5143 16C23.5143 16.3987 23.4298 16.793 23.2661 17.1586C23.1025 17.5242 22.8631 17.8532 22.5629 18.125Z" fill="#191919"/>
<path d="M18.1876 14.7857H13.8124C13.4808 14.7857 13.1629 14.9136 12.9284 15.1414C12.694 15.3691 12.5623 15.678 12.5623 16C12.5623 16.322 12.694 16.6309 12.9284 16.8586C13.1629 17.0864 13.4808 17.2143 13.8124 17.2143H18.1876C18.5192 17.2143 18.8371 17.0864 19.0716 16.8586C19.306 16.6309 19.4377 16.322 19.4377 16C19.4377 15.678 19.306 15.3691 19.0716 15.1414C18.8371 14.9136 18.5192 14.7857 18.1876 14.7857Z" fill="#191919"/>
</svg>
