<svg width="24" height="24" viewBox="0 0 24 24" fill="none" xmlns="http://www.w3.org/2000/svg">
<path fill-rule="evenodd" clip-rule="evenodd" d="M20.0472 9.21599C20.0605 9.22123 20.0859 9.2279 20.0957 9.23136C20.1365 9.24576 20.1706 9.26566 20.1992 9.29585C20.2643 9.36458 20.2642 9.44118 20.2602 9.52407C20.3106 9.56571 20.3955 9.60793 20.4459 9.65057C20.5368 9.72722 20.5812 9.77013 20.6115 9.88263C20.6294 9.94864 20.623 10.028 20.6145 10.0978C20.6539 10.1332 20.6699 10.1825 20.668 10.2336C20.6624 10.3788 20.6599 10.524 20.6494 10.6692C20.6534 10.6709 20.6574 10.6725 20.661 10.6742C20.7438 10.7126 20.7957 10.7692 20.8029 10.8547C20.8071 10.9057 20.7743 10.9766 20.7627 11.0257C20.9213 11.0345 21.0157 11.102 20.9978 11.2583C20.9758 11.4518 20.8211 11.6279 20.6497 11.7386C20.5412 11.8087 20.3946 11.8874 20.3633 12.0129C20.3595 12.0282 20.3535 12.0435 20.3481 12.0586C20.349 12.063 20.3498 12.0673 20.3505 12.0717C20.3839 12.1055 20.411 12.1437 20.4247 12.1866C20.511 12.2067 20.5555 12.2698 20.5602 12.3568C20.5676 12.492 20.5174 12.736 20.4588 12.8812C20.4631 12.8835 20.4674 12.8858 20.4715 12.8882C20.5548 12.9363 20.6151 13.0008 20.6085 13.0944C20.6064 13.1248 20.5926 13.153 20.575 13.1787C20.5655 13.1926 20.5466 13.213 20.5329 13.23C20.5542 13.2412 20.587 13.2561 20.6012 13.2657C20.6633 13.3082 20.691 13.3675 20.6981 13.4361C20.7162 13.6104 20.5144 13.7856 20.3749 13.8856C20.3095 13.9326 20.233 13.9692 20.1612 14.0079C20.1187 14.0309 20.0192 14.0799 19.9881 14.1104C19.9792 14.1192 19.9476 14.1438 19.958 14.1572C20.0272 14.2456 20.0464 14.3385 19.9906 14.4314C20.0326 14.6005 20.0139 14.7793 19.9511 14.9425C19.87 15.1531 19.76 15.3535 19.6588 15.5566C19.497 15.8812 19.3929 16.2759 19.1006 16.5306C18.9761 16.6391 18.8584 16.7147 18.7018 16.7821C18.6561 16.8019 18.6097 16.8202 18.5628 16.8372C18.5514 17.042 18.427 17.2688 18.2932 17.4379C18.3588 17.495 18.3911 17.5649 18.3674 17.6472C18.353 17.6972 18.3226 17.7135 18.2939 17.7434C18.3088 17.7582 18.3394 17.7848 18.3452 17.7909C18.3973 17.8458 18.4118 17.9087 18.4047 17.9796C18.3802 18.2237 17.7722 18.4483 17.5402 18.4999C17.4793 18.5135 17.4689 18.5181 17.4656 18.5757C17.4558 18.7477 17.4844 18.8698 17.278 18.961C17.2412 18.9773 17.2036 18.9923 17.165 19.005C17.1298 19.2 16.9688 19.3804 16.7583 19.4426C16.7158 19.4551 16.6722 19.4616 16.6281 19.4654C16.648 19.5105 16.653 19.5579 16.6449 19.6075C16.6376 19.6517 16.6206 19.6895 16.5893 19.7243C16.5722 19.7434 16.5491 19.7605 16.5337 19.7794C16.5245 19.7909 16.5214 19.8011 16.5214 19.8152C16.5214 19.9723 16.6416 20.119 16.5367 20.2812C16.437 20.4352 16.2006 20.5354 16.0293 20.6149C15.9833 20.6362 15.9286 20.6405 15.8776 20.641C15.855 20.6411 15.7949 20.6381 15.7576 20.6407L15.7803 20.6407L15.4977 20.8556C15.001 21.2335 14.5315 21.6399 14.0123 21.9938C13.8556 22.1006 13.7604 22.1707 13.5523 22.1182C13.4565 22.094 13.3602 22.0715 13.2633 22.0508C12.9159 22.3175 12.5613 22.5767 12.1982 22.8261L11.9451 23L11.6964 22.8213C11.343 22.5673 10.9976 22.3046 10.6561 22.038C10.552 22.0602 10.4485 22.0859 10.3472 22.1164C10.1571 22.1737 10.1032 22.1147 9.9582 22.0242C9.40827 21.681 8.93499 21.2573 8.42321 20.8724L8.18281 20.6917C8.04299 20.6355 7.87836 20.5591 7.77677 20.4666L6.1098 18.9474L6.35524 18.9031C6.38243 18.8982 6.40971 18.8936 6.43699 18.8892L5.15965 17.45L5.2669 17.4465C5.34762 17.4438 5.42837 17.4406 5.50909 17.4385C5.40642 17.1974 5.28054 16.9658 5.12223 16.7495L5.0953 16.7127C4.956 16.6611 4.82683 16.5939 4.71481 16.5024C4.40789 16.2518 4.37594 15.8872 4.21637 15.5669C4.1102 15.3539 3.96921 15.1534 3.88399 14.9322C3.81978 14.7655 3.79592 14.5833 3.8429 14.4105L3.88568 14.253C3.80064 14.1281 3.7233 13.9995 3.65354 13.8663L3.53607 13.6422L3.79397 13.6937C3.75132 13.5182 3.69975 13.3444 3.6432 13.1721C3.49957 12.7343 3.32543 12.301 3.11984 11.8835L3 11.64L3.28378 11.7183C3.38282 11.7456 3.4809 11.7759 3.57785 11.8089C3.49775 11.6554 3.43364 11.4841 3.39343 11.3254C3.21955 10.6403 3.4213 9.86012 3.85139 9.27959L3.9166 9.19154C3.87421 8.5724 3.84805 7.95229 3.84273 7.33198L3.84026 7.03314C4.02858 7.04463 4.20776 7.01444 4.39343 6.98327C5.00835 6.88009 5.54369 6.64543 6.12345 6.4067C7.04767 6.02606 7.94365 5.5938 8.84467 5.17168C9.05126 5.07486 9.25784 4.97796 9.46478 4.88176L7.91144 3.63844L10.7786 3.38666L11.9309 1L13.0832 3.38666L15.9504 3.63844L14.4256 4.85887C14.7991 5.0343 15.1703 5.21343 15.5421 5.39163C16.2906 5.75038 17.04 6.10968 17.8149 6.42125C18.4045 6.65836 19.0627 6.89977 19.7062 6.97672L20.0708 7.02033L20.0589 7.34995C20.0371 7.9455 20.0325 8.54147 20.0115 9.13698C20.0229 9.16357 20.0341 9.19011 20.0472 9.21599ZM11.3502 21.9328C11.549 22.0848 11.7495 22.235 11.9526 22.3823C12.1619 22.237 12.3683 22.0886 12.5721 21.9373C12.3579 21.9135 12.1421 21.9007 11.9264 21.9018C11.7348 21.9027 11.5414 21.914 11.3502 21.9328Z" fill="#161413"/>
<path fill-rule="evenodd" clip-rule="evenodd" d="M5.73962 8.17328C6.90417 7.76524 8.03692 7.26352 9.14063 6.73821C9.4175 6.60643 9.69302 6.4727 9.96781 6.3375L10.2164 5.32049L9.91983 5.08313C8.4734 5.74514 6.94435 6.48601 5.76101 6.94757C5.15826 7.18269 4.62449 7.32297 4.25396 7.35937C4.26032 8.32035 4.32181 9.24524 4.39742 10.0962C4.26812 9.85837 4.15987 9.61312 4.06629 9.38455C4.01935 8.70096 3.98411 8.01666 3.9783 7.33116L3.9767 7.14683C4.18684 7.13492 4.5352 7.08152 4.82211 6.99988C5.29934 6.86406 5.82558 6.66304 6.18004 6.5171C7.10348 6.1368 8.00679 5.70129 8.90749 5.27931C9.17072 5.15601 9.43551 5.03175 9.70194 4.9087L8.23226 3.73235L10.8713 3.50057L11.9309 1.3059L12.9906 3.50057L15.6296 3.73235L14.189 4.88538C14.6208 5.08635 15.0493 5.29321 15.4781 5.49872C16.2276 5.85794 16.9837 6.22019 17.7594 6.53207C18.3485 6.76898 19.0455 7.02025 19.6882 7.09716L19.9314 7.12623L19.9234 7.34594C19.9031 7.90028 19.8976 8.45462 19.8801 9.00876C19.849 8.9743 19.8094 8.94873 19.7704 8.92009C19.7224 8.88486 19.6704 8.85172 19.6133 8.85047C19.6245 8.41903 19.6297 7.95845 19.6523 7.33799C18.1352 7.15646 15.946 5.97261 13.9725 5.05868L13.6455 5.32049L13.8943 6.33851C14.099 6.43654 14.3039 6.53436 14.509 6.63165C15.1529 6.93689 15.8002 7.23865 16.4571 7.521C17.0088 7.7581 17.5809 7.99109 18.1597 8.16982L18.353 8.22958L18.342 8.41251C18.247 10.0034 18.0744 11.6175 17.5958 13.1568C16.7245 15.959 15.032 18.234 12.8334 20.3005C12.719 20.2881 12.6044 20.2782 12.4893 20.2708C14.8782 18.0584 16.4968 15.7862 17.3346 13.0916C17.7864 11.6383 17.9707 10.0833 18.0713 8.39955C16.9405 8.05019 15.4274 7.34606 13.9705 6.65063L14.2168 7.65837L11.9309 6.44523L9.645 7.65837L9.89095 6.65218C8.5529 7.30586 7.17328 7.93183 5.83835 8.39955C5.9773 10.0486 6.08261 11.6623 6.53888 13.1238C7.37766 15.8107 9.24745 18.3933 11.4707 20.2751C11.352 20.2834 11.2336 20.2942 11.1156 20.3071C8.90195 18.384 7.09876 15.8193 6.27777 13.1892C6.20909 12.9692 6.14821 12.7467 6.094 12.5224L6.09461 12.5211L6.16155 12.3835L6.06642 12.4058C5.76495 11.1005 5.67896 9.73478 5.56798 8.41787L5.55291 8.2387L5.73962 8.17328ZM11.114 21.9108C11.4559 22.1744 11.7414 22.3864 11.9508 22.5369C12.2406 22.3377 12.5262 22.1313 12.8082 21.9187C12.9228 21.9356 13.0368 21.9554 13.15 21.9777C12.8124 22.2362 12.4682 22.4876 12.1158 22.7297L11.947 22.8456L11.7812 22.7265C11.4384 22.4802 11.1015 22.2244 10.7694 21.9654C10.8816 21.9443 10.9975 21.9262 11.114 21.9108Z" fill="#F6CA00"/>
<path fill-rule="evenodd" clip-rule="evenodd" d="M4.6861 10.6825C4.34186 10.2495 4.11427 9.71842 3.96432 9.34682C3.48441 9.99456 3.38692 10.752 3.52559 11.2985C3.58435 11.5301 3.67545 11.7229 3.76011 11.86C3.81302 11.706 3.88451 11.5576 3.97051 11.4202C3.9909 11.3876 4.01299 11.3548 4.03646 11.3219C3.92955 10.9681 3.84593 10.3184 3.90339 9.92354C3.90365 10.1803 3.92907 10.4844 3.97384 10.7627C3.99805 10.6421 4.04213 10.5021 4.1089 10.3918C4.05122 10.5729 4.0042 10.7969 4.00593 10.9409C4.02905 11.056 4.05564 11.1631 4.08521 11.2562C4.24274 11.0516 4.45332 10.8488 4.6861 10.6825Z" fill="#F6CA00"/>
<path fill-rule="evenodd" clip-rule="evenodd" d="M5.33943 10.4271C4.78704 10.6006 4.27124 11.0886 4.04144 11.4558C3.9431 11.613 3.86698 11.7802 3.81558 11.9499C4.00788 12.0274 4.20005 12.1188 4.37971 12.2239C4.39213 12.175 4.40647 12.1231 4.42257 12.0688C4.40859 11.9263 4.32848 11.6995 4.24335 11.5196C4.34641 11.6489 4.41993 11.8294 4.45574 11.9616C4.56642 11.6175 4.73625 11.2114 4.91729 10.948C4.71529 11.3516 4.54304 11.8332 4.44219 12.2613C4.71092 12.426 4.9476 12.6222 5.10929 12.8484C5.18584 12.7926 5.26591 12.7398 5.34818 12.6914C5.35719 12.6444 5.36425 12.5979 5.36923 12.5518C5.39573 12.3072 5.3461 12.0144 5.27461 11.7268C5.18688 11.3741 5.20624 10.7758 5.33943 10.4271Z" fill="#F6CA00"/>
<path fill-rule="evenodd" clip-rule="evenodd" d="M4.3448 14.63C4.12557 14.3825 3.94388 14.1345 3.77622 13.8146C4.71308 14.0017 5.15978 14.2815 5.55213 14.5843C5.47103 14.692 5.40075 14.8066 5.34082 14.9262C5.063 14.6932 4.69693 14.4162 4.37529 14.2575C4.66419 14.4631 5.0187 14.7209 5.31051 14.989C5.29726 15.0175 5.28453 15.0462 5.2724 15.0752C5.19013 15.0457 5.1082 15.015 5.0271 14.982C4.78436 14.8835 4.55503 14.77 4.3448 14.63Z" fill="#F6CA00"/>
<path fill-rule="evenodd" clip-rule="evenodd" d="M3.95172 13.7769C3.79973 13.09 3.46778 12.2892 3.24386 11.8344C4.00662 12.0448 4.71737 12.4295 5.04637 12.8956C4.8652 13.0353 4.70637 13.1921 4.58695 13.3511C4.46717 13.5107 4.37408 13.6854 4.30951 13.8684C4.19165 13.8339 4.07214 13.8038 3.95172 13.7769ZM3.64462 12.1923C3.86931 12.4113 4.0898 12.6371 4.28479 12.8732C4.18282 12.82 4.06265 12.7796 3.8898 12.7436C4.05698 12.8068 4.23062 12.8806 4.35004 12.954C4.44345 13.072 4.53013 13.1925 4.60734 13.3162L4.65103 13.2571C4.44513 12.9305 4.06209 12.5257 3.64462 12.1923Z" fill="#F6CA00"/>
<path fill-rule="evenodd" clip-rule="evenodd" d="M6.02004 12.492C5.45375 12.6248 4.91686 13.0424 4.65445 13.3918C4.53624 13.5493 4.4476 13.7184 4.38659 13.8917C4.59071 13.9551 4.78934 14.0319 4.97839 14.1267C5.00666 14.1408 5.03442 14.1553 5.06174 14.17C5.13297 13.9145 5.23495 13.6508 5.36858 13.4327C5.27773 13.6866 5.18987 13.9451 5.1231 14.2039C5.19684 14.2457 5.26755 14.2896 5.33649 14.3356C5.42868 14.2471 5.52658 14.13 5.61202 14.0149C5.51874 14.1833 5.4599 14.2785 5.37693 14.3629C5.45223 14.4144 5.52563 14.4683 5.59894 14.5244C5.68186 14.4222 5.77517 14.3266 5.87923 14.2395C5.87745 14.0796 5.85866 13.9098 5.8325 13.7413C5.77695 13.3834 5.85571 12.8298 6.02004 12.492Z" fill="#F6CA00"/>
<path fill-rule="evenodd" clip-rule="evenodd" d="M6.13345 16.9133C6.10487 17.1174 6.09417 17.3792 6.10894 17.5142C6.17588 17.5296 6.46985 17.5757 6.61587 17.6126C6.60647 17.4493 6.6069 17.274 6.61517 17.0883C6.44708 17.0111 6.30683 16.9614 6.13345 16.9133ZM6.68355 17.6304C6.75473 17.6497 6.82553 17.6711 6.89572 17.6944C6.93006 17.7059 6.96422 17.7178 6.99809 17.7302C7.03792 17.6088 7.08746 17.4888 7.14574 17.3708C6.98648 17.2755 6.81925 17.1839 6.64748 17.1033C6.65627 17.2783 6.66575 17.4555 6.68355 17.6304Z" fill="#F6CA00"/>
<path fill-rule="evenodd" clip-rule="evenodd" d="M6.63016 18.9116L5.43275 17.5625C6.0384 17.5424 6.55221 17.6453 6.976 17.8008C6.93352 17.9447 6.90494 18.0906 6.89208 18.2379C6.66527 18.1045 6.36255 17.9601 6.07105 17.8425C6.32926 17.9826 6.64159 18.162 6.88672 18.3174C6.88455 18.3613 6.8839 18.4054 6.88468 18.4496C6.78643 18.4569 6.68948 18.463 6.51238 18.4763C6.63349 18.4887 6.76937 18.4926 6.88598 18.4947C6.89118 18.6249 6.90941 18.756 6.94158 18.8876C6.83817 18.8914 6.73434 18.8995 6.63016 18.9116Z" fill="#F6CA00"/>
<path fill-rule="evenodd" clip-rule="evenodd" d="M7.53762 16.8843C7.05299 17.5416 6.85662 18.2216 7.02437 18.8853C7.21446 18.8824 7.40286 18.8937 7.5888 18.9201C7.49237 18.5629 7.43525 18.1014 7.46375 17.568C7.48557 17.9293 7.52454 18.3109 7.60127 18.6716C7.64262 18.5356 7.70493 18.4445 7.84086 18.2494C7.74269 18.424 7.64306 18.6583 7.62833 18.7914C7.63968 18.8386 7.65176 18.8854 7.66462 18.9317C7.78145 18.9509 7.89736 18.9762 8.01194 19.0077C8.0717 18.9144 8.1499 18.8328 8.23628 18.7559C8.18367 18.8278 8.11712 18.9168 8.06542 19.0228C8.23433 19.0723 8.40052 19.1353 8.56321 19.2125C8.59806 19.2291 8.6321 19.2459 8.66548 19.2631C8.61716 19.0283 8.51731 18.817 8.40836 18.6411C8.27733 18.4295 8.09846 18.2447 7.94413 17.9875C7.75309 17.669 7.60772 17.2249 7.53762 16.8843Z" fill="#F6CA00"/>
<path fill-rule="evenodd" clip-rule="evenodd" d="M6.43446 19.0375L7.88967 20.3636C7.95391 20.4222 8.06562 20.4817 8.19956 20.5383C8.33175 20.5942 8.48306 20.6462 8.62612 20.6911C8.77283 20.693 8.94811 20.663 9.09108 20.6385C9.11184 20.635 9.13192 20.6316 9.15113 20.6284M6.43446 19.0375C8.18332 18.7425 9.18397 19.6991 9.47393 19.9763C9.47918 19.9813 9.48419 19.9861 9.48897 19.9907C9.50682 20.0077 9.52833 20.0367 9.55229 20.0755C9.57603 20.1139 9.60136 20.1605 9.62708 20.2116C9.67414 20.3051 9.72204 20.4126 9.76333 20.5105C9.67342 20.529 9.58366 20.5475 9.49385 20.5652C9.32508 20.3999 9.11162 20.2274 8.83833 20.0484C8.82795 19.8982 8.81094 19.7827 8.73659 19.6127L8.69128 19.6284C8.72307 19.7496 8.73518 19.866 8.72788 19.9776C8.31993 19.7225 7.78889 19.454 7.0923 19.173L7.0727 19.2169C7.15986 19.2597 7.24705 19.302 7.33412 19.3442C7.51508 19.432 7.69552 19.5195 7.87411 19.6107C7.80458 19.6146 7.73601 19.6165 7.62842 19.6195C7.59718 19.6203 7.56265 19.6213 7.52385 19.6224L7.52211 19.6704C7.71572 19.6901 7.93208 19.7015 8.05967 19.7075C8.3639 19.8696 8.66012 20.0465 8.94037 20.258C8.81047 20.2646 8.63387 20.2689 8.4674 20.2729C8.39452 20.2747 8.32359 20.2764 8.25937 20.2782L8.25761 20.3262C8.41159 20.342 8.73455 20.3497 8.94608 20.3548C8.99351 20.3559 9.03533 20.357 9.06839 20.3579C9.16055 20.4325 9.25074 20.5113 9.33872 20.5951C9.27623 20.6067 9.21374 20.6179 9.15113 20.6284M8.03546 19.6473L7.96384 19.6529C7.95953 19.6532 7.95527 19.6535 7.95105 19.6539C7.99128 19.656 8.02793 19.6578 8.05936 19.6593C8.05143 19.6553 8.04346 19.6513 8.03546 19.6473ZM8.30878 19.7896C8.55381 19.9292 8.7928 20.0821 9.02114 20.2592L9.07107 20.2979L9.00803 20.3022C8.98582 20.3037 8.96137 20.3051 8.93514 20.3064C8.93867 20.3065 8.94218 20.3066 8.94565 20.3067C8.99757 20.3079 9.04301 20.309 9.07789 20.31L9.08599 20.3103L9.09229 20.3153C9.1995 20.4018 9.30411 20.4939 9.40578 20.5929L9.43892 20.6251L9.39349 20.6338C9.31547 20.6486 9.23739 20.6627 9.15905 20.6758C9.14019 20.679 9.12033 20.6824 9.09968 20.6859C8.95614 20.7105 8.77419 20.7416 8.62188 20.7392L8.61477 20.7391L8.61508 20.7381C8.47035 20.6927 8.31607 20.6398 8.18082 20.5826C8.04629 20.5258 7.92798 20.4637 7.85726 20.3992L6.3298 19.0072L6.37772 18.9985C8.18047 18.6732 9.21221 19.6595 9.50714 19.9415C9.51238 19.9465 9.51739 19.9513 9.52217 19.9558C9.54461 19.9772 9.56871 20.0105 9.59322 20.0502C9.61796 20.0902 9.64398 20.1381 9.67005 20.1899C9.7222 20.2935 9.77511 20.4136 9.81902 20.5188L9.83025 20.5457L9.80169 20.5517C9.69808 20.5731 9.59444 20.5945 9.49069 20.6149L9.4782 20.6174L9.46914 20.6084C9.29954 20.4409 9.08278 20.2653 8.80199 20.0821L8.79192 20.0755L8.79113 20.0636C8.78787 20.0143 8.78408 19.9693 8.77799 19.9254C8.77764 19.9578 8.77577 19.9898 8.77237 20.0216L8.76825 20.06L8.73557 20.0393C8.60661 19.9576 8.46483 19.8743 8.30878 19.7896Z" fill="#161413"/>
<path fill-rule="evenodd" clip-rule="evenodd" d="M8.62227 20.7151C8.3335 20.6246 8.00843 20.5045 7.87346 20.3814L6.382 19.0222C8.20467 18.6933 9.23308 19.7134 9.50557 19.9733C9.58616 20.0501 9.70922 20.3182 9.79682 20.5281C9.6932 20.5495 9.58966 20.5709 9.48604 20.5913C9.31513 20.4225 9.09707 20.2459 8.81513 20.062C8.80492 19.9075 8.78937 19.7934 8.71455 19.6223C8.7507 19.7601 8.762 19.8924 8.74845 20.019C8.33774 19.7586 7.79812 19.4836 7.0833 19.1953C7.37714 19.3396 7.67242 19.4786 7.96197 19.6289C7.83185 19.6391 7.74975 19.64 7.52454 19.6464C7.72022 19.6663 7.93945 19.6778 8.0662 19.6837C8.39143 19.8568 8.70818 20.0469 9.0064 20.2782C8.82561 20.2905 8.49626 20.2955 8.26006 20.3023C8.45028 20.3217 8.90109 20.3289 9.07719 20.3341C9.18384 20.4201 9.2879 20.5117 9.389 20.6101C9.31111 20.6249 9.23321 20.639 9.15509 20.6521C9.00384 20.6773 8.7937 20.7179 8.62227 20.7151Z" fill="#F6CA00"/>
<path fill-rule="evenodd" clip-rule="evenodd" d="M5.25837 16.7145C5.42643 16.9499 5.5601 17.2026 5.67294 17.485C5.78223 17.486 5.87992 17.4935 6.02654 17.5133C6.01246 17.3282 6.02104 17.1028 6.0601 16.8878C5.80354 16.8253 5.52013 16.7904 5.25837 16.7145Z" fill="#F6CA00"/>
<path fill-rule="evenodd" clip-rule="evenodd" d="M3.96168 14.3951L3.99076 14.4213C4.4844 14.8678 5.09581 15.0724 5.62878 15.2508C5.7596 15.2946 5.88571 15.3368 6.00418 15.3806C6.33725 15.5037 6.69256 15.6438 6.8665 15.9643C6.96432 16.1446 7.17478 16.6337 7.34187 17.0541L7.3464 17.0656L7.33981 17.0759C7.28974 17.1547 7.2434 17.2344 7.20112 17.315L7.18934 17.3375L7.16753 17.3245C6.78151 17.0951 6.40163 16.9182 6.03728 16.8292C5.92221 16.8011 5.8085 16.7795 5.69693 16.7587C5.69125 16.7576 5.68557 16.7566 5.6799 16.7555C5.57441 16.7358 5.47075 16.7165 5.37066 16.6926C5.1596 16.6422 4.96214 16.5711 4.79088 16.4313C4.64985 16.3161 4.5673 16.1596 4.50229 15.9983C4.47803 15.9381 4.45598 15.8766 4.43432 15.8162C4.427 15.7958 4.41973 15.7755 4.41242 15.7554C4.38337 15.6756 4.35376 15.5987 4.3186 15.5281C4.26639 15.4233 4.21353 15.3305 4.16406 15.2436C4.15433 15.2265 4.14474 15.2096 4.13531 15.193C4.0781 15.0919 4.02671 14.9973 3.98967 14.9012C3.93197 14.7514 3.90868 14.5902 3.95141 14.4329L3.96168 14.3951ZM4.03457 14.8839C3.98423 14.7532 3.9625 14.6167 3.9888 14.484L4.03457 14.8839ZM3.9888 14.484C4.48536 14.9193 5.09478 15.1231 5.61761 15.2979C5.74724 15.3413 5.87155 15.3828 5.98749 15.4257M4.20572 15.2195C4.2552 15.3064 4.30881 15.4006 4.36166 15.5066C4.39811 15.5798 4.42849 15.6588 4.45764 15.739C4.46511 15.7595 4.47249 15.7801 4.47987 15.8007C4.50144 15.8609 4.52304 15.9211 4.54692 15.9803C4.61094 16.1392 4.68976 16.2866 4.82131 16.394C4.98446 16.5272 5.17385 16.5961 5.38184 16.6458C5.48072 16.6694 5.5833 16.6885 5.68913 16.7083C5.69466 16.7093 5.70021 16.7104 5.70576 16.7114C5.81727 16.7322 5.93218 16.754 6.0487 16.7825C6.0487 16.7825 6.0487 16.7825 6.0487 16.7825L6.04299 16.8058M4.20572 15.2195C4.19604 15.2025 4.18651 15.1858 4.17719 15.1693L4.20572 15.2195ZM4.17719 15.1693C4.11998 15.0682 4.07019 14.9764 4.03457 14.8839L4.17719 15.1693ZM6.82422 15.9872C6.91961 16.1631 7.12619 16.6424 7.29262 17.0605L6.82422 15.9872ZM7.29262 17.0605C7.24899 17.1297 7.20816 17.1996 7.17037 17.2703L7.29262 17.0605Z" fill="#161413"/>
<path fill-rule="evenodd" clip-rule="evenodd" d="M6.17229 14.1219C5.75149 14.3806 5.49683 14.7456 5.34805 15.102C5.49411 15.1531 5.64116 15.2011 5.7876 15.2511C5.81718 14.9999 5.87355 14.7397 5.96535 14.5168C5.91976 14.7672 5.87758 15.0215 5.85346 15.2737C5.91144 15.2939 5.96921 15.3145 6.02684 15.3358C6.20217 15.4006 6.35805 15.4642 6.49289 15.5391C6.46067 15.4731 6.42932 15.4046 6.40049 15.3325C6.26443 14.9921 6.18515 14.4681 6.17229 14.1219Z" fill="#F6CA00"/>
<path fill-rule="evenodd" clip-rule="evenodd" d="M3.97462 14.4392C3.93362 14.5902 3.95566 14.746 4.01212 14.8926C4.08478 15.0811 4.21447 15.2652 4.34013 15.5174C4.48337 15.8048 4.53351 16.1901 4.80609 16.4126C5.14051 16.6857 5.5798 16.6927 6.04299 16.8058C6.41053 16.8956 6.79271 17.0738 7.17982 17.3038C7.22243 17.2226 7.26911 17.1423 7.31951 17.063C7.15237 16.6425 6.9424 16.1546 6.84536 15.9758C6.6764 15.6644 6.33047 15.5269 5.99584 15.4032C5.39871 15.1824 4.59396 14.9993 3.97462 14.4392Z" fill="#D91521"/>
<path fill-rule="evenodd" clip-rule="evenodd" d="M19.8547 14.4444C19.8957 14.5953 19.8793 14.7564 19.8229 14.9028C19.7504 15.0913 19.6607 15.255 19.535 15.5071C19.3918 15.7945 19.2704 16.2132 19.0061 16.4435C18.8789 16.5543 18.7825 16.6126 18.643 16.6727C18.347 16.8003 18.0003 16.8708 17.6833 16.9396C17.3015 17.0224 16.8178 17.1938 16.3496 17.4643C16.5568 17.0488 16.957 16.1678 17.047 15.9861C17.2444 15.5874 17.5447 15.5115 17.8793 15.3877C18.4649 15.1772 19.2412 14.9891 19.8547 14.4444Z" fill="#D91521"/>
<path fill-rule="evenodd" clip-rule="evenodd" d="M14.1139 20.5244C14.1278 20.3377 14.1309 20.1362 14.2447 20.0199C14.3454 19.9169 14.5371 20.0269 14.6421 19.9419C14.738 19.8644 14.6937 19.5379 14.8935 19.3278C14.9749 19.2422 15.1501 19.3103 15.2727 19.2868C15.4378 19.2553 15.4577 19.0931 15.5972 19.0781C15.7329 19.0635 15.8085 19.2139 15.94 19.1805C16.0166 19.161 16.077 19.0824 16.1548 19.0159C16.2326 18.9492 16.3278 18.8945 16.401 18.9224C16.5079 18.9631 16.5284 19.0602 16.5137 19.1558C16.499 19.2513 16.4263 19.3252 16.4423 19.4097C16.4527 19.4644 16.5271 19.4903 16.5108 19.5898C16.4937 19.6939 16.3858 19.6769 16.3858 19.8152C16.3858 19.9548 16.4869 20.1159 16.4194 20.2202C16.3442 20.3365 16.1471 20.4234 15.967 20.5069C15.9118 20.5326 15.7313 20.5075 15.6722 20.5357C15.5752 20.582 15.4998 20.64 15.4252 20.6901L15.4098 20.6901C15.1736 20.6907 14.9489 20.6858 14.7171 20.646C14.915 20.5077 15.1148 20.3496 15.328 20.1576C15.5375 20.1714 15.8759 20.161 16.0765 20.133C15.92 20.1365 15.5595 20.1438 15.3764 20.1137C15.6397 19.8728 15.9244 19.58 16.2518 19.2106C16.0488 19.4072 15.8514 19.6069 15.647 19.802C15.662 19.6751 15.6729 19.5828 15.6905 19.4313C15.6392 19.5943 15.6122 19.7556 15.5788 19.8667C15.4283 20.0085 15.2732 20.1474 15.109 20.2803C15.1074 20.1205 15.1265 19.8166 15.1362 19.6001C15.1003 19.7711 15.0589 20.1826 15.0408 20.3347C14.9129 20.4353 14.7791 20.5321 14.6373 20.6239C14.5941 20.4898 14.5649 20.3992 14.5148 20.2445C14.5321 20.3832 14.5641 20.5152 14.5838 20.6213C14.4266 20.5911 14.2703 20.5579 14.1139 20.5244Z" fill="#F6CA00"/>
<path fill-rule="evenodd" clip-rule="evenodd" d="M17.798 16.9898C17.6455 17.2377 17.4457 17.5247 17.2527 17.7819C17.2053 17.6143 17.1593 17.4767 17.1 17.3644C17.1458 17.5103 17.1885 17.6658 17.2192 17.8262C17.1508 17.9166 17.0835 18.0026 17.0201 18.0812C17.0186 18.0709 17.0164 18.0601 17.0134 18.0488C16.9875 17.9532 16.9249 17.9312 16.8805 17.855C16.8512 17.8046 16.8717 17.6385 16.8653 17.572C16.8549 17.464 16.8218 17.3791 16.718 17.3544C17.0297 17.2049 17.3682 17.0829 17.7024 17.0104L17.798 16.9898ZM18.4273 16.8316C18.4157 17.042 18.2596 17.2794 18.1464 17.4117C18.0749 17.4951 18.2662 17.5124 18.2361 17.6168C18.2248 17.6561 18.1413 17.6777 18.1513 17.7491C18.1657 17.8522 18.2828 17.8381 18.2697 17.9688C18.2571 18.0948 17.8128 18.3142 17.5075 18.382C17.422 18.401 17.3382 18.4302 17.3302 18.5695C17.3234 18.6889 17.3602 18.7893 17.2181 18.852C17.1829 18.8676 17.1507 18.8805 17.1187 18.8912C17.1144 18.8192 17.086 18.7598 17.0118 18.702C16.9268 18.6357 16.8512 18.5594 16.8421 18.4743C16.9067 18.3579 16.9721 18.2344 17.0643 18.1095C17.3398 18.0762 17.6298 18.0661 17.8747 18.021C17.6085 18.031 17.3437 18.0512 17.1081 18.0523C17.202 17.9308 17.3161 17.78 17.4304 17.6173C17.5265 17.5825 17.6374 17.5437 17.7473 17.4958C17.633 17.5254 17.55 17.5471 17.4637 17.5696C17.5954 17.3793 17.725 17.1754 17.8218 16.9846C18.0246 16.9408 18.2302 16.8947 18.4273 16.8316Z" fill="#F6CA00"/>
<path fill-rule="evenodd" clip-rule="evenodd" d="M15.2919 19.204C15.2713 19.0836 15.2625 18.9692 15.2845 18.8926C15.3038 18.8256 15.4365 18.7861 15.4804 18.7168C15.5441 18.6161 15.4268 18.3513 15.4394 18.2431C15.4571 18.0911 15.6318 18.1349 15.7404 18.1034C15.8736 18.0649 15.796 17.9262 15.8995 17.8807C16.0189 17.8282 15.9909 17.9646 16.1147 17.8955C16.1696 17.8648 16.2306 17.7341 16.2532 17.6754C16.2769 17.6138 16.3374 17.5933 16.3765 17.565C16.4821 17.4884 16.5861 17.4221 16.6378 17.4202C16.7537 17.416 16.7743 17.4752 16.7842 17.5783C16.7935 17.6742 16.7642 17.8128 16.8084 17.8887C16.8557 17.97 16.9137 17.9899 16.9343 18.066C16.9598 18.1598 16.9024 18.2044 16.8396 18.2738C16.6607 18.4713 16.8156 18.6455 16.9584 18.757C17.0433 18.8232 17.0444 18.8881 17.0338 18.9689C17.0084 19.1638 16.8412 19.2902 16.7159 19.3271C16.6612 19.3433 16.5951 19.3467 16.5274 19.3492C16.5432 19.2941 16.5844 19.2304 16.5942 19.1657C16.6139 19.0376 16.5762 18.91 16.4329 18.8553C16.3293 18.8158 16.2199 18.8701 16.1378 18.9317C16.2132 18.7605 16.2955 18.563 16.3674 18.3604C16.4481 18.2979 16.5434 18.2265 16.6339 18.1461C16.5348 18.2081 16.4634 18.2529 16.3884 18.2999C16.4508 18.1181 16.5036 17.9338 16.5346 17.7623C16.437 18.1353 16.233 18.6203 16.0471 19.0115C16.0291 19.0288 16.0093 19.0474 15.9899 19.0639C15.9331 18.7892 15.8877 18.5786 15.8131 18.4168C15.8679 18.632 15.9151 18.867 15.9277 19.1069C15.9242 19.1084 15.9209 19.1096 15.9178 19.1103C15.847 19.1283 15.7446 18.9888 15.5875 19.0057C15.4268 19.023 15.3903 19.1588 15.2919 19.204Z" fill="#F6CA00"/>
<path fill-rule="evenodd" clip-rule="evenodd" d="M18.3717 13.9564C18.372 13.8756 18.3853 13.8009 18.4252 13.7399C18.5025 13.6218 18.7138 13.6974 18.7991 13.5962C18.877 13.5038 18.7648 13.1907 18.9167 12.9505C18.9787 12.8528 19.1519 12.8715 19.2673 12.8278C19.4228 12.7689 19.334 12.7681 19.4637 12.7201C19.611 12.6656 19.6271 12.573 19.7194 12.5344C19.7726 12.5122 19.8327 12.5929 19.981 12.4465C20.0532 12.3752 20.1711 12.3322 20.249 12.3182C20.3279 12.3041 20.4196 12.2665 20.4248 12.3627C20.4299 12.4564 20.3813 12.7485 20.3133 12.8799C20.264 12.9753 20.4808 12.9792 20.4732 13.0869C20.4705 13.1273 20.3643 13.1936 20.3892 13.262C20.4251 13.3608 20.5495 13.3169 20.5631 13.4474C20.5724 13.5367 20.4642 13.666 20.2903 13.7908C20.2113 13.8474 19.9478 13.9698 19.888 14.0285C19.8243 14.091 19.7908 14.155 19.847 14.2269C19.9406 14.3466 19.8542 14.4171 19.728 14.5026C19.7009 14.4203 19.6585 14.344 19.5946 14.2757C19.5716 14.2511 19.4746 14.1736 19.4649 14.1572C19.4561 14.1346 19.4636 14.0347 19.4543 13.9926C19.4479 13.9634 19.4372 13.9376 19.423 13.9149C19.6325 13.8849 19.9464 13.8296 20.0919 13.7783C19.873 13.8214 19.567 13.8582 19.3801 13.8639C19.3609 13.8466 19.3387 13.8318 19.3141 13.8194C19.5194 13.5268 20.0145 13.0047 20.226 12.7917C20.0027 12.9769 19.4138 13.5114 19.2551 13.7957C19.2353 13.7894 19.2146 13.784 19.193 13.7798C19.0553 13.7527 18.802 13.8229 18.6687 13.8616C18.5687 13.8907 18.4698 13.9228 18.3717 13.9564Z" fill="#F6CA00"/>
<path fill-rule="evenodd" clip-rule="evenodd" d="M18.7357 12.0172C18.7336 11.992 18.7332 11.9673 18.735 11.9434C18.7445 11.9744 18.7517 11.9998 18.7357 12.0172ZM19.3021 10.9982C19.3186 10.8959 19.3594 10.8041 19.4335 10.7647C19.5786 10.6874 19.6623 10.7077 19.7835 10.6443C19.921 10.5724 19.8542 10.494 19.9398 10.4445C19.9891 10.4161 20.0668 10.4733 20.1685 10.3564C20.2346 10.2805 20.2764 10.2301 20.3515 10.2069C20.4275 10.1833 20.5362 10.1331 20.5325 10.2294C20.5289 10.3217 20.5251 10.5244 20.512 10.6886C20.5037 10.7934 20.6587 10.7563 20.6677 10.8638C20.671 10.904 20.5988 11.0394 20.6339 11.1041C20.6844 11.1976 20.882 11.0794 20.863 11.2459C20.8501 11.3588 20.763 11.5158 20.5704 11.6401C20.4776 11.7 20.3048 11.7924 20.2437 11.9468C20.2095 11.8918 20.1635 11.8447 20.107 11.8016C20.0802 11.7811 19.9268 11.6909 19.9125 11.6744C19.9113 11.6644 19.9103 11.6545 19.9096 11.6446C20.0982 11.5643 20.3453 11.4497 20.4587 11.3723C20.2971 11.4499 20.078 11.5377 19.9063 11.595C19.9056 11.5848 19.9047 11.5748 19.9033 11.5648C20.0128 11.2197 20.172 10.7784 20.2528 10.5674C20.1916 10.6877 20.095 10.9043 20.002 11.1359C19.9426 11.0451 19.901 10.986 19.8246 10.8687C19.8772 10.9952 19.935 11.0981 19.9804 11.1905C19.9425 11.2866 19.9058 11.3841 19.8729 11.4775C19.8687 11.4712 19.8641 11.4649 19.8588 11.4587C19.8317 11.4276 19.7965 11.4101 19.7556 11.3982C19.745 11.3951 19.7065 11.3865 19.6961 11.381C19.656 11.3148 19.6333 11.2486 19.5872 11.1813C19.5309 11.0991 19.4172 10.9982 19.3021 10.9982ZM20.2963 12.2323C20.2997 12.2504 20.2979 12.2681 20.2919 12.2855L20.2923 12.28C20.2934 12.2642 20.2948 12.2484 20.2963 12.2323Z" fill="#F6CA00"/>
<path fill-rule="evenodd" clip-rule="evenodd" d="M18.7958 13.0157C18.7874 12.9964 18.7807 12.9779 18.7766 12.9606C18.7603 12.8929 18.8592 12.8043 18.8639 12.7247C18.8705 12.6092 18.6333 12.4195 18.5906 12.3177C18.5303 12.1746 18.7084 12.1436 18.7898 12.072C18.8896 11.9841 18.751 11.8912 18.8208 11.809C18.9014 11.7141 18.9445 11.8472 19.0205 11.7358C19.0543 11.6864 19.055 11.5862 19.0459 11.5247C19.0364 11.4601 19.0802 11.3783 19.1009 11.3353C19.1287 11.2777 19.1967 11.1123 19.2508 11.0855C19.3352 11.0353 19.4576 11.1315 19.5179 11.2195C19.5741 11.3015 19.5847 11.3505 19.6259 11.418C19.6578 11.4703 19.7491 11.4512 19.7946 11.5035C19.8323 11.5469 19.8197 11.5907 19.832 11.6854C19.84 11.7464 19.9503 11.7776 20.0543 11.857C20.1166 11.9047 20.1785 11.9668 20.2095 12.0613C20.2276 12.1162 20.2192 12.1747 20.213 12.2507C20.1077 12.2733 19.9926 12.3265 19.9209 12.3975C19.7928 12.5239 19.794 12.4227 19.685 12.4683C19.6387 12.4877 19.6077 12.5158 19.5783 12.5452C19.5749 12.4861 19.5698 12.4234 19.5636 12.3584C19.6265 12.2671 19.7119 12.1559 19.7864 12.0339C19.6925 12.1397 19.6313 12.2089 19.5569 12.2931C19.5213 11.9562 19.4576 11.5806 19.4156 11.4004C19.4471 11.6565 19.5058 12.2327 19.5218 12.5997C19.4977 12.6203 19.4698 12.639 19.4326 12.6528C19.3875 12.6695 19.3498 12.6857 19.3169 12.7188C19.2974 12.7387 19.2621 12.7506 19.2357 12.7606C19.1064 12.8096 18.9324 12.7781 18.846 12.9146C18.8252 12.9474 18.8089 12.9812 18.7958 13.0157Z" fill="#F6CA00"/>
<path fill-rule="evenodd" clip-rule="evenodd" d="M19.0372 11.2831C18.9321 11.2065 18.8466 11.1094 18.7833 11.0556C18.6403 10.9339 18.7306 11.0256 18.6444 10.9085C18.5758 10.8154 18.6628 10.69 18.7607 10.6278C18.8247 10.5871 18.8601 10.5265 18.8647 10.4865C18.8779 10.3714 18.7188 10.245 18.6712 10.1091C18.6303 9.99192 18.7147 9.7535 18.9943 9.71291C19.0774 9.70084 19.0536 9.56366 19.1008 9.52361C19.236 9.40886 19.3744 9.57534 19.3641 9.36269C19.361 9.29769 19.3892 9.21798 19.4122 9.17595C19.4431 9.11965 19.5201 8.95744 19.5757 8.93307C19.6232 8.90765 19.6683 8.93939 19.7189 8.97649C19.7607 9.00719 19.81 9.03765 19.8351 9.07863C19.8868 9.16299 19.8946 9.21247 19.9321 9.28166C19.9611 9.33529 20.0479 9.32392 20.0958 9.37448C20.1311 9.4117 20.1277 9.4524 20.1233 9.54755C20.1205 9.60891 20.2536 9.65512 20.353 9.73902C20.4126 9.78935 20.454 9.81555 20.4798 9.91124C20.4925 9.9582 20.4861 10.0296 20.4776 10.0999C20.4419 10.101 20.4054 10.1116 20.3724 10.1223C20.3566 10.1275 20.3408 10.1331 20.3249 10.138C20.2236 10.1694 20.1678 10.2388 20.1044 10.3116C20.0249 10.4029 19.983 10.3328 19.8957 10.3833C19.778 10.4513 19.8438 10.5284 19.7424 10.5814C19.7047 10.6011 19.6684 10.612 19.6264 10.6219L19.6009 10.628C19.6233 10.4905 19.6413 10.3086 19.6546 10.1207C19.7311 10.0348 19.8389 9.92676 19.9308 9.81178C19.8229 9.90717 19.7458 9.97535 19.6591 10.0522C19.6778 9.75722 19.6847 9.45881 19.6779 9.30366C19.6633 9.53164 19.6229 10.0206 19.5773 10.3846C19.4437 10.2587 19.2742 10.112 19.1437 10.0544C19.3024 10.1732 19.4588 10.3307 19.5681 10.456C19.5588 10.5257 19.5494 10.5893 19.54 10.6436C19.4901 10.6575 19.4445 10.674 19.392 10.702C19.2786 10.7624 19.232 10.8947 19.2174 11.0185C19.2143 11.0201 19.2111 11.0217 19.208 11.0235C19.1331 11.0638 19.0754 11.1999 19.0372 11.2831Z" fill="#F6CA00"/>
<path fill-rule="evenodd" clip-rule="evenodd" d="M17.8484 15.3203C17.8437 15.2692 17.8427 15.2301 17.8475 15.2117C17.8732 15.1099 18.028 15.0966 18.1063 14.9999C18.1751 14.9149 18.1225 14.8172 18.0652 14.6942C17.9915 14.5362 17.9023 14.343 17.9738 14.152C17.9914 13.9998 18.0919 14.1256 18.2004 14.0942C18.2346 14.0842 18.5672 13.9582 18.8466 13.8899C18.7883 14.1353 18.7196 14.3828 18.6446 14.6328C18.515 14.4857 18.3223 14.292 18.1817 14.1901C18.2916 14.2952 18.5372 14.5481 18.6274 14.6894C18.5864 14.8246 18.5437 14.9606 18.4997 15.0973C18.2836 15.1735 18.0647 15.2425 17.8484 15.3203ZM18.8533 13.8883C18.9862 13.8562 19.1063 13.8374 19.1755 13.851C19.4537 13.9058 19.3571 14.1013 19.3885 14.182C19.4127 14.2442 19.5716 14.2948 19.6476 14.5161C19.3997 14.7058 19.1216 14.8522 18.8226 14.9751C18.7413 15.0085 18.6593 15.0398 18.5769 15.0697C18.5925 15.0137 18.608 14.9564 18.6236 14.8973C18.7981 14.793 19.1145 14.5868 19.2532 14.448C19.1329 14.5392 18.8103 14.744 18.6434 14.8217C18.6793 14.6824 18.715 14.5341 18.7508 14.375C18.8287 14.2893 18.9378 14.1843 19.0367 14.0654C18.9271 14.1586 18.8557 14.2196 18.7689 14.2937C18.797 14.1657 18.8252 14.0308 18.8533 13.8883Z" fill="#F6CA00"/>
<path fill-rule="evenodd" clip-rule="evenodd" d="M11.9309 1.91781L11.0567 3.72844L8.87389 3.92016L10.5151 5.23381L10.0432 7.16467L11.9309 6.16286L13.8186 7.16467L13.3467 5.23381L14.988 3.92016L12.8052 3.72844L11.9309 1.91781Z" fill="#D91521"/>
<path fill-rule="evenodd" clip-rule="evenodd" d="M11.9553 2.99163L11.8988 4.72038L10.0019 4.24459L11.8468 4.86171L10.7675 6.27132L11.9601 4.93303L13.1068 6.23865L12.078 4.85364L13.8177 4.2895L12.0398 4.73256L11.9553 2.99163Z" fill="#F6CA00"/>
<path fill-rule="evenodd" clip-rule="evenodd" d="M8.51038 20.7794C9.01623 21.1599 9.46448 21.568 10.0357 21.9245C10.1456 21.9931 10.1683 22.0422 10.304 22.0013C10.7196 21.876 11.3912 21.783 11.9256 21.7803C12.4769 21.7775 13.0468 21.8646 13.589 22.0013C13.7465 22.041 13.8101 21.9789 13.9303 21.8971C14.4465 21.5452 14.9153 21.1394 15.41 20.763C15.1499 20.7637 14.9257 20.7585 14.676 20.7131C13.8912 20.5703 13.0904 20.3174 11.9414 20.329C10.7923 20.3406 9.8037 20.618 9.16999 20.7237C8.90776 20.7675 8.68393 20.8054 8.51038 20.7794Z" fill="#D91521"/>
<path fill-rule="evenodd" clip-rule="evenodd" d="M5.71001 8.10538C6.8745 7.69738 7.99899 7.19904 9.10252 6.67385C9.36813 6.54742 9.63262 6.41913 9.89632 6.28952L10.1268 5.3465L9.90606 5.16982C9.62578 5.29904 9.34735 5.42966 9.07078 5.55924C8.16466 5.98377 7.2562 6.42153 6.32726 6.80416C6.12072 6.88922 5.87182 6.98969 5.60872 7.08387C5.18082 7.23692 4.75963 7.36688 4.33589 7.42338C4.34368 8.2511 4.38828 9.05372 4.45882 9.87892C4.46986 10.0076 4.48151 10.136 4.4935 10.2645C4.57162 10.3946 4.65662 10.5206 4.74989 10.638C4.93067 10.5163 5.12284 10.4179 5.31254 10.3583L5.47072 10.3086L5.41642 10.4507C5.28834 10.786 5.26799 11.3651 5.35398 11.7109C5.42041 11.9781 5.47986 12.2851 5.45015 12.5588C5.44725 12.586 5.44366 12.6129 5.43942 12.64C5.61764 12.5438 5.8041 12.4686 5.98731 12.4243C5.6829 11.112 5.59898 9.75416 5.48687 8.4234L5.46726 8.19045L5.71001 8.10538ZM9.87775 20.5113C10.0337 20.4791 10.1899 20.4475 10.3465 20.4195C10.5679 20.38 10.7898 20.3457 11.0126 20.3189C8.80812 18.3903 7.01861 15.833 6.19944 13.2089C6.14133 13.0226 6.0888 12.8351 6.04117 12.6466C5.91993 12.9715 5.8652 13.4229 5.91304 13.7312C5.93495 13.8725 5.95409 14.0242 5.95964 14.1756C6.01259 14.1355 6.06811 14.0975 6.12626 14.0618L6.24863 13.9866L6.25357 14.1195C6.26712 14.484 6.34008 14.9652 6.47709 15.3079C6.52008 15.4153 6.57187 15.5187 6.62526 15.6213C6.67779 15.658 6.72624 15.6978 6.77032 15.7415C6.88706 15.8571 6.95816 16.008 7.04295 16.202C7.12401 16.3872 7.29617 16.791 7.37325 16.9857L7.58101 16.6932L7.6176 16.8711C7.68645 17.2051 7.83978 17.6596 8.01575 17.9529C8.15371 18.1828 8.33986 18.3802 8.47951 18.6057C8.61591 18.8261 8.71584 19.0644 8.75685 19.3119C9.06212 19.4812 9.31171 19.682 9.56485 19.9233C9.66224 20.0162 9.78885 20.2941 9.87775 20.5113ZM11.2209 21.8977C11.4618 22.0831 11.7053 22.266 11.9519 22.4442C12.2058 22.2687 12.4554 22.0883 12.7014 21.9039C12.4438 21.8703 12.1841 21.8519 11.9261 21.8532C11.7109 21.8543 11.4665 21.8694 11.2209 21.8977ZM14.0334 20.5071C14.0459 20.3246 14.0528 20.1055 14.1835 19.9718C14.3127 19.8397 14.5232 19.94 14.5876 19.8878C14.6131 19.8672 14.6416 19.7044 14.6491 19.6705C14.6801 19.5294 14.7254 19.3922 14.8316 19.2805C14.9371 19.1696 15.0867 19.225 15.2118 19.2202C15.1895 19.0911 15.1798 18.9643 15.2057 18.8744C15.2366 18.7671 15.3695 18.7441 15.4097 18.6808C15.4484 18.6196 15.3466 18.338 15.3585 18.2356C15.3653 18.1775 15.3914 18.126 15.4457 18.0917C15.5379 18.0335 15.6257 18.0601 15.7154 18.0341C15.7803 18.0152 15.7239 17.8767 15.8637 17.8153C15.9083 17.7953 15.9726 17.7932 16.004 17.8191C16.015 17.8281 16.0253 17.8344 16.0348 17.8384L16.0383 17.8346C16.0634 17.809 16.0916 17.7921 16.121 17.7812L16.1759 17.6738C16.1991 17.594 16.2346 17.5143 16.2753 17.4346C16.3811 17.2226 16.4813 17.0075 16.5815 16.7933C16.7113 16.5155 16.8364 16.2315 16.9726 15.9565C17.1566 15.585 17.3996 15.486 17.7683 15.3498C17.7616 15.2826 17.7602 15.2268 17.7681 15.1955C17.8045 15.0517 17.968 15.0466 18.0405 14.9571C18.0881 14.8981 18.0169 14.7796 17.9902 14.7224C17.9031 14.5356 17.8219 14.3387 17.8939 14.1362C17.9014 14.0833 17.9228 14.0297 17.9837 14.0092C18.0612 13.9831 18.1316 14.0375 18.1753 14.0248C18.2127 14.0136 18.2521 13.9989 18.2906 13.9848C18.2881 13.883 18.302 13.7842 18.355 13.703C18.4541 13.5515 18.6819 13.6143 18.7342 13.5522C18.7549 13.5277 18.7486 13.363 18.7488 13.3284C18.7492 13.2605 18.7529 13.193 18.7652 13.1272C18.7326 13.0737 18.7082 13.0222 18.697 12.9759C18.6712 12.8681 18.7784 12.7941 18.7826 12.721C18.7867 12.6506 18.555 12.4397 18.5145 12.3434C18.4915 12.2889 18.4891 12.2322 18.5205 12.1798C18.5561 12.1203 18.6089 12.0954 18.6601 12.0678C18.647 11.9772 18.6494 11.8885 18.6857 11.81C18.7399 11.6931 18.8772 11.6783 18.9655 11.6537C18.9719 11.6131 18.9692 11.5608 18.9652 11.5342C18.9561 11.472 18.9778 11.4111 19.0041 11.3535C18.9038 11.2824 18.8236 11.1902 18.7273 11.1084C18.7043 11.0888 18.6422 11.0433 18.6246 11.0205C18.6083 10.9994 18.5933 10.9716 18.5765 10.9487C18.4785 10.8155 18.5863 10.6492 18.7137 10.5683C18.7415 10.5507 18.7801 10.5109 18.7838 10.479C18.7898 10.4263 18.706 10.3229 18.6753 10.2788C18.6429 10.2323 18.612 10.1835 18.5936 10.1309C18.5615 10.039 18.5896 9.92754 18.6421 9.84593C18.7138 9.73429 18.8324 9.66471 18.9726 9.64228C18.9959 9.60584 18.9825 9.52365 19.0448 9.47068C19.0928 9.42997 19.1483 9.40879 19.214 9.40572C19.2311 9.40491 19.2611 9.40754 19.2822 9.40758C19.2839 9.39346 19.2833 9.37421 19.2829 9.36583C19.2795 9.29567 19.3049 9.20649 19.3392 9.14382C19.3804 9.06873 19.4489 8.91568 19.5316 8.8716C19.5456 8.38153 19.5518 7.89122 19.5688 7.40091C18.9104 7.31057 18.2159 7.06194 17.6151 6.82034C16.8319 6.50539 16.0688 6.14004 15.3119 5.77728C14.8706 5.56575 14.4296 5.35275 13.9851 5.14634L13.7351 5.3465L13.9657 6.29006C14.1593 6.38281 14.353 6.47528 14.547 6.56721C15.1902 6.87218 15.8361 7.1732 16.4923 7.45524C17.0447 7.69273 17.6065 7.92187 18.1862 8.10096L18.4375 8.17857L18.4233 8.41645C18.3278 10.0154 18.1552 11.6291 17.6742 13.1763C16.8046 15.9731 15.1168 18.2509 12.9336 20.3119C13.1092 20.3331 13.2847 20.3598 13.4613 20.3917C13.6531 20.4262 13.8434 20.4664 14.0334 20.5071Z" fill="#D91521"/>
<path fill-rule="evenodd" clip-rule="evenodd" d="M5.92396 8.4478C6.05308 9.9911 6.15098 11.6106 6.61721 13.1042C7.44837 15.7668 9.31236 18.3652 11.5811 20.2681C11.7006 20.2614 11.8203 20.2573 11.9404 20.2561C12.0892 20.2546 12.2363 20.2576 12.3825 20.2648C14.6357 18.1879 16.3752 15.9056 17.2563 13.072C17.7222 11.5736 17.8925 9.99968 17.9868 8.45041C17.4148 8.27011 16.8502 8.04035 16.3047 7.80584C15.6436 7.52163 14.9921 7.2181 14.3441 6.91083C14.2586 6.87028 14.173 6.82965 14.0876 6.78894L14.3363 7.80647L11.9309 6.53L9.52553 7.80647L9.77339 6.7924C9.61794 6.86791 9.46218 6.94281 9.306 7.01716C8.20788 7.53987 7.08161 8.03887 5.92396 8.4478Z" fill="#D91521"/>
<path fill-rule="evenodd" clip-rule="evenodd" d="M5.92396 8.4478C6.05308 9.9911 6.15098 11.6106 6.61721 13.1042C6.99163 14.3036 7.57572 15.49 8.31193 16.6057V7.47856C7.53056 7.83064 6.73503 8.1613 5.92396 8.4478ZM10.7605 19.5326C11.027 19.7876 11.301 20.0332 11.5811 20.2681C11.7006 20.2614 11.8203 20.2573 11.9404 20.2561C12.0892 20.2546 12.2363 20.2576 12.3825 20.2648C12.6287 20.0379 12.8686 19.8085 13.1021 19.5762V7.15151L11.9309 6.53L10.7605 7.15112V19.5326ZM15.5506 16.6333C16.2755 15.5387 16.855 14.3626 17.2563 13.072C17.7222 11.5736 17.8925 9.99968 17.9868 8.45041C17.4148 8.27011 16.8502 8.04035 16.3047 7.80584C16.0521 7.69723 15.8008 7.58586 15.5506 7.47247V16.6333Z" fill="#293484"/>
<path fill-rule="evenodd" clip-rule="evenodd" d="M10.0298 5.74325L7.78716 6.77828C7.43041 6.94052 7.07235 7.10063 6.7094 7.25143C6.20459 7.46114 5.66909 7.6663 5.13241 7.79964L5.09318 7.80934L5.07149 7.7391L5.11067 7.72936C5.64293 7.59719 6.1745 7.39327 6.67519 7.18523C7.03723 7.03482 7.39438 6.87517 7.7501 6.71335L10.0524 5.65082L10.0298 5.74325Z" fill="#F6CA00"/>
<path fill-rule="evenodd" clip-rule="evenodd" d="M13.8005 5.61411L16.1823 6.71332C16.5381 6.87517 16.8952 7.03482 17.2573 7.18523C17.7579 7.39327 18.2895 7.59719 18.8218 7.72936L18.861 7.7391L18.8393 7.80934L18.8001 7.79964C18.2634 7.6663 17.7279 7.46114 17.2231 7.25143C16.8602 7.10063 16.502 6.94052 16.1452 6.77824L13.823 5.70654L13.8005 5.61411Z" fill="#F6CA00"/>
<path fill-rule="evenodd" clip-rule="evenodd" d="M4.95652 7.94186C4.96172 8.77412 5.04425 9.59975 5.12981 10.427C5.10375 10.4383 5.07776 10.4503 5.05187 10.4629C4.96501 9.62381 4.88044 8.78646 4.87516 7.94221L4.87494 7.90577L4.9563 7.90538L4.95652 7.94186Z" fill="#F6CA00"/>
<path fill-rule="evenodd" clip-rule="evenodd" d="M19.0502 7.94221C19.0466 8.51222 19.007 9.07898 18.9548 9.64534C18.9258 9.65093 18.8979 9.65854 18.8711 9.66816C18.9244 9.09407 18.9652 8.51956 18.9689 7.94186L18.9691 7.90538L19.0504 7.90577L19.0502 7.94221Z" fill="#F6CA00"/>
<path fill-rule="evenodd" clip-rule="evenodd" d="M18.1161 13.9136L18.0796 14.0088C18.0533 14.0026 18.0246 13.9987 17.9947 14.006L18.0524 13.8555L18.1293 13.8791L18.1161 13.9136ZM17.8939 14.4795C17.758 14.8148 17.6143 15.1478 17.458 15.4758C17.4159 15.496 17.376 15.5175 17.3379 15.5411C17.5308 15.1439 17.7043 14.7387 17.8672 14.3308C17.8702 14.3808 17.8798 14.4305 17.8939 14.4795ZM16.2333 17.5217C16.1619 17.6243 16.0892 17.7263 16.0151 17.8274C16.0115 17.8249 16.0078 17.8222 16.004 17.8191C15.9881 17.806 15.9639 17.8 15.9378 17.8C16.1266 17.543 16.3062 17.2808 16.478 17.0144C16.4118 17.155 16.3447 17.2955 16.2753 17.4346C16.2605 17.4636 16.2464 17.4926 16.2333 17.5217ZM15.4155 18.5917C14.8812 19.2351 14.3072 19.8471 13.702 20.4377C13.6714 20.4315 13.6408 20.4255 13.6101 20.4195C14.2432 19.8037 14.8423 19.1645 15.3978 18.4907C15.4052 18.5268 15.4119 18.5615 15.4155 18.5917Z" fill="#F6CA00"/>
<path fill-rule="evenodd" clip-rule="evenodd" d="M5.95535 14.0948L5.98068 14.1598C5.97358 14.165 5.96661 14.1703 5.95964 14.1756C5.9586 14.1487 5.95712 14.1217 5.95535 14.0948ZM7.2895 16.7808C7.32514 16.838 7.36108 16.8949 7.39741 16.9517L7.37325 16.9857C7.35155 16.9308 7.3222 16.8593 7.2895 16.7808ZM7.85606 17.6318C8.00588 17.8419 8.1615 18.0487 8.32358 18.2515C8.93469 19.016 9.60192 19.7355 10.3119 20.4258C10.2809 20.4314 10.25 20.4372 10.2191 20.443C9.51917 19.7604 8.86099 19.0491 8.2575 18.2939L8.24377 18.2768C8.16358 18.1719 8.08378 18.0663 8.01575 17.9529C7.95959 17.8593 7.90563 17.7491 7.85606 17.6318Z" fill="#F6CA00"/>
<path fill-rule="evenodd" clip-rule="evenodd" d="M4.96531 7.55388C5.14973 7.55388 5.29938 7.68795 5.29938 7.85323C5.29938 8.01854 5.14973 8.15261 4.96531 8.15261C4.78085 8.15261 4.63129 8.01854 4.63129 7.85323C4.63129 7.68795 4.78085 7.55388 4.96531 7.55388Z" fill="#161413"/>
<path fill-rule="evenodd" clip-rule="evenodd" d="M4.96531 7.62676C5.10483 7.62676 5.21802 7.7282 5.21802 7.85323C5.21802 7.9783 5.10483 8.0797 4.96531 8.0797C4.82575 8.0797 4.71261 7.9783 4.71261 7.85323C4.71261 7.7282 4.82575 7.62676 4.96531 7.62676Z" fill="#F6CA00"/>
<path fill-rule="evenodd" clip-rule="evenodd" d="M7.75452 6.45111C7.93893 6.45111 8.08854 6.58522 8.08854 6.75049C8.08854 6.91576 7.93893 7.04984 7.75452 7.04984C7.57005 7.04984 7.42045 6.91576 7.42045 6.75049C7.42045 6.58522 7.57005 6.45111 7.75452 6.45111Z" fill="#161413"/>
<path fill-rule="evenodd" clip-rule="evenodd" d="M7.75451 6.52402C7.89399 6.52402 8.00718 6.62546 8.00718 6.75049C8.00718 6.87552 7.89399 6.97696 7.75451 6.97696C7.61495 6.97696 7.50181 6.87552 7.50181 6.75049C7.50181 6.62546 7.61495 6.52402 7.75451 6.52402Z" fill="#F6CA00"/>
<path fill-rule="evenodd" clip-rule="evenodd" d="M18.9611 7.55388C19.1456 7.55388 19.2951 7.68795 19.2951 7.85323C19.2951 8.01854 19.1456 8.15261 18.9611 8.15261C18.7767 8.15261 18.6271 8.01854 18.6271 7.85323C18.6271 7.68795 18.7767 7.55388 18.9611 7.55388Z" fill="#161413"/>
<path fill-rule="evenodd" clip-rule="evenodd" d="M18.9611 7.62676C19.1006 7.62676 19.2138 7.7282 19.2138 7.85323C19.2138 7.9783 19.1006 8.0797 18.9611 8.0797C18.8216 8.0797 18.7084 7.9783 18.7084 7.85323C18.7084 7.7282 18.8216 7.62676 18.9611 7.62676Z" fill="#F6CA00"/>
<path fill-rule="evenodd" clip-rule="evenodd" d="M16.165 6.45111C16.3495 6.45111 16.4991 6.58522 16.4991 6.75049C16.4991 6.91576 16.3495 7.04984 16.165 7.04984C15.9806 7.04984 15.831 6.91576 15.831 6.75049C15.831 6.58522 15.9806 6.45111 16.165 6.45111Z" fill="#161413"/>
<path fill-rule="evenodd" clip-rule="evenodd" d="M16.165 6.52402C16.3046 6.52402 16.4177 6.62546 16.4177 6.75049C16.4177 6.87552 16.3046 6.97696 16.165 6.97696C16.0255 6.97696 15.9123 6.87552 15.9123 6.75049C15.9123 6.62546 16.0255 6.52402 16.165 6.52402Z" fill="#F6CA00"/>
<path fill-rule="evenodd" clip-rule="evenodd" d="M7.20753 8.39119L8.68722 8.08928L8.82631 8.48886L9.53424 7.96697L11.106 7.86448L12.1417 8.56818L12.0623 11.9937L12.131 12.9332L11.255 13.7355L9.43716 13.809L9.03839 13.5036L8.96963 14.5094L7.20758 14.6672L6.7165 14.1072L5.8506 14.2611L4.22421 13.5405L5.83402 8.67823L7.20753 8.39119Z" fill="#161413"/>
<path fill-rule="evenodd" clip-rule="evenodd" d="M6.0232 12.0086L6.46864 11.9485L7.34341 8.51296L8.53298 8.27027L7.87307 11.7773L8.0943 11.7645L8.61192 8.84032L9.57598 8.11559L11.0558 8.01419L11.9257 8.61905L11.9244 9.7788L10.521 9.78563L10.5361 8.99205L9.95508 9.01646L9.63149 11.6578L10.4611 11.6264L10.5374 10.4374L11.9354 10.3962L11.9012 11.9219L10.851 12.6645L8.92802 12.7789L8.23797 12.2578L8.02562 13.6975L6.62466 13.7972L6.75201 13.0048L4.45397 13.3573L5.95474 8.79015L6.98185 8.58739L6.0232 12.0086Z" fill="#F6CA00"/>
<path fill-rule="evenodd" clip-rule="evenodd" d="M6.05105 8.88429L4.62631 13.2199L6.89672 12.8717L6.7672 13.6774L7.91763 13.5954L8.14622 12.0455L8.96903 12.6669L10.8052 12.5576L11.7804 11.868L11.8109 10.5093L10.6527 10.5434L10.5766 11.7315L9.4947 11.7724L9.84518 8.91157L10.668 8.87742L10.6527 9.65578H11.7956L11.8032 8.68626L11.0109 8.14004L9.60902 8.23562L8.72524 8.89791L8.19952 11.868L7.72715 11.8953L8.38238 8.41315L7.44526 8.60435L6.5691 12.0455L5.86056 12.1411L6.80527 8.74769L6.05105 8.88429Z" fill="white"/>
<path fill-rule="evenodd" clip-rule="evenodd" d="M13.7135 8.87606L14.1481 7.92762L15.7704 8.18726L15.5845 8.66535L16.1167 8.26786L18.0698 8.75767L19.7732 13.5763L18.3906 14.2859L16.2845 13.9887L14.2287 13.7903L13.9151 13.2996L13.8513 13.7745L11.8499 13.7224L11.9258 7.84717L13.6402 7.90783L13.7135 8.87606Z" fill="#161413"/>
<path fill-rule="evenodd" clip-rule="evenodd" d="M13.5986 9.51089L14.2487 8.09184L15.554 8.30077L14.825 10.1753L16.1465 12.1012L15.5027 8.91615L16.1552 8.42891L17.9413 8.8768L19.5333 13.3805L18.2705 13.1348L18.0218 12.2365L17.5681 12.2011L17.7529 13.0777L16.4135 12.8984L14.952 12.7845L13.7173 10.8653L13.8456 12.7104L12.1628 12.6784L12.0909 7.99891L13.4878 8.04834L13.5986 9.51089ZM16.7936 9.39622L17.2508 11.1008L17.7496 11.1628L17.1911 9.49862L16.7936 9.39622Z" fill="#F6CA00"/>
<path fill-rule="evenodd" clip-rule="evenodd" d="M12.2147 8.11272L12.2832 12.5713L13.7156 12.5986L13.5632 10.4069L15.026 12.6805L16.4279 12.7898L17.6011 12.9468L17.4183 12.0797L18.1192 12.1343L18.3707 13.0424L19.3535 13.2336L17.8449 8.96621L16.184 8.54971L15.6355 8.95938L16.3821 12.6532L14.6908 10.1884L15.3917 8.38583L14.325 8.21513L13.525 10.0313L13.3727 8.1537L12.2147 8.11272ZM16.6259 9.23932L17.1516 11.1989L17.9212 11.2945L17.2887 9.41003L16.6259 9.23932Z" fill="white"/>
<path fill-rule="evenodd" clip-rule="evenodd" d="M11.9556 13.9665C13.4982 13.9665 14.7491 15.0876 14.7491 16.47C14.7491 17.8523 13.4982 18.9735 11.9556 18.9735C10.413 18.9735 9.16211 17.8523 9.16211 16.47C9.16211 15.0876 10.413 13.9665 11.9556 13.9665Z" fill="white"/>
<path fill-rule="evenodd" clip-rule="evenodd" d="M11.9556 13.93C13.5206 13.93 14.7898 15.0675 14.7898 16.47C14.7898 17.8725 13.5206 19.0099 11.9556 19.0099C10.3906 19.0099 9.1214 17.8725 9.1214 16.47C9.1214 15.0675 10.3906 13.93 11.9556 13.93ZM13.9204 15.9272L12.904 16.2496C12.8638 16.57 12.7549 16.8808 12.5641 17.1799L13.1898 17.9517C13.4532 17.9436 13.7287 17.8604 13.9937 17.6902C14.2378 17.3633 14.3869 16.9745 14.4048 16.5556C14.3052 16.2869 14.1385 16.0715 13.9204 15.9272ZM12.8828 16.1919L13.8959 15.8705C13.9732 15.6422 13.9795 15.3912 13.8803 15.1103C13.6031 14.7955 13.232 14.5503 12.8046 14.4089C12.4895 14.4105 12.2099 14.4854 11.9895 14.6258V15.6152C12.3214 15.7474 12.6213 15.936 12.8828 16.1919ZM13.1279 17.9786L12.5032 17.2081C12.1601 17.2697 11.8068 17.2729 11.4412 17.2068L10.8099 18.0078C10.9021 18.2261 11.0638 18.4251 11.3254 18.5929C11.5266 18.6408 11.7377 18.6666 11.9556 18.6666C12.1862 18.6666 12.4093 18.6378 12.6208 18.5844C12.8778 18.4154 13.0447 18.2132 13.1279 17.9786ZM10.7649 17.9596L11.3836 17.1746C11.2042 16.8926 11.0874 16.5819 11.0456 16.237L9.99526 15.9311C9.78179 16.0753 9.61114 16.2754 9.50665 16.5561C9.52523 16.9865 9.68215 17.3852 9.93854 17.7174C10.2038 17.8826 10.4881 17.9654 10.7649 17.9596ZM10.0091 15.8713L11.0779 16.1825C11.3113 15.9559 11.5898 15.7698 11.9217 15.6315V14.6326C11.7024 14.4949 11.4365 14.4112 11.1055 14.4092C10.6783 14.5508 10.3074 14.796 10.0302 15.1109C9.93508 15.3795 9.92845 15.6405 10.0091 15.8713ZM13.9178 15.055C14.0662 15.0898 14.2036 15.1419 14.3265 15.2158C13.9478 14.6421 13.3173 14.2178 12.5714 14.065C12.6841 14.1554 12.7891 14.2577 12.8612 14.3631C13.2784 14.5073 13.6419 14.7482 13.9178 15.055ZM14.6979 16.2522C14.6365 16.3762 14.5605 16.4973 14.4707 16.5913C14.4465 17.0012 14.3 17.3821 14.0636 17.7054C14.0724 17.8421 14.0597 17.9748 14.0196 18.1019C14.4481 17.667 14.7085 17.0957 14.7085 16.47C14.7085 16.3966 14.7048 16.3239 14.6979 16.2522ZM13.0347 18.7401C12.8841 18.7262 12.732 18.6988 12.6046 18.6514C12.3974 18.7008 12.18 18.7272 11.9556 18.7272C11.7397 18.7272 11.5303 18.7028 11.3305 18.657C11.1884 18.7087 11.0438 18.7407 10.8961 18.7475C11.2223 18.8695 11.5801 18.937 11.9556 18.937C12.3386 18.937 12.7034 18.8668 13.0347 18.7401ZM9.90602 18.1164C9.87225 17.9844 9.85228 17.8469 9.86125 17.7238C9.61478 17.3938 9.46262 17.0025 9.43988 16.5807C9.3428 16.4745 9.26599 16.3603 9.21511 16.236C9.20705 16.313 9.20272 16.3911 9.20272 16.47C9.20272 17.1027 9.46889 17.6798 9.90602 18.1164ZM9.59434 15.2016C9.72537 15.1335 9.86653 15.0755 10.0007 15.0468C10.2782 14.7412 10.643 14.5018 11.061 14.3593C11.1438 14.2439 11.2414 14.1431 11.3577 14.0615C10.6103 14.2099 9.97712 14.6307 9.59434 15.2016Z" fill="#161413"/>
<path d="M12.0346 21.5205V21.3718L12.1616 21.3716C12.2389 21.3714 12.3065 21.3413 12.3065 21.2432V20.9175C12.3065 20.8336 12.2204 20.7942 12.1406 20.7942H12.0333V20.6481H11.8846V20.7942H11.7751C11.6977 20.7942 11.6112 20.8332 11.6112 20.9175C11.6112 21.0329 11.6112 21.131 11.6112 21.2464C11.6112 21.342 11.6846 21.3718 11.7629 21.3718H11.8846V21.5205H12.0346ZM12.0346 21.2942V20.8725L12.0884 20.8723C12.1276 20.8722 12.1565 20.8757 12.1565 20.9341V21.2473C12.1565 21.2837 12.1298 21.2936 12.1035 21.2938L12.0346 21.2942ZM11.8846 20.8725V21.2942L11.8209 21.2942C11.7865 21.2942 11.7612 21.277 11.7612 21.2473V20.9276C11.7612 20.8856 11.7847 20.8726 11.821 20.8726L11.8846 20.8725Z" fill="#F6CA00"/>
<path fill-rule="evenodd" clip-rule="evenodd" d="M5.02741 15.5327C5.07989 15.5228 5.13531 15.5102 5.16779 15.4334L5.26569 15.446L5.50982 16.3172L5.3545 16.2985L5.16844 15.6123L5.04888 15.6134L5.02741 15.5327Z" fill="#F6CA00"/>
<path fill-rule="evenodd" clip-rule="evenodd" d="M18.5256 15.5793C18.5899 15.5611 18.6615 15.5333 18.7376 15.4335L18.8341 15.4169L18.5463 16.2802L18.4002 16.3069L18.6116 15.643L18.4956 15.6672L18.5256 15.5793Z" fill="#F6CA00"/>
<path fill-rule="evenodd" clip-rule="evenodd" d="M17.8665 15.8004C17.9309 15.7822 18.0027 15.7545 18.0793 15.6547L18.1759 15.6382L17.8832 16.5015L17.737 16.5281L17.9522 15.8642L17.836 15.8884L17.8665 15.8004Z" fill="#F6CA00"/>
<path fill-rule="evenodd" clip-rule="evenodd" d="M6.14622 15.8615L6.30107 16.3961C6.3348 16.5124 6.26495 16.5536 6.18298 16.5454L6.12011 16.5391C5.99882 16.5269 5.92218 16.4199 5.90811 16.3687L5.88763 16.2941L6.03676 16.3218L6.05706 16.395C6.06347 16.4182 6.09188 16.4484 6.12951 16.4544C6.15796 16.4589 6.18147 16.4502 6.16934 16.4069L6.11517 16.2132C6.09236 16.2198 6.06118 16.2185 6.02684 16.2145C5.90088 16.2 5.84887 16.1439 5.82016 16.0346L5.75387 15.7828C5.72404 15.6694 5.79089 15.6374 5.88308 15.6445L5.92383 15.6477C6.05234 15.6577 6.11409 15.7505 6.14622 15.8615ZM6.07928 16.0991L5.98778 15.7973C5.97951 15.7697 5.96323 15.7421 5.92002 15.736C5.87143 15.7292 5.88243 15.7679 5.88923 15.7914L5.97293 16.0823C5.98241 16.1152 6.00952 16.1311 6.03351 16.1348C6.05338 16.1379 6.09487 16.1505 6.07928 16.0991Z" fill="#F6CA00"/>
<path fill-rule="evenodd" clip-rule="evenodd" d="M11.1482 20.713L11.3013 21.5606L11.1505 21.5728L11.0134 20.8139L10.8418 20.8274L10.9793 21.5876L10.8286 21.5998L10.6748 20.7505L11.1482 20.713Z" fill="#F6CA00"/>
<path fill-rule="evenodd" clip-rule="evenodd" d="M12.9128 20.7034L12.7617 20.6883L12.6282 21.5503L12.7793 21.5654L12.8488 21.1164L12.963 21.5812L13.1141 21.5963L12.995 21.1225L13.2533 20.7445L13.1023 20.7295L12.8503 21.1067L12.9128 20.7034Z" fill="#F6CA00"/>
</svg>
