<svg width="24" height="24" viewBox="0 0 24 24" fill="none" xmlns="http://www.w3.org/2000/svg">
<path fill-rule="evenodd" clip-rule="evenodd" d="M0.353027 12.0001L12.0034 5.60254L23.6473 12.0001L12.0034 18.3977L0.353027 12.0001Z" fill="#CD3529"/>
<path fill-rule="evenodd" clip-rule="evenodd" d="M1.63395 12.0001L12.0034 6.30426L22.3696 12.0001L12.0034 17.6927L1.63395 12.0001Z" fill="white"/>
<path fill-rule="evenodd" clip-rule="evenodd" d="M21.1051 12.0001L12.0034 17.0005L8.83038 15.2572L17.932 10.2601L21.1051 12.0001ZM2.90509 11.9936L12.0034 6.99979L15.0858 8.69462L5.99393 13.6885L2.90509 11.9936Z" fill="#CD3529"/>
<path fill-rule="evenodd" clip-rule="evenodd" d="M13.9569 11.13C13.9505 11.1203 13.8403 10.9231 13.8341 10.9134C13.6303 10.619 13.365 10.37 13.1031 10.2277C12.8054 10.0692 12.4821 9.96573 12.1165 9.96573C11.5247 9.95278 11.0008 10.1986 10.5965 10.5964C10.2149 11.0007 10.0272 11.4891 10.0175 12.026C10.0207 12.5985 10.2212 13.0902 10.6224 13.4849C11.0137 13.8956 11.5475 14.1089 12.1394 14.1057C12.4951 14.096 12.8023 14.0054 13.1 13.8469C13.362 13.7015 13.5851 13.488 13.7889 13.2227C13.7953 13.2129 13.8923 13.0609 13.9055 13.0351L15.6552 13.0415C15.6615 13.0384 15.6261 13.255 15.5161 13.4428C15.2541 13.8243 14.8303 14.2608 13.9411 14.5909C13.4009 14.7787 12.8445 14.8368 12.2043 14.8368C11.2468 14.8368 10.422 14.6427 9.70723 14.2028C8.92133 13.6918 8.30351 12.8735 8.31957 12.0132C8.32928 11.3145 8.52016 11.1075 8.70456 10.7582C8.92768 10.4348 9.31913 10.1113 9.68133 9.90111C10.0145 9.69094 10.4318 9.51949 10.8199 9.40618C11.2144 9.30595 11.7223 9.24445 12.1685 9.24445C12.8189 9.24445 13.6435 9.36734 14.1643 9.60353C14.7271 9.83313 15.2477 10.244 15.5291 10.7129C15.5972 10.8423 15.6747 10.9814 15.7005 11.1301L13.9569 11.13Z" fill="#CD3529"/>
<path fill-rule="evenodd" clip-rule="evenodd" d="M10.8352 9.46241C10.4511 9.57463 10.0396 9.74402 9.71242 9.95039L9.7106 9.95154C9.35435 10.1583 8.9716 10.4751 8.75445 10.7885C8.72383 10.8464 8.6939 10.8991 8.66505 10.9499C8.60428 11.0568 8.54831 11.1553 8.50077 11.276C8.43183 11.4511 8.38261 11.6703 8.37784 12.014C8.3623 12.8459 8.9615 13.6482 9.73838 14.1535C10.4418 14.5863 11.2552 14.7785 12.2043 14.7785C12.8408 14.7785 13.3899 14.7207 13.9213 14.5361C14.797 14.2109 15.2113 13.7832 15.4669 13.4116C15.518 13.3238 15.5523 13.2285 15.5732 13.1547C15.579 13.1342 15.5837 13.1156 15.5873 13.0995L13.9389 13.0935C13.9262 13.1145 13.9094 13.1414 13.8939 13.1659C13.8672 13.2084 13.8412 13.2492 13.8377 13.2545L13.8353 13.2583C13.6282 13.5278 13.3993 13.7475 13.1283 13.8979L13.1274 13.8984C12.8225 14.0607 12.5066 14.1539 12.141 14.1639L12.1397 14.1639C11.5334 14.1673 10.9841 13.9486 10.5808 13.5258C10.1686 13.1198 9.96256 12.6133 9.95924 12.0263L9.95923 12.0249C9.9692 11.4741 10.1621 10.9716 10.5541 10.5564L10.5556 10.5548C10.9692 10.1478 11.5076 9.89431 12.1171 9.90746C12.4941 9.90758 12.8266 10.0145 13.1305 10.1763C13.4018 10.3237 13.674 10.5799 13.882 10.8802L13.8832 10.8819C13.8872 10.8881 13.9132 10.9344 13.9392 10.9807L13.9866 11.0647L13.9906 11.0718L15.6274 11.0719C15.5978 10.9678 15.5447 10.8674 15.4911 10.7659C15.4868 10.7578 15.4825 10.7496 15.4783 10.7415C15.2044 10.286 14.6953 9.88307 14.1423 9.65749L14.1402 9.65664C13.6298 9.42516 12.8144 9.30272 12.1685 9.30272C11.7271 9.30272 11.2246 9.36361 10.8352 9.46241ZM10.8055 9.34971C11.2051 9.2482 11.7178 9.18618 12.1685 9.18618C12.8229 9.18618 13.6561 9.30939 14.1874 9.55C14.759 9.78346 15.2901 10.2015 15.579 10.6829L15.5807 10.6857C15.5857 10.6952 15.5907 10.7049 15.5959 10.7146C15.6593 10.8345 15.7323 10.9723 15.7579 11.1202L15.7697 11.1884L13.9254 11.1883L13.9081 11.1619C13.9037 11.1552 13.8755 11.105 13.8486 11.0572L13.8043 10.9786L13.7903 10.954C13.7879 10.9498 13.7865 10.9473 13.7857 10.9459C13.7855 10.9456 13.7858 10.9461 13.7857 10.9459C13.5862 10.6583 13.3274 10.416 13.0755 10.279C12.7843 10.124 12.4703 10.024 12.1165 10.024H12.1152C11.5418 10.0115 11.0328 10.2492 10.6381 10.6372C10.2675 11.0301 10.0854 11.504 10.0758 12.0264C10.0791 12.5837 10.2738 13.0601 10.6632 13.4433L10.6646 13.4447C11.0438 13.8427 11.5615 14.0504 12.1385 14.0474C12.4839 14.0379 12.782 13.9502 13.0722 13.7957C13.3243 13.6557 13.5412 13.4491 13.7413 13.189C13.7472 13.1799 13.7708 13.1429 13.7953 13.1039C13.8229 13.06 13.8485 13.0185 13.8536 13.0086L13.8699 12.9767L15.6535 12.9832C15.6551 12.9832 15.6568 12.9832 15.6585 12.9833C15.6709 12.9839 15.6817 12.9885 15.6899 12.9945C15.7042 13.005 15.7092 13.0186 15.7105 13.0223C15.7138 13.0314 15.714 13.0394 15.7141 13.041C15.7143 13.0466 15.7139 13.0521 15.7135 13.0557C15.7127 13.064 15.7111 13.0747 15.7089 13.0869C15.7044 13.1117 15.6967 13.1461 15.6853 13.1864C15.6627 13.2666 15.6246 13.3727 15.5664 13.4722L15.5643 13.4759C15.2959 13.8667 14.8625 14.311 13.9613 14.6455L13.9602 14.6459C13.4116 14.8367 12.8479 14.8951 12.2043 14.8951C11.2387 14.8951 10.4027 14.6992 9.67669 14.2524L9.67546 14.2517C8.88087 13.735 8.24479 12.9007 8.26131 12.0122C8.26625 11.6573 8.31733 11.4238 8.39234 11.2333C8.44291 11.1049 8.50541 10.9948 8.56836 10.8839C8.59684 10.8337 8.62542 10.7833 8.65303 10.731L8.65625 10.7249C8.8855 10.3926 9.28433 10.0643 9.65116 9.85125C9.98993 9.63772 10.4121 9.46453 10.8035 9.35025L10.8055 9.34971Z" fill="white"/>
<path fill-rule="evenodd" clip-rule="evenodd" d="M14.1252 10.8648C13.8696 10.5154 13.6174 10.1953 13.3003 10.0303C12.9768 9.86212 12.5824 9.73599 12.1619 9.73599C11.502 9.73599 10.9489 9.9301 10.4023 10.4573C9.94314 10.9004 9.7555 11.4438 9.7555 12.026C9.75227 12.6534 9.97551 13.184 10.4057 13.6431C10.839 14.1057 11.4698 14.3223 12.136 14.3289C12.5468 14.3353 12.9415 14.2124 13.2844 14.0508C13.6012 13.902 13.8405 13.6109 14.0863 13.3132H15.2475C15.034 13.7436 14.3356 14.2028 13.7371 14.4001C13.1515 14.594 12.7539 14.6265 12.1683 14.6265C11.2983 14.6265 10.577 14.4096 9.90417 14.0377C9.06647 13.5718 8.55872 12.6856 8.5749 12.0161C8.59096 11.4436 8.76889 11.1268 8.95329 10.8616C9.15711 10.564 9.55492 10.218 9.88475 10.0271C10.1985 9.84593 10.5704 9.69391 10.923 9.59368C11.2886 9.49021 11.7478 9.44813 12.1553 9.44813C12.7472 9.44813 13.504 9.57425 13.9794 9.79103C14.4647 10.0077 15.0727 10.3569 15.3023 10.8648H14.1252Z" fill="white"/>
<path fill-rule="evenodd" clip-rule="evenodd" d="M10.1986 11.2207C10.6417 10.1727 11.8611 9.67785 12.9059 10.121C13.9569 10.5641 14.4519 11.7834 14.0087 12.8314C13.5656 13.8793 12.3463 14.3742 11.2983 13.9311C10.2504 13.488 9.75548 12.2719 10.1986 11.2207Z" fill="white"/>
<path fill-rule="evenodd" clip-rule="evenodd" d="M12.8959 10.1448C11.8642 9.70723 10.66 10.1958 10.2224 11.2307C9.78482 12.2688 10.2736 13.4697 11.3083 13.9073C12.3432 14.3449 13.5474 13.8561 13.9849 12.8214C14.4225 11.7865 13.9337 10.5824 12.8959 10.1448ZM12.916 10.0972C11.8579 9.64849 10.6235 10.1495 10.1748 11.2106C9.72615 12.275 10.2272 13.5062 11.2882 13.9549C12.3494 14.4036 13.5838 13.9025 14.0325 12.8415C14.4812 11.7803 13.9801 10.5459 12.916 10.0972Z" fill="black"/>
<path fill-rule="evenodd" clip-rule="evenodd" d="M12.7419 10.2599C12.5243 10.2406 12.1814 10.2664 12.0103 10.314C11.9965 10.3178 11.9823 10.3098 11.9785 10.296C11.9747 10.2823 11.9827 10.268 11.9964 10.2642C12.1747 10.2147 12.5239 10.1887 12.7465 10.2085C12.7607 10.2097 12.7712 10.2223 12.7699 10.2365C12.7687 10.2507 12.7561 10.2612 12.7419 10.2599ZM13.3 10.6361C13.3137 10.6323 13.328 10.6404 13.3318 10.6541C13.3802 10.8292 13.4362 11.0911 13.4297 11.2797C13.4292 11.294 13.4172 11.3051 13.403 11.3046C13.3887 11.3042 13.3775 11.2922 13.378 11.2779C13.3842 11.0977 13.3302 10.8422 13.282 10.6679C13.2782 10.6541 13.2862 10.6399 13.3 10.6361ZM11.0893 10.69C11.0948 10.7032 11.0885 10.7183 11.0753 10.7238C10.9686 10.7676 10.8601 10.8427 10.7522 10.9235C10.7256 10.9434 10.6991 10.9637 10.6726 10.9839C10.5927 11.0449 10.5137 11.1052 10.4386 11.152C10.4265 11.1595 10.4106 11.1558 10.403 11.1437C10.3955 11.1316 10.3992 11.1157 10.4113 11.1081C10.4841 11.0628 10.5602 11.0047 10.6396 10.9441C10.6664 10.9236 10.6936 10.9028 10.7212 10.8821C10.8292 10.8012 10.9423 10.7226 11.0556 10.676C11.0688 10.6705 11.0839 10.6768 11.0893 10.69ZM12.0038 10.9088C12.0135 10.8983 12.0298 10.8977 12.0403 10.9074C12.1647 11.0222 12.4502 11.2242 12.6538 11.3101C12.6669 11.3156 12.6731 11.3308 12.6675 11.3439C12.662 11.357 12.6468 11.3632 12.6337 11.3577C12.4234 11.269 12.1329 11.0633 12.0053 10.9453C11.9948 10.9356 11.9941 10.9193 12.0038 10.9088ZM11.3901 11.1896C11.4037 11.1939 11.4112 11.2084 11.407 11.222C11.3265 11.4767 11.2624 11.7591 11.2497 11.9309C11.2486 11.9452 11.2363 11.9558 11.222 11.9548C11.2078 11.9537 11.1971 11.9413 11.1982 11.9271C11.2113 11.7495 11.2767 11.4627 11.3577 11.2064C11.362 11.1928 11.3765 11.1853 11.3901 11.1896ZM10.1533 11.954C10.1628 11.9433 10.1791 11.9423 10.1898 11.9517C10.2984 12.0475 10.4964 12.1846 10.648 12.2448C10.6613 12.2501 10.6678 12.2651 10.6625 12.2783C10.6572 12.2916 10.6422 12.2981 10.629 12.2928C10.47 12.2297 10.2669 12.0887 10.1556 11.9905C10.1449 11.981 10.1439 11.9647 10.1533 11.954ZM13.6448 11.998C13.6496 11.9845 13.6643 11.9775 13.6778 11.9822C13.8209 12.0327 13.9618 12.0892 14.1002 12.1514C14.1133 12.1572 14.1191 12.1725 14.1132 12.1855C14.1074 12.1985 14.0921 12.2043 14.0791 12.1985C13.9419 12.1369 13.8023 12.081 13.6606 12.031C13.6471 12.0262 13.6401 12.0114 13.6448 11.998ZM12.538 12.1062C12.5437 12.1192 12.5378 12.1345 12.5247 12.1402C12.2633 12.2547 11.9699 12.323 11.7142 12.3748C11.7002 12.3776 11.6865 12.3686 11.6837 12.3546C11.6809 12.3406 11.6899 12.327 11.7039 12.3242C11.9591 12.2724 12.2479 12.205 12.504 12.0929C12.5171 12.0871 12.5323 12.0931 12.538 12.1062ZM13.1174 12.3497C13.1317 12.3505 13.1426 12.3627 13.1418 12.3769C13.1288 12.6108 13.0737 13.0208 12.9885 13.2794C12.984 13.293 12.9694 13.3004 12.9559 13.2959C12.9423 13.2914 12.935 13.2768 12.9394 13.2633C13.0226 13.0107 13.0773 12.6057 13.0902 12.3741C13.091 12.3598 13.1032 12.3489 13.1174 12.3497ZM10.801 13.0051C10.814 13.0108 10.8199 13.0261 10.8142 13.0391C10.7536 13.1764 10.7098 13.3406 10.7129 13.4613C10.7132 13.4756 10.702 13.4874 10.6877 13.4878C10.6735 13.4882 10.6616 13.4769 10.6612 13.4626C10.6579 13.3313 10.7047 13.1591 10.7669 13.0183C10.7726 13.0052 10.7879 12.9993 10.801 13.0051ZM11.5255 13.0636C11.533 13.0515 11.549 13.0478 11.5611 13.0553C11.7564 13.1769 12.0104 13.2928 12.2623 13.3962C12.2755 13.4017 12.2818 13.4168 12.2764 13.43C12.271 13.4432 12.2559 13.4495 12.2427 13.444C11.9901 13.3403 11.7329 13.2231 11.5338 13.0992C11.5216 13.0916 11.5179 13.0757 11.5255 13.0636ZM11.2215 13.9024C11.2249 13.8885 11.2389 13.88 11.2527 13.8834C11.3756 13.9133 11.5516 13.9231 11.7311 13.9215C11.91 13.9199 12.0903 13.907 12.2204 13.8925C12.2346 13.8909 12.2474 13.9011 12.2489 13.9153C12.2505 13.9295 12.2403 13.9423 12.2261 13.9439C12.0944 13.9585 11.9124 13.9715 11.7316 13.9732C11.5512 13.9748 11.3699 13.9651 11.2405 13.9336C11.2266 13.9302 11.2181 13.9162 11.2215 13.9024Z" fill="black"/>
<path fill-rule="evenodd" clip-rule="evenodd" d="M11.6185 13.1193C11.6412 12.8832 11.709 12.5661 11.7802 12.3365C11.612 12.22 11.3792 12.0163 11.2335 11.8644L10.5673 12.2104C10.6061 12.4854 10.6902 12.8444 10.784 13.0579C11.0234 13.0965 11.3824 13.1159 11.6185 13.1193ZM10.1986 11.2207C10.2277 11.1527 10.2601 11.0848 10.2956 11.0202C10.3409 11.0461 10.3992 11.0816 10.4509 11.1172C10.3409 11.3597 10.2697 11.7543 10.2277 12.0065C10.1793 12.1296 10.1307 12.1846 10.0628 12.2913L10.0531 12.2944C10.0054 11.9299 10.0556 11.5593 10.1986 11.2207ZM11.3047 13.9342V13.9311H11.3016L11.2983 13.9311C11.2821 13.9245 11.266 13.9181 11.2498 13.9084C11.2337 13.9018 11.2175 13.8955 11.2045 13.8858H11.2013C11.1856 13.8794 11.1704 13.8718 11.156 13.8631H11.1527C11.1398 13.8534 11.1236 13.8468 11.1108 13.8402L11.1075 13.8371C11.0913 13.8307 11.0784 13.821 11.0654 13.8144C11.0654 13.8144 11.0623 13.8113 11.059 13.8113C11.046 13.8047 11.0363 13.795 11.0234 13.7887C11.0201 13.7853 11.0169 13.7853 11.0136 13.7821C11.0039 13.7755 10.991 13.7691 10.9813 13.7626C10.978 13.7595 10.9716 13.7563 10.9683 13.7529C10.9586 13.7466 10.9489 13.74 10.9392 13.7337C10.9327 13.7304 10.9295 13.7271 10.9262 13.724L10.8971 13.7046C10.8906 13.7015 10.8874 13.698 10.8809 13.6949C10.8744 13.6883 10.8647 13.6819 10.8583 13.6755C10.8518 13.6724 10.8453 13.6658 10.8388 13.6625C10.8333 13.6562 10.8267 13.6507 10.8194 13.6465C10.8127 13.6399 10.8051 13.6345 10.7967 13.6302C10.7935 13.6236 10.787 13.6204 10.7806 13.6138C10.7726 13.6066 10.7639 13.6002 10.7547 13.5947C10.7515 13.5914 10.7483 13.5881 10.745 13.585C10.7352 13.5752 10.7255 13.5655 10.7126 13.5558L10.7093 13.5527C10.6964 13.543 10.6867 13.53 10.6737 13.5203V13.517C10.6482 13.4941 10.6234 13.4705 10.5994 13.446L10.7319 13.4394L11.3918 13.9311C11.3659 13.928 11.34 13.9311 11.311 13.9342H11.3047ZM12.9737 13.2389C13.0964 13.3489 13.2874 13.4556 13.4296 13.5168C13.5947 13.4006 13.7694 13.2 13.9085 13.0318C13.5817 13.6206 12.9963 13.9957 12.3592 14.0765L12.1683 13.9214C12.1489 13.7889 12.1554 13.5657 12.1847 13.3942C12.411 13.3877 12.7601 13.3262 12.9737 13.2389ZM14.0087 12.8314C14.0411 12.6018 14.0605 12.3786 14.0605 12.1553L14.1672 11.9128C14.1844 12.227 14.1302 12.5411 14.0087 12.8314ZM13.7273 12.0291C13.4523 12.22 13.252 12.4011 13.1191 12.4624C12.8961 12.3654 12.6341 12.2522 12.4433 12.1358C12.4747 11.8581 12.5233 11.5827 12.5887 11.311C12.7699 11.2916 13.1128 11.2625 13.4039 11.2432C13.527 11.4308 13.6692 11.7608 13.7273 12.0291ZM11.295 10.1242C11.3791 10.0886 11.4665 10.0595 11.5538 10.0337C11.7317 10.1145 11.9095 10.2116 12.0809 10.273C12.0653 10.5089 12.0675 10.7457 12.0875 10.9813C11.8708 11.046 11.5602 11.1754 11.3533 11.3048C11.2531 11.1334 11.0784 10.9361 10.9458 10.8131C10.9879 10.5673 11.1268 10.3183 11.295 10.1242ZM12.7118 10.0498C12.7766 10.0692 12.8412 10.0951 12.9059 10.121C13.1876 10.2402 13.4393 10.4201 13.6433 10.648C13.5497 10.677 13.404 10.6966 13.3167 10.6998C13.1247 10.5213 12.9131 10.365 12.6859 10.234C12.7052 10.1662 12.7149 10.1048 12.7118 10.0498Z" fill="black"/>
<path fill-rule="evenodd" clip-rule="evenodd" d="M11.5464 10.0089C11.5524 10.0072 11.5588 10.0076 11.5645 10.0102C11.6252 10.0378 11.6853 10.0669 11.7448 10.0957C11.8619 10.1526 11.9767 10.2082 12.0896 10.2487C12.1005 10.2526 12.1075 10.2632 12.1067 10.2747C12.0912 10.5093 12.0934 10.7448 12.1133 10.9791C12.1143 10.9913 12.1067 11.0026 12.0949 11.0061C11.8798 11.0702 11.5715 11.1988 11.367 11.3267C11.3611 11.3304 11.3539 11.3316 11.3471 11.3299C11.3403 11.3282 11.3345 11.3239 11.331 11.3178C11.2325 11.1493 11.0597 10.954 10.9282 10.8321C10.9218 10.8261 10.9188 10.8174 10.9203 10.8088C10.9634 10.5571 11.1052 10.3039 11.2755 10.1073L11.2838 10.0977L11.285 10.1004C11.3702 10.0643 11.4586 10.0348 11.5464 10.0089ZM11.3106 10.1457C11.1495 10.333 11.0171 10.5702 10.9737 10.8038C11.1002 10.9229 11.2613 11.1049 11.362 11.2691C11.5642 11.1469 11.8507 11.0272 12.0601 10.9627C12.0421 10.7391 12.04 10.5145 12.0539 10.2906C11.9442 10.2499 11.8312 10.1951 11.7187 10.1406C11.6628 10.1135 11.6071 10.0864 11.5518 10.0612C11.4701 10.0856 11.3888 10.1129 11.3106 10.1457ZM12.6958 10.0295C12.7024 10.0242 12.7112 10.0226 12.7193 10.025C12.7853 10.0448 12.8514 10.0714 12.916 10.0972C13.2011 10.2179 13.4561 10.4001 13.6625 10.6308C13.6684 10.6373 13.6705 10.6464 13.6682 10.6549C13.6658 10.6634 13.6593 10.6701 13.6509 10.6727C13.5546 10.7026 13.4065 10.7223 13.3177 10.7256C13.3108 10.7259 13.3041 10.7234 13.2991 10.7187C13.1085 10.5415 12.8985 10.3864 12.673 10.2564C12.6628 10.2505 12.6578 10.2384 12.6611 10.227C12.6799 10.1606 12.6889 10.1023 12.686 10.0512C12.6856 10.0428 12.6892 10.0347 12.6958 10.0295ZM12.738 10.0851C12.7365 10.1281 12.7287 10.1736 12.7161 10.2217C12.9353 10.3498 13.1399 10.5013 13.3264 10.6735C13.4006 10.6699 13.5109 10.6554 13.5958 10.6344C13.3996 10.424 13.161 10.2571 12.8959 10.1448C12.8425 10.1234 12.7902 10.1025 12.738 10.0851ZM10.2886 10.9953C10.2953 10.9934 10.3024 10.9943 10.3084 10.9977C10.3542 11.0239 10.4131 11.0598 10.4655 11.0959C10.4758 11.103 10.4796 11.1164 10.4744 11.1278C10.3661 11.3667 10.2953 11.7577 10.2532 12.0108L10.2523 12.0162C10.2149 12.1112 10.1761 12.1678 10.1311 12.2346C10.1164 12.2565 10.1009 12.2795 10.0846 12.3052C10.0813 12.3103 10.0764 12.3141 10.0706 12.3159L10.0609 12.319C10.0536 12.3214 10.0457 12.3203 10.0392 12.3162C10.0327 12.3121 10.0284 12.3054 10.0274 12.2978C9.97916 11.9287 10.03 11.5535 10.1748 11.2106C10.2042 11.142 10.237 11.0732 10.273 11.0077C10.2763 11.0017 10.2819 10.9972 10.2886 10.9953ZM10.3057 11.0559C10.2755 11.1126 10.2478 11.1715 10.2224 11.2307C10.0891 11.5464 10.0374 11.8901 10.0717 12.2304C10.078 12.221 10.0841 12.2119 10.09 12.2031C10.1336 12.1383 10.1679 12.0874 10.2027 11.9996C10.2435 11.7547 10.3123 11.3729 10.4185 11.1264C10.3808 11.1012 10.3407 11.0765 10.3057 11.0559ZM13.4021 11.2174C13.4114 11.2168 13.4203 11.2212 13.4255 11.229C13.5504 11.4193 13.6938 11.7523 13.7526 12.0236C13.7548 12.0338 13.7506 12.0444 13.7421 12.0503C13.6299 12.1281 13.5303 12.2043 13.4422 12.2716C13.4228 12.2865 13.4039 12.301 13.3855 12.3149C13.285 12.3913 13.1994 12.4538 13.1299 12.4858C13.1232 12.4889 13.1156 12.489 13.1088 12.4861C13.1036 12.4838 13.0985 12.4816 13.0933 12.4793C12.8742 12.384 12.6181 12.2727 12.4298 12.1578C12.4212 12.1526 12.4165 12.1429 12.4176 12.1329C12.4492 11.8542 12.4979 11.5777 12.5636 11.305C12.5661 11.2944 12.5751 11.2865 12.5859 11.2853C12.7675 11.2659 13.1108 11.2367 13.4021 11.2174ZM12.6096 11.3348C12.5478 11.5943 12.5015 11.8573 12.4708 12.1222C12.6546 12.2322 12.9008 12.3393 13.1157 12.4327L13.1186 12.434C13.1804 12.4034 13.258 12.3469 13.3543 12.2738C13.3724 12.26 13.3912 12.2456 13.4106 12.2308C13.495 12.1663 13.5909 12.0929 13.6984 12.0178C13.6401 11.7616 13.5073 11.4529 13.3904 11.27C13.1124 11.2886 12.7911 11.3158 12.6096 11.3348ZM11.2216 11.8414C11.2318 11.8361 11.2442 11.8382 11.2522 11.8465C11.3969 11.9973 11.6284 12.1999 11.795 12.3153C11.8042 12.3217 11.8083 12.3334 11.8049 12.3442C11.7341 12.5723 11.6667 12.8877 11.6442 13.1218C11.6429 13.1351 11.6316 13.1453 11.6181 13.1451C11.3816 13.1418 11.0211 13.1223 10.7799 13.0834C10.7713 13.082 10.7639 13.0763 10.7604 13.0683C10.6652 12.8517 10.5807 12.4901 10.5417 12.214C10.5402 12.2031 10.5456 12.1925 10.5554 12.1874L11.2216 11.8414ZM10.5955 12.2248C10.6344 12.4906 10.7138 12.8275 10.8021 13.0346C11.0315 13.0702 11.3646 13.0889 11.5952 13.0931C11.6195 12.8641 11.6828 12.5685 11.75 12.3469C11.5869 12.2315 11.371 12.0427 11.2283 11.8962L10.5955 12.2248ZM14.1718 11.8874C14.1836 11.8895 14.1924 11.8994 14.193 11.9114C14.2104 12.2295 14.1555 12.5476 14.0325 12.8415C14.0275 12.8535 14.0144 12.8598 14.0019 12.8563C13.9894 12.8529 13.9813 12.8407 13.9831 12.8278C14.0154 12.5991 14.0347 12.3771 14.0347 12.1553V12.144L14.0369 12.1449L14.1436 11.9024C14.1484 11.8914 14.1601 11.8852 14.1718 11.8874ZM14.0864 12.1608C14.0861 12.307 14.0777 12.4531 14.0628 12.6008C14.1167 12.4151 14.1443 12.2224 14.1445 12.0286L14.0864 12.1608ZM13.9231 13.0104C13.9341 13.0179 13.9376 13.0326 13.9311 13.0443C13.6001 13.6406 13.0074 14.0203 12.3625 14.1022C12.3555 14.103 12.3484 14.101 12.3429 14.0966L12.1521 13.9414C12.147 13.9373 12.1437 13.9315 12.1428 13.9251C12.1229 13.7894 12.1296 13.5633 12.1592 13.3899C12.1613 13.3777 12.1716 13.3687 12.1839 13.3684C12.4079 13.362 12.7539 13.3009 12.9639 13.215C12.9731 13.2113 12.9835 13.2131 12.9909 13.2197C13.1071 13.3237 13.2874 13.4259 13.4265 13.4873C13.5849 13.3722 13.7526 13.1797 13.8886 13.0153C13.8971 13.005 13.912 13.0029 13.9231 13.0104ZM13.6332 13.3769C13.5707 13.4382 13.507 13.4939 13.4445 13.538C13.4372 13.5431 13.4277 13.5441 13.4194 13.5406C13.2803 13.4807 13.0942 13.3774 12.9685 13.2688C12.7574 13.3517 12.4302 13.4099 12.2067 13.4193C12.1814 13.5813 12.176 13.7828 12.1925 13.9077L12.3669 14.0495C12.8512 13.9854 13.3044 13.749 13.6332 13.3769ZM10.7306 13.4136C10.7366 13.4133 10.7425 13.4151 10.7473 13.4187L11.4072 13.9104C11.4166 13.9174 11.4201 13.9298 11.4158 13.9407C11.4114 13.9515 11.4003 13.9581 11.3887 13.9567C11.3671 13.9542 11.3453 13.9565 11.3169 13.9596L11.311 13.9602L11.3047 13.96C11.3003 13.96 11.2961 13.9589 11.2924 13.9569H11.2879L11.2882 13.9549C11.287 13.9544 11.2863 13.9541 11.2851 13.9536C11.2708 13.9477 11.2546 13.9412 11.2383 13.9316C11.2379 13.9315 11.2374 13.9313 11.2369 13.9311C11.2246 13.9261 11.2099 13.9201 11.1965 13.9116H11.1908L11.1916 13.9097C11.1767 13.9037 11.1622 13.8966 11.1482 13.8886C11.1443 13.8879 11.1405 13.8862 11.1372 13.8838C11.1298 13.8782 11.1217 13.8743 11.1121 13.8696C11.108 13.8677 11.1036 13.8656 11.0989 13.8632L11.0921 13.8596L11.0928 13.8589C11.085 13.8555 11.0781 13.8516 11.0722 13.8481C11.0699 13.8468 11.0679 13.8456 11.066 13.8445C11.0614 13.8417 11.0577 13.8395 11.0537 13.8374L11.0458 13.8372L11.0472 13.8343C11.0391 13.8302 11.0322 13.8252 11.0269 13.8215C11.0211 13.8173 11.0163 13.814 11.012 13.8119L11.0036 13.8077L11.0043 13.807C11.0025 13.806 11.0002 13.8046 10.9978 13.8025C10.9942 13.8002 10.9899 13.7977 10.9847 13.7948C10.9794 13.7918 10.9724 13.7878 10.9669 13.7841L10.9631 13.7816L10.9605 13.7794L10.9559 13.7762C10.9549 13.7754 10.9536 13.7745 10.9523 13.7733C10.9488 13.771 10.9454 13.7687 10.942 13.7665C10.9367 13.763 10.9315 13.7596 10.9261 13.7561M10.7627 13.6326C10.7561 13.6266 10.749 13.6214 10.7414 13.6168L10.7354 13.6132L10.727 13.6036C10.7173 13.5938 10.7084 13.585 10.6971 13.5765L10.6945 13.5746L10.6925 13.5724C10.6851 13.5666 10.6788 13.5603 10.6737 13.5552C10.6678 13.5494 10.663 13.5446 10.6582 13.541C10.6545 13.5382 10.6516 13.5345 10.6499 13.5303C10.6263 13.5089 10.6033 13.4868 10.581 13.4641C10.5738 13.4568 10.5716 13.4461 10.5753 13.4366C10.579 13.4271 10.588 13.4207 10.5981 13.4202L10.7306 13.4136M11.3157 13.9077C11.3124 13.9061 11.3087 13.9053 11.3047 13.9053H11.3035C11.2888 13.8993 11.2759 13.894 11.2631 13.8863L11.2596 13.8845C11.2428 13.8776 11.2296 13.8723 11.22 13.8651C11.2161 13.8622 11.2115 13.8604 11.2066 13.86C11.1937 13.8546 11.1813 13.8482 11.1693 13.841L11.1715 13.8373H11.1607C11.1505 13.8307 11.1391 13.8253 11.1306 13.8211C11.1289 13.8203 11.1273 13.8196 11.1258 13.8189L11.1269 13.8169L11.117 13.813C11.1108 13.8106 11.1049 13.8074 11.0984 13.8036C11.097 13.8028 11.0955 13.8019 11.0939 13.8009C11.0895 13.7983 11.0846 13.7954 11.0798 13.7928C11.0791 13.7923 11.0784 13.7917 11.0775 13.7912C11.0758 13.7901 11.0724 13.7881 11.0679 13.7867C11.0644 13.7847 11.0609 13.7822 11.0562 13.7789C11.0514 13.7755 11.0451 13.7709 11.038 13.7671C11.0354 13.7651 11.033 13.7637 11.0314 13.7629L11.0282 13.7607C11.0223 13.7567 11.0157 13.753 11.0102 13.7498C11.005 13.7469 11.0006 13.7444 10.997 13.742C10.9956 13.7409 10.9943 13.7399 10.9933 13.7392L10.9891 13.7364L10.987 13.7349L10.9825 13.7313C10.9789 13.729 10.9752 13.7265 10.9713 13.7239C10.9653 13.7199 10.959 13.7158 10.9531 13.712L10.9511 13.7108C10.9482 13.7093 10.9472 13.7083 10.9444 13.7056L10.9114 13.6831L10.9083 13.6813C10.907 13.6807 10.906 13.68 10.9035 13.6784C10.9018 13.6772 10.8992 13.6754 10.8962 13.6737C10.8926 13.6704 10.8889 13.6675 10.886 13.6652C10.8816 13.6617 10.8785 13.6592 10.8765 13.6572L10.8776 13.6561L10.8694 13.6522C10.8695 13.6522 10.8697 13.6524 10.8694 13.6522L10.868 13.6513L10.8641 13.6484C10.8622 13.6469 10.8586 13.6442 10.8552 13.6421C10.8492 13.6359 10.8425 13.6304 10.8352 13.6258C10.8289 13.62 10.8221 13.615 10.8148 13.6106C10.8119 13.607 10.8089 13.6043 10.8067 13.6024C10.805 13.601 10.8038 13.6 10.8029 13.5992C10.8013 13.5979 10.8004 13.5972 10.799 13.5957L10.7979 13.5947C10.7895 13.5871 10.7804 13.5802 10.7707 13.5742L10.7632 13.5667C10.7539 13.5574 10.7432 13.5466 10.7294 13.5361L10.7272 13.5341L10.7248 13.532C10.7201 13.5285 10.7157 13.5241 10.7098 13.5183C10.7063 13.5148 10.7018 13.5102 10.6972 13.5062C10.6957 13.503 10.6936 13.5001 10.691 13.4977C10.6804 13.4882 10.6699 13.4786 10.6596 13.4689L10.7239 13.4657L11.317 13.9076C11.3166 13.9076 11.3161 13.9077 11.3157 13.9077Z" fill="black"/>
<path fill-rule="evenodd" clip-rule="evenodd" d="M11.5464 10.0089C11.5524 10.0072 11.5588 10.0076 11.5645 10.0102C11.6252 10.0378 11.6853 10.0669 11.7448 10.0957C11.8619 10.1526 11.9767 10.2082 12.0896 10.2487C12.1005 10.2526 12.1075 10.2632 12.1067 10.2747C12.0912 10.5093 12.0934 10.7448 12.1133 10.9791C12.1143 10.9913 12.1067 11.0026 12.0949 11.0061C11.8798 11.0702 11.5715 11.1988 11.367 11.3267C11.3611 11.3304 11.3539 11.3316 11.3471 11.3299C11.3403 11.3282 11.3345 11.3239 11.331 11.3178C11.2325 11.1493 11.0597 10.954 10.9282 10.8321C10.9218 10.8261 10.9188 10.8174 10.9203 10.8088C10.9634 10.5571 11.1052 10.3039 11.2755 10.1073L11.2838 10.0977L11.285 10.1004C11.3702 10.0643 11.4586 10.0348 11.5464 10.0089ZM11.3106 10.1457C11.1495 10.333 11.0171 10.5702 10.9737 10.8038C11.1002 10.9229 11.2613 11.1049 11.362 11.2691C11.5642 11.1469 11.8507 11.0272 12.0601 10.9627C12.0421 10.7391 12.04 10.5145 12.0539 10.2906C11.9442 10.2499 11.8312 10.1951 11.7187 10.1406C11.6628 10.1135 11.6071 10.0864 11.5518 10.0612C11.4701 10.0856 11.3888 10.1129 11.3106 10.1457ZM12.6958 10.0295C12.7024 10.0242 12.7112 10.0226 12.7193 10.025C12.7853 10.0448 12.8514 10.0714 12.916 10.0972C13.2011 10.2179 13.4561 10.4001 13.6625 10.6308C13.6684 10.6373 13.6705 10.6464 13.6682 10.6549C13.6658 10.6634 13.6593 10.6701 13.6509 10.6727C13.5546 10.7026 13.4065 10.7223 13.3177 10.7256C13.3108 10.7259 13.3041 10.7234 13.2991 10.7187C13.1085 10.5415 12.8985 10.3864 12.673 10.2564C12.6628 10.2505 12.6578 10.2384 12.6611 10.227C12.6799 10.1606 12.6889 10.1023 12.686 10.0512C12.6856 10.0428 12.6892 10.0347 12.6958 10.0295ZM12.738 10.0851C12.7365 10.1281 12.7287 10.1736 12.7161 10.2217C12.9353 10.3498 13.1399 10.5013 13.3264 10.6735C13.4006 10.6699 13.5109 10.6554 13.5958 10.6344C13.3996 10.424 13.161 10.2571 12.8959 10.1448C12.8425 10.1234 12.7902 10.1025 12.738 10.0851ZM10.2886 10.9953C10.2953 10.9934 10.3024 10.9943 10.3084 10.9977C10.3542 11.0239 10.4131 11.0598 10.4655 11.0959C10.4758 11.103 10.4796 11.1164 10.4744 11.1278C10.3661 11.3667 10.2953 11.7577 10.2532 12.0108L10.2523 12.0162C10.2149 12.1112 10.1761 12.1678 10.1311 12.2346C10.1164 12.2565 10.1009 12.2795 10.0846 12.3052C10.0813 12.3103 10.0764 12.3141 10.0706 12.3159L10.0609 12.319C10.0536 12.3214 10.0457 12.3203 10.0392 12.3162C10.0327 12.3121 10.0284 12.3054 10.0274 12.2978C9.97916 11.9287 10.03 11.5535 10.1748 11.2106C10.2042 11.142 10.237 11.0732 10.273 11.0077C10.2763 11.0017 10.2819 10.9972 10.2886 10.9953ZM10.3057 11.0559C10.2755 11.1126 10.2478 11.1715 10.2224 11.2307C10.0891 11.5464 10.0374 11.8901 10.0717 12.2304C10.078 12.221 10.0841 12.2119 10.09 12.2031C10.1336 12.1383 10.1679 12.0874 10.2027 11.9996C10.2435 11.7547 10.3123 11.3729 10.4185 11.1264C10.3808 11.1012 10.3407 11.0765 10.3057 11.0559ZM13.4021 11.2174C13.4114 11.2168 13.4203 11.2212 13.4255 11.229C13.5504 11.4193 13.6938 11.7523 13.7526 12.0236C13.7548 12.0338 13.7506 12.0444 13.7421 12.0503C13.6299 12.1281 13.5303 12.2043 13.4422 12.2716C13.4228 12.2865 13.4039 12.301 13.3855 12.3149C13.285 12.3913 13.1994 12.4538 13.1299 12.4858C13.1232 12.4889 13.1156 12.489 13.1088 12.4861L13.0933 12.4793C12.8742 12.384 12.6181 12.2727 12.4298 12.1578C12.4212 12.1526 12.4165 12.1429 12.4176 12.1329C12.4492 11.8542 12.4979 11.5777 12.5636 11.305C12.5661 11.2944 12.5751 11.2865 12.5859 11.2853C12.7675 11.2659 13.1108 11.2367 13.4021 11.2174ZM12.6096 11.3348C12.5478 11.5943 12.5015 11.8573 12.4708 12.1222C12.6546 12.2322 12.9008 12.3393 13.1157 12.4327L13.1186 12.434C13.1804 12.4034 13.258 12.3469 13.3543 12.2738C13.3724 12.26 13.3912 12.2456 13.4106 12.2308C13.495 12.1663 13.5909 12.0929 13.6984 12.0178C13.6401 11.7616 13.5073 11.4529 13.3904 11.27C13.1124 11.2886 12.7911 11.3158 12.6096 11.3348ZM11.2216 11.8414C11.2318 11.8361 11.2442 11.8382 11.2522 11.8465C11.3969 11.9973 11.6284 12.1999 11.795 12.3153C11.8042 12.3217 11.8083 12.3334 11.8049 12.3442C11.7341 12.5723 11.6667 12.8877 11.6442 13.1218C11.6429 13.1351 11.6316 13.1453 11.6181 13.1451C11.3816 13.1418 11.0211 13.1223 10.7799 13.0834C10.7713 13.082 10.7639 13.0763 10.7604 13.0683C10.6652 12.8517 10.5807 12.4901 10.5417 12.214C10.5402 12.2031 10.5456 12.1925 10.5554 12.1874L11.2216 11.8414ZM10.5955 12.2248C10.6344 12.4906 10.7138 12.8275 10.8021 13.0346C11.0315 13.0702 11.3646 13.0889 11.5952 13.0931C11.6195 12.8641 11.6828 12.5685 11.75 12.3469C11.5869 12.2315 11.371 12.0427 11.2283 11.8962L10.5955 12.2248ZM14.1718 11.8874C14.1836 11.8895 14.1924 11.8994 14.193 11.9114C14.2104 12.2295 14.1555 12.5476 14.0325 12.8415C14.0275 12.8535 14.0144 12.8598 14.0019 12.8563C13.9894 12.8529 13.9813 12.8407 13.9831 12.8278C14.0154 12.5991 14.0347 12.3771 14.0347 12.1553V12.144L14.0369 12.1449L14.1436 11.9024C14.1484 11.8914 14.1601 11.8852 14.1718 11.8874ZM14.0864 12.1608C14.0861 12.307 14.0777 12.4531 14.0628 12.6008C14.1167 12.4151 14.1443 12.2224 14.1445 12.0286L14.0864 12.1608ZM13.9231 13.0104C13.9341 13.0179 13.9376 13.0326 13.9311 13.0443C13.6001 13.6406 13.0074 14.0203 12.3625 14.1022C12.3555 14.103 12.3484 14.101 12.3429 14.0966L12.1521 13.9414C12.147 13.9373 12.1437 13.9315 12.1428 13.9251C12.1229 13.7894 12.1296 13.5633 12.1592 13.3899C12.1613 13.3777 12.1716 13.3687 12.1839 13.3684C12.4069 13.3621 12.7509 13.3015 12.9612 13.2163C12.9705 13.2112 12.9825 13.2122 12.9909 13.2197C13.1071 13.3237 13.2874 13.4259 13.4265 13.4873C13.5849 13.3722 13.7526 13.1797 13.8886 13.0153C13.8971 13.005 13.912 13.0029 13.9231 13.0104ZM12.9685 13.2688C12.7574 13.3517 12.4302 13.4099 12.2067 13.4193C12.1814 13.5813 12.176 13.7828 12.1925 13.9077L12.3669 14.0495C12.8512 13.9854 13.3044 13.749 13.6332 13.3769C13.5707 13.4382 13.507 13.4939 13.4445 13.538C13.4372 13.5431 13.4277 13.5441 13.4194 13.5406C13.2803 13.4807 13.0942 13.3774 12.9685 13.2688ZM10.7306 13.4136C10.7366 13.4133 10.7425 13.4151 10.7473 13.4187L11.4072 13.9104C11.4083 13.9112 11.4095 13.912 11.4105 13.9129C11.4158 13.9183 11.4187 13.926 11.4177 13.9342C11.416 13.9483 11.4029 13.9584 11.3887 13.9567C11.3671 13.9542 11.3453 13.9565 11.3169 13.9596L11.311 13.9602L11.3047 13.96C11.3003 13.96 11.2961 13.9589 11.2924 13.9569H11.2879L11.2882 13.9549C11.287 13.9544 11.2863 13.9541 11.2851 13.9536C11.2708 13.9477 11.2546 13.9412 11.2383 13.9316C11.2379 13.9315 11.2374 13.9313 11.2369 13.9311C11.2246 13.9261 11.2099 13.9201 11.1965 13.9116H11.1908L11.1916 13.9097C11.1767 13.9037 11.1622 13.8966 11.1482 13.8886C11.1443 13.8879 11.1405 13.8862 11.1372 13.8838C11.1298 13.8782 11.1217 13.8743 11.1121 13.8696C11.108 13.8677 11.1036 13.8656 11.0989 13.8632L11.0921 13.8596C11.0841 13.8562 11.0782 13.8517 11.0722 13.8481C11.0699 13.8468 11.0679 13.8456 11.066 13.8445C11.0614 13.8417 11.0577 13.8395 11.0537 13.8374L11.0458 13.8372L11.0472 13.8343C11.0391 13.8302 11.0322 13.8252 11.0269 13.8215C11.0211 13.8173 11.0163 13.814 11.012 13.8119L11.0036 13.8077L11.0043 13.807C11.0025 13.806 11.0002 13.8046 10.9978 13.8025C10.9942 13.8002 10.9899 13.7977 10.9847 13.7948C10.9794 13.7918 10.9724 13.7878 10.9669 13.7841L10.9631 13.7816L10.9605 13.7794L10.9559 13.7762C10.9549 13.7754 10.9536 13.7745 10.9523 13.7733C10.9488 13.771 10.9454 13.7687 10.942 13.7665C10.9367 13.763 10.9315 13.7596 10.9261 13.7561M10.7627 13.6326C10.7561 13.6266 10.749 13.6214 10.7414 13.6168L10.7354 13.6132L10.727 13.6036C10.7173 13.5938 10.7084 13.585 10.6971 13.5765L10.6945 13.5746L10.6925 13.5724C10.6851 13.5666 10.6788 13.5603 10.6737 13.5552C10.6678 13.5494 10.663 13.5446 10.6582 13.541C10.6545 13.5382 10.6516 13.5345 10.6499 13.5303C10.6263 13.5089 10.6033 13.4868 10.581 13.4641C10.571 13.4539 10.5709 13.4377 10.5811 13.4277C10.5823 13.4265 10.5837 13.4254 10.5851 13.4245C10.5888 13.4219 10.5932 13.4204 10.5981 13.4202L10.7306 13.4136M10.6596 13.4689C10.6699 13.4786 10.6804 13.4882 10.691 13.4977C10.6936 13.5001 10.6957 13.503 10.6972 13.5062C10.7018 13.5102 10.7063 13.5148 10.7098 13.5183C10.7157 13.5241 10.7201 13.5285 10.7248 13.532L10.7272 13.5341L10.7294 13.5361C10.7432 13.5466 10.7539 13.5574 10.7632 13.5667L10.7707 13.5742C10.7804 13.5802 10.7895 13.5871 10.7979 13.5947L10.799 13.5957C10.8004 13.5972 10.8013 13.5979 10.8029 13.5992C10.8038 13.6 10.805 13.601 10.8067 13.6024C10.8089 13.6043 10.8119 13.607 10.8148 13.6106C10.8221 13.615 10.8289 13.62 10.8352 13.6258C10.8425 13.6304 10.8492 13.6359 10.8552 13.6421C10.8586 13.6442 10.8622 13.6469 10.8641 13.6484L10.868 13.6513L10.8694 13.6522C10.8695 13.6522 10.8697 13.6524 10.8694 13.6522L10.8776 13.6561L10.8765 13.6572C10.8785 13.6592 10.8816 13.6617 10.886 13.6652C10.8889 13.6675 10.8926 13.6704 10.8962 13.6737C10.8992 13.6754 10.9018 13.6772 10.9035 13.6784C10.906 13.68 10.907 13.6807 10.9083 13.6813L10.9114 13.6831L10.9444 13.7056C10.9472 13.7083 10.9482 13.7093 10.9511 13.7108L10.9531 13.712C10.959 13.7158 10.9653 13.7199 10.9713 13.7239C10.9752 13.7265 10.9789 13.729 10.9825 13.7313L10.987 13.7349L10.9891 13.7364L10.9933 13.7392C10.9943 13.7399 10.9956 13.7409 10.997 13.742C11.0006 13.7444 11.005 13.7469 11.0102 13.7498C11.0157 13.753 11.0223 13.7567 11.0282 13.7607L11.0314 13.7629C11.033 13.7637 11.0354 13.7651 11.038 13.7671C11.0451 13.7709 11.0514 13.7755 11.0562 13.7789C11.0609 13.7822 11.0644 13.7847 11.0679 13.7867C11.0724 13.7881 11.0758 13.7901 11.0775 13.7912C11.0784 13.7917 11.0791 13.7923 11.0798 13.7928C11.0846 13.7954 11.0895 13.7983 11.0939 13.8009C11.0955 13.8019 11.097 13.8028 11.0984 13.8036C11.1049 13.8074 11.1108 13.8106 11.117 13.813L11.1269 13.8169L11.125 13.8182C11.1265 13.819 11.1288 13.8203 11.1306 13.8211C11.1391 13.8253 11.1505 13.8307 11.1607 13.8373H11.1715L11.1693 13.841C11.1813 13.8482 11.1937 13.8546 11.2066 13.86C11.2115 13.8604 11.2161 13.8622 11.22 13.8651C11.2296 13.8723 11.2428 13.8776 11.2596 13.8845L11.2631 13.8863C11.2759 13.894 11.2888 13.8993 11.3035 13.9053H11.3047C11.3087 13.9053 11.3124 13.9061 11.3157 13.9077C11.3161 13.9077 11.3166 13.9076 11.317 13.9076L10.7239 13.4657L10.6596 13.4689Z" fill="black"/>
</svg>
