<svg width="24" height="24" viewBox="0 0 24 24" fill="none" xmlns="http://www.w3.org/2000/svg">
<path d="M8.50077 2.39747C8.76571 2.16617 9.05191 2.07499 9.35479 2.02971C9.4944 2.0089 9.63674 2.00033 9.77786 2.00003C10.6213 1.9985 11.1111 2.40298 11.1888 3.25171C11.2386 3.79571 11.1958 4.3495 11.1782 4.89808C11.1612 5.43198 11.099 5.96496 11.102 6.49825C11.1047 6.9627 11.2908 7.38462 11.5691 7.75269C11.746 7.98675 11.9372 8.21652 12.1557 8.40958C12.3096 8.54543 12.512 8.63906 12.7075 8.70851C12.9069 8.77949 13.0222 8.70973 13.1093 8.51422C13.1733 8.37073 13.2222 8.21989 13.2695 8.06936C13.4525 7.48712 13.7126 6.95352 14.1824 6.54598C14.5485 6.2287 14.9694 6.01851 15.4507 5.86461C15.5454 6.10968 15.6362 6.34374 15.7269 6.57811C15.523 6.71395 15.2999 6.78616 15.143 7.0037C15.3846 7.0909 15.587 6.99758 15.7891 6.98106C15.913 7.24021 16.0462 8.56134 15.9843 8.91901C15.8064 8.9389 15.6252 8.9493 15.4477 8.98081C14.4683 9.15582 13.7387 9.7093 13.1894 10.5225C12.8025 11.0956 12.5463 11.7228 12.4874 12.4207C12.4644 12.6939 12.4835 12.9617 12.6483 13.192C12.4562 13.5118 12.2659 13.8281 12.0589 14.172C12.6192 14.3204 13.0768 14.1497 13.5406 13.845C13.5163 13.9068 13.5099 13.9389 13.4929 13.964C13.2665 14.2981 12.9463 14.4841 12.5575 14.5612C12.4188 14.5888 12.2786 14.6126 12.1424 14.6499C11.8917 14.7188 11.7906 14.8455 11.7642 15.1037C11.7208 15.5277 11.8437 15.7282 12.2361 15.8762C12.8759 16.1176 13.3836 16.527 13.7557 17.1111C13.7196 17.0888 13.6835 17.067 13.6477 17.0441C13.0635 16.6717 12.4149 16.6053 11.749 16.6616C10.7411 16.7467 9.83553 17.1089 9.03158 17.7304C8.96238 17.6887 8.8944 17.6477 8.81276 17.5985C8.92474 17.1108 9.12505 16.6647 9.46678 16.285C9.52263 16.2229 9.56572 16.1329 9.57877 16.0503C9.60912 15.8545 9.70624 15.7349 9.89774 15.6908C10.0504 15.6556 10.2046 15.6247 10.3542 15.5798C10.6835 15.4806 10.9709 15.3013 11.1633 15.0159C11.6622 14.2748 11.8601 13.4494 11.7527 12.5609C11.6868 12.0175 11.3836 11.5928 10.9833 11.2468C10.6307 10.942 10.2443 10.6774 9.88742 10.3775C9.53871 10.0847 9.17938 9.7965 8.87558 9.45995C8.06677 8.5644 7.88103 6.9884 8.72869 5.86981C8.95873 5.56599 9.19607 5.26768 9.41701 4.95713C9.69046 4.57285 9.8334 4.14542 9.78666 3.66445C9.7205 2.98491 9.31777 2.54372 8.64857 2.42225C8.61033 2.41613 8.57178 2.40971 8.50077 2.39747ZM10.0131 3.36125C10.0249 3.45426 10.0383 3.53962 10.0465 3.62559C10.0886 4.07811 9.98545 4.50033 9.81944 4.92011C9.5378 5.63239 10.0343 6.3159 10.8234 6.2951C10.8234 6.20086 10.8173 6.10509 10.8243 6.00994C10.8729 5.34968 10.9287 4.68972 10.9721 4.02916C10.9958 3.66659 10.9773 3.30464 10.861 2.95615C10.6892 2.44 10.2295 2.17718 9.69046 2.2809C9.70472 2.49691 9.7988 2.57034 10.0006 2.53148C10.0377 2.52444 10.0917 2.53577 10.1193 2.55994C10.3818 2.78971 10.3302 3.21071 10.0131 3.36125Z" fill="#060D3C"/>
<path fill-rule="evenodd" clip-rule="evenodd" d="M8.27671 2.46033L8.435 2.32214C8.71916 2.07406 9.02574 1.97779 9.34001 1.93081C9.48536 1.90914 9.63272 1.90034 9.77765 1.90003C10.2145 1.89924 10.5745 2.00361 10.8362 2.23163C11.0986 2.46028 11.2479 2.80079 11.2884 3.2426C11.3282 3.67793 11.3097 4.12076 11.2915 4.55448C11.2866 4.67084 11.2818 4.78655 11.2781 4.90129C11.2711 5.12187 11.2564 5.34249 11.2419 5.56102C11.2387 5.60908 11.2355 5.65704 11.2324 5.70487C11.2151 5.97121 11.2005 6.23479 11.202 6.49767C11.2046 6.93467 11.3795 7.33615 11.6488 7.69238C11.8242 7.9244 12.0108 8.14806 12.2219 8.33462C12.3616 8.45795 12.5499 8.5464 12.741 8.61428C12.8258 8.64449 12.8737 8.63823 12.905 8.62224C12.9397 8.60454 12.9781 8.56303 13.018 8.47353C13.0794 8.3359 13.1267 8.19005 13.1741 8.03937C13.3598 7.44858 13.6273 6.89513 14.1169 6.47044C14.4957 6.14211 14.9297 5.92623 15.4203 5.76936L15.51 5.74066L15.544 5.82857C15.6128 6.00666 15.6795 6.17891 15.7457 6.34974C15.7706 6.41395 15.7954 6.47796 15.8202 6.542L15.8491 6.61684L15.7824 6.66134C15.728 6.69753 15.673 6.72906 15.6207 6.75849C15.6122 6.76328 15.6038 6.768 15.5954 6.77267C15.5517 6.79719 15.5103 6.82039 15.4698 6.84538C15.4225 6.87456 15.3782 6.90514 15.3373 6.94008C15.3805 6.94153 15.4235 6.93818 15.4673 6.93219C15.509 6.9265 15.5497 6.9187 15.5929 6.91042C15.6012 6.90882 15.6097 6.9072 15.6182 6.90558C15.6697 6.89582 15.7247 6.88599 15.781 6.88139L15.8497 6.87578L15.8794 6.93794C15.9171 7.01696 15.9504 7.16144 15.9791 7.32571C16.0085 7.49457 16.0352 7.69766 16.0559 7.90306C16.0766 8.10851 16.0915 8.31761 16.0973 8.49855C16.103 8.67697 16.1002 8.83564 16.0828 8.93607L16.07 9.01005L15.9954 9.01839C15.9359 9.02504 15.8778 9.03053 15.8207 9.03592C15.6998 9.04733 15.583 9.05836 15.4652 9.07927C14.5172 9.2487 13.8094 9.78336 13.2723 10.5785C12.893 11.1402 12.6443 11.7513 12.5871 12.4291C12.5647 12.6942 12.5856 12.9325 12.7296 13.1339L12.7678 13.1873L12.734 13.2436C12.5643 13.526 12.396 13.8059 12.2163 14.1045C12.6792 14.1859 13.0722 14.0331 13.4856 13.7614L13.7487 13.5885L13.6336 13.8815C13.6255 13.9023 13.62 13.9182 13.6146 13.9335C13.6125 13.9396 13.6104 13.9457 13.6082 13.9519C13.6011 13.9716 13.5918 13.9963 13.5757 14.0201C13.3324 14.3792 12.9875 14.5779 12.577 14.6593C12.5454 14.6656 12.5142 14.6716 12.4834 14.6775C12.3752 14.6983 12.2713 14.7183 12.1688 14.7464C12.0547 14.7777 11.9884 14.8185 11.9463 14.8695C11.9039 14.9208 11.8759 14.995 11.8637 15.1139C11.8429 15.3168 11.8644 15.4469 11.9221 15.5413C11.9796 15.6354 12.0842 15.712 12.2715 15.7827C12.9313 16.0317 13.4563 16.455 13.8401 17.0574L13.7031 17.1961C13.6929 17.1898 13.6824 17.1834 13.6717 17.1768C13.6461 17.1611 13.6196 17.1449 13.5937 17.1283L13.6202 17.0869C13.5963 17.0517 13.5719 17.0171 13.547 16.9832C13.5807 17.0025 13.6143 17.0228 13.6477 17.0441C13.6727 17.0601 13.6978 17.0755 13.723 17.0909C13.7339 17.0976 13.7448 17.1043 13.7557 17.1111L13.6714 17.1648C13.6546 17.1385 13.6375 17.1125 13.6202 17.0869L13.5937 17.1283C13.0352 16.7723 12.4118 16.706 11.7575 16.7613C10.7695 16.8447 9.882 17.1994 9.09273 17.8095L9.03864 17.8513L8.69908 17.6467L8.71529 17.5761C8.8302 17.0757 9.03697 16.6131 9.39244 16.2181M9.39244 16.2181C9.39243 16.2181 9.39245 16.2181 9.39244 16.2181L9.46678 16.285C9.12505 16.6647 8.92474 17.1108 8.81276 17.5985L9.03158 17.7304C9.83553 17.1089 10.7411 16.7467 11.749 16.6616M13.4559 14.0162C13.2322 14.3176 12.9256 14.4882 12.5575 14.5612C12.5273 14.5672 12.497 14.573 12.4667 14.5789C12.3579 14.5998 12.2489 14.6208 12.1424 14.6499C11.8917 14.7188 11.7906 14.8455 11.7642 15.1037C11.7208 15.5277 11.8437 15.7282 12.2361 15.8762C12.7986 16.0885 13.259 16.4305 13.6149 16.907C13.6366 16.936 13.6578 16.9655 13.6787 16.9954C13.6787 16.9954 13.6787 16.9955 13.6787 16.9954C13.705 17.0332 13.7307 17.0718 13.7557 17.1111M13.4559 14.0162C13.4685 13.9992 13.4808 13.9818 13.4929 13.964C13.5037 13.9481 13.5102 13.9294 13.5196 13.9022C13.5251 13.8864 13.5316 13.8677 13.5406 13.845C13.502 13.8703 13.4636 13.8947 13.4251 13.918C13.4251 13.918 13.4251 13.918 13.4251 13.918C13.4125 13.9257 13.3999 13.9332 13.3873 13.9406C13.0032 14.1667 12.6151 14.2868 12.1613 14.1959C12.1275 14.1891 12.0934 14.1812 12.0589 14.172C12.077 14.142 12.0949 14.1122 12.1127 14.0826C12.2991 13.7729 12.4729 13.4839 12.6483 13.192C12.4835 12.9617 12.4644 12.6939 12.4874 12.4207C12.5463 11.7228 12.8025 11.0956 13.1894 10.5225C13.7387 9.7093 14.4683 9.15582 15.4477 8.98081C15.5696 8.95918 15.6932 8.9475 15.8162 8.93586C15.8724 8.93055 15.9285 8.92524 15.9843 8.91901C16.0462 8.56134 15.913 7.24021 15.7891 6.98106C15.7305 6.98585 15.6719 6.99709 15.6124 7.00851C15.4968 7.03068 15.3775 7.05355 15.2477 7.03137C15.2136 7.02554 15.1787 7.01659 15.143 7.0037C15.1648 6.97349 15.1879 6.94608 15.212 6.92091C15.3112 6.81735 15.4282 6.75178 15.547 6.68519C15.6072 6.65145 15.6679 6.61745 15.7269 6.57811C15.7021 6.5141 15.6773 6.4501 15.6525 6.38591C15.5863 6.21506 15.5196 6.04275 15.4507 5.86461C14.9694 6.01851 14.5485 6.2287 14.1824 6.54598C13.7126 6.95352 13.4525 7.48712 13.2695 8.06936C13.2222 8.21989 13.1733 8.37073 13.1093 8.51422C13.0222 8.70973 12.9069 8.77949 12.7075 8.70851C12.512 8.63906 12.3096 8.54543 12.1557 8.40958M9.35479 2.02971C9.09143 2.06908 8.84068 2.14315 8.60555 2.31388C8.57027 2.3395 8.53533 2.36729 8.50077 2.39747C8.56121 2.40789 8.59814 2.41409 8.63137 2.41948C8.63718 2.42043 8.64288 2.42134 8.64857 2.42225C9.31777 2.54372 9.7205 2.98491 9.78666 3.66445C9.8334 4.14542 9.69046 4.57285 9.41701 4.95713C9.26427 5.17182 9.1037 5.38066 8.94311 5.58951C8.87141 5.68277 8.7997 5.77603 8.72869 5.86981C7.88103 6.9884 8.06677 8.5644 8.87558 9.45995C9.14158 9.75463 9.45016 10.0123 9.75691 10.2683C9.80049 10.3047 9.84404 10.3411 9.88742 10.3775C10.0541 10.5176 10.2272 10.6499 10.4003 10.7823C10.5979 10.9333 10.7954 11.0843 10.9833 11.2468C11.3836 11.5928 11.6868 12.0175 11.7527 12.5609C11.8601 13.4494 11.6622 14.2748 11.1633 15.0159C10.9709 15.3013 10.6835 15.4806 10.3542 15.5798C10.2397 15.6142 10.1224 15.6404 10.0053 15.6665C9.96941 15.6746 9.93353 15.6826 9.89774 15.6908C9.70624 15.7349 9.60912 15.8545 9.57877 16.0503C9.56572 16.1329 9.52263 16.2229 9.46678 16.285L9.39244 16.2181M11.6534 12.5729C11.758 13.4376 11.5658 14.239 11.0804 14.96L11.6534 12.5729ZM10.9179 11.3224C10.7442 11.1722 10.5616 11.0316 10.3762 10.8897C10.3639 10.8803 10.3515 10.8708 10.3392 10.8614C10.1665 10.7293 9.99161 10.5957 9.8231 10.4541C9.82309 10.4541 9.8231 10.4541 9.8231 10.4541C9.78005 10.4179 9.73669 10.3817 9.69316 10.3454C9.3869 10.0898 9.07245 9.82728 8.80135 9.52695C7.96286 8.59852 7.77014 6.96917 8.64899 5.80941C8.72097 5.71435 8.79321 5.6204 8.86518 5.5268C9.02519 5.31869 9.18389 5.1123 9.33553 4.89916C9.59747 4.53105 9.73115 4.12719 9.68713 3.67414M10.9179 11.3224C11.3068 11.6586 11.5915 12.0625 11.6534 12.5729L10.9179 11.3224ZM8.63172 2.52083C8.94796 2.57842 9.19464 2.71003 9.36999 2.90159C9.54556 3.09341 9.65577 3.35211 9.68713 3.67414M8.63172 2.52083C8.59328 2.51467 8.55437 2.50818 8.48378 2.49602L8.27671 2.46033M11.102 6.49825C11.1002 6.1834 11.1212 5.86864 11.1421 5.55375C11.1567 5.33529 11.1712 5.11676 11.1782 4.89808C11.1819 4.78112 11.1868 4.66393 11.1917 4.54664C11.2098 4.1138 11.228 3.67973 11.1888 3.25171C11.1111 2.40298 10.6213 1.9985 9.77786 2.00003C9.63674 2.00033 9.4944 2.0089 9.35479 2.02971M10.0006 2.53148C9.7988 2.57034 9.70472 2.49691 9.69046 2.2809C10.2295 2.17718 10.6892 2.44 10.861 2.95615C10.9773 3.30464 10.9958 3.66659 10.9721 4.02916C10.9447 4.44591 10.9124 4.86242 10.8801 5.27891C10.8611 5.52258 10.8422 5.76624 10.8243 6.00994C10.8195 6.07497 10.8209 6.14029 10.8222 6.20521C10.8228 6.23528 10.8234 6.26527 10.8234 6.2951C10.7999 6.29572 10.7766 6.29571 10.7536 6.2951C10.7435 6.29483 10.7334 6.29444 10.7234 6.29393C9.9931 6.25714 9.54989 5.6018 9.81944 4.92011C9.98545 4.50033 10.0886 4.07811 10.0465 3.62559C10.0409 3.56782 10.0331 3.51033 10.025 3.45061C10.021 3.42145 10.017 3.39176 10.0131 3.36125C10.3302 3.21071 10.3818 2.78971 10.1193 2.55994C10.0917 2.53577 10.0377 2.52444 10.0006 2.53148ZM10.1211 3.41564C10.446 3.20942 10.4813 2.74391 10.1852 2.48469C10.1547 2.45808 10.1171 2.44375 10.0859 2.43656C10.054 2.42921 10.017 2.42659 9.98195 2.43324C9.89117 2.45072 9.85386 2.43665 9.83775 2.42374C9.82732 2.41538 9.81449 2.39868 9.80455 2.36478C10.0153 2.34207 10.2061 2.38216 10.3636 2.47275C10.5443 2.57671 10.6873 2.7508 10.7661 2.98773C10.8768 3.31947 10.8955 3.66727 10.8723 4.0226C10.845 4.43889 10.8127 4.8542 10.7804 5.27019C10.7615 5.51399 10.7426 5.75801 10.7246 6.00261C10.7199 6.06573 10.7207 6.13196 10.7219 6.19372C10.4043 6.17596 10.1521 6.03128 10.0007 5.8236M9.91243 4.95688C10.0816 4.52925 10.1902 4.0904 10.146 3.61631C10.1403 3.55655 10.132 3.49539 10.1237 3.43449C10.1229 3.4282 10.122 3.42192 10.1211 3.41564" fill="white"/>
<path d="M13.9679 19.9419C13.9445 19.7984 13.9387 19.6643 13.8996 19.5413C13.8277 19.3152 13.6626 19.1803 13.4325 19.1283C13.2404 19.0846 13.0474 19.0439 12.8553 18.9998C12.3952 18.8939 12.0729 19.0371 11.8371 19.4538C11.8249 19.4756 11.8119 19.4967 11.8003 19.5163C11.4246 19.478 9.65769 18.7712 9.1117 18.4451C9.1117 18.2872 9.10837 18.1364 9.11413 17.9862C9.11535 17.9522 9.14023 17.9084 9.16785 17.8882C10.3666 17.0068 11.6695 16.6017 13.1472 17.019C13.268 17.0533 13.3843 17.1071 13.4987 17.1604C13.8489 17.3238 14.0747 17.585 14.1743 17.9715C14.3309 18.5791 14.3348 19.1791 14.1612 19.7821C14.1309 19.8883 14.0835 19.9571 13.9679 19.9419Z" fill="#060D3C"/>
<path fill-rule="evenodd" clip-rule="evenodd" d="M13.8811 20.0312L13.8692 19.9579C13.8615 19.9105 13.8553 19.8617 13.8496 19.8164C13.8465 19.7923 13.8436 19.7691 13.8406 19.7476C13.8316 19.6825 13.8213 19.625 13.8043 19.5717C13.7444 19.3834 13.6103 19.271 13.4105 19.2258C13.3225 19.2058 13.2297 19.1854 13.1367 19.165C13.0341 19.1424 12.931 19.1198 12.8329 19.0973C12.6174 19.0477 12.4451 19.0588 12.3028 19.1222C12.1603 19.1857 12.0349 19.3073 11.9241 19.5031C11.9151 19.5192 11.9053 19.5356 11.8966 19.5501C11.8929 19.5562 11.8895 19.562 11.8865 19.567L11.854 19.6222L11.7902 19.6157C11.6832 19.6049 11.4917 19.5495 11.2665 19.4734C11.0373 19.3959 10.7624 19.2931 10.4828 19.1815C9.92588 18.9593 9.34096 18.6985 9.06042 18.5309L9.0117 18.5018V18.4451C9.0117 18.4037 9.01146 18.3623 9.01122 18.3209C9.01057 18.2075 9.00991 18.0943 9.01421 17.9823C9.0142 17.9824 9.01421 17.9822 9.01421 17.9823C9.0156 17.9449 9.02893 17.91 9.04365 17.8835C9.05855 17.8567 9.08042 17.8283 9.10872 17.8076C9.10868 17.8076 9.10876 17.8076 9.10872 17.8076L9.16785 17.8882C10.3666 17.0068 11.6695 16.6017 13.1472 17.019C13.268 17.0533 13.3843 17.1071 13.4987 17.1604C13.8489 17.3238 14.0747 17.585 14.1743 17.9715C14.3309 18.5791 14.3348 19.1791 14.1612 19.7821C14.1309 19.8883 14.0835 19.9571 13.9679 19.9419C13.9604 19.8959 13.9547 19.8508 13.9492 19.8068C13.9374 19.7136 13.9262 19.6249 13.8996 19.5413C13.8277 19.3152 13.6626 19.1803 13.4325 19.1283C13.3408 19.1074 13.2488 19.0872 13.1569 19.067C13.0563 19.0449 12.9556 19.0228 12.8553 18.9998M11.8003 19.5163C11.4246 19.478 9.65769 18.7712 9.1117 18.4451L11.8003 19.5163ZM14.2711 17.9465C14.2711 17.9465 14.2711 17.9465 14.2711 17.9465V17.9465Z" fill="white"/>
<path d="M14.0202 20.1547C13.8205 20.6042 13.5437 20.9891 13.1659 21.2877C12.9449 21.4621 12.7024 21.6166 12.4518 21.7435C11.6102 22.1685 10.8223 21.9944 10.1121 21.4428C9.31668 20.8251 8.90636 19.9705 8.75279 18.9823C8.74733 18.9474 8.75522 18.8975 8.77707 18.8736C8.85143 18.7929 8.93488 18.7204 9.00893 18.6503C9.50697 18.8675 10.0029 19.0955 10.5079 19.3005C10.8633 19.4449 11.2305 19.5608 11.5944 19.6832C11.6815 19.7126 11.7237 19.7407 11.7161 19.849C11.6845 20.2936 11.9021 20.5941 12.3273 20.7014C12.5082 20.747 12.6921 20.7853 12.8769 20.8091C13.3583 20.8706 13.6417 20.7051 13.843 20.2596C13.8903 20.1556 13.8903 20.1556 14.0202 20.1547Z" fill="#060D3C"/>
<path fill-rule="evenodd" clip-rule="evenodd" d="M14.1745 20.0536L14.1116 20.1953C13.9064 20.657 13.6205 21.0559 13.2279 21.3661C13.0017 21.5447 12.7535 21.7028 12.4969 21.8328C12.059 22.0539 11.6306 22.121 11.2177 22.0583C10.8058 21.9957 10.4158 21.8053 10.0508 21.5218C10.0508 21.5218 10.0508 21.5218 10.0508 21.5218C9.23068 20.8849 8.81049 20.0048 8.65398 18.9976C8.64922 18.9673 8.65055 18.9342 8.65669 18.9039C8.66246 18.8755 8.67508 18.837 8.70332 18.8061C8.76041 18.7441 8.82418 18.6852 8.88165 18.6321C8.90213 18.6132 8.92184 18.595 8.94021 18.5777L8.98827 18.5322L9.04892 18.5586C9.20028 18.6247 9.35094 18.6914 9.50139 18.7581C9.84837 18.9119 10.1943 19.0652 10.5455 19.2078C10.8305 19.3236 11.1228 19.4208 11.4184 19.5191C11.4875 19.542 11.5568 19.5651 11.6263 19.5884C11.6693 19.603 11.7268 19.6243 11.7671 19.672C11.8117 19.7247 11.8205 19.7899 11.8158 19.856C11.8013 20.0604 11.8445 20.2221 11.9316 20.3433C12.0187 20.4644 12.157 20.5553 12.3518 20.6045M13.9737 20.2553C13.7782 20.6617 13.5152 21.0116 13.1659 21.2877C12.9449 21.4621 12.7024 21.6166 12.4518 21.7435M14.0202 20.1547C13.9596 20.1551 13.9273 20.1554 13.9052 20.166C13.9025 20.1674 13.8999 20.1689 13.8974 20.1706C13.8773 20.1843 13.8655 20.2102 13.843 20.2596C13.6417 20.7051 13.3583 20.8706 12.8769 20.8091C12.6921 20.7853 12.5082 20.747 12.3273 20.7014L12.3518 20.6045M14.0202 20.1547C14.0051 20.1886 13.9896 20.2222 13.9737 20.2553L14.0202 20.1547ZM11.5944 19.6832C11.5257 19.6601 11.4569 19.6372 11.3881 19.6144C11.0923 19.516 10.7962 19.4176 10.5079 19.3005C10.1552 19.1573 9.80689 19.0029 9.45922 18.8488C9.30912 18.7823 9.15912 18.7158 9.00893 18.6503C8.98877 18.6694 8.96791 18.6886 8.94672 18.7082C8.89011 18.7605 8.83118 18.8149 8.77707 18.8736" fill="white"/>
<path d="M8.35958 18.8057C8.50192 18.8678 8.54562 18.9657 8.56929 19.1049C8.74046 20.1115 9.18296 20.967 10.0039 21.5912C10.2106 21.7484 10.4494 21.8631 10.6777 21.9999C9.93198 21.8757 9.30314 21.5385 8.79661 20.9737C8.53621 20.6834 8.35078 20.3477 8.19721 19.9885C8.01178 19.5556 8.11133 19.1747 8.35958 18.8057Z" fill="#060D3C"/>
<path fill-rule="evenodd" clip-rule="evenodd" d="M8.32316 18.6807L8.39958 18.714C8.4863 18.7519 8.54943 18.8039 8.59324 18.8726C8.63554 18.9389 8.65521 19.0136 8.66788 19.0882C8.83561 20.0746 9.26727 20.9055 10.0644 21.5115C10.2002 21.6149 10.3465 21.6968 10.5008 21.7833C10.5751 21.8249 10.6513 21.8675 10.7291 21.9141L10.6612 22.0986C9.89382 21.9707 9.2443 21.6227 8.72216 21.0405C8.45191 20.7391 8.2613 20.3928 8.10526 20.0278C7.90248 19.5543 8.01594 19.1373 8.27661 18.7499L8.32316 18.6807ZM8.19721 19.9885C8.35078 20.3477 8.53621 20.6834 8.79661 20.9737C9.22832 21.4551 9.74888 21.7711 10.3549 21.9309C10.4599 21.9586 10.5675 21.9816 10.6777 21.9999C10.6055 21.9567 10.5323 21.9157 10.4594 21.8748C10.4372 21.8624 10.4151 21.8499 10.393 21.8375C10.258 21.7613 10.1254 21.6836 10.0039 21.5912C9.18296 20.967 8.74046 20.1115 8.56929 19.1049C8.54562 18.9657 8.50192 18.8678 8.35958 18.8057C8.11133 19.1747 8.01178 19.5556 8.19721 19.9885Z" fill="white"/>
<path d="M11.9344 19.7931C12.0938 19.8363 12.2428 19.8769 12.3921 19.9173C12.4143 20.0128 12.2753 20.1395 12.4252 20.1805C12.4771 20.1945 12.563 20.0826 12.6331 20.0281C12.6255 20.0119 12.6179 19.996 12.6103 19.9798C12.6622 19.9886 12.7141 19.9972 12.7857 20.0094C12.7678 20.0728 12.7408 20.1245 12.7426 20.1753C12.7442 20.2221 12.7766 20.2677 12.7955 20.3139C12.8395 20.2903 12.8968 20.2765 12.9238 20.2401C12.9584 20.1936 12.9684 20.1288 12.9936 20.0599C13.0428 20.0682 13.0895 20.0761 13.1002 20.078C13.119 20.1838 13.1138 20.3267 13.1521 20.3399C13.3226 20.3974 13.2871 20.1945 13.3857 20.1229C13.4634 20.1309 13.556 20.1401 13.6507 20.1499C13.5669 20.4506 13.3326 20.6474 13.0513 20.6192C12.787 20.5926 12.5217 20.5418 12.2659 20.4687C12.0039 20.3934 11.8674 20.0997 11.9344 19.7931Z" fill="#060D3C"/>
<path fill-rule="evenodd" clip-rule="evenodd" d="M11.8592 19.6691L11.9606 19.6966C12.0373 19.7174 12.1112 19.7375 12.1839 19.7572C12.2628 19.7787 12.3402 19.7997 12.4182 19.8208L12.476 19.8364L12.4806 19.8561L12.6272 19.8812L12.8026 19.9109L12.9122 19.9296L12.882 20.0366C12.8757 20.0589 12.8667 20.0849 12.8598 20.1049C12.8566 20.1141 12.8538 20.122 12.852 20.1277C12.8441 20.1523 12.8423 20.1643 12.8426 20.1717C12.8426 20.1729 12.8429 20.1756 12.8441 20.1797M12.7533 20.223C12.7473 20.2072 12.7432 20.1913 12.7426 20.1753C12.7418 20.1525 12.7468 20.1296 12.7541 20.1055C12.758 20.0928 12.7626 20.0798 12.7673 20.0663C12.7735 20.0483 12.7801 20.0294 12.7857 20.0094C12.7659 20.006 12.7476 20.0029 12.7304 20C12.7209 19.9984 12.7118 19.9969 12.703 19.9954C12.6974 19.9945 12.6919 19.9935 12.6865 19.9926C12.6858 19.9925 12.6852 19.9924 12.6846 19.9923C12.6585 19.9879 12.6344 19.9839 12.6103 19.9798L12.6331 20.0281C12.6213 20.0372 12.6091 20.048 12.5967 20.0595C12.586 20.0694 12.5752 20.0798 12.5644 20.0903C12.5127 20.1402 12.4609 20.1901 12.4252 20.1805C12.3303 20.1545 12.3512 20.0942 12.3736 20.0293C12.3867 19.9916 12.4002 19.9524 12.3921 19.9173C12.3143 19.8963 12.2366 19.8752 12.1575 19.8537C12.1158 19.8423 12.0738 19.8309 12.0311 19.8193C11.9992 19.8107 11.9671 19.8019 11.9344 19.7931C11.9271 19.8266 11.9222 19.8598 11.9197 19.8927C11.8987 20.1612 12.0325 20.4016 12.2659 20.4687C12.5217 20.5418 12.787 20.5926 13.0513 20.6192C13.3011 20.6442 13.5138 20.4919 13.617 20.2469C13.63 20.216 13.6413 20.1836 13.6507 20.1499C13.6165 20.1463 13.5826 20.1429 13.5496 20.1395C13.5287 20.1374 13.5081 20.1353 13.4881 20.1333C13.4521 20.1297 13.4177 20.1262 13.3857 20.1229C13.3487 20.1498 13.3306 20.1953 13.3133 20.2384C13.2847 20.3102 13.2585 20.3758 13.1521 20.3399C13.1265 20.3311 13.1203 20.2642 13.1134 20.1892C13.11 20.1521 13.1064 20.113 13.1002 20.078L12.9936 20.0599C12.9856 20.0817 12.9792 20.1032 12.973 20.1237C12.9596 20.168 12.9475 20.2084 12.9238 20.2401C12.9144 20.2529 12.9012 20.2629 12.8861 20.2715C12.8713 20.28 12.8546 20.2871 12.838 20.2942C12.8234 20.3005 12.8088 20.3067 12.7955 20.3139C12.7897 20.2997 12.7826 20.2856 12.7756 20.2715C12.7675 20.2554 12.7595 20.2392 12.7533 20.223ZM12.8441 20.1797C12.8441 20.1797 12.8441 20.1797 12.8441 20.1797V20.1797ZM12.8441 20.1797C12.8512 20.1699 12.8583 20.1548 12.8672 20.1274C12.8695 20.1203 12.8724 20.1109 12.8756 20.1002C12.8824 20.0776 12.8909 20.0495 12.8997 20.0255L12.9283 19.9475L13.0102 19.9613L13.1172 19.9794L13.1863 19.9914L13.1986 20.0605C13.2056 20.0995 13.21 20.1474 13.2137 20.1867C13.2145 20.1958 13.2153 20.2044 13.2161 20.2123C13.2175 20.2088 13.219 20.2051 13.2206 20.2011C13.2261 20.1874 13.2332 20.1695 13.2411 20.1527C13.2569 20.1189 13.282 20.0747 13.327 20.042L13.3579 20.0196L13.3959 20.0235C13.4275 20.0267 13.4618 20.0302 13.4978 20.0338C13.5497 20.039 13.6052 20.0446 13.661 20.0504L13.7788 20.0626L13.747 20.1767C13.6538 20.5113 13.3834 20.7529 13.0413 20.7187C12.7711 20.6915 12.4999 20.6396 12.2384 20.5648C11.9111 20.4708 11.762 20.1134 11.8368 19.7717L11.8592 19.6691M12.5108 20.003C12.5103 20.0036 12.5097 20.0041 12.5091 20.0046C12.5038 20.0097 12.4988 20.0146 12.4939 20.0193C12.4881 20.0249 12.4825 20.0303 12.4771 20.0355C12.4786 20.0307 12.4801 20.0259 12.4815 20.021C12.4859 20.006 12.4908 19.9869 12.4931 19.9653L12.5108 20.003ZM12.4173 20.0848C12.4173 20.0848 12.4178 20.0845 12.4187 20.0842L12.4173 20.0848Z" fill="white"/>
<path d="M12.4626 19.7221C12.3033 19.6789 12.1591 19.6401 12.0144 19.6009C12.1039 19.3063 12.3931 19.1205 12.6869 19.1738C12.9303 19.2181 13.1719 19.2738 13.4117 19.3353C13.6654 19.4005 13.784 19.6275 13.7261 19.9466C13.6271 19.9372 13.5261 19.9274 13.4168 19.9167C13.422 19.831 13.4375 19.7591 13.4265 19.6918C13.4202 19.6529 13.3728 19.5951 13.3403 19.5929C13.307 19.5905 13.2532 19.6382 13.2381 19.6762C13.2144 19.7346 13.2159 19.8034 13.205 19.8799C13.1452 19.868 13.0988 19.8588 13.0405 19.8472C13.0538 19.7628 13.0769 19.6878 13.0727 19.6147C13.0702 19.5703 13.025 19.5281 12.9992 19.4849C12.9592 19.5149 12.9012 19.5367 12.8833 19.5764C12.8532 19.6434 12.8487 19.7221 12.8314 19.8065C12.7722 19.794 12.7249 19.7839 12.6696 19.7719C12.6775 19.6933 12.6963 19.622 12.6872 19.5547C12.6812 19.51 12.6347 19.4709 12.6062 19.4296C12.5689 19.4626 12.5176 19.4889 12.4978 19.5302C12.4733 19.5825 12.4748 19.6471 12.4626 19.7221Z" fill="#060D3C"/>
<path fill-rule="evenodd" clip-rule="evenodd" d="M12.5436 19.8476L11.8887 19.6705L11.9187 19.5718C12.022 19.2319 12.3577 19.0125 12.7047 19.0754C12.9511 19.1203 13.1952 19.1766 13.4365 19.2385C13.5888 19.2776 13.7064 19.3678 13.7746 19.4999C13.8416 19.6296 13.8562 19.79 13.8245 19.9645L13.808 20.055L13.7165 20.0462C13.6175 20.0367 13.5164 20.0269 13.4071 20.0162L13.3112 20.0068L13.317 19.9106C13.3187 19.8825 13.3218 19.8519 13.3245 19.8258C13.3259 19.8119 13.3272 19.7992 13.3281 19.7889C13.3306 19.7594 13.3311 19.737 13.3291 19.7179C13.3234 19.7337 13.3194 19.7538 13.3161 19.7828C13.315 19.7917 13.3139 19.8031 13.3127 19.8159C13.3104 19.8401 13.3076 19.869 13.304 19.8941L13.289 19.9987L12.9267 19.9265L12.9417 19.8316C12.9459 19.8053 12.9518 19.7754 12.957 19.7493C12.96 19.7341 12.9627 19.7202 12.9647 19.709C12.9709 19.6745 12.974 19.6476 12.973 19.6236C12.9728 19.6233 12.9726 19.6229 12.9724 19.6224C12.9634 19.6438 12.957 19.6694 12.9509 19.7029C12.9489 19.7141 12.9466 19.7281 12.9441 19.7434C12.9397 19.7699 12.9347 19.8003 12.9293 19.8266L12.9091 19.9252L12.8106 19.9043C12.7514 19.8918 12.7039 19.8816 12.6485 19.8697L12.5612 19.8508L12.5701 19.7619C12.5727 19.7366 12.5769 19.7074 12.5805 19.6824C12.5825 19.6687 12.5843 19.6563 12.5856 19.6465C12.5895 19.6155 12.5907 19.5922 12.5887 19.5726C12.5883 19.5731 12.5881 19.5734 12.588 19.5734C12.5827 19.5852 12.5785 19.6018 12.5747 19.6307C12.5737 19.6384 12.5726 19.6487 12.5713 19.6603C12.5687 19.6838 12.5654 19.7128 12.5613 19.738L12.5436 19.8476ZM12.6678 19.5085C12.6777 19.5234 12.685 19.5387 12.6872 19.5547C12.6935 19.6015 12.6864 19.6502 12.6788 19.7019C12.6755 19.7246 12.672 19.7479 12.6696 19.7719C12.6918 19.7767 12.7127 19.7812 12.7336 19.7857C12.7648 19.7924 12.7959 19.799 12.8314 19.8065C12.8366 19.7811 12.8406 19.7562 12.8446 19.732C12.8459 19.7239 12.8472 19.7159 12.8485 19.7079C12.8565 19.6608 12.8653 19.6165 12.8833 19.5764C12.8897 19.5622 12.9013 19.5502 12.9153 19.5394C12.9282 19.5294 12.9433 19.5204 12.9584 19.5113C12.9726 19.5028 12.9867 19.4943 12.9992 19.4849C13.0073 19.4984 13.0172 19.5118 13.0271 19.5251C13.0375 19.5391 13.0479 19.5531 13.0562 19.5672C13.0653 19.5828 13.0718 19.5986 13.0727 19.6147C13.0756 19.6658 13.0652 19.7178 13.0542 19.7733C13.0494 19.7972 13.0445 19.8218 13.0405 19.8472L13.205 19.8799C13.2084 19.8563 13.2105 19.8334 13.2127 19.8113C13.2137 19.8007 13.2147 19.7903 13.2158 19.7801C13.2198 19.7427 13.2252 19.7079 13.2381 19.6762C13.2532 19.6382 13.307 19.5905 13.3403 19.5929C13.3728 19.5951 13.4202 19.6529 13.4265 19.6918C13.434 19.7381 13.4291 19.7866 13.4235 19.8403C13.421 19.8646 13.4184 19.89 13.4168 19.9167C13.5261 19.9274 13.6271 19.9372 13.7261 19.9466C13.784 19.6275 13.6654 19.4005 13.4117 19.3353C13.1719 19.2738 12.9303 19.2181 12.6869 19.1738C12.4256 19.1264 12.168 19.2681 12.0512 19.5073C12.0366 19.537 12.0243 19.5683 12.0144 19.6009L12.4626 19.7221C12.4664 19.6986 12.4689 19.6761 12.4712 19.6547C12.4725 19.6435 12.4737 19.6325 12.475 19.6218C12.4793 19.5881 12.485 19.5575 12.4978 19.5302C12.5047 19.5159 12.5153 19.5034 12.5278 19.4918C12.5403 19.4802 12.5547 19.4695 12.5691 19.4588C12.5819 19.4493 12.5947 19.4397 12.6062 19.4296C12.6149 19.4421 12.6252 19.4545 12.6356 19.4669C12.6471 19.4807 12.6586 19.4944 12.6678 19.5085Z" fill="white"/>
<path d="M8.99754 18.1681C8.92531 18.3312 8.87098 18.5059 8.77569 18.6537C8.67705 18.8064 8.50892 18.7703 8.43699 18.6007C8.34503 18.3835 8.4376 17.9931 8.61726 17.8398C8.73866 17.7364 8.87796 17.7719 8.92622 17.9246C8.94868 17.9962 8.95293 18.0733 8.96537 18.1479C8.97599 18.155 8.98692 18.1617 8.99754 18.1681Z" fill="#060D3C"/>
<path fill-rule="evenodd" clip-rule="evenodd" d="M9.12462 18.1281L9.08897 18.2086C9.06745 18.2572 9.04863 18.3042 9.02909 18.353C9.01591 18.3859 9.0024 18.4196 8.98752 18.4552C8.95223 18.5396 8.91215 18.6266 8.85973 18.7079C8.79343 18.8105 8.69005 18.866 8.57902 18.8465C8.47325 18.8279 8.3901 18.7462 8.34493 18.6398C8.28754 18.5042 8.29119 18.3284 8.32796 18.1732C8.36474 18.018 8.44033 17.8593 8.55236 17.7638C8.63125 17.6965 8.72947 17.6639 8.82508 17.6896C8.92162 17.7155 8.98975 17.7938 9.02157 17.8944C9.0352 17.9379 9.04284 17.9815 9.04852 18.0208C9.05101 18.038 9.053 18.0533 9.0549 18.0678C9.05577 18.0745 9.05663 18.081 9.0575 18.0875L9.12462 18.1281ZM8.96537 18.1479C8.96151 18.1248 8.95844 18.1014 8.95537 18.078C8.94854 18.026 8.94171 17.974 8.92622 17.9246C8.87796 17.7719 8.73866 17.7364 8.61726 17.8398C8.4376 17.9931 8.34503 18.3835 8.43699 18.6007C8.50892 18.7703 8.67705 18.8064 8.77569 18.6537C8.84205 18.5508 8.88854 18.4348 8.93505 18.3188C8.95533 18.2682 8.97561 18.2176 8.99754 18.1681C8.98692 18.1617 8.97599 18.155 8.96537 18.1479Z" fill="white"/>
<path d="M9.15497 16.3957C9.01627 16.6514 8.88728 16.8849 8.76316 17.1205C8.73038 17.1829 8.69912 17.2508 8.6888 17.3197C8.64996 17.576 8.50337 17.7697 8.34221 17.9573C8.14889 17.8532 8.14828 17.8529 8.22628 17.6614C8.42689 17.167 8.73008 16.7493 9.15497 16.3957Z" fill="#060D3C"/>
<path fill-rule="evenodd" clip-rule="evenodd" d="M9.09099 16.3188L9.24287 16.4433C9.20238 16.518 9.16282 16.5906 9.12402 16.6618C9.02943 16.8353 8.93939 17.0005 8.85163 17.1671C8.81958 17.2281 8.79537 17.2833 8.7877 17.3345C8.74425 17.6212 8.5802 17.8337 8.41806 18.0224L8.36565 18.0834L8.29053 18.043C8.24587 18.019 8.20575 17.9974 8.17544 17.9769C8.14446 17.9558 8.10799 17.9259 8.08945 17.8788C8.07037 17.8303 8.07789 17.7835 8.08791 17.7472C8.09747 17.7126 8.11417 17.6716 8.1322 17.6273L8.13362 17.6238C8.34045 17.114 8.65353 16.683 9.09099 16.3188ZM8.22628 17.6614C8.14828 17.8529 8.14889 17.8532 8.34221 17.9573C8.50337 17.7697 8.64996 17.576 8.6888 17.3197M9.01045 16.6612C9.07627 16.5963 9.14573 16.5335 9.21894 16.4725L9.15497 16.3957L9.06706 16.348C9.02706 16.4218 8.98777 16.4938 8.94911 16.5648C8.94261 16.5767 8.93613 16.5886 8.92966 16.6005C9.00061 16.5299 9.07567 16.4617 9.15497 16.3957C9.11472 16.4699 9.07529 16.5422 9.03656 16.6133C9.02782 16.6293 9.01912 16.6453 9.01045 16.6612Z" fill="white"/>
<path d="M8.0992 18.0525C8.22545 18.1137 8.25944 18.1837 8.2731 18.3239C8.30224 18.6234 8.09586 18.8189 8.0206 19.0704C7.97265 18.7259 8.0118 18.3909 8.0992 18.0525Z" fill="#060D3C"/>
<path fill-rule="evenodd" clip-rule="evenodd" d="M8.03292 17.9092L8.14282 17.9625C8.21641 17.9982 8.27448 18.042 8.31379 18.1066C8.3517 18.1688 8.36537 18.2397 8.37263 18.3142C8.38982 18.4909 8.33645 18.6346 8.2759 18.7589C8.25618 18.7994 8.23672 18.8363 8.21823 18.8714C8.17685 18.9499 8.14029 19.0192 8.1164 19.0991L7.92155 19.0842C7.87129 18.723 7.91278 18.3743 8.00238 18.0275L8.03292 17.9092ZM8.0992 18.0525C8.09059 18.0858 8.08246 18.1191 8.07482 18.1524C8.02118 18.3861 7.99247 18.6189 8.00157 18.8549C8.00432 18.9264 8.01055 18.9982 8.0206 19.0704C8.04084 19.0028 8.07056 18.9392 8.10263 18.8766C8.11304 18.8562 8.12369 18.836 8.13435 18.8158C8.213 18.6664 8.29186 18.5167 8.2731 18.3239C8.26342 18.2246 8.24354 18.1604 8.18784 18.1097C8.16494 18.0889 8.13599 18.0703 8.0992 18.0525Z" fill="white"/>
</svg>
