<svg width="24" height="24" viewBox="0 0 24 24" fill="none" xmlns="http://www.w3.org/2000/svg">
<path d="M11.9997 22C8.13942 22 4.99854 18.8125 4.99854 14.8947C4.99854 14.847 4.99978 4.83543 5.00014 3.09735V2H18.9991L18.9996 3.09712C19.0002 4.82289 19.0016 14.8296 19.0016 14.8947C19.0016 18.8125 15.8606 22 11.9997 22Z" fill="white"/>
<path d="M18.6032 3.09743L18.6031 2.39629H5.39636V3.09749C5.39589 4.8491 5.39458 14.8477 5.39458 14.8948C5.39458 18.5941 8.35755 21.6038 11.9997 21.6038C15.6421 21.6038 18.6054 18.5941 18.6054 14.8948C18.6054 14.8293 18.6041 4.80996 18.6032 3.09743Z" fill="#008F5E"/>
<path d="M11.6046 10.2647C11.7322 10.2982 11.8335 10.3774 11.899 10.4962C11.9189 10.5321 11.933 10.5672 11.9427 10.5976C12.057 10.5587 12.1814 10.5428 12.2596 10.5362C12.2594 10.5319 12.2593 10.5274 12.2593 10.523C12.2579 10.4251 12.2714 10.3858 12.2818 10.3648L12.2822 10.3637C12.3008 10.3269 12.3417 10.2921 12.4151 10.251C12.4314 10.2417 12.4473 10.2336 12.4612 10.2267C12.4647 10.1278 12.473 9.89449 12.4771 9.79018C12.4821 9.65617 12.5049 9.3399 12.5062 9.32167C12.5079 9.29583 12.5224 9.25929 12.5582 9.23333L12.561 9.23143C12.615 9.19573 12.6592 9.16318 12.6761 9.14827C12.6815 9.12302 12.6874 9.05875 12.6897 8.99964L12.6924 8.93079L12.7579 8.92765C12.7618 8.92705 12.785 8.92313 12.7995 8.90864C12.8029 8.88476 12.7995 8.82155 12.7917 8.76732L12.7841 8.71463L12.8311 8.69015C12.8524 8.67863 12.9138 8.63835 12.9385 8.59059C12.9644 8.53951 12.9806 8.43929 12.9845 8.35458C12.956 8.38375 12.9263 8.39848 12.8955 8.39848C12.8731 8.39848 12.7995 8.3891 12.7932 8.27041C12.7837 8.09648 12.9265 7.99229 12.9326 7.98813L12.9822 7.9526L13.0271 7.99377C13.0367 8.00274 13.0512 8.01236 13.0671 8.02222C13.0713 8.00755 13.076 7.99258 13.0807 7.97708C13.0996 7.91714 13.1233 7.84229 13.1344 7.71968L13.1345 7.71784C13.1512 7.57153 13.1138 7.53862 13.1015 7.52787C13.1002 7.52674 13.0988 7.52556 13.0976 7.52443C13.0873 7.52039 13.0634 7.51415 13.0361 7.51415C13.017 7.51415 13 7.51724 12.9866 7.52324C12.9556 7.54908 12.9259 7.56155 12.896 7.56155C12.8605 7.56155 12.8293 7.54367 12.8105 7.51249C12.7818 7.46443 12.7898 7.39404 12.8121 7.3518L12.8126 7.35091C12.8355 7.30915 12.886 7.2867 12.992 7.27066C13.009 7.2681 13.0257 7.26608 13.0407 7.26442C13.0383 7.25319 13.0352 7.24571 13.0352 7.24559L12.974 7.11698L13.1144 7.13902C13.1157 7.13926 13.2387 7.15803 13.3935 7.15803C13.5469 7.15803 13.676 7.14039 13.7767 7.10522C14.1278 6.98226 14.5924 6.96931 14.7263 6.96824H14.7294C14.8142 6.97109 14.8988 6.97251 14.9807 6.97251C15.9374 6.97251 16.4658 6.78005 16.6915 6.69801C16.7006 6.69475 16.7091 6.69154 16.7173 6.68851C16.9564 6.60546 17.2189 6.45476 17.4355 6.2756C17.6699 6.08188 17.8364 5.86756 17.904 5.67194L17.9051 5.66939L17.9061 5.66689C18.0313 5.37534 18.0616 4.91812 17.736 4.58837C17.5569 4.40672 17.3287 4.31476 17.0573 4.31476C16.9625 4.31476 16.8746 4.32611 16.7999 4.34102C17.0237 4.41705 17.1953 4.51026 17.3206 4.62389C17.4628 4.75286 17.5193 4.88349 17.5592 5.00532L17.561 5.01061L17.5619 5.01607C17.5882 5.16957 17.574 5.31499 17.5204 5.44835C17.4544 5.61147 17.3276 5.75879 17.1438 5.88615C16.7042 6.22475 15.989 6.31872 15.7008 6.34338C15.5897 6.35526 15.4541 6.36126 15.298 6.36126C14.938 6.36126 14.5206 6.32799 14.3564 6.29686C14.1907 6.26574 13.785 6.23039 13.5669 6.21138C13.5206 6.20728 13.4803 6.20372 13.453 6.20116C13.4058 6.19707 13.3612 6.1932 13.3208 6.1932C13.2294 6.1932 13.1729 6.21358 13.1196 6.26591L13.1168 6.26853C13.0491 6.32817 12.9951 6.35615 12.9474 6.35615C12.9178 6.35615 12.8912 6.34498 12.8739 6.32544L12.8721 6.32324C12.8708 6.32163 12.7215 6.14372 12.5003 6.14372C12.4892 6.14372 12.478 6.1442 12.467 6.14503C12.2862 6.15917 12.2369 6.20449 12.1934 6.24453C12.1728 6.26336 12.1516 6.2829 12.1215 6.29811C12.098 6.31189 12.0744 6.32383 12.045 6.32383C12.0097 6.32383 11.9841 6.30613 11.9654 6.293C11.9558 6.28665 11.7887 6.17717 11.6112 6.14948C11.5918 6.14776 11.5716 6.14681 11.5515 6.14681C11.2929 6.14681 11.0554 6.28397 11.053 6.28534L10.9663 6.33607L10.9438 6.24518C10.9258 6.22992 10.8519 6.20366 10.7413 6.20366C10.7185 6.20366 10.6959 6.20497 10.6741 6.20722C10.627 6.21251 10.5423 6.21916 10.4441 6.22695C10.2155 6.24506 9.90196 6.26978 9.76313 6.29859C9.60393 6.33179 9.07067 6.38211 8.6299 6.38211C8.50914 6.38211 8.40459 6.37813 8.31905 6.37052C8.18135 6.3612 7.90578 6.33393 7.60247 6.25457C7.29815 6.17497 7.05085 6.06579 6.86729 5.92987C6.68136 5.80584 6.55222 5.66072 6.48355 5.49855C6.42759 5.36655 6.41102 5.22155 6.43431 5.06758L6.43514 5.06211L6.4368 5.05688C6.47428 4.93416 6.5284 4.80258 6.66847 4.67094C6.79162 4.55534 6.96145 4.45899 7.18415 4.37915C7.11453 4.36638 7.03356 4.35682 6.94666 4.35682C6.66639 4.35682 6.43288 4.45293 6.25259 4.64225C5.9317 4.97912 5.97066 5.4351 6.10159 5.72327L6.10278 5.72594L6.10373 5.72861C6.17412 5.92161 6.34817 6.13303 6.5944 6.32413C6.8193 6.49866 7.08816 6.64431 7.33212 6.72415L7.33313 6.72445C7.34632 6.72884 7.36082 6.73389 7.37656 6.73936C7.61559 6.82246 8.11304 6.99544 9.01816 6.99544C9.14273 6.99544 9.27211 6.99206 9.40268 6.98528L9.40594 6.98517C9.42121 6.98517 9.43862 6.98493 9.45762 6.98463C9.49832 6.98404 9.54875 6.98338 9.60441 6.98338C9.95685 6.98338 10.2189 7.0135 10.406 7.07546C10.6572 7.15738 10.9418 7.16153 10.9963 7.16153H11.0054L11.0433 7.16094L11.0661 7.19094C11.0799 7.20876 11.0818 7.22492 11.0854 7.2567C11.0898 7.29394 11.0954 7.35685 11.1024 7.44394C11.1114 7.55722 11.0602 7.65369 10.9581 7.71553C10.9367 7.7286 10.9151 7.73875 10.8954 7.74677C10.9015 7.76697 10.9078 7.78936 10.9125 7.81093C10.9275 7.8714 10.9387 7.93211 10.9477 7.981C10.9519 8.00333 10.9567 8.02953 10.9603 8.04599C10.9852 8.06957 11.0025 8.09927 11.0168 8.1241C11.0222 8.13319 11.0287 8.14454 11.0323 8.14923C11.0426 8.16129 11.0685 8.18184 11.0828 8.19188L11.2029 8.27605L11.078 8.3196C11.0809 8.45403 11.0956 8.60651 11.1441 8.67382C11.1484 8.67554 11.1544 8.67756 11.1592 8.6794C11.2091 8.69746 11.302 8.73078 11.3398 8.8392L11.3433 8.84965L11.3438 8.86076C11.3485 8.97238 11.3595 9.09451 11.3658 9.16039C11.4442 9.19448 11.4928 9.26048 11.5057 9.27925C11.5494 9.3342 11.5637 9.39842 11.5714 9.44831L11.572 9.45253C11.5726 9.4596 11.5743 9.47861 11.5763 9.5013C11.5795 9.53902 11.5838 9.58601 11.5856 9.60431L11.5857 9.60597C11.5888 9.64375 11.5863 9.69674 11.5831 9.76357C11.5796 9.83503 11.5759 9.91588 11.5778 9.99637C11.5808 10.1039 11.5951 10.207 11.6046 10.2647ZM11.8256 10.8154L11.8152 10.7084C11.8138 10.6954 11.7806 10.4414 11.5281 10.402L11.4763 10.394L11.4658 10.3428C11.4645 10.3362 11.4325 10.1764 11.4277 10.0002C11.4256 9.91439 11.4299 9.82677 11.433 9.7565C11.4358 9.69769 11.4382 9.6469 11.4362 9.61827C11.4342 9.59854 11.43 9.55209 11.4267 9.51443C11.4249 9.49441 11.4234 9.47701 11.4227 9.46899C11.4154 9.42259 11.4044 9.39265 11.387 9.37151L11.3839 9.36753L11.3817 9.36426C11.37 9.3465 11.3298 9.29939 11.283 9.29113L11.2275 9.28121L11.2214 9.22514C11.2205 9.21771 11.2021 9.04372 11.1943 8.88C11.1796 8.84858 11.1501 8.83587 11.1083 8.82072C11.0802 8.81062 11.0537 8.80088 11.0342 8.77712L11.0332 8.77593C11.0042 8.74076 10.9272 8.64756 10.9274 8.26637V8.25693C10.9236 8.25301 10.9199 8.24885 10.9165 8.24481C10.9055 8.23126 10.8962 8.21546 10.887 8.19936C10.8793 8.18624 10.8634 8.15903 10.855 8.15333L10.8375 8.14234L10.828 8.12374C10.8179 8.10349 10.8125 8.07545 10.8001 8.00844C10.7913 7.96122 10.7806 7.90253 10.7664 7.84615L10.766 7.84372C10.7544 7.78972 10.7292 7.72551 10.729 7.72491L10.6943 7.63735L10.7865 7.62321C10.7899 7.62256 10.8388 7.61335 10.8836 7.5852C10.9514 7.54266 10.9555 7.4911 10.9528 7.456C10.9473 7.38703 10.9431 7.34111 10.9401 7.31093C10.8256 7.30725 10.5815 7.29079 10.3593 7.21826C10.1877 7.1613 9.94063 7.13373 9.60447 7.13373C9.54988 7.13373 9.50004 7.13439 9.4597 7.13492C9.44087 7.1351 9.424 7.13528 9.4088 7.13528C9.27621 7.14229 9.14487 7.14573 9.01822 7.14573C8.61856 7.14573 8.24693 7.11164 7.91374 7.04457C7.63633 6.98879 7.44285 6.92155 7.32725 6.88145C7.3121 6.87598 7.29809 6.87111 7.2852 6.86678C7.02549 6.78201 6.74011 6.62744 6.50232 6.44288C6.31324 6.29597 6.06654 6.06252 5.96366 5.78279C5.87806 5.59311 5.84069 5.37695 5.85863 5.17385C5.87996 4.9319 5.97845 4.71229 6.14382 4.53877C6.25812 4.41872 6.39302 4.32991 6.54456 4.2746C6.66829 4.22946 6.80356 4.20671 6.94672 4.20671C7.24124 4.20671 7.46958 4.3027 7.47915 4.30674L7.67975 4.39234L7.46893 4.44836C6.72758 4.6457 6.63105 4.93588 6.58216 5.09538C6.54105 5.38039 6.66206 5.61296 6.95206 5.80608L6.95545 5.80845C7.30527 6.06804 7.89485 6.19154 8.33009 6.22065L8.3317 6.22077C8.41302 6.22813 8.51323 6.23188 8.62996 6.23188C9.04626 6.23188 9.57768 6.18394 9.7326 6.1515C9.88093 6.12115 10.1996 6.09566 10.4324 6.07725C10.5294 6.06959 10.613 6.06299 10.6579 6.05806C10.685 6.05509 10.7132 6.05355 10.7413 6.05355C10.7815 6.05355 10.9463 6.05783 11.035 6.12554C11.1302 6.07927 11.3316 5.99658 11.5515 5.99658C11.577 5.99658 11.6026 5.99783 11.6272 5.99997L11.6316 6.00062C11.8375 6.03187 12.0239 6.1515 12.0476 6.16736L12.0502 6.16582L12.0529 6.16439C12.0649 6.15869 12.0762 6.14836 12.0918 6.1338C12.147 6.08319 12.2227 6.01351 12.4553 5.99521C12.4703 5.9942 12.4853 5.99355 12.5004 5.99355C12.733 5.99355 12.8984 6.13463 12.9611 6.19819C12.9729 6.19154 12.9907 6.1793 13.016 6.15715C13.1201 6.05592 13.2336 6.04291 13.3209 6.04291C13.3679 6.04291 13.4156 6.04713 13.4662 6.05159C13.4931 6.05414 13.5335 6.05771 13.58 6.06163C13.8005 6.08105 14.2112 6.11669 14.3843 6.14942C14.5211 6.17521 14.9146 6.21103 15.298 6.21103C15.4493 6.21103 15.5797 6.20538 15.6856 6.19404L15.6872 6.1938C15.962 6.17028 16.6453 6.08141 17.0537 5.76604L17.0568 5.76366C17.3442 5.56531 17.4612 5.33067 17.4145 5.04667C17.3626 4.8877 17.2605 4.599 16.5164 4.41527L16.3044 4.363L16.5038 4.27389C16.5138 4.26932 16.752 4.16459 17.0573 4.16459C17.1969 4.16459 17.3289 4.18669 17.4503 4.23017C17.5974 4.28316 17.7297 4.36805 17.8428 4.48287C17.9307 4.57198 18.001 4.67367 18.0515 4.78506C18.0974 4.88711 18.127 4.99724 18.1393 5.11266C18.1605 5.31493 18.1271 5.53175 18.0453 5.72368C17.9464 6.00608 17.7114 6.24257 17.5312 6.39137C17.3016 6.58134 17.0232 6.74108 16.7681 6.82995C16.7602 6.83292 16.7517 6.83583 16.7431 6.83915C16.6249 6.88204 16.4277 6.95386 16.1392 7.01392C15.7927 7.08615 15.4031 7.12262 14.981 7.12262C14.8981 7.12262 14.8119 7.12126 14.726 7.11847C14.6312 7.11924 14.1624 7.1294 13.8262 7.24701C13.7095 7.28771 13.5639 7.30838 13.3936 7.30838C13.3156 7.30838 13.2459 7.30392 13.1929 7.29917C13.1921 7.31717 13.1891 7.336 13.183 7.3556L13.1716 7.39297C13.1858 7.40057 13.1945 7.40812 13.2003 7.41453C13.2002 7.41447 13.2004 7.41465 13.2003 7.41453C13.247 7.45558 13.3068 7.53358 13.2838 7.73424C13.2713 7.87229 13.2439 7.95902 13.224 8.02222C13.2093 8.06939 13.1998 8.10052 13.2017 8.13188L13.2102 8.25491L13.1186 8.2154C13.1284 8.23691 13.1345 8.26405 13.1352 8.29696C13.1375 8.38809 13.1226 8.55929 13.0724 8.65837C13.0406 8.7208 12.9855 8.76744 12.9461 8.79506C12.9474 8.80807 12.9486 8.82292 12.9496 8.83819C12.9546 8.92224 12.9464 8.96774 12.921 8.99756C12.8959 9.02958 12.8645 9.04871 12.8369 9.06023C12.8361 9.07134 12.8353 9.08334 12.8342 9.09564C12.8259 9.18944 12.815 9.21902 12.7967 9.23957C12.7774 9.2625 12.7298 9.29939 12.6549 9.34941C12.6498 9.41885 12.6314 9.681 12.6272 9.79588C12.6219 9.92924 12.6096 10.2737 12.6096 10.2773L12.6078 10.3243L12.5651 10.3432C12.5011 10.3717 12.4315 10.4132 12.4162 10.432C12.4085 10.4548 12.4071 10.5341 12.4135 10.5995L12.4213 10.6805L12.34 10.6818C12.3375 10.6819 12.0855 10.6878 11.923 10.7675L11.8256 10.8154Z" fill="#FCEB20"/>
<path d="M12.9132 7.40872C12.9099 7.41685 12.9081 7.42826 12.9081 7.43776C12.9096 7.43658 12.9113 7.43527 12.9132 7.43367L12.9258 7.42327L12.9409 7.41668C12.9693 7.40414 13.0015 7.3979 13.0366 7.3979C13.0408 7.3979 13.0449 7.39796 13.0491 7.3982L13.0553 7.37842L13.054 7.37854C13.0384 7.38032 13.0234 7.38228 13.0097 7.38436C12.9426 7.39446 12.9197 7.40474 12.9132 7.40872ZM12.9533 8.1294C12.9294 8.16094 12.9062 8.20686 12.9093 8.26329C12.9093 8.26394 12.9093 8.26519 12.9093 8.26596L12.9818 8.19171L12.9533 8.1294ZM11.709 10.177C11.833 10.2273 11.9329 10.317 12.0005 10.4395C12.004 10.4456 12.0072 10.4515 12.0104 10.4578C12.0579 10.4464 12.1046 10.4381 12.1478 10.4318C12.1524 10.3841 12.1626 10.346 12.1783 10.3136L12.1796 10.3108C12.2084 10.2538 12.2592 10.2068 12.3484 10.1555C12.3524 10.0487 12.3587 9.87169 12.362 9.78496C12.367 9.65166 12.389 9.34781 12.3914 9.31276C12.3961 9.24582 12.4332 9.18101 12.4907 9.13913L12.4978 9.13438C12.5258 9.11561 12.5503 9.0985 12.5686 9.08519C12.571 9.06137 12.5735 9.02911 12.5746 8.99454L12.5815 8.81984L12.6817 8.81503C12.6807 8.80463 12.6794 8.79394 12.6779 8.78307L12.6587 8.64965L12.7776 8.58721C12.7969 8.57688 12.829 8.5505 12.8361 8.53714C12.8395 8.53037 12.8431 8.52021 12.8466 8.50738C12.7619 8.4873 12.6857 8.4134 12.6785 8.27588C12.6657 8.04344 12.8455 7.908 12.866 7.89333L12.9917 7.80345L13.0048 7.81551C13.0107 7.78486 13.016 7.74981 13.0199 7.70852L13.0202 7.70401C13.0236 7.67502 13.0243 7.65375 13.0236 7.63849C12.9828 7.66362 12.9403 7.67633 12.8966 7.67633C12.8207 7.67633 12.7517 7.63712 12.7121 7.57136C12.6585 7.4822 12.6737 7.3666 12.7106 7.29704L12.7119 7.29431C12.7476 7.23003 12.8073 7.19665 12.8755 7.17663L12.776 6.9683L13.133 7.0242C13.134 7.02432 13.2503 7.04172 13.3941 7.04172C13.5347 7.04172 13.651 7.02622 13.7394 6.99545C14.1072 6.8666 14.5876 6.85306 14.7261 6.85199H14.73L14.7338 6.85211C14.8174 6.85478 14.9008 6.85627 14.9815 6.85627C15.9177 6.85627 16.4329 6.66867 16.6526 6.58866C16.6613 6.58545 16.6705 6.58212 16.6786 6.57927L16.681 6.57838C16.9078 6.49949 17.1561 6.35651 17.3626 6.18584C17.581 6.00544 17.7348 5.80929 17.7957 5.63333L17.7978 5.62692L17.8007 5.6205C17.9117 5.36216 17.9401 4.9578 17.6546 4.66893C17.5555 4.56847 17.4387 4.49939 17.3059 4.46208C17.3389 4.48608 17.3698 4.51133 17.3988 4.53753C17.5614 4.68502 17.6269 4.83828 17.6698 4.96867L17.674 4.98198L17.6764 4.99576C17.7064 5.17088 17.69 5.33739 17.6281 5.49077C17.5538 5.67438 17.414 5.83869 17.2127 5.9787C17.0102 6.13398 16.7349 6.25689 16.3946 6.34362C16.125 6.41253 15.875 6.44365 15.7125 6.45767C15.5974 6.47003 15.4584 6.47621 15.2983 6.47621C14.9322 6.47621 14.5049 6.44181 14.3355 6.40973C14.1757 6.37962 13.7735 6.34451 13.5575 6.3258C13.5111 6.32158 13.471 6.31819 13.4434 6.31564C13.3987 6.31166 13.3567 6.30804 13.3215 6.30804C13.2536 6.30804 13.2285 6.32081 13.201 6.34772L13.1937 6.35431C13.1371 6.40433 13.05 6.47098 12.9481 6.47098C12.8853 6.47098 12.8268 6.44543 12.7877 6.40112L12.7841 6.39672C12.7802 6.39227 12.6623 6.25861 12.5009 6.25861C12.493 6.25861 12.4848 6.25891 12.4766 6.25956C12.3356 6.27055 12.3063 6.29764 12.2722 6.32883C12.2488 6.35033 12.2202 6.37665 12.1777 6.39874C12.1537 6.4127 12.1071 6.4386 12.0457 6.4386C11.9748 6.4386 11.9255 6.40516 11.9011 6.38793C11.8882 6.37962 11.7437 6.28742 11.5978 6.26342C11.583 6.26224 11.5675 6.2617 11.552 6.2617C11.3281 6.2617 11.1143 6.38306 11.1114 6.38461L10.8921 6.51298L10.8465 6.32942C10.8227 6.32396 10.7875 6.31849 10.742 6.31849C10.7232 6.31849 10.7047 6.31962 10.6871 6.32152C10.6385 6.32687 10.553 6.33376 10.454 6.3416C10.228 6.3593 9.91873 6.38377 9.78686 6.41098C9.62338 6.44514 9.0783 6.49694 8.63046 6.49694C8.5069 6.49694 8.39932 6.49284 8.31051 6.48506C8.16878 6.47543 7.8856 6.44716 7.57386 6.36554C7.25641 6.28261 6.99664 6.16778 6.80144 6.02391C6.59751 5.88734 6.45494 5.72559 6.37766 5.54292C6.31327 5.39109 6.29414 5.22506 6.32069 5.04964L6.32265 5.03568L6.32687 5.02237C6.36702 4.89109 6.42975 4.73647 6.58985 4.58612C6.61872 4.55909 6.64949 4.53337 6.68234 4.50848C6.54981 4.5478 6.43421 4.61897 6.33679 4.7212C6.05569 5.01649 6.09128 5.41931 6.20735 5.6748L6.21032 5.68151L6.21281 5.6884C6.27578 5.86115 6.43653 6.05421 6.66582 6.23224C6.8805 6.3988 7.13671 6.53787 7.36868 6.61355L7.37082 6.61432C7.38436 6.61889 7.39892 6.62394 7.41495 6.62947C7.64811 6.71061 8.1332 6.87926 9.01872 6.87926C9.14127 6.87926 9.26869 6.87587 9.39741 6.86922L9.40543 6.86904C9.4207 6.86892 9.43769 6.86856 9.45652 6.86839C9.49757 6.86785 9.54883 6.86714 9.60485 6.86714C9.9697 6.86714 10.2438 6.8991 10.4425 6.96497C10.6771 7.04149 10.9455 7.04535 10.9968 7.04535H11.0041L11.1001 7.0438L11.1584 7.11984C11.1916 7.16326 11.1963 7.2036 11.2007 7.24286C11.2052 7.2813 11.211 7.34557 11.2182 7.43396C11.2303 7.58621 11.1622 7.721 11.0308 7.80612C11.0439 7.86161 11.0538 7.91537 11.0618 7.95938C11.0638 7.96948 11.0658 7.98071 11.0679 7.9911C11.0896 8.01754 11.1052 8.04427 11.1173 8.0653C11.1187 8.06797 11.1212 8.07219 11.1233 8.07569C11.1298 8.08158 11.1412 8.09049 11.15 8.09654L11.4542 8.31028L11.1977 8.39968C11.2041 8.49924 11.2171 8.553 11.2267 8.58044C11.293 8.60646 11.4013 8.66206 11.4494 8.80059L11.4585 8.82708L11.4598 8.85506C11.4633 8.93609 11.47 9.02317 11.4758 9.08852C11.5394 9.13105 11.5806 9.18309 11.5994 9.21006C11.6587 9.28645 11.6772 9.37217 11.6862 9.4302L11.6875 9.44107C11.6882 9.44791 11.6899 9.46733 11.6919 9.49032C11.6951 9.52578 11.6994 9.57426 11.7011 9.59214L11.7015 9.59641C11.7049 9.64144 11.7023 9.69752 11.699 9.76851C11.6958 9.83765 11.692 9.91654 11.694 9.99287C11.6958 10.0601 11.7024 10.1256 11.709 10.177ZM11.727 10.992L11.7009 10.7203C11.7001 10.7144 11.6926 10.6672 11.6649 10.6199C11.6302 10.5603 11.5796 10.5263 11.5107 10.5154L11.3796 10.4949L11.3533 10.365C11.3517 10.358 11.3176 10.1888 11.3127 10.0027C11.3106 9.91232 11.3148 9.82262 11.3182 9.75039C11.3205 9.7009 11.3228 9.64958 11.3215 9.62707C11.3193 9.60604 11.3154 9.56095 11.3122 9.52424L11.3119 9.52109C11.3104 9.50511 11.3091 9.49121 11.3085 9.48278C11.3038 9.45432 11.2989 9.44511 11.2981 9.44387L11.2902 9.4343L11.2854 9.42652C11.2801 9.41927 11.2677 9.40727 11.2608 9.40371L11.1224 9.37924L11.1071 9.23673C11.1053 9.21986 11.0904 9.08026 11.0821 8.93336C11.0785 8.93187 11.0742 8.93033 11.0697 8.9286C11.0339 8.91571 10.9851 8.89813 10.9452 8.84954C10.9272 8.82768 10.889 8.78134 10.8593 8.68386C10.83 8.58716 10.8143 8.45718 10.8125 8.29715C10.8029 8.28325 10.7948 8.26941 10.7875 8.25675C10.7835 8.24986 10.7803 8.2444 10.7776 8.24012L10.7492 8.22206L10.7254 8.17508C10.7074 8.13932 10.7005 8.10225 10.6869 8.02859C10.6786 7.98297 10.6681 7.92618 10.6549 7.87331L10.6534 7.86707C10.6457 7.8306 10.628 7.78218 10.6219 7.76662L10.5341 7.54445L10.7669 7.50863C10.7766 7.50655 10.8022 7.49942 10.8225 7.48659C10.8353 7.47857 10.8381 7.47358 10.8381 7.47358C10.8381 7.47358 10.8386 7.47139 10.8381 7.46444C10.8369 7.44905 10.8356 7.43426 10.8345 7.42036C10.6974 7.41062 10.5052 7.3865 10.3239 7.32745C10.1643 7.27458 9.92842 7.24839 9.60485 7.24839C9.55121 7.24839 9.50161 7.24922 9.46186 7.24975C9.44381 7.24993 9.42753 7.25023 9.4128 7.25041C9.2789 7.257 9.14637 7.26056 9.01872 7.26056C8.61145 7.26056 8.2321 7.22569 7.89154 7.15714C7.60623 7.09964 7.40824 7.03079 7.28985 6.98975L7.28831 6.98927C7.27423 6.98422 7.26116 6.97977 7.24916 6.97567C6.97757 6.88686 6.67966 6.72564 6.43207 6.53347C6.232 6.37813 5.97027 6.12965 5.85723 5.82586C5.7648 5.61926 5.72452 5.38402 5.74401 5.16292C5.76759 4.89466 5.87713 4.65093 6.06056 4.45834C6.18739 4.32522 6.33709 4.22667 6.50561 4.16519C6.64194 4.11564 6.79057 4.0904 6.94739 4.0904C7.25961 4.0904 7.49865 4.18853 7.52485 4.1997L8.16385 4.44379L7.49919 4.55927C6.82633 4.73843 6.73806 4.98281 6.69582 5.1198C6.66481 5.35545 6.76693 5.54292 7.01672 5.70919L7.02468 5.71478C7.35442 5.9594 7.91946 6.07666 8.33814 6.10476L8.34253 6.105C8.42047 6.11201 8.51736 6.11557 8.63046 6.11557C9.03321 6.11557 9.56267 6.06834 9.70958 6.03769C9.86503 6.00561 10.1879 5.98013 10.4238 5.96142C10.5197 5.95381 10.6025 5.94734 10.6457 5.94229C10.6771 5.93896 10.7094 5.93736 10.742 5.93736C10.8012 5.93736 10.9338 5.94372 11.0419 5.9948C11.1603 5.9436 11.3477 5.88051 11.552 5.88051C11.581 5.88051 11.6101 5.88176 11.6382 5.88419L11.6496 5.88568C11.8082 5.90974 11.9532 5.97853 12.0386 6.02611C12.067 6.0014 12.1043 5.97271 12.1582 5.94734C12.2352 5.91075 12.3295 5.88859 12.4467 5.87932C12.4647 5.87802 12.4829 5.8773 12.5009 5.8773C12.7071 5.8773 12.8676 5.96968 12.9657 6.04672C13.0929 5.93985 13.2281 5.92661 13.3215 5.92661C13.3734 5.92661 13.4236 5.93118 13.4765 5.93564L13.4777 5.93582C13.5045 5.93837 13.5464 5.94205 13.5904 5.94591C13.813 5.96528 14.2276 6.0014 14.4062 6.03502C14.5386 6.06015 14.9221 6.09478 15.2982 6.09478C15.4456 6.09478 15.5718 6.08937 15.6736 6.07832L15.6778 6.07797C15.9423 6.05522 16.5992 5.97063 16.9832 5.67379L16.9917 5.66791C17.2389 5.49706 17.3379 5.30781 17.3024 5.0731C17.2575 4.93677 17.1645 4.69358 16.4891 4.52683L15.9511 4.39377L16.4571 4.16768C16.4843 4.15539 16.7337 4.0481 17.0578 4.0481C17.2105 4.0481 17.3559 4.07258 17.4898 4.12075C17.6536 4.17956 17.8002 4.27384 17.9257 4.4012C18.0232 4.4998 18.1013 4.61297 18.1571 4.73688C18.2084 4.85005 18.2412 4.97212 18.2545 5.09972C18.2778 5.31992 18.242 5.55599 18.1535 5.76479C18.0452 6.07072 17.796 6.32235 17.6053 6.47971C17.3657 6.67788 17.0748 6.84486 16.8073 6.93807C16.8 6.94068 16.7923 6.94353 16.7844 6.94638L16.7829 6.94704C16.6621 6.99093 16.46 7.06453 16.1633 7.12631C15.809 7.20021 15.4114 7.23752 14.9814 7.23752C14.8977 7.23752 14.8115 7.23597 14.7252 7.2333C14.6317 7.23419 14.1819 7.24447 13.8649 7.35543C13.7357 7.40028 13.5772 7.42315 13.3939 7.42315C13.3806 7.42315 13.3673 7.42297 13.354 7.42279C13.3994 7.5059 13.414 7.61265 13.3992 7.74518C13.3853 7.89511 13.355 7.99188 13.3348 8.05621C13.3255 8.08573 13.3167 8.11359 13.3174 8.12339L13.3389 8.43544L13.2484 8.39653C13.2416 8.49508 13.2218 8.61965 13.1759 8.70988L13.1753 8.71131C13.1463 8.76727 13.1053 8.81265 13.0661 8.84716C13.0697 8.92653 13.0635 9.00719 13.0105 9.07004C12.9923 9.09309 12.9712 9.11305 12.9473 9.13004C12.9386 9.21315 12.9242 9.26904 12.8846 9.31455C12.8688 9.33278 12.8407 9.36029 12.7665 9.41244C12.7593 9.51866 12.7463 9.70744 12.7429 9.79945C12.7384 9.91683 12.7285 10.1951 12.7256 10.2776L12.7212 10.3999L12.6124 10.448C12.5787 10.4632 12.5471 10.4805 12.5257 10.4937C12.525 10.5184 12.5256 10.5532 12.529 10.5878L12.5489 10.7929L12.3429 10.7967C12.2791 10.7981 12.0888 10.8143 11.9743 10.8704L11.727 10.992Z" fill="#FCEB20"/>
<path d="M8.56519 7.7333C8.56133 5.83329 10.0983 4.28965 11.9983 4.28608C13.8983 4.2821 15.442 5.81969 15.4457 7.71958C15.4494 9.61982 13.912 11.1625 12.0119 11.1665C10.112 11.1704 8.56893 9.63331 8.56519 7.7333Z" fill="#E2231A"/>
<path d="M12.0057 4.42885H11.9989C11.1181 4.43051 10.2906 4.77511 9.66899 5.39949C9.04728 6.02376 8.70619 6.85261 8.70797 7.7335C8.71148 9.54826 10.1905 11.0247 12.0047 11.0247H12.0121C13.8306 11.021 15.3073 9.5387 15.304 7.72037C15.3003 5.90543 13.8208 4.42885 12.0057 4.42885ZM12.0047 11.3093C10.0337 11.3093 8.42717 9.70538 8.42337 7.73415C8.42129 6.77729 8.79209 5.87668 9.46732 5.19877C10.1427 4.52045 11.0416 4.14603 11.9984 4.14425H12.0057C13.9773 4.14425 15.5846 5.74825 15.5885 7.71984C15.5922 9.69505 13.9883 11.3051 12.0127 11.3093H12.0047Z" fill="#FCEB20"/>
<path d="M8.56519 7.7333C8.56133 5.83329 10.0983 4.28965 11.9983 4.28608C13.8983 4.2821 15.442 5.81969 15.4457 7.71958C15.4494 9.61982 13.912 11.1625 12.0119 11.1665C10.112 11.1704 8.56893 9.63331 8.56519 7.7333Z" fill="#E2231A"/>
<path d="M14.4276 5.4715L16.6981 5.28082L14.3086 5.32014L14.4276 5.4715Z" fill="#100C08"/>
<path d="M11.7908 4.56848C13.6332 4.56848 15.1264 6.06181 15.1264 7.90408C15.1264 8.67459 14.8643 9.38369 14.4255 9.94837C14.9776 9.35832 15.3163 8.56577 15.3163 7.69373C15.3163 5.8703 13.8381 4.39211 12.0147 4.39211C11.2161 4.39211 10.4841 4.67552 9.91316 5.14718C10.448 4.78221 11.0944 4.56848 11.7908 4.56848Z" fill="white"/>
<path d="M14.3665 5.31011L15.8731 3.50259L14.2727 5.20853L14.3665 5.31011Z" fill="#100C08"/>
<path d="M14.1389 5.10297C13.9684 4.94752 12.3657 3.66459 12.3657 3.66459C12.3657 3.66459 13.9294 5.05278 14.0782 5.2099L14.1389 5.10297Z" fill="#100C08"/>
<path d="M14.1425 2.67166L14.1646 5.13938L14.3645 5.21607L14.1425 2.67166Z" fill="#100C08"/>
<path d="M14.1486 2.95714L14.1175 5.12595L12.4555 3.74079L13.9335 5.25937L11.669 5.32714L13.9335 5.43567L12.8354 6.69668L14.0554 5.53072L14.1774 7.82219L14.2319 5.5442L15.3843 6.58827L14.3675 5.42219L16.6165 5.28028L14.3539 5.25937L15.6252 3.76609L14.2793 5.14412L14.1486 2.95714Z" fill="white"/>
<path d="M10.7943 7.26433C10.7943 7.26433 10.7982 7.26879 10.8151 7.47634C10.8315 7.68396 10.5861 7.72376 10.5861 7.72376C10.5861 7.72376 10.6139 7.7935 10.6271 7.85545C10.656 7.97147 10.6703 8.09348 10.6827 8.11689C10.7183 8.13946 10.7405 8.19761 10.7615 8.2234C10.7828 8.24947 10.8274 8.28072 10.8274 8.28072L10.7896 8.29319C10.7896 8.65336 10.8586 8.73046 10.8796 8.75683C10.9006 8.78268 11.0185 8.78351 11.0565 8.8912C11.0631 9.05741 11.0834 9.24382 11.0834 9.24382C11.1745 9.26046 11.2323 9.35116 11.2323 9.35116C11.2626 9.38793 11.2767 9.43457 11.2848 9.48636C11.2863 9.50537 11.295 9.60915 11.2975 9.63808C11.3041 9.70942 11.2863 9.86916 11.2905 10.0252C11.2949 10.1972 11.3268 10.3552 11.3268 10.3552C11.6428 10.4047 11.6764 10.7264 11.6764 10.7264C11.857 10.639 12.1264 10.6336 12.1264 10.6336C12.1264 10.6336 12.111 10.4772 12.1368 10.425C12.1626 10.3721 12.3212 10.3018 12.3212 10.3018C12.3212 10.3018 12.3336 9.95476 12.3391 9.82009C12.3446 9.68483 12.3688 9.3539 12.3688 9.3539C12.3688 9.3539 12.3692 9.33566 12.3894 9.32158C12.4355 9.29004 12.5128 9.23699 12.5267 9.21786C12.5466 9.1979 12.5521 9.02985 12.5521 9.02985C12.5521 9.02985 12.6145 9.02451 12.6506 8.97645C12.6768 8.94859 12.6529 8.78315 12.6529 8.78315C12.6529 8.78315 12.752 8.73183 12.7928 8.65098C12.834 8.56978 12.8503 8.41753 12.8471 8.32557C12.8456 8.23379 12.7926 8.23926 12.7679 8.24561C12.7605 8.28648 12.6629 8.42762 12.6553 8.29319C12.6484 8.15894 12.7631 8.07631 12.7631 8.07631C12.811 8.11974 12.9136 8.16411 12.9136 8.16411C12.9076 8.06461 12.9748 7.9944 12.9962 7.75417C13.0205 7.54246 12.9415 7.50527 12.9313 7.49143C12.9216 7.47824 12.8121 7.44331 12.7315 7.48704C12.6492 7.56236 12.6436 7.45626 12.6656 7.41498C12.6886 7.37316 12.8986 7.36063 12.8986 7.36063C12.9173 7.29873 12.8902 7.24051 12.8902 7.24051C12.8902 7.24051 13.2987 7.30396 13.5891 7.20303C13.9022 7.09361 14.3295 7.07169 14.5135 7.07009" fill="#100C08"/>
<path d="M12.0423 6.17074C12.0423 6.17074 12.2008 5.98867 12.4681 5.99235C12.7748 5.99847 12.955 6.19759 12.955 6.19759C12.955 6.19759 13.1228 6.05567 13.1954 6.05775C13.2679 6.06078 13.2505 6.02377 13.7808 6.07991C14.028 6.10688 14.3177 6.13123 14.5757 6.17976C14.6214 6.18879 15.4054 6.22812 15.5405 6.20454C15.6358 6.18749 16.148 6.13337 16.265 6.10432C17.0041 5.92005 17.2528 5.58627 17.2528 5.58627C17.2528 5.58627 17.4969 5.384 17.3996 5.01208C17.2706 4.52254 16.3113 4.36453 16.3113 4.36453C16.3113 4.36453 17.4287 3.72844 18.0174 4.7371C18.0673 4.82229 18.0918 4.92119 18.1202 5.04065C18.1574 5.19658 18.1397 5.44614 18.0535 5.70525C17.8729 6.25461 17.2942 6.55852 17.1272 6.65344C16.4646 7.02917 15.5524 7.08626 15.499 7.09665C15.388 7.11893 14.6111 7.11132 14.5656 7.11305C14.3732 7.12303 14.1837 7.14916 14.0313 7.18308C13.8753 7.21813 13.7574 7.2612 13.6872 7.27807C13.5156 7.3162 13.2467 7.30076 13.1825 7.2928C13.1825 7.29933 13.1794 7.33492 13.1587 7.39224C13.3246 7.49026 13.2693 7.7568 13.2693 7.7568C13.2693 7.7568 13.249 7.94118 13.1968 8.07074C13.1782 8.1169 13.199 8.24515 13.199 8.24515C13.199 8.24515 13.0999 8.19953 13.1031 8.20481C13.1498 8.28531 13.1031 8.52832 13.0986 8.53688C13.0869 8.59563 13.0638 8.70837 12.9342 8.79053C12.9331 8.7913 12.9482 8.9145 12.9281 8.96042C12.9089 9.01721 12.8317 9.05422 12.8254 9.05464C12.8212 9.17118 12.7986 9.21514 12.794 9.22393C12.7807 9.25203 12.6437 9.34422 12.6437 9.34422C12.6437 9.34422 12.5954 10.3062 12.596 10.3193C12.5916 10.3237 12.4245 10.3908 12.4027 10.4347C12.3882 10.5223 12.4185 10.675 12.4106 10.675C12.1949 10.6692 11.9706 10.7196 11.8216 10.806C11.8165 10.3879 11.4878 10.3954 11.4709 10.3894C11.4233 10.2156 11.4303 9.93855 11.4238 9.92239C11.417 9.90624 11.476 9.45691 11.3641 9.33977C11.3523 9.32646 11.3009 9.27532 11.2255 9.27686C11.2047 9.2209 11.1965 8.93945 11.1866 8.86704C11.1653 8.82338 11.0234 8.80425 11.0177 8.75447C10.9844 8.73012 10.9257 8.61238 10.9241 8.25412C10.8937 8.22002 10.8701 8.16758 10.855 8.15333C10.8474 8.14454 10.8385 8.14209 10.8347 8.13763C10.8016 8.10258 10.7725 7.80224 10.6923 7.6434C10.6858 7.63241 10.6978 7.63989 10.7172 7.63734C10.977 7.60033 10.9464 7.45984 10.9464 7.45984C10.9464 7.45984 10.9377 7.30563 10.9364 7.30486C10.9347 7.30379 10.6519 7.27908 10.6108 7.27504C10.5198 7.26506 10.3319 7.20108 10.1748 7.16633C9.93416 7.11257 9.45912 7.12689 9.45912 7.12689C9.45912 7.12689 8.96542 7.15302 8.70226 7.13419C8.26488 7.11625 7.95135 7.04295 7.86688 7.03083C7.52757 6.98349 7.03803 6.75853 6.99977 6.74629C6.81841 6.68487 6.39422 6.36047 6.31485 6.28669C6.0419 6.03179 5.94846 5.75099 5.94846 5.75099C5.94846 5.75099 5.81771 5.45968 5.85709 5.1278C5.95766 4.48351 6.47916 4.30085 6.53975 4.27714C7.10604 4.07648 7.63443 4.38383 7.6532 4.38823C7.63616 4.41359 6.67038 4.55212 6.57421 5.1209C6.56951 5.16682 6.49372 5.49211 6.92528 5.79531C6.99092 5.84111 7.4308 6.15095 8.28531 6.22176C8.43192 6.25099 9.42169 6.22129 9.59865 6.1699C9.65586 6.15309 10.72 6.04801 10.8197 6.05656C10.9022 6.06292 11.0123 6.1045 11.0275 6.13218C11.2762 6.00732 11.4165 5.99936 11.5026 5.9974C11.8207 5.99187 12.0423 6.17074 12.0423 6.17074Z" fill="white"/>
<path d="M17.7899 4.53501C17.2738 4.01137 16.5349 4.34165 16.5349 4.34165C17.2919 4.52877 17.4219 4.82483 17.4883 5.02799C17.5296 5.26994 17.4773 5.56411 17.1 5.82477C16.7124 6.12428 16.0761 6.2353 15.6941 6.26791C15.273 6.31306 14.5764 6.26138 14.3709 6.22247C14.1655 6.18368 13.6147 6.14008 13.4601 6.12576C13.3057 6.11222 13.1802 6.10129 13.0677 6.21154C12.9592 6.3073 12.9309 6.27522 12.9309 6.27522C12.9309 6.27522 12.7457 6.04717 12.4618 6.06957C12.1769 6.09178 12.1653 6.19306 12.0863 6.23132C12.0477 6.25425 12.0409 6.2533 12.0085 6.23037C11.9756 6.20821 11.8032 6.10194 11.6209 6.07414C11.3131 6.04604 11.0157 6.21991 11.0157 6.21991C10.999 6.15273 10.8209 6.11525 10.6667 6.13212C10.5131 6.14887 9.9537 6.18213 9.74847 6.22431C9.54382 6.26714 8.74657 6.33284 8.32541 6.29494C7.94232 6.26934 7.30427 6.15986 6.9109 5.86789C6.52936 5.61388 6.47251 5.32055 6.50916 5.07819C6.57183 4.87343 6.69634 4.57582 7.4501 4.37521C7.4501 4.37521 6.70566 4.05764 6.1986 4.58995C5.86297 4.94245 5.88329 5.42255 6.0337 5.75372C6.19741 6.2034 6.81847 6.63467 7.30944 6.79494C7.54604 6.87543 8.1744 7.12278 9.40708 7.05976C9.59164 7.05821 10.0679 7.04182 10.3831 7.14625C10.6752 7.24153 11.0072 7.23594 11.0072 7.23594C11.0072 7.23594 11.0114 7.24153 11.0281 7.44938C11.0445 7.65652 10.7991 7.69662 10.7991 7.69662C10.7991 7.69662 10.8268 7.7663 10.8398 7.82724C10.8688 7.94409 10.884 8.06628 10.8956 8.08927C10.9316 8.11196 10.9535 8.17 10.9747 8.1962C10.996 8.22186 11.0403 8.25275 11.0403 8.25275L11.0029 8.2657C11.0029 8.62604 11.0715 8.70302 11.0928 8.72892C11.1136 8.75464 11.2318 8.75577 11.2692 8.86335C11.2764 9.03015 11.2965 9.21656 11.2965 9.21656C11.3878 9.23272 11.4455 9.32313 11.4455 9.32313C11.4763 9.36032 11.4897 9.40754 11.4977 9.45916C11.4994 9.47728 11.5085 9.58136 11.5113 9.61106C11.5168 9.68198 11.4994 9.84107 11.5032 9.99765C11.5079 10.169 11.5399 10.3272 11.5399 10.3272C11.8562 10.3764 11.8904 10.6995 11.8904 10.6995C12.0704 10.611 12.3392 10.6062 12.3392 10.6062C12.3392 10.6062 12.3239 10.4497 12.3497 10.3969C12.3762 10.3444 12.5349 10.2739 12.5349 10.2739C12.5349 10.2739 12.5474 9.92726 12.5526 9.79242C12.5575 9.65721 12.5816 9.3261 12.5816 9.3261C12.5816 9.3261 12.5827 9.30816 12.603 9.29331C12.6489 9.26296 12.7257 9.20908 12.7402 9.18983C12.759 9.17005 12.7653 9.00176 12.7653 9.00176C12.7653 9.00176 12.8271 8.99671 12.8634 8.94895C12.8905 8.92097 12.8666 8.75577 12.8666 8.75577C12.8666 8.75577 12.9647 8.70445 13.006 8.6239C13.0472 8.54257 13.063 8.38961 13.0608 8.29819C13.0585 8.20677 13.0057 8.21152 12.9805 8.218C12.9739 8.25916 12.8756 8.40024 12.8688 8.2657C12.8613 8.13115 12.9768 8.04846 12.9768 8.04846C13.0245 8.09218 13.1272 8.13644 13.1272 8.13644C13.1204 8.03664 13.1878 7.9666 13.2097 7.72584C13.234 7.51466 13.1548 7.47736 13.1453 7.46465C13.1346 7.45122 13.0252 7.416 12.9451 7.45948C12.8617 7.53492 12.8566 7.42835 12.8789 7.38635C12.9012 7.34572 13.1117 7.33277 13.1117 7.33277C13.1311 7.27058 13.1035 7.21254 13.1035 7.21254C13.1035 7.21254 13.5119 7.27646 13.802 7.17553C14.1158 7.06564 14.543 7.04413 14.7276 7.04259C15.8999 7.08132 16.5021 6.84585 16.7436 6.75858C17.2315 6.58899 17.8191 6.14727 17.9759 5.69586C18.1193 5.3613 18.1321 4.88121 17.7899 4.53501Z" fill="#100C08"/>
<path d="M14.0031 6.82117C13.962 6.77454 13.8625 6.69291 13.7975 6.68745L13.8236 6.45031C13.8236 6.45031 13.6824 6.36893 13.4477 6.30858C13.2394 6.2481 13.2394 6.26569 13.1965 6.28648C13.0763 6.37202 12.9713 6.39845 12.9713 6.39845C12.9713 6.39845 12.7885 6.18258 12.5368 6.16351C12.4046 6.15377 12.2857 6.19203 12.2201 6.23955C12.1413 6.29604 12.1011 6.33234 12.1011 6.33234C12.1011 6.33234 12.0697 6.37053 11.9731 6.33008C11.8732 6.28951 11.7583 6.12045 11.4128 6.16874C11.1293 6.25203 11.0064 6.33174 11.0064 6.33174C11.0064 6.33174 10.9803 6.21466 10.8072 6.21549C10.6344 6.21632 10.4385 6.22286 10.3971 6.23165C10.357 6.24115 10.2864 6.27953 10.269 6.28268C10.2514 6.28517 10.3226 6.43416 10.2583 6.52534C10.2237 6.57845 10.2443 6.61296 10.1766 6.61064C10.1766 6.61064 10.0276 6.60809 10.0163 6.72208C10.0142 6.84255 10.2047 6.90605 10.2915 6.66898C10.2915 6.66898 10.38 6.89661 10.4795 6.9228C10.6023 6.94514 10.722 6.7604 10.751 6.74537C10.751 6.74537 10.6204 6.98001 10.6884 7.06751C10.7701 7.11396 10.8728 7.12299 10.8901 7.10208C10.9072 7.08111 10.9625 6.98132 10.9477 6.8738C10.9477 6.8738 11.0213 6.93201 11.0619 6.87855C11.1027 6.82586 11.1131 6.59751 11.1131 6.59751C11.1131 6.59751 11.1628 6.58848 11.1637 6.69992C11.1643 6.81059 11.1673 6.89595 11.1673 6.89595C11.1673 6.89595 11.0999 6.88746 11.0911 6.9313C11.0831 6.97502 11.0975 7.0014 11.0975 7.0014L11.1619 6.99498C11.1619 6.99498 11.1826 7.03615 11.0982 7.08355C11.0982 7.08355 11.1841 7.31451 11.1231 7.48482C11.0598 7.6774 10.9312 7.70502 10.9312 7.70502C10.9312 7.70502 10.9731 7.91507 10.9731 7.96206C10.9733 8.00935 11.0468 8.07029 11.0647 8.11413C11.0911 8.15738 11.1147 8.19575 11.1147 8.19575C11.1147 8.19575 11.0324 8.03507 11.02 7.90319C11.0075 7.77221 11.1273 7.72694 11.2852 7.68257C11.2852 7.68257 11.3616 7.6796 11.3989 7.69695C11.4377 7.71435 11.4935 7.73467 11.4935 7.73467C11.4935 7.73467 11.5579 7.78956 11.5608 7.81035C11.5643 7.83054 11.5851 7.98244 11.5827 8.02343C11.5768 8.06489 11.5272 8.08508 11.5272 8.08508C11.5272 8.08508 11.5577 8.38406 11.5547 8.42754C11.5524 8.47121 11.5498 8.48344 11.5498 8.48344C11.5498 8.48344 11.5231 8.47756 11.5081 8.46325C11.4936 8.44923 11.4905 8.46057 11.4905 8.46057C11.4905 8.46057 11.4737 8.56269 11.3889 8.61294C11.3889 8.61294 11.3649 8.5694 11.345 8.55455C11.3244 8.54023 11.2894 8.51112 11.1975 8.34491C11.1975 8.34491 11.165 8.29187 11.1125 8.30137C11.1125 8.30137 11.1132 8.48891 11.1579 8.59078C11.2106 8.66937 11.2454 8.63385 11.2784 8.70424C11.3019 8.7567 11.3401 8.78907 11.3552 8.87396C11.3848 8.98463 11.4118 9.14258 11.4118 9.14258C11.4118 9.14258 11.547 9.24321 11.5798 9.31116C11.6002 9.35447 11.6125 9.41744 11.6122 9.50862C11.6122 9.51058 11.601 10.0891 11.6148 10.1678C11.6214 10.2083 11.6369 10.2314 11.6369 10.2314C11.6369 10.2314 11.8198 10.2407 11.9493 10.5646L12.2111 10.508C12.2111 10.508 12.2083 10.4796 12.2179 10.4368C12.2337 10.3652 12.2899 10.2904 12.308 10.2739C12.3327 10.2518 12.4224 10.2256 12.4224 10.2256C12.4224 10.2256 12.4402 10.2282 12.4425 10.1964C12.4425 10.1964 12.4614 9.55062 12.4595 9.52353L12.4752 9.29334C12.4752 9.29334 12.5514 9.24844 12.6209 9.15719C12.6647 9.12226 12.6669 8.97007 12.6669 8.97007L12.7548 8.98154C12.7548 8.98154 12.7991 8.987 12.7566 8.71208C12.7566 8.71208 12.8119 8.69426 12.9109 8.55342L12.9247 8.39244L12.6857 8.61294C12.6857 8.61294 12.5739 8.4876 12.5708 8.47299C12.5678 8.45831 12.5445 8.40865 12.5572 8.11318L12.5194 8.06584L12.516 8.04267L12.5481 7.99271C12.5481 7.99271 12.5942 7.77607 12.623 7.74114C12.6524 7.70598 12.7574 7.68168 12.895 7.72492C13.0419 7.77963 13.0721 7.97935 13.0721 7.97935C13.0721 7.97935 13.108 7.9538 13.1096 7.77476C13.1161 7.70728 13.1041 7.61544 13.1041 7.61544C13.1041 7.61544 13.1009 7.54862 13.0106 7.55236C12.9608 7.56376 12.9388 7.6104 12.8651 7.57606C12.8009 7.56745 12.7916 7.58212 12.7589 7.47377C12.747 7.35989 12.8783 7.30376 12.966 7.28011L12.975 7.20711C12.975 7.20711 12.8631 7.08688 12.8536 7.01957L12.9037 7.01648C12.9037 7.01648 12.7915 6.77109 12.9134 6.63375C12.9134 6.63375 12.8829 6.94906 13.0524 6.92779L13.0998 7.06525C13.0998 7.06525 13.2115 7.13481 13.2172 7.14931C13.2172 7.14931 13.2792 7.15858 13.3929 7.14046C13.4194 7.09882 13.3723 7.08723 13.3252 7.06151C13.2547 7.02415 13.2342 6.95078 13.2893 6.88568C13.2893 6.88568 13.3574 6.98542 13.4836 7.03727C13.6794 7.03312 13.6641 6.97787 13.6641 6.97787L13.6845 6.90801C13.6845 6.90801 13.673 6.83162 13.7078 6.79045L13.8258 6.97734C13.8258 6.97734 13.8667 6.95061 13.8871 6.94775C13.9076 6.94449 14.0269 6.92393 14.0269 6.92393C14.0269 6.92393 14.0451 6.86821 14.0031 6.82117Z" fill="white"/>
<path d="M11.9925 6.65292C11.9925 6.65292 11.9922 6.43183 11.9967 6.41573C12.0008 6.39915 12.0156 6.3805 12.0374 6.3824C12.0586 6.38519 12.0755 6.42493 12.0755 6.42493C12.0755 6.42493 12.0562 6.54612 12.0517 6.56245C12.0472 6.57861 12.0348 6.61556 11.9925 6.65292Z" fill="#100C08"/>
<path d="M12.0023 7.95417C12.0023 7.95417 11.9693 8.34701 11.9635 8.37024C11.9578 8.39323 12.0188 8.38129 12.0188 8.38129C12.0188 8.38129 12.0887 8.25796 12.1006 8.24085C12.1121 8.22286 12.1113 8.21157 12.0944 8.17337C12.0768 8.13529 12.0023 7.95417 12.0023 7.95417Z" fill="#100C08"/>
<path d="M12.0352 8.46421L12.0876 8.467C12.0876 8.467 12.0602 8.72148 12.0605 8.7977C12.0605 8.87385 12.0556 8.97941 12.0556 8.97941H12.0145C12.0145 8.97941 11.9668 8.79782 11.9668 8.78695C11.9668 8.77477 12.0332 8.61931 12.0332 8.61931L12.0352 8.46421Z" fill="#100C08"/>
<path d="M11.9737 9.16075C11.9737 9.16075 12.0207 9.14596 12.0323 9.14899C12.0434 9.15196 12.0497 9.16021 12.0497 9.16021L12.0508 9.4239C12.0508 9.4239 12.0601 9.48218 12.0715 9.49679C12.0838 9.51152 12.1362 9.53148 12.148 9.56356C12.1604 9.59587 12.181 9.71551 12.1549 9.80996C12.1202 9.95597 12.0652 9.98276 12.0715 10.0438C12.0772 10.1058 12.1128 10.2138 12.1133 10.2519C12.1133 10.2519 12.0928 10.2779 12.0373 10.2638C12.0198 10.2435 11.9817 10.2466 11.9817 10.2466C11.9817 10.2466 12.0074 10.0824 11.9922 9.99785C11.9827 9.9277 11.9042 9.96619 11.9042 9.96619L11.9026 9.57948C11.9026 9.57948 11.8878 9.54716 11.9342 9.52388C11.9811 9.50024 11.9957 9.49732 11.9957 9.49732L11.9737 9.16075Z" fill="#100C08"/>
<path d="M12.2032 6.93834C12.2032 6.93834 12.2654 6.8819 12.267 6.87246C12.2684 6.86272 12.2364 6.81032 12.1831 6.78692C12.1293 6.7631 12.1004 6.78252 12.1004 6.78252C12.1004 6.78252 12.0212 6.92289 11.9803 6.93923C11.8975 6.91172 11.8447 6.8446 11.7957 6.79221C11.7463 6.74005 11.5906 6.57657 11.5906 6.57657L11.5709 6.56517C11.5709 6.56517 11.5738 6.64287 11.5786 6.73839C11.5814 6.78751 11.5893 6.84775 11.593 6.89699C11.599 6.98503 11.6007 7.05572 11.6039 7.06011C11.6107 7.07098 11.7084 7.16995 11.7084 7.16995C11.7084 7.16995 11.7196 7.18296 11.709 7.18908C11.6989 7.19496 11.6302 7.27414 11.5787 7.27901C11.5207 7.29107 11.4707 7.27331 11.4622 7.26749L11.4661 7.30331C11.4661 7.30331 11.5139 7.45467 11.5314 7.47683C11.5494 7.49958 11.5554 7.48069 11.5709 7.49892C11.6022 7.51568 11.6006 7.58916 11.6006 7.58916L11.8491 7.57496L11.9241 7.38725C11.9241 7.38725 12.0029 7.37863 12.0166 7.3743C12.0302 7.37091 12.1109 7.36479 12.1263 7.36687C12.1417 7.36824 12.163 7.41552 12.179 7.42425C12.1859 7.42984 12.2094 7.41653 12.2282 7.40239C12.2471 7.38909 12.3774 7.33182 12.4103 7.32713C12.4287 7.31899 12.5835 7.0774 12.6529 7.02453C12.6529 7.02453 12.5534 7.04158 12.487 7.05839C12.4202 7.07461 12.283 7.07348 12.2693 7.07176C12.2351 7.06849 12.1887 7.05827 12.1887 7.05827C12.1887 7.05827 12.191 7.00083 12.2032 6.93834Z" fill="#E2231A"/>
<path d="M11.3287 8.30867C11.3287 8.30867 11.4016 8.29334 11.3805 8.20614C11.3424 8.12445 11.2696 8.14839 11.2519 8.20928C11.2347 8.27101 11.2731 8.32334 11.3287 8.30867Z" fill="white"/>
<path d="M12.7041 8.14161C12.7041 8.14161 12.6334 8.15652 12.6779 8.26172C12.731 8.29962 12.7831 8.24669 12.7748 8.21764C12.7717 8.18806 12.7688 8.15004 12.7041 8.14161Z" fill="white"/>
<path d="M7.87732 6.29889C7.87732 6.29889 8.46696 6.51886 9.94134 6.30109C9.94134 6.30109 9.9872 6.76051 9.51019 6.81534C9.10376 6.86435 8.64944 6.71441 8.54959 6.6764C8.32071 6.5984 7.92788 6.41294 7.87732 6.29889Z" fill="white"/>
<path d="M15.4447 6.65535C15.3435 6.69058 14.8862 6.83172 14.4806 6.77481C14.0053 6.71048 14.0605 6.25224 14.0605 6.25224C15.5302 6.49972 16.1241 6.29192 16.1241 6.29192C16.0708 6.40461 15.6743 6.58205 15.4447 6.65535Z" fill="white"/>
<path d="M17.932 9.77147L13.4436 10.689L13.4443 10.127L12.8132 10.2564L12.8137 10.8188L8.11832 11.7878L8.11624 11.2242L6.09434 11.6446V14.0026L10.4628 13.1037L10.4654 11.9302L11.0966 11.8L11.099 12.9719L17.9321 11.5631L17.932 9.77147ZM8.11464 12.9487L6.74534 13.2321L6.74171 12.1651L8.12004 11.8773L8.11464 12.9487ZM13.8703 11.7716L13.4432 11.8577L13.448 11.3154L13.8709 11.229L13.8703 11.7716ZM16.8377 11.1591L16.8395 10.624L17.2974 10.5286L17.3 11.0636L16.8377 11.1591Z" fill="#100C08"/>
<path fill-rule="evenodd" clip-rule="evenodd" d="M18.019 9.66489L18.0191 11.634L11.0123 13.0786L11.0098 11.9068L10.5522 12.0011L10.5497 13.1746L6.00734 14.1094V11.5738L8.20285 11.1173L8.20493 11.6811L12.7266 10.7479L12.7261 10.1854L13.5315 10.0203L13.5307 10.5824L18.019 9.66489ZM8.03139 11.8069L8.02963 11.331L6.18134 11.7153V13.8959L10.376 13.0327L10.3785 11.8593L11.1833 11.6933L11.1858 12.8652L17.8451 11.4922L17.845 9.87805L13.3564 10.7956L13.3572 10.2337L12.9002 10.3273L12.9007 10.8897L8.20714 11.8583L8.20128 13.0196L6.6587 13.3388L6.65447 12.0944L8.03139 11.8069ZM8.0325 11.9844L6.82895 12.2357L6.83197 13.1253L8.02799 12.8778L8.0325 11.9844ZM17.3839 10.4218L17.3874 11.1344L16.7504 11.266L16.7527 10.5532L17.3839 10.4218ZM16.9262 10.6948L16.9251 11.0522L17.2127 10.9928L17.2109 10.6355L16.9262 10.6948ZM13.958 11.1224L13.9572 11.8428L13.3553 11.9641L13.3616 11.2442L13.958 11.1224ZM13.5344 11.3865L13.5312 11.7512L13.7834 11.7003L13.7837 11.3356L13.5344 11.3865Z" fill="#100C08"/>
<path d="M11.1795 11.2483L11.179 11.6898C11.179 11.6898 12.124 11.4951 12.2365 11.472C12.2365 11.5207 12.2365 11.5556 12.2365 11.6045C12.1239 11.6278 11.1789 11.8227 11.1789 11.8227L11.178 12.8611L12.7181 12.5417L12.7182 10.9316L11.1795 11.2483ZM12.2714 12.0382C12.2714 12.0921 12.2713 12.1393 12.2713 12.1932C12.1736 12.2134 11.722 12.3066 11.6245 12.327C11.6245 12.2731 11.6245 12.2259 11.6246 12.1721C11.7222 12.1518 12.1738 12.0585 12.2714 12.0382Z" fill="white"/>
<path d="M14.5756 10.5501L14.5751 10.9906C14.5751 10.9906 15.5203 10.797 15.6333 10.7737C15.633 10.8228 15.633 10.8575 15.633 10.9062C15.5202 10.9292 14.575 11.1229 14.575 11.1229L14.574 12.158L16.1144 11.8409V10.2355L14.5756 10.5501ZM15.6677 11.3385C15.6677 11.3922 15.6677 11.4392 15.6675 11.493C15.5697 11.5132 15.1184 11.6058 15.0207 11.6259C15.0207 11.5722 15.0208 11.5249 15.0208 11.4712C15.1185 11.4512 15.5698 11.3587 15.6677 11.3385Z" fill="white"/>
<path d="M6.1702 13.9048L8.02197 13.5177L8.02399 13.0562C8.02399 13.0562 6.75063 13.3218 6.63449 13.3459C6.63461 13.2359 6.63562 12.1981 6.63562 12.0879C6.75176 12.0639 8.01199 11.8024 8.01199 11.8024L8.0117 11.3392L6.17222 11.7196L6.1702 13.9048Z" fill="white"/>
<path d="M8.19922 11.8642L8.19886 12.307C8.19886 12.307 9.14426 12.1109 9.25695 12.0876C9.25689 12.1366 9.25689 12.1717 9.25689 12.2208C9.14414 12.2442 8.19868 12.4401 8.19868 12.4401L8.19767 13.4813L9.73823 13.1605V11.5456L8.19922 11.8642ZM9.2917 12.6556C9.29164 12.7093 9.29158 12.7569 9.29158 12.8109C9.19363 12.8316 8.74199 12.9253 8.64421 12.9455C8.64427 12.8915 8.64427 12.8442 8.64433 12.7901C8.74216 12.7696 9.1938 12.676 9.2917 12.6556Z" fill="white"/>
<path d="M9.91612 11.5082L9.91131 13.1237L10.358 13.0305C10.358 13.0305 10.359 11.9718 10.3592 11.8587C10.463 11.8373 11.0041 11.7254 11.0041 11.7254L11.0058 11.2834L9.91612 11.5082Z" fill="white"/>
<path d="M12.8939 10.3338L12.8955 12.5048L14.3998 12.1942L14.4001 10.5855C14.4001 10.5855 13.452 10.7806 13.3389 10.8035C13.3391 10.7043 13.3395 10.2423 13.3395 10.2423L12.8939 10.3338ZM13.9542 11.1174C13.9541 11.2168 13.9536 11.7466 13.9536 11.8459C13.857 11.8655 13.4367 11.9524 13.3405 11.9723C13.3407 11.8727 13.3411 11.3429 13.3412 11.2434C13.4374 11.2234 13.8577 11.137 13.9542 11.1174Z" fill="white"/>
<path d="M16.2894 10.2007L16.2879 11.806L17.8265 11.4905L17.828 9.88714L16.2894 10.2007ZM17.3804 10.4177C17.3803 10.5167 17.3798 11.0437 17.3796 11.1427C17.2819 11.1629 16.8315 11.2552 16.7337 11.2749C16.7337 11.1759 16.7343 10.6485 16.7344 10.5495C16.8322 10.5295 17.2827 10.4378 17.3804 10.4177Z" fill="white"/>
<path d="M14.7043 13.1143L12.3941 13.5796L12.4003 14.7538L11.938 14.8493L11.9356 13.6709L11.3198 13.7954L11.3178 13.2317L9.29598 13.6522V16.0101L14.7044 14.906L14.7043 13.1143ZM11.3026 14.9745L9.93332 15.258L9.92964 14.191L11.308 13.9033L11.3026 14.9745ZM14.0722 14.4175L13.6451 14.5038L13.6499 13.9615L14.0728 13.8751L14.0722 14.4175Z" fill="#100C08"/>
<path fill-rule="evenodd" clip-rule="evenodd" d="M14.7913 13.008L14.7914 14.9771L9.20898 16.1167V13.5814L11.4044 13.1248L11.4065 13.6891L12.0224 13.5646L12.0248 14.7425L12.3129 14.683L12.3067 13.5084L14.7913 13.008ZM12.4815 13.6507L12.4876 14.8246L11.8512 14.9561L11.8488 13.7772L11.3952 13.8689L11.3892 15.0455L9.84669 15.3647L9.84239 14.1203L11.233 13.8301L11.2312 13.3386L9.38298 13.7229V15.9036L14.6174 14.835L14.6173 13.2205L12.4815 13.6507ZM14.1599 13.7685L14.1591 14.4887L13.5572 14.6103L13.5636 13.8903L14.1599 13.7685ZM13.7363 14.0326L13.7331 14.3972L13.9852 14.3463L13.9856 13.9817L13.7363 14.0326ZM10.0169 14.2616L10.02 15.1512L11.2159 14.9036L11.2205 14.0105L10.0169 14.2616Z" fill="#100C08"/>
<path d="M13.6478 15.1161L13.0179 15.2461L13.0171 15.8079L13.6482 15.6786L13.6478 15.1161Z" fill="#100C08"/>
<path fill-rule="evenodd" clip-rule="evenodd" d="M13.7347 15.0094L13.7353 15.7496L12.9299 15.9146L12.931 15.1752L13.7347 15.0094ZM13.1048 15.317L13.1042 15.7013L13.5612 15.6076L13.5608 15.2229L13.1048 15.317Z" fill="#100C08"/>
<path d="M9.35862 15.915L11.2104 15.5279L11.2124 15.0663C11.2124 15.0663 9.93899 15.3319 9.82285 15.3561C9.82291 15.2462 9.82392 14.2082 9.82404 14.0981C9.94017 14.074 11.2003 13.8125 11.2003 13.8125L11.2 13.3493L9.36058 13.73L9.35862 15.915Z" fill="white"/>
<path d="M14.602 13.2161L13.0959 13.5266L13.098 15.6976L13.5427 15.6051C13.5427 15.5177 13.543 15.1338 13.5431 15.0434L14.6019 14.8248L14.602 13.2161ZM14.1556 14.4765C14.059 14.4961 13.6387 14.5829 13.5426 14.6028C13.5427 14.5033 13.5431 13.9734 13.5432 13.8739C13.6394 13.8539 14.0597 13.7674 14.1563 13.7478C14.1561 13.8472 14.1557 14.377 14.1556 14.4765Z" fill="white"/>
<path d="M11.8351 13.7999L11.3897 13.8902L11.3882 15.4956L12.9268 15.18L12.9283 13.5767L12.4819 13.6676L12.4806 14.1071C12.4805 14.2064 12.48 14.7331 12.48 14.8323C12.3822 14.8524 11.9317 14.9447 11.8339 14.9645C11.8339 14.8653 11.8344 14.3381 11.8345 14.2391L11.8351 13.7999Z" fill="white"/>
<path d="M17.9041 15.4545L6.66739 17.6336L6.67536 17.4557L17.9022 15.2775L17.9041 15.4545Z" fill="white"/>
<path fill-rule="evenodd" clip-rule="evenodd" d="M18.396 14.6723L18.4084 15.8661L6.13954 18.2453L6.19345 17.0398L18.396 14.6723Z" fill="white"/>
<path d="M12.0827 18.3792V19.5286H12.0865C12.0985 19.6395 12.1597 19.7586 12.3021 19.7586H12.9211V19.453H12.4023V19.2277H12.8931V18.9052H12.4023V18.7015H12.9314V18.3791L12.0827 18.3792Z" fill="white"/>
<path d="M13.1921 19.5796C13.2168 19.6913 13.2741 19.7592 13.3839 19.7574H13.5224V19.2136H13.9664V18.9154H13.5224V18.6772H14.0198V18.3755H13.1814L13.1921 19.5796Z" fill="white"/>
<path d="M14.2648 18.3787V19.4554C14.2648 19.6026 14.2797 19.7507 14.4651 19.7507H15.0142V19.4554H14.5806V18.3787H14.2648Z" fill="white"/>
<path d="M9.45148 18.5164C9.45148 18.6054 9.38174 18.6778 9.29555 18.6778C9.20942 18.6778 9.13956 18.6054 9.13956 18.5164C9.13956 18.4273 9.20942 18.355 9.29555 18.355C9.38174 18.3551 9.45148 18.4273 9.45148 18.5164Z" fill="white"/>
<path d="M9.87228 18.5065C9.87228 18.6111 9.79037 18.6959 9.68944 18.6959C9.58834 18.6959 9.50654 18.6111 9.50654 18.5065C9.50654 18.4021 9.58834 18.3177 9.68944 18.3177C9.79037 18.3177 9.87228 18.4022 9.87228 18.5065Z" fill="white"/>
<path d="M10.2394 18.7181C10.2394 18.829 10.1526 18.9186 10.0456 18.9186C9.93854 18.9186 9.85175 18.829 9.85175 18.7181C9.85175 18.6074 9.93854 18.5176 10.0456 18.5176C10.1526 18.5176 10.2394 18.6074 10.2394 18.7181Z" fill="white"/>
<path d="M9.70445 18.8708C9.70445 18.97 9.62675 19.0506 9.53087 19.0506C9.43493 19.0506 9.35723 18.97 9.35723 18.8708C9.35723 18.7717 9.43493 18.6912 9.53087 18.6912C9.62675 18.6912 9.70445 18.7717 9.70445 18.8708Z" fill="white"/>
<path d="M9.32082 18.8313C9.32082 18.9118 9.25685 18.9772 9.17802 18.9772C9.09901 18.9772 9.03504 18.9117 9.03504 18.8313C9.03504 18.751 9.09901 18.6859 9.17802 18.6859C9.25685 18.6859 9.32082 18.7511 9.32082 18.8313Z" fill="white"/>
<path d="M10.0288 19.0792C10.0288 19.1761 9.95154 19.2547 9.85644 19.2547C9.76127 19.2547 9.68387 19.1761 9.68387 19.0792C9.68387 18.9822 9.76127 18.9037 9.85644 18.9037C9.95154 18.9037 10.0288 18.9822 10.0288 19.0792Z" fill="white"/>
<path d="M9.28471 19.1535C9.28471 19.2315 9.22376 19.2946 9.14838 19.2946C9.07311 19.2946 9.01211 19.2315 9.01211 19.1535C9.01211 19.0756 9.07311 19.0126 9.14838 19.0126C9.22376 19.0126 9.28471 19.0756 9.28471 19.1535Z" fill="white"/>
<path d="M9.60702 19.2266C9.60702 19.307 9.54411 19.3722 9.46635 19.3722C9.38859 19.3722 9.32569 19.307 9.32569 19.2266C9.32569 19.1462 9.38859 19.0813 9.46635 19.0813C9.54411 19.0813 9.60702 19.1462 9.60702 19.2266Z" fill="white"/>
<path d="M9.88357 19.4033C9.88357 19.4836 9.8206 19.5486 9.7429 19.5486C9.66532 19.5486 9.60235 19.4836 9.60235 19.4033C9.60235 19.3227 9.66532 19.2576 9.7429 19.2576C9.8206 19.2576 9.88357 19.3227 9.88357 19.4033Z" fill="white"/>
<path d="M9.86567 19.7039C9.86567 19.7715 9.81185 19.8261 9.74537 19.8261C9.67902 19.8261 9.6252 19.7715 9.6252 19.7039C9.6252 19.6366 9.67902 19.5819 9.74537 19.5819C9.81179 19.5819 9.86567 19.6366 9.86567 19.7039Z" fill="white"/>
<path d="M9.58812 19.5319C9.58812 19.6 9.5343 19.6552 9.46794 19.6552C9.40159 19.6552 9.34771 19.6 9.34771 19.5319C9.34771 19.4641 9.40159 19.4091 9.46794 19.4091C9.5343 19.4091 9.58812 19.4641 9.58812 19.5319Z" fill="white"/>
<path d="M9.30735 19.4392C9.30735 19.5072 9.25359 19.5624 9.18718 19.5624C9.12083 19.5624 9.06683 19.5072 9.06683 19.4392C9.06683 19.3713 9.12083 19.3163 9.18718 19.3163C9.25359 19.3163 9.30735 19.3712 9.30735 19.4392Z" fill="white"/>
<path d="M9.35615 19.6609C9.35615 19.7121 9.31534 19.7536 9.26503 19.7536C9.21465 19.7536 9.17402 19.7122 9.17402 19.6609C9.17402 19.6099 9.21465 19.5683 9.26503 19.5683C9.31534 19.5683 9.35615 19.6099 9.35615 19.6609Z" fill="white"/>
<path d="M9.61018 19.771C9.61018 19.822 9.56937 19.8636 9.51905 19.8636C9.46862 19.8636 9.42793 19.8221 9.42793 19.771C9.42793 19.7199 9.46862 19.6785 9.51905 19.6785C9.56937 19.6785 9.61018 19.7198 9.61018 19.771Z" fill="white"/>
<path d="M9.42578 19.8341C9.42578 19.876 9.3924 19.9098 9.35141 19.9098C9.3103 19.9098 9.27692 19.876 9.27692 19.8341C9.27692 19.7924 9.3103 19.7587 9.35141 19.7587C9.3924 19.7588 9.42578 19.7924 9.42578 19.8341Z" fill="white"/>
<path d="M9.53084 19.9696C9.53084 20.0086 9.49983 20.0403 9.46134 20.0403C9.42296 20.0403 9.39178 20.0086 9.39178 19.9696C9.39178 19.9304 9.42296 19.8989 9.46134 19.8989C9.49983 19.8988 9.53084 19.9304 9.53084 19.9696Z" fill="white"/>
<path d="M9.70065 19.9545C9.70065 19.9934 9.66982 20.0248 9.63163 20.0248C9.59349 20.0248 9.56248 19.9935 9.56248 19.9545C9.56248 19.9157 9.59349 19.8841 9.63163 19.8841C9.66982 19.8841 9.70065 19.9157 9.70065 19.9545Z" fill="white"/>
<path d="M9.91179 19.9356C9.91179 19.9867 9.87098 20.0282 9.82067 20.0282C9.77035 20.0282 9.72954 19.9868 9.72954 19.9356C9.72954 19.8845 9.77035 19.8429 9.82067 19.8429C9.87098 19.8429 9.91179 19.8845 9.91179 19.9356Z" fill="white"/>
<path d="M9.81726 20.1373C9.81726 20.176 9.78631 20.2076 9.74811 20.2076C9.70998 20.2076 9.67903 20.1761 9.67903 20.1373C9.67903 20.0982 9.70998 20.067 9.74811 20.067C9.78631 20.067 9.81726 20.0982 9.81726 20.1373Z" fill="white"/>
<path d="M9.99547 20.1217C9.99547 20.163 9.96268 20.1966 9.92205 20.1966C9.88136 20.1966 9.84851 20.163 9.84851 20.1217C9.84851 20.0806 9.88136 20.0471 9.92205 20.0471C9.96262 20.0471 9.99547 20.0806 9.99547 20.1217Z" fill="white"/>
<path d="M9.65711 20.1005C9.65711 20.1298 9.63376 20.1536 9.60507 20.1536C9.5762 20.1536 9.5528 20.1298 9.5528 20.1005C9.5528 20.0714 9.5762 20.0476 9.60507 20.0476C9.63376 20.0476 9.65711 20.0714 9.65711 20.1005Z" fill="white"/>
<path d="M9.90529 20.2477C9.90529 20.2748 9.88366 20.297 9.85699 20.297C9.8302 20.297 9.80864 20.2748 9.80864 20.2477C9.80864 20.2208 9.8302 20.1987 9.85699 20.1987C9.88366 20.1987 9.90529 20.2208 9.90529 20.2477Z" fill="white"/>
<path d="M10.0794 20.2622C10.0794 20.298 10.0509 20.327 10.0157 20.327C9.98047 20.327 9.95184 20.2981 9.95184 20.2622C9.95184 20.2265 9.98047 20.1976 10.0157 20.1976C10.0509 20.1976 10.0794 20.2266 10.0794 20.2622Z" fill="white"/>
<path d="M10.1949 20.3279C10.1949 20.3532 10.1749 20.3737 10.1501 20.3737C10.1253 20.3737 10.1051 20.3532 10.1051 20.3279C10.1051 20.3028 10.1253 20.2823 10.1501 20.2823C10.1749 20.2823 10.1949 20.3028 10.1949 20.3279Z" fill="white"/>
<path d="M11.3219 18.5343C11.24 18.4992 11.2009 18.4067 11.2348 18.3274C11.2686 18.2481 11.3625 18.2125 11.4445 18.2475C11.5264 18.2825 11.5655 18.3752 11.5315 18.4544C11.4978 18.5335 11.4037 18.5694 11.3219 18.5343Z" fill="white"/>
<path d="M11.1111 18.8909C11.015 18.8498 10.9693 18.7413 11.009 18.6485C11.0486 18.5556 11.1587 18.5136 11.2548 18.5547C11.3508 18.5956 11.3966 18.7042 11.3568 18.7971C11.3172 18.8901 11.2072 18.9321 11.1111 18.8909Z" fill="white"/>
<path d="M10.7539 19.1098C10.6519 19.0665 10.6035 18.9512 10.6455 18.8528C10.6876 18.7543 10.8042 18.7099 10.9061 18.7534C11.0079 18.797 11.0565 18.912 11.0144 19.0105C10.9722 19.1089 10.8556 19.1533 10.7539 19.1098Z" fill="white"/>
<path d="M10.8666 18.5656C10.7753 18.5266 10.732 18.4233 10.7696 18.3353C10.8072 18.2473 10.9117 18.2075 11.003 18.2463C11.094 18.2852 11.1375 18.3882 11.0999 18.4765C11.0622 18.5646 10.9577 18.6046 10.8666 18.5656Z" fill="white"/>
<path d="M11.0989 18.2636C11.025 18.2319 10.9902 18.1476 11.0213 18.0749C11.0522 18.0024 11.1374 17.9691 11.2113 18.0007C11.2852 18.0323 11.32 18.1169 11.289 18.1894C11.2579 18.262 11.1728 18.2952 11.0989 18.2636Z" fill="white"/>
<path d="M10.5392 18.7391C10.4499 18.701 10.408 18.5993 10.4454 18.5117C10.4829 18.424 10.5855 18.3842 10.6746 18.4221C10.7638 18.4604 10.8058 18.5621 10.7684 18.6496C10.7309 18.7372 10.6283 18.7772 10.5392 18.7391Z" fill="white"/>
<path d="M10.8438 18.0725C10.7723 18.042 10.7382 17.961 10.7679 17.8921C10.7974 17.8226 10.8794 17.7913 10.951 17.8219C11.0226 17.8526 11.0567 17.9335 11.0271 18.0027C10.9976 18.0718 10.9155 18.103 10.8438 18.0725Z" fill="white"/>
<path d="M10.6118 18.3018C10.5379 18.2701 10.5027 18.1865 10.5333 18.1152C10.5638 18.0436 10.6484 18.0113 10.7223 18.043C10.7962 18.0745 10.8315 18.1581 10.8009 18.2295C10.7703 18.301 10.6857 18.3332 10.6118 18.3018Z" fill="white"/>
<path d="M10.3097 18.447C10.2358 18.4154 10.2005 18.3319 10.2311 18.2603C10.2617 18.1891 10.3463 18.1565 10.4202 18.1883C10.4942 18.2199 10.5293 18.3033 10.4987 18.375C10.4682 18.4462 10.3837 18.4787 10.3097 18.447Z" fill="white"/>
<path d="M10.0683 18.2935C10.0063 18.2669 9.97719 18.1961 10.0033 18.1349C10.0294 18.0739 10.1009 18.0458 10.1628 18.0722C10.2248 18.0988 10.2539 18.1697 10.2278 18.2308C10.2017 18.2918 10.1302 18.32 10.0683 18.2935Z" fill="white"/>
<path d="M10.3504 18.1367C10.2879 18.1101 10.2584 18.0389 10.2846 17.9778C10.3107 17.9169 10.3824 17.889 10.445 17.9155C10.5073 17.9421 10.5369 18.0135 10.5108 18.0744C10.4847 18.1355 10.4129 18.1632 10.3504 18.1367Z" fill="white"/>
<path d="M10.5728 17.9469C10.5103 17.9202 10.4809 17.8491 10.507 17.7879C10.5331 17.7272 10.6049 17.6991 10.6674 17.7257C10.7299 17.7525 10.7593 17.8236 10.7332 17.8846C10.7072 17.9459 10.6354 17.9736 10.5728 17.9469Z" fill="white"/>
<path d="M10.358 17.8688C10.3109 17.8485 10.2889 17.7949 10.3086 17.7486C10.3283 17.7023 10.3826 17.681 10.4296 17.7011C10.4766 17.7213 10.4987 17.775 10.479 17.8214C10.4591 17.8675 10.4049 17.8887 10.358 17.8688Z" fill="white"/>
<path d="M10.1302 18.0482C10.0832 18.0283 10.0609 17.9745 10.081 17.9281C10.1006 17.882 10.1548 17.8607 10.2019 17.8807C10.2488 17.9008 10.2709 17.9546 10.2511 18.0009C10.2314 18.0472 10.1772 18.0683 10.1302 18.0482Z" fill="white"/>
<path d="M10.1633 17.8538C10.1249 17.8375 10.1068 17.7935 10.123 17.7559C10.1391 17.718 10.1833 17.7006 10.2216 17.717C10.2601 17.7334 10.2781 17.7775 10.2619 17.8152C10.2459 17.8531 10.2017 17.8703 10.1633 17.8538Z" fill="white"/>
<path d="M9.98627 17.8734C9.95045 17.8582 9.93346 17.8172 9.94855 17.7818C9.9637 17.7464 10.0051 17.7303 10.041 17.7455C10.0769 17.7609 10.0938 17.802 10.0786 17.8373C10.0636 17.8728 10.0222 17.8889 9.98627 17.8734Z" fill="white"/>
<path d="M9.91358 18.016C9.87781 18.0009 9.86118 17.9601 9.87621 17.9251C9.89112 17.8898 9.93229 17.8737 9.96781 17.889C10.0036 17.9043 10.0204 17.9452 10.0054 17.9803C9.99032 18.0153 9.94922 18.0313 9.91358 18.016Z" fill="white"/>
<path d="M9.82415 18.2102C9.77728 18.19 9.75512 18.1362 9.77484 18.0901C9.79468 18.0437 9.84886 18.0225 9.89585 18.0427C9.94289 18.0627 9.96499 18.1164 9.94521 18.1629C9.92549 18.2091 9.87131 18.2303 9.82415 18.2102Z" fill="white"/>
<path d="M9.69611 18.032C9.66053 18.0166 9.64366 17.9759 9.65863 17.9408C9.67366 17.9058 9.71471 17.8898 9.75047 17.9049C9.78605 17.9201 9.80292 17.9608 9.78783 17.9959C9.77298 18.031 9.73181 18.0473 9.69611 18.032Z" fill="white"/>
<path d="M9.62866 18.1869C9.59088 18.1708 9.57294 18.1273 9.58898 18.09C9.60484 18.0527 9.64856 18.0354 9.68646 18.0517C9.72442 18.0679 9.74218 18.1115 9.72638 18.1487C9.71028 18.1859 9.66674 18.2031 9.62866 18.1869Z" fill="white"/>
<path d="M9.80446 17.9068C9.77744 17.8953 9.76496 17.8647 9.77625 17.8382C9.78753 17.8115 9.81848 17.7993 9.84545 17.811C9.87242 17.8222 9.88489 17.8532 9.87361 17.8798C9.86226 17.9063 9.83125 17.9184 9.80446 17.9068Z" fill="white"/>
<path d="M9.55606 18.051C9.53111 18.0402 9.51946 18.0118 9.52998 17.9873C9.54043 17.9628 9.56912 17.9513 9.59407 17.962C9.61902 17.9729 9.63079 18.0013 9.62027 18.0258C9.60976 18.0503 9.58112 18.0616 9.55606 18.051Z" fill="white"/>
<path d="M9.45154 18.1888C9.41851 18.1748 9.40312 18.1371 9.41684 18.1048C9.4308 18.0722 9.4687 18.0575 9.5015 18.0716C9.53452 18.0856 9.54997 18.1234 9.53619 18.1556C9.52223 18.1879 9.48439 18.2029 9.45154 18.1888Z" fill="white"/>
<path d="M9.33642 18.2575C9.31331 18.2476 9.30238 18.2209 9.31213 18.1981C9.32181 18.1753 9.34854 18.165 9.37183 18.1747C9.39499 18.1847 9.40586 18.2112 9.39606 18.234C9.38638 18.2568 9.35971 18.2673 9.33642 18.2575Z" fill="white"/>
<path d="M10.3456 20.1043C10.4175 20.0513 10.5171 20.0651 10.568 20.1344C10.6191 20.2038 10.6021 20.303 10.5304 20.3557C10.4584 20.4086 10.3589 20.395 10.3079 20.3256C10.2568 20.256 10.2738 20.1569 10.3456 20.1043Z" fill="white"/>
<path d="M10.1459 19.7418C10.2301 19.6801 10.3468 19.6958 10.4066 19.7773C10.4664 19.8588 10.4466 19.9748 10.3624 20.0367C10.2782 20.0985 10.1614 20.0826 10.1017 20.0015C10.0419 19.9198 10.0617 19.8038 10.1459 19.7418Z" fill="white"/>
<path d="M10.139 19.3217C10.2282 19.2563 10.352 19.273 10.4155 19.3592C10.4789 19.4455 10.4577 19.5687 10.3684 19.6342C10.2793 19.6998 10.1555 19.6828 10.0922 19.5967C10.0289 19.5105 10.0499 19.3872 10.139 19.3217Z" fill="white"/>
<path d="M10.5505 19.696C10.6306 19.6375 10.7413 19.6523 10.798 19.7296C10.8547 19.807 10.836 19.9169 10.7561 19.9757C10.6762 20.0346 10.5653 20.0197 10.5086 19.9422C10.4519 19.8651 10.4707 19.7548 10.5505 19.696Z" fill="white"/>
<path d="M10.6925 20.0503C10.7572 20.0026 10.8478 20.0158 10.8943 20.0793C10.9411 20.1428 10.9265 20.2333 10.8617 20.2807C10.7969 20.3284 10.7065 20.3153 10.6599 20.2518C10.6131 20.1879 10.6277 20.098 10.6925 20.0503Z" fill="white"/>
<path d="M10.568 19.3255C10.646 19.2682 10.7553 19.2839 10.8116 19.3606C10.8679 19.4374 10.8503 19.5463 10.7721 19.6036C10.6939 19.6609 10.5849 19.6453 10.5286 19.5685C10.4722 19.4918 10.4898 19.3831 10.568 19.3255Z" fill="white"/>
<path d="M10.9868 19.9271C11.0495 19.8811 11.1365 19.893 11.1809 19.9534C11.2256 20.0141 11.2108 20.1007 11.148 20.1468C11.0852 20.193 10.9983 20.181 10.9538 20.1206C10.9092 20.06 10.9239 19.9733 10.9868 19.9271Z" fill="white"/>
<path d="M10.9073 19.6112C10.972 19.5638 11.0619 19.5758 11.1078 19.6386C11.1538 19.7011 11.1386 19.7904 11.0738 19.8379C11.009 19.8855 10.9192 19.8734 10.8733 19.811C10.8272 19.7482 10.8425 19.6589 10.9073 19.6112Z" fill="white"/>
<path d="M10.9354 19.2765C11.0001 19.2291 11.09 19.2412 11.1359 19.3039C11.182 19.3665 11.1667 19.4556 11.102 19.5032C11.0371 19.5508 10.9474 19.5386 10.9015 19.4761C10.8554 19.4136 10.8707 19.3241 10.9354 19.2765Z" fill="white"/>
<path d="M11.1906 19.1464C11.245 19.1065 11.3209 19.1176 11.3602 19.171C11.3996 19.2246 11.3873 19.3001 11.3329 19.3403C11.2787 19.3801 11.2027 19.3691 11.1634 19.3156C11.124 19.2621 11.1363 19.1863 11.1906 19.1464Z" fill="white"/>
<path d="M11.1827 19.469C11.2373 19.4288 11.3137 19.4396 11.353 19.493C11.3923 19.5465 11.3797 19.6226 11.325 19.6626C11.2701 19.7031 11.1939 19.6922 11.1547 19.6389C11.1152 19.5853 11.1279 19.509 11.1827 19.469Z" fill="white"/>
<path d="M11.2331 19.7583C11.2879 19.7182 11.3642 19.7289 11.4035 19.7824C11.4428 19.8359 11.4303 19.9121 11.3755 19.952C11.3208 19.9924 11.2444 19.9815 11.2051 19.928C11.1658 19.8745 11.1783 19.7988 11.2331 19.7583Z" fill="white"/>
<path d="M11.4093 19.6123C11.4504 19.5817 11.5079 19.5899 11.5378 19.6309C11.5676 19.6713 11.5584 19.7286 11.5171 19.759C11.4759 19.7893 11.4182 19.7809 11.3886 19.7405C11.3587 19.6998 11.368 19.6424 11.4093 19.6123Z" fill="white"/>
<path d="M11.3709 19.3254C11.412 19.2949 11.4696 19.3033 11.4994 19.344C11.5293 19.3845 11.52 19.4418 11.4788 19.4722C11.4375 19.5023 11.3798 19.4941 11.3502 19.4536C11.3204 19.4129 11.3297 19.3555 11.3709 19.3254Z" fill="white"/>
<path d="M11.5208 19.4529C11.5545 19.4282 11.6015 19.4351 11.6259 19.4682C11.6501 19.5013 11.6426 19.5482 11.6089 19.5728C11.5753 19.5975 11.5283 19.5907 11.504 19.5577C11.4797 19.5244 11.4873 19.4776 11.5208 19.4529Z" fill="white"/>
<path d="M11.5942 19.2904C11.6257 19.2672 11.6697 19.2736 11.6925 19.3045C11.7151 19.3355 11.7081 19.3792 11.6767 19.4023C11.6451 19.4255 11.6012 19.4191 11.5784 19.3882C11.5557 19.3572 11.5628 19.3133 11.5942 19.2904Z" fill="white"/>
<path d="M11.5081 19.1552C11.5393 19.1321 11.583 19.1386 11.6057 19.1692C11.6283 19.2 11.6214 19.2434 11.5899 19.2666C11.5588 19.2895 11.515 19.2832 11.4925 19.2525C11.4698 19.2217 11.477 19.1782 11.5081 19.1552Z" fill="white"/>
<path d="M11.3864 18.9798C11.4276 18.9494 11.4852 18.9579 11.515 18.9986C11.5448 19.039 11.5356 19.0963 11.4943 19.1268C11.4531 19.157 11.3955 19.1486 11.3657 19.1082C11.3359 19.0675 11.3452 19.0102 11.3864 18.9798Z" fill="white"/>
<path d="M11.6057 18.9596C11.6371 18.9366 11.6808 18.9429 11.7034 18.9738C11.7259 19.0046 11.7188 19.0481 11.6876 19.0711C11.6563 19.094 11.6127 19.0877 11.5901 19.0568C11.5675 19.0262 11.5743 18.9823 11.6057 18.9596Z" fill="white"/>
<path d="M11.5059 18.8226C11.5392 18.7979 11.5856 18.8047 11.6096 18.8373C11.6336 18.8701 11.6263 18.9164 11.593 18.9408C11.5597 18.9652 11.5132 18.9586 11.4892 18.926C11.4652 18.893 11.4727 18.8469 11.5059 18.8226Z" fill="white"/>
<path d="M11.6584 19.1162C11.6819 19.0988 11.715 19.1036 11.732 19.1268C11.749 19.15 11.7437 19.1827 11.7201 19.2002C11.6964 19.2177 11.6636 19.2127 11.6466 19.1894C11.6294 19.1662 11.6348 19.1334 11.6584 19.1162Z" fill="white"/>
<path d="M11.6598 18.8296C11.6817 18.8137 11.7122 18.8182 11.728 18.8396C11.7439 18.8611 11.7388 18.8915 11.7171 18.9077C11.6953 18.9237 11.6646 18.9193 11.6488 18.8976C11.6331 18.8763 11.6379 18.8459 11.6598 18.8296Z" fill="white"/>
<path d="M11.5949 18.6683C11.6238 18.647 11.6641 18.6529 11.6849 18.6815C11.7058 18.7099 11.6993 18.7501 11.6704 18.7711C11.6415 18.7923 11.6013 18.7867 11.5804 18.7583C11.5595 18.7298 11.566 18.6897 11.5949 18.6683Z" fill="white"/>
<path d="M11.5932 18.5355C11.6135 18.5208 11.6419 18.5249 11.6566 18.5448C11.6713 18.5648 11.6667 18.5932 11.6463 18.6078C11.626 18.6229 11.5977 18.6189 11.583 18.5989C11.5683 18.5789 11.5727 18.5503 11.5932 18.5355Z" fill="white"/>
</svg>
