<svg width="24" height="24" viewBox="0 0 24 24" fill="none" xmlns="http://www.w3.org/2000/svg">
<path fill-rule="evenodd" clip-rule="evenodd" d="M13.7065 11.306C13.7065 10.6 14.2802 10.0278 14.9879 10.0278C15.6957 10.0278 16.2694 10.6 16.2694 11.306C16.2694 12.0119 15.6957 12.5823 14.9879 12.5823C14.2802 12.5823 13.7065 12.0119 13.7065 11.306ZM12.3702 8.95246C12.3702 8.32266 12.8825 7.81179 13.5139 7.81179C14.1453 7.81179 14.6574 8.32266 14.6574 8.95246C14.6574 9.58226 14.1453 10.0932 13.5139 10.0932C12.8825 10.0932 12.3702 9.58226 12.3702 8.95246ZM15.7899 6.64289C15.1715 6.64289 14.6724 7.14266 14.6724 7.7576C14.6724 8.37253 15.1715 8.8723 15.7899 8.8723C16.4083 8.8723 16.9074 8.37253 16.9074 7.7576C16.9074 7.14266 16.4064 6.64289 15.7899 6.64289ZM11.0271 7.16989C11.0271 6.64784 11.4518 6.22425 11.9752 6.22425C12.4986 6.22425 12.9232 6.64784 12.9232 7.16989C12.9232 7.69194 12.4986 8.11552 11.9752 8.11552C11.4518 8.11552 11.0271 7.69194 11.0271 7.16989ZM10.2608 5.43875C9.82864 5.43875 9.47855 5.788 9.47668 6.22088C9.47668 6.65189 9.82864 6.99931 10.2608 6.99931C10.6929 6.99931 11.0431 6.65189 11.0431 6.22088C11.0431 5.788 10.6929 5.43875 10.2608 5.43875ZM8.04582 5.85769C8.04582 5.51771 8.32341 5.2409 8.66426 5.2409C9.00512 5.2409 9.28259 5.51771 9.28259 5.85769C9.28259 6.19953 9.00512 6.4763 8.66426 6.4763C8.32341 6.4763 8.04582 6.19953 8.04582 5.85769ZM10.6242 4.12742C10.2964 4.12742 10.0319 4.39309 10.0319 4.72006C10.0319 5.04704 10.2964 5.31084 10.6242 5.31084C10.952 5.31084 11.2165 5.04704 11.2165 4.72006C11.2165 4.39309 10.952 4.12742 10.6242 4.12742ZM11.5291 3.58147C11.5291 3.26007 11.7899 3 12.1121 3C12.4343 3 12.6951 3.26007 12.6951 3.58147C12.6951 3.90288 12.4343 4.16295 12.1121 4.16295C11.7899 4.16295 11.5291 3.90288 11.5291 3.58147ZM10.8075 3.08428C10.5542 3.08428 10.3456 3.29053 10.3456 3.54505C10.3456 3.79771 10.5542 4.00389 10.8075 4.00389C11.0608 4.00389 11.2676 3.79771 11.2676 3.54505C11.2676 3.29053 11.0608 3.08428 10.8075 3.08428ZM9.26581 3.74059C9.26581 3.51208 9.45207 3.32444 9.68303 3.32444C9.91399 3.32444 10.1003 3.51208 10.1003 3.74059C10.1003 3.97096 9.91399 4.15856 9.68303 4.15856C9.45207 4.15856 9.26581 3.97096 9.26581 3.74059ZM9.15631 4.23081C8.90858 4.23081 8.70748 4.43145 8.70748 4.67854C8.70748 4.92749 8.90858 5.12627 9.15631 5.12627C9.40403 5.12627 9.60525 4.92749 9.60525 4.67854C9.60525 4.43145 9.40403 4.23081 9.15631 4.23081ZM7.30051 4.7623C7.30051 4.53565 7.48492 4.35171 7.71216 4.35171C7.93939 4.35171 8.12381 4.53565 8.12381 4.7623C8.12381 4.98896 7.93939 5.17284 7.71216 5.17284C7.48492 5.17284 7.30051 4.98896 7.30051 4.7623ZM8.39547 3.78275C8.22597 3.78275 8.08807 3.92024 8.08807 4.08931C8.08807 4.25837 8.22597 4.39586 8.39547 4.39586C8.56497 4.39586 8.70276 4.25837 8.70276 4.08931C8.70276 3.92024 8.56497 3.78275 8.39547 3.78275ZM6.43205 5.06269C6.43205 4.90849 6.55874 4.78029 6.71706 4.78029C6.87538 4.78029 7.00013 4.90849 7.00013 5.06269C7.00013 5.22061 6.87538 5.34691 6.71706 5.34691C6.55874 5.34691 6.43205 5.22061 6.43205 5.06269ZM7.26078 5.32538C6.98698 5.32538 6.76534 5.54644 6.76534 5.81954C6.76534 6.09264 6.98698 6.31371 7.26078 6.31371C7.53458 6.31371 7.75621 6.09264 7.75621 5.81954C7.75621 5.54644 7.53458 5.32538 7.26078 5.32538ZM5.65937 5.86059C5.65937 5.6488 5.83265 5.47602 6.04499 5.47602C6.25733 5.47602 6.43049 5.6488 6.43049 5.86059C6.43049 6.07424 6.25733 6.24516 6.04499 6.24516C5.83265 6.24516 5.65937 6.07424 5.65937 5.86059ZM5.24765 6.16567C5.1061 6.16567 4.99062 6.28085 4.99062 6.42205C4.99062 6.56324 5.1061 6.67843 5.24765 6.67843C5.38921 6.67843 5.50469 6.56324 5.50469 6.42205C5.50469 6.28085 5.38921 6.16567 5.24765 6.16567ZM13.0411 6.18365C13.0411 5.66903 13.4584 5.25287 13.9743 5.25287C14.4903 5.25287 14.9075 5.66903 14.9075 6.18365C14.9075 6.69826 14.4903 7.11443 13.9743 7.11443C13.4584 7.11443 13.0411 6.69826 13.0411 6.18365ZM17.425 8.68896C16.7749 8.68896 16.2479 9.2147 16.2479 9.86308C16.2479 10.5096 16.7749 11.0354 17.425 11.0354C18.075 11.0354 18.6022 10.5096 18.6022 9.86308C18.6022 9.2147 18.075 8.68896 17.425 8.68896ZM17.6857 7.65045C17.6857 7.08753 18.1439 6.63241 18.7064 6.63241C19.2707 6.63241 19.7271 7.08753 19.7271 7.65045C19.7271 8.21151 19.2707 8.66667 18.7064 8.66667C18.1439 8.66667 17.6857 8.21151 17.6857 7.65045ZM17.2417 4.9313C16.7184 4.9313 16.2936 5.35483 16.2936 5.87688C16.2936 6.40079 16.7184 6.82439 17.2417 6.82439C17.7651 6.82439 18.1898 6.40079 18.1898 5.87688C18.1898 5.35483 17.7651 4.9313 17.2417 4.9313ZM14.5743 4.6535C14.5743 4.16675 14.9692 3.7729 15.4572 3.7729C15.9452 3.7729 16.3401 4.16675 16.3401 4.6535C16.3401 5.14025 15.9452 5.5341 15.4572 5.5341C14.9692 5.5341 14.5743 5.14025 14.5743 4.6535ZM13.68 3.17931C13.2721 3.17931 12.9425 3.50814 12.9425 3.915C12.9425 4.32186 13.2721 4.65074 13.68 4.65074C14.0879 4.65074 14.4176 4.32186 14.4176 3.915C14.4176 3.50814 14.0879 3.17931 13.68 3.17931ZM11.4277 5.20346C11.4277 4.77988 11.7723 4.43432 12.1988 4.43432C12.6254 4.43432 12.9699 4.77988 12.9699 5.20346C12.9699 5.63076 12.6254 5.97447 12.1988 5.97447C11.7723 5.97447 11.4277 5.63076 11.4277 5.20346Z" fill="#A69038"/>
<path fill-rule="evenodd" clip-rule="evenodd" d="M11.4129 19.9837C11.4129 19.4208 11.8711 18.9656 12.4336 18.9656C12.9961 18.9656 13.4543 19.4208 13.4543 19.9837C13.4543 20.5448 12.9961 20.9999 12.4336 20.9999C11.8711 20.9999 11.4129 20.5448 11.4129 19.9837ZM11.1532 16.5963C10.5032 16.5963 9.97603 17.122 9.97603 17.7704C9.97603 18.4169 10.5032 18.9427 11.1532 18.9427C11.8032 18.9427 12.3304 18.4169 12.3304 17.7704C12.3304 17.122 11.8032 16.5963 11.1532 16.5963ZM13.7963 16.2954C13.1779 16.2954 12.6787 16.7952 12.6787 17.4101C12.6787 18.0269 13.1779 18.5248 13.7963 18.5248C14.4147 18.5248 14.9138 18.0269 14.9138 17.4101C14.9138 16.7952 14.4147 16.2954 13.7963 16.2954ZM11.1194 16.2224C11.8253 16.2224 12.399 15.6501 12.399 14.9442C12.399 14.2382 11.8253 13.666 11.1194 13.666C10.4098 13.666 9.83801 14.2382 9.83801 14.9442C9.83801 15.6501 10.4098 16.2224 11.1194 16.2224ZM12.7525 14.8484C12.7525 14.2186 13.2646 13.7077 13.896 13.7077C14.5274 13.7077 15.0397 14.2186 15.0397 14.8484C15.0397 15.4782 14.5274 15.989 13.896 15.989C13.2646 15.989 12.7525 15.4782 12.7525 14.8484ZM15.2662 14.4106C15.2662 13.8886 15.6908 13.465 16.2142 13.465C16.7376 13.465 17.1623 13.8886 17.1623 14.4106C17.1623 14.9326 16.7376 15.3562 16.2142 15.3562C15.6908 15.3562 15.2662 14.9326 15.2662 14.4106ZM17.8995 12.6232C17.4674 12.6232 17.1154 12.9724 17.1154 13.4053C17.1154 13.8363 17.4674 14.1838 17.8995 14.1838C18.3316 14.1838 18.6837 13.8363 18.6837 13.4053C18.6837 12.9724 18.3316 12.6232 17.8995 12.6232ZM18.3916 12.2054C18.3916 11.8636 18.671 11.5868 19.0118 11.5868C19.3527 11.5868 19.6302 11.8636 19.6302 12.2054C19.6302 12.5454 19.3527 12.8222 19.0118 12.8222C18.671 12.8222 18.3916 12.5454 18.3916 12.2054ZM19.0194 13.8766C18.6916 13.8766 18.4271 14.1423 18.4271 14.4674C18.4271 14.7962 18.6916 15.06 19.0194 15.06C19.3472 15.06 19.6117 14.7962 19.6117 14.4674C19.6117 14.1423 19.3472 13.8766 19.0194 13.8766ZM18.6764 16.3182C18.6764 15.9968 18.9372 15.7366 19.2594 15.7366C19.5817 15.7366 19.8424 15.9968 19.8424 16.3182C19.8424 16.6396 19.5817 16.8996 19.2594 16.8996C18.9372 16.8996 18.6764 16.6396 18.6764 16.3182ZM19.9468 14.7539C19.6916 14.7539 19.4849 14.9601 19.4849 15.2147C19.4849 15.4673 19.6916 15.6736 19.9468 15.6736C20.2001 15.6736 20.4069 15.4673 20.4069 15.2147C20.4069 14.9601 20.2001 14.7539 19.9468 14.7539ZM19.9209 14.1419C19.9209 13.9134 20.1072 13.7257 20.3382 13.7257C20.5691 13.7257 20.7554 13.9134 20.7554 14.1419C20.7554 14.3741 20.5691 14.5599 20.3382 14.5599C20.1072 14.5599 19.9209 14.3741 19.9209 14.1419ZM19.7897 12.7724C19.542 12.7724 19.3408 12.973 19.3408 13.2201C19.3408 13.469 19.542 13.6678 19.7897 13.6678C20.0374 13.6678 20.2385 13.469 20.2385 13.2201C20.2385 12.973 20.0374 12.7724 19.7897 12.7724ZM20.0263 11.93C20.0263 11.7034 20.2107 11.5194 20.438 11.5194C20.6652 11.5194 20.8496 11.7034 20.8496 11.93C20.8496 12.1567 20.6652 12.3406 20.438 12.3406C20.2107 12.3406 20.0263 12.1567 20.0263 11.93ZM20.6924 12.5502C20.5229 12.5502 20.3852 12.6877 20.3852 12.8567C20.3852 13.0258 20.5229 13.1633 20.6924 13.1633C20.8619 13.1633 20.9998 13.0258 20.9998 12.8567C20.9998 12.6877 20.8619 12.5502 20.6924 12.5502ZM20.3878 10.9198C20.3878 10.7656 20.5145 10.6374 20.6728 10.6374C20.8311 10.6374 20.9559 10.7656 20.9559 10.9198C20.9559 11.0777 20.8311 11.2059 20.6728 11.2059C20.5145 11.2059 20.3878 11.0777 20.3878 10.9198ZM19.7455 10.5173C19.4717 10.5173 19.25 10.7383 19.25 11.0114C19.25 11.2845 19.4717 11.5056 19.7455 11.5056C20.0193 11.5056 20.2409 11.2845 20.2409 11.0114C20.2409 10.7383 20.0193 10.5173 19.7455 10.5173ZM19.9321 9.94151C19.9321 9.72972 20.1053 9.55694 20.3176 9.55694C20.5299 9.55694 20.7032 9.72972 20.7032 9.94151C20.7032 10.1552 20.5299 10.3261 20.3176 10.3261C20.1053 10.3261 19.9321 10.1552 19.9321 9.94151ZM20.2272 8.71452C20.0856 8.71452 19.9701 8.82971 19.9701 8.9709C19.9701 9.1121 20.0856 9.22916 20.2272 9.22916C20.3687 9.22916 20.4842 9.1121 20.4842 8.9709C20.4842 8.82971 20.3687 8.71452 20.2272 8.71452ZM15.1395 16.6299C15.1395 16.1153 15.5567 15.6991 16.0726 15.6991C16.5885 15.6991 17.0058 16.1153 17.0058 16.6299C17.0058 17.1445 16.5885 17.5606 16.0726 17.5606C15.5567 17.5606 15.1395 17.1445 15.1395 16.6299ZM14.7026 18.6604C14.1792 18.6604 13.7545 19.084 13.7545 19.606C13.7545 20.1299 14.1792 20.5534 14.7026 20.5534C15.226 20.5534 15.6506 20.1299 15.6506 19.606C15.6506 19.084 15.226 18.6604 14.7026 18.6604ZM15.7765 18.6761C15.7765 18.1893 16.1714 17.7955 16.6594 17.7955C17.1474 17.7955 17.5422 18.1893 17.5422 18.6761C17.5422 19.1628 17.1474 19.5567 16.6594 19.5567C16.1714 19.5567 15.7765 19.1628 15.7765 18.6761ZM18.1906 16.7729C17.7827 16.7729 17.4529 17.1018 17.4529 17.5086C17.4529 17.9155 17.7827 18.2462 18.1906 18.2462C18.5985 18.2462 18.9282 17.9155 18.9282 17.5086C18.9282 17.1018 18.5985 16.7729 18.1906 16.7729ZM17.0381 15.5846C17.0381 15.161 17.3827 14.8154 17.8093 14.8154C18.2358 14.8154 18.5804 15.161 18.5804 15.5846C18.5804 16.0119 18.2358 16.3556 17.8093 16.3556C17.3827 16.3556 17.0381 16.0119 17.0381 15.5846Z" fill="#293F9C"/>
<path d="M5.99135 14.472C5.56482 14.472 5.2183 14.8175 5.2183 15.2411C5.2183 15.6684 5.56482 16.0121 5.99135 16.0121C6.41788 16.0121 6.76247 15.6684 6.76247 15.2411C6.76247 14.8175 6.41788 14.472 5.99135 14.472ZM4.13058 13.8719C3.72267 13.8719 3.393 14.2007 3.393 14.6076C3.393 15.0145 3.72267 15.3433 4.13058 15.3433C4.53849 15.3433 4.87009 15.0145 4.87009 14.6076C4.87009 14.2007 4.53849 13.8719 4.13058 13.8719ZM3.88287 11.8209C3.39487 11.8209 3 12.2147 3 12.7015C3 13.1882 3.39487 13.584 3.88287 13.584C4.37086 13.584 4.76573 13.1882 4.76573 12.7015C4.76573 12.2147 4.37086 11.8209 3.88287 11.8209ZM4.05419 9.60264C3.52894 9.60264 3.10436 10.0262 3.10436 10.5483C3.10436 11.0703 3.52894 11.4957 4.05419 11.4957C4.57757 11.4957 5.00231 11.0703 5.00231 10.5483C5.00231 10.0262 4.57757 9.60264 4.05419 9.60264ZM4.86077 7.38253C4.29641 7.38253 3.84001 7.83769 3.84001 8.39875C3.84001 8.96167 4.29641 9.41685 4.86077 9.41685C5.42513 9.41685 5.88142 8.96167 5.88142 8.39875C5.88142 7.83769 5.42513 7.38253 4.86077 7.38253ZM7.42365 7.2265C6.7736 7.2265 6.24646 7.75225 6.24646 8.40063C6.24646 9.04715 6.7736 9.57293 7.42365 9.57293C8.07183 9.57293 8.59891 9.04715 8.59891 8.40063C8.59891 7.75225 8.07183 7.2265 7.42365 7.2265ZM5.95406 12.2872C5.43813 12.2872 5.01902 12.7052 5.01902 13.2198C5.01902 13.7326 5.43813 14.1506 5.95406 14.1506C6.46814 14.1506 6.88718 13.7325 6.88718 13.2179C6.88718 12.7052 6.46814 12.2872 5.95406 12.2872ZM10.5248 20.3798C10.3814 20.3798 10.266 20.4969 10.266 20.6381C10.266 20.7793 10.3814 20.8945 10.5248 20.8945C10.6664 20.8945 10.7819 20.7793 10.7819 20.6381C10.7819 20.495 10.6664 20.3798 10.5248 20.3798ZM9.63831 19.8467C9.42412 19.8467 9.2527 20.0176 9.2527 20.2294C9.2527 20.443 9.42412 20.6139 9.63831 20.6139C9.85065 20.6139 10.0238 20.443 10.0238 20.2294C10.0238 20.0176 9.85065 19.8467 9.63831 19.8467ZM8.99384 18.7059C8.72004 18.7059 8.49841 18.9289 8.49841 19.202C8.49841 19.4751 8.72004 19.6943 8.99384 19.6943C9.26764 19.6943 9.49109 19.4751 9.49109 19.202C9.49109 18.9289 9.26764 18.7059 8.99384 18.7059ZM8.61016 19.763C8.45184 19.763 8.32516 19.8894 8.32516 20.0473C8.32516 20.2034 8.45184 20.3297 8.61016 20.3297C8.76662 20.3297 8.89323 20.2034 8.89323 20.0473C8.89323 19.8894 8.76662 19.763 8.61016 19.763ZM6.92446 18.7803C6.75497 18.7803 6.61718 18.9177 6.61718 19.0868C6.61718 19.2558 6.75497 19.3933 6.92446 19.3933C7.09396 19.3933 7.23175 19.2558 7.23175 19.0868C7.23175 18.9177 7.09396 18.7803 6.92446 18.7803ZM7.85019 18.9289C7.62295 18.9289 7.43854 19.1128 7.43854 19.3395C7.43854 19.5661 7.62295 19.7501 7.85019 19.7501C8.07929 19.7501 8.26184 19.5661 8.26184 19.3395C8.26184 19.1128 8.07929 18.9289 7.85019 18.9289ZM7.05486 17.6842C6.80713 17.6842 6.60592 17.8848 6.60592 18.1319C6.60592 18.3808 6.80709 18.5815 7.05668 18.5815C7.3044 18.5815 7.50561 18.3808 7.50561 18.1319C7.50561 17.8848 7.30445 17.6842 7.05486 17.6842ZM5.97828 17.7306C5.74918 17.7306 5.56106 17.9183 5.56106 18.1486C5.56106 18.379 5.74918 18.5648 5.97828 18.5648C6.2111 18.5648 6.39731 18.379 6.39731 18.1486C6.39731 17.9183 6.2111 17.7306 5.97828 17.7306ZM5.24445 16.8147C4.99114 16.8147 4.78437 17.0209 4.78437 17.2736C4.78437 17.53 4.99114 17.7343 5.24445 17.7343C5.49963 17.7343 5.70453 17.53 5.70453 17.2736C5.70453 17.0209 5.49963 16.8147 5.24445 16.8147ZM4.63158 15.5439C4.30936 15.5439 4.04862 15.804 4.04862 16.1254C4.04862 16.4468 4.30936 16.707 4.63158 16.707C4.95381 16.707 5.21467 16.4468 5.21467 16.1254C5.21467 15.804 4.95381 15.5439 4.63158 15.5439ZM6.35639 16.2536C6.02857 16.2536 5.7641 16.5174 5.7641 16.8444C5.7641 17.1714 6.02857 17.437 6.35639 17.437C6.6842 17.437 6.94868 17.1714 6.94868 16.8444C6.94868 16.5174 6.6842 16.2536 6.35639 16.2536ZM8.32698 17.3516C7.98426 17.3516 7.70865 17.6284 7.70865 17.9703C7.70865 18.3102 7.98426 18.5871 8.32698 18.5871C8.66783 18.5871 8.94541 18.3102 8.94541 17.9703C8.94541 17.6284 8.66783 17.3516 8.32698 17.3516ZM7.84087 15.6294C7.40875 15.6294 7.05861 15.9787 7.05861 16.4097C7.05861 16.8407 7.40875 17.1899 7.84087 17.1899C8.27485 17.1899 8.62312 16.8407 8.62312 16.4097C8.62312 15.9787 8.27485 15.6294 7.84087 15.6294ZM7.80926 13.5059C7.28587 13.5059 6.86114 13.9295 6.86114 14.4515C6.86114 14.9736 7.28587 15.3972 7.80926 15.3972C8.33265 15.3972 8.75727 14.9736 8.75727 14.4515C8.75727 13.9295 8.33265 13.5059 7.80926 13.5059ZM6.41414 9.74937C5.79576 9.74937 5.2947 10.2473 5.2947 10.8641C5.2947 11.479 5.79576 11.9788 6.41414 11.9788C7.02879 11.9788 7.53165 11.479 7.53165 10.8641C7.53165 10.2473 7.02879 9.74937 6.41414 9.74937ZM8.58777 11.0907C7.95635 11.0907 7.44411 11.6017 7.44411 12.2315C7.44411 12.8613 7.95635 13.3721 8.58777 13.3721C9.21918 13.3721 9.73142 12.8613 9.73142 12.2315C9.73142 11.6017 9.21918 11.0907 8.58777 11.0907ZM9.89342 8.50466C9.1875 8.50466 8.61198 9.07685 8.61198 9.78282C8.61198 10.4888 9.1875 11.0592 9.89342 11.0592C10.6012 11.0592 11.1749 10.4888 11.1749 9.78282C11.1749 9.07685 10.6012 8.50466 9.89342 8.50466Z" fill="#293F9C"/>
</svg>
