<svg width="24" height="24" viewBox="0 0 24 24" fill="none" xmlns="http://www.w3.org/2000/svg">
<path d="M18.3643 13.8797C18.343 13.9238 18.3009 13.9542 18.2526 13.9599C17.1506 14.089 15.9798 13.9342 15.5284 13.8626C14.7748 13.1022 13.9591 12.2563 13.3577 11.5171C13.296 11.4414 13.293 11.3331 13.3497 11.2533C14.2074 10.0456 14.9928 9.08725 15.3248 8.7078C16.2735 8.49896 17.2195 8.31408 17.8583 8.28772C17.9066 8.28576 17.9525 8.3082 17.9807 8.34775C18.8042 9.50461 19.3932 10.6132 19.5822 11.0182C19.2041 12.0444 18.7492 13.081 18.3643 13.8797ZM17.313 15.8371C16.7056 16.8643 16.2442 17.4835 16.0963 17.6718C15.8956 17.958 15.384 18.7035 14.5892 19.4576C14.5385 19.5058 14.4724 19.5334 14.4027 19.5365C13.4074 19.5784 12.482 19.5079 12.1216 19.4285C11.8165 19.301 11.1063 18.9784 10.2669 18.5096C10.1936 18.4688 10.1505 18.3891 10.156 18.3051C10.1998 17.6478 10.4063 16.7116 10.5889 15.7216C11.0405 14.9207 11.5086 14.0068 11.9941 13.2563C12.0452 13.1773 12.1409 13.1405 12.2312 13.1655C13.6847 13.5662 14.946 13.8706 15.458 13.9869C16.1591 14.8081 16.8385 15.3855 17.2956 15.7434C17.324 15.7657 17.3314 15.8059 17.313 15.8371ZM8.51906 17.2645C8.44541 17.3106 8.35161 17.3081 8.28084 17.2575C7.64795 16.805 6.89281 16.2268 6.26384 15.6332C5.89282 14.9928 5.60669 14.1732 5.40696 13.4752C5.39404 13.4302 5.40399 13.3816 5.43331 13.3454C6.13906 12.469 6.98609 11.7756 7.34019 11.5116C8.13904 11.8597 9.05596 12.1668 9.85805 12.4362C9.94007 12.4637 9.99801 12.538 10.0048 12.6248C10.1179 14.0661 10.3793 15.2316 10.4491 15.677C10.1497 16.0002 9.36713 16.7329 8.51906 17.2645ZM5.00373 11.5936C4.89902 10.9132 4.83017 10.1987 4.82258 9.87141C4.80522 9.11579 4.92406 8.44656 5.06211 7.82701C5.0848 7.72558 5.13689 7.63363 5.21289 7.56337C5.61385 7.19242 6.33889 6.53801 6.79647 6.24157C7.2278 5.96225 8.42656 5.57136 8.92089 5.42636C9.0167 5.39815 9.11879 5.44117 9.16809 5.52866C9.22751 5.63412 9.28964 5.73881 9.35552 5.84187C9.7447 6.45379 10.1736 6.98064 10.3542 7.20876C10.1148 8.16897 10.013 9.24554 9.96669 10.1537C9.96232 10.2389 9.90857 10.3135 9.82978 10.3445C8.57909 10.8373 7.63381 11.2228 7.31619 11.3709C6.45686 11.4075 5.63837 11.5554 5.08593 11.6529C5.04675 11.6599 5.00984 11.633 5.00373 11.5936ZM11.3086 4.99942C11.3428 4.94582 11.3988 4.91009 11.4614 4.9017C12.7476 4.73011 13.9242 4.70484 14.3765 4.71747C15.1995 5.27025 16.0038 5.99962 16.6457 6.69129C16.6906 6.73976 16.6973 6.81276 16.6618 6.86875C16.2038 7.59223 15.5377 8.28685 15.2451 8.58938C14.1599 8.84877 13.0095 9.22636 12.0757 9.53587C11.9849 9.56593 11.8851 9.53184 11.8308 9.45231C11.1223 8.41279 10.672 7.52164 10.4955 7.191C10.6871 6.32437 10.9551 5.55262 11.3086 4.99942ZM19.8997 13.5327C19.8766 13.5431 19.8502 13.5268 19.8489 13.5014C19.795 12.4343 19.6977 11.3975 19.6469 11.0182C19.651 10.0967 19.4997 9.14041 19.3487 8.43523C19.3433 8.40974 19.3656 8.38696 19.391 8.39209C20.2544 8.5701 20.5315 8.8966 20.5315 8.8966C20.0744 7.86176 19.4159 7.08195 18.7001 6.49257C18.0882 5.19867 17.3838 4.60026 17.3838 4.60026C17.4408 4.88644 17.4015 5.21011 17.3006 5.54413C17.2942 5.56537 17.2701 5.57551 17.2503 5.56581C16.0774 4.98667 14.8662 4.72216 14.3977 4.65593C13.6976 4.31232 12.933 4.08496 12.3112 3.91262C12.2946 3.90804 12.2901 3.88636 12.3034 3.87514C13.1287 3.18357 13.8879 3.00752 13.8879 3.00752C12.5439 2.95316 11.3871 3.19861 10.4198 3.57391C8.97464 3.45702 8.05405 3.71075 8.05405 3.71075C8.05405 3.71075 8.45309 4.19292 8.60824 4.46135C8.62691 4.49382 8.61714 4.53543 8.58651 4.55679C7.67753 5.193 7.02535 5.89187 6.7682 6.18286C6.48173 6.22196 5.98557 6.29114 5.55224 6.399C5.53497 6.40335 5.52031 6.38581 5.52729 6.36926C5.96123 5.32592 6.43426 4.7483 6.43426 4.7483C6.43426 4.7483 3.64511 6.74739 3.1164 10.3396C3.1164 10.3396 3.34607 9.70288 4.12268 8.73776C4.13289 8.72512 4.15269 8.72763 4.15933 8.74256C4.37939 9.23431 4.63096 9.67096 4.7574 9.87141C4.33027 10.5654 4.03542 11.3221 3.85383 11.9413C3.84755 11.9628 3.83149 11.9801 3.81055 11.988C3.16457 12.2355 3 12.4717 3 12.4717C3.10044 12.8179 3.29764 13.1553 3.54677 13.4734C3.56841 13.5009 3.5794 13.5353 3.57792 13.5704C3.50933 15.1035 3.99938 16.1125 3.99938 16.1125C4.11002 15.5771 4.32669 15.057 4.60033 14.5689C4.61124 14.5494 4.63689 14.5446 4.65417 14.5584C5.29169 15.0694 5.95207 15.5162 6.2141 15.6749C6.34927 16.0232 6.73626 16.927 7.25336 17.8543C7.26418 17.8739 7.25537 17.8987 7.23451 17.9063C6.61532 18.134 5.98008 18.237 5.39762 18.0939C5.39762 18.0939 6.10006 18.977 8.26688 19.3536C8.86801 20.0706 9.59959 20.6643 10.4539 20.8705C10.4539 20.8705 10.2035 20.5927 10.1416 19.5574C10.1403 19.5364 10.157 19.5185 10.1779 19.5189C10.7128 19.527 11.4386 19.5387 12.1029 19.4901C12.3383 19.6774 12.8521 20.0885 13.3532 20.3506C13.3782 20.3636 13.3797 20.399 13.3557 20.4138C12.4749 20.9511 11.8887 20.9979 11.8887 20.9979C15.8788 21.0837 18.2745 18.4582 18.2745 18.4582C17.6173 18.8944 16.8583 19.1656 16.1028 19.3272C16.0774 19.3327 16.055 19.3099 16.0603 19.2842C16.2007 18.5994 16.1613 17.9374 16.1514 17.7041C17.0981 17.4671 17.9239 17.0404 18.5354 16.6041C18.5477 16.5953 18.5642 16.5952 18.5766 16.6039C18.8312 16.7826 19.049 16.983 19.2663 17.3167C19.2663 17.3167 19.6803 16.7258 19.8227 15.3568C20.8476 14.0068 21 12.6251 21 12.6251C20.7428 13.0308 20.3545 13.3232 19.8997 13.5327Z" fill="#191919"/>
</svg>
