<svg width="20" height="20" viewBox="0 0 20 20" fill="none" xmlns="http://www.w3.org/2000/svg">
<path fill-rule="evenodd" clip-rule="evenodd" d="M2.5 1.66667C2.96024 1.66667 3.33333 2.03977 3.33333 2.5V7.9227C4.81405 8.06595 6.69525 8.59659 8.33707 9.79915C10.1968 11.1613 11.7004 13.3529 11.9845 16.6667H17.5C17.9602 16.6667 18.3333 17.0398 18.3333 17.5C18.3333 17.9602 17.9602 18.3333 17.5 18.3333H5.83333C3.53215 18.3333 1.66667 16.4679 1.66667 14.1667V2.5C1.66667 2.03977 2.03976 1.66667 2.5 1.66667ZM10.3108 16.6667C10.0389 13.9163 8.79867 12.2032 7.35222 11.1437C6.04748 10.188 4.53739 9.73936 3.33333 9.59859V14.1667C3.33333 15.5474 4.45262 16.6667 5.83333 16.6667H10.3108Z" fill="#8C8C8C"/>
</svg>
