<svg width="24" height="24" viewBox="0 0 24 24" fill="none" xmlns="http://www.w3.org/2000/svg">
<path d="M16.6092 5.65234L16.1308 7.28038C17.9336 8.60024 19.1074 10.7307 19.1074 13.1311C19.1074 15.7542 17.7068 18.0563 15.6143 19.3289L16.1666 20.8736C18.8816 19.3598 20.7181 16.4602 20.7181 13.1312C20.7181 9.98635 19.0793 7.2245 16.6092 5.65234ZM4.61075 13.1311C4.61075 10.7307 5.78453 8.60024 7.58738 7.28038L7.10888 5.65234C4.63883 7.22445 3 9.98635 3 13.1312C3 16.4602 4.83662 19.3598 7.55153 20.8736L8.10382 19.3289C6.0113 18.0563 4.61075 15.7542 4.61075 13.1311Z" fill="#FF6900"/>
<path d="M12.8972 19.5343L11.8502 14.8363L10.8033 19.5343H12.8972ZM8.87352 20.3397L8.27982 22H15.4208L14.827 20.3397H8.87352ZM14.539 19.5343L12.8167 14.718L16.0599 3.68192L12.1187 2V13.6961L13.4198 19.5343H14.539ZM9.16154 19.5343H10.2807L11.5818 13.6961V2L7.64062 3.68192L10.8838 14.718L9.16154 19.5343Z" fill="#191919"/>
</svg>
