<svg width="21" height="20" viewBox="0 0 21 20" fill="none" xmlns="http://www.w3.org/2000/svg">
<path fill-rule="evenodd" clip-rule="evenodd" d="M6.58333 3.33334C5.20262 3.33334 4.08333 4.45263 4.08333 5.83334V14.4787C4.08333 14.9389 3.71024 15.312 3.25 15.312C2.78976 15.312 2.41667 14.9389 2.41667 14.4787V5.83334C2.41667 3.53215 4.28215 1.66667 6.58333 1.66667H14.9167C17.2179 1.66667 19.0833 3.53215 19.0833 5.83334V14.4787C19.0833 14.9389 18.7102 15.312 18.25 15.312C17.7898 15.312 17.4167 14.9389 17.4167 14.4787V5.83334C17.4167 4.45263 16.2974 3.33334 14.9167 3.33334H6.58333Z" fill="#8C8C8C"/>
<path fill-rule="evenodd" clip-rule="evenodd" d="M10.8916 8.97075C11.3518 8.97075 11.7249 9.34384 11.7249 9.80408V17.5C11.7249 17.9602 11.3518 18.3333 10.8916 18.3333C10.4314 18.3333 10.0583 17.9602 10.0583 17.5V9.80408C10.0583 9.34384 10.4314 8.97075 10.8916 8.97075Z" fill="#8C8C8C"/>
<path fill-rule="evenodd" clip-rule="evenodd" d="M9.50531 8.55885C10.1331 7.77036 11.3116 7.71514 12.0103 8.44147L14.4832 11.0121C14.8023 11.3437 14.7921 11.8713 14.4604 12.1904C14.1287 12.5094 13.6012 12.4992 13.2821 12.1675L10.8092 9.59694L8.80938 12.1088C8.52272 12.4689 7.99845 12.5284 7.63839 12.2417C7.27832 11.9551 7.21882 11.4308 7.50548 11.0708L9.50531 8.55885Z" fill="#8C8C8C"/>
</svg>
