<svg width="24" height="24" viewBox="0 0 24 24" fill="none" xmlns="http://www.w3.org/2000/svg">
<path d="M7.11295 3.65335C7.99129 4.06669 8.57255 4.57044 8.67588 4.64794C8.63713 4.41544 8.4563 3.31751 8.34004 2.64584C8.8438 2.99459 10.058 3.83418 10.4455 4.10544C10.6005 3.6146 11.1688 2 11.1688 2C11.1688 2 12.1763 3.6146 12.3313 3.88585C12.5509 3.67918 13.7393 2.33584 14.0493 2C14.1139 2.76209 14.1655 3.87294 14.1914 4.02794C14.2559 3.95044 14.7209 3.3046 15.483 2.69751C15.1472 3.35626 14.9922 4.26044 14.9147 4.9967C14.1526 4.77711 13.3518 4.66086 12.538 4.66086C10.9622 4.66086 9.46381 5.0742 8.17213 5.81045C7.95254 5.10003 7.60379 4.22169 7.11295 3.65335ZM19.2289 17.526L18.5314 16.751C18.3376 18.8306 17.3043 20.6131 15.4314 21.8531L15.1343 20.7294C13.5326 21.8789 10.8072 22.6152 8.4563 21.2977C8.75338 19.8123 8.9988 18.301 8.4563 16.4926C7.1517 18.4947 6.0021 19.2956 6.0021 19.2956C5.12376 17.8102 5.20126 14.8522 5.4596 13.9739L4 14.426C4 13.4314 4.72334 11.3259 5.75668 10.1376L4.86543 9.9955C5.48543 8.72965 6.40252 7.64464 7.55212 6.80505C7.20337 7.37339 7.20337 8.6909 8.19796 9.19466C7.7717 8.4584 7.73295 7.54131 8.15921 7.05047C8.6113 6.55963 9.34755 6.74046 9.81256 7.11505C9.67047 6.70171 9.24422 6.18504 8.65005 6.14629C9.81256 5.5392 11.1688 5.21628 12.5638 5.21628C12.8351 5.21628 13.0934 5.24212 13.3388 5.25503C13.7522 5.41003 14.3464 5.99129 14.6305 6.36588C14.6305 6.36588 14.6564 5.93962 14.4109 5.43587C15.9351 5.81045 16.6714 6.43046 16.9685 6.72755C17.033 7.3863 17.2268 7.77381 17.4981 8.40673C17.0072 7.86423 15.7672 6.96005 15.1601 6.75338C15.1601 6.75338 15.0955 7.32172 14.9018 7.59297C13.7134 6.74046 13.1451 6.52088 13.1451 6.52088C11.8276 6.65005 11.0138 7.16672 10.5488 7.55422L10.9363 7.89006C10.1613 8.12256 9.64464 8.80715 9.64464 8.80715C9.64464 8.83298 10.3421 8.9234 10.3421 8.9234C10.3421 8.9234 10.2646 9.73716 11.298 10.2538C12.1763 10.6801 13.4163 10.1505 14.6047 10.6284C13.8297 9.73716 13.3001 9.32382 13.3001 9.32382C13.3001 9.32382 12.9901 9.25924 12.7705 9.25924C12.4993 9.25924 12.0859 9.32382 11.6597 9.14299C11.4401 9.06549 11.1947 8.91049 11.0138 8.79423C11.0138 8.79423 11.5563 8.2259 12.3572 8.10964C12.3572 8.10964 13.0805 8.3034 13.6488 8.72965C14.0234 8.35506 14.4239 8.3809 14.4239 8.3809C14.4239 8.3809 14.0364 8.75548 14.1526 9.18174C14.7209 9.68549 15.3409 10.4088 15.3409 10.4088C15.961 10.0601 17.3301 10.1376 17.6143 10.4734C17.2656 10.0084 16.736 9.63383 16.3485 9.31091C16.3097 9.13007 15.8576 8.5359 15.806 8.47131C15.806 8.47131 16.2193 8.6134 16.581 8.9234C16.6843 8.7684 16.891 8.6134 17.1493 8.54882C17.4206 8.78132 17.4851 9.13007 17.4593 9.19466C17.3431 9.34966 17.201 9.41424 17.201 9.41424L17.8597 10.1376L17.9243 9.60799C19.4614 11.7909 20.301 14.3355 19.2289 17.526ZM16.3355 12.8114V11.6876C16.3355 11.6876 15.8318 11.5326 15.2893 11.1063C14.2043 11.2613 12.8997 12.3593 12.8997 12.3593C12.8997 12.3593 13.3518 13.1989 13.8297 14.116C14.6822 14.2064 15.948 13.1472 16.3355 12.8114ZM17.4206 14.8522C17.4206 14.8522 17.3431 14.3872 16.9555 13.961L16.116 13.9868C16.116 13.9868 14.9664 14.9555 14.2818 14.9814C14.2818 14.9814 14.6693 15.7047 14.863 16.0664C15.2505 15.9889 15.9093 15.6789 16.1935 15.3689C16.1935 15.3689 16.3743 15.9501 16.3355 16.6347C16.723 16.3893 17.2526 15.7951 17.4206 14.8522ZM17.7693 11.1322C17.3431 11.4809 16.9943 11.7005 16.9943 11.7005V12.8243C17.3043 13.1601 17.6014 13.4443 17.8339 13.948C18.2601 13.1989 18.1568 12.0751 17.7693 11.1322Z" fill="#191919"/>
</svg>
