<svg width="24" height="24" viewBox="0 0 24 24" fill="none" xmlns="http://www.w3.org/2000/svg">
<path fill-rule="evenodd" clip-rule="evenodd" d="M21.0687 17.458L20.1279 14.2516C20.0895 14.1172 19.9934 14.0213 19.8591 13.9828C19.7246 13.9444 19.5903 13.9828 19.4943 14.0596C19.4751 14.0787 18.7646 14.674 16.8255 14.6356L16.1343 11.5828C16.4798 11.5444 16.7679 11.5253 16.9791 11.5253C17.2863 11.5061 17.5551 11.3716 17.747 11.122C17.9198 10.8723 17.9967 10.5653 17.9198 10.2772C16.9791 6.68675 13.619 4.28675 9.89421 4.57475C6.13101 4.86269 3.05901 8.04995 2.88621 11.8132C2.80947 13.7523 3.44294 15.6532 4.71018 17.1124C5.09414 17.5539 5.63174 17.8803 6.24621 18.0532C7.09105 18.2835 8.66538 18.7253 9.89421 19.0899C9.90211 19.0919 9.9198 19.0973 9.94635 19.1055C10.1777 19.1766 11.0822 19.4548 12.0638 19.4548C12.7935 19.4548 13.5423 19.3011 14.1183 18.8403C14.5983 18.437 14.8671 17.8803 14.9247 17.1506C15.5392 17.2658 16.0959 17.3619 16.6143 17.4003L16.768 18.0724C16.9024 18.6868 17.4592 19.1284 18.0928 19.1284H19.8207C20.2431 19.1284 20.608 18.9363 20.8575 18.61C21.1071 18.2644 21.1839 17.8613 21.0687 17.458ZM15.9807 14.5973C15.5775 14.5589 15.1359 14.4821 14.6559 14.3861C14.4255 12.9461 14.3295 12.1206 14.5023 11.8901C14.5698 11.8055 14.816 11.7656 15.1097 11.718C15.1497 11.7115 15.1905 11.7049 15.2319 11.698C15.2704 11.698 15.2895 11.698 15.3087 11.6788L15.9807 14.5973ZM13.619 18.2261C12.7166 18.9749 10.8158 18.5716 10.1438 18.3413C8.8959 17.9573 7.30227 17.5157 6.45743 17.2852C5.9966 17.1508 5.6126 16.9204 5.32467 16.594C4.1919 15.2692 3.61587 13.5989 3.6926 11.8516C3.84622 8.47247 6.59177 5.63084 9.9518 5.36204C10.1439 5.34289 10.3166 5.34289 10.4894 5.34289C13.5998 5.34289 16.3262 7.43565 17.0942 10.4885C17.1112 10.5564 17.0831 10.6095 17.063 10.6473L17.0558 10.6613C17.0366 10.6997 16.979 10.738 16.9021 10.738C16.4989 10.7572 15.8461 10.7956 15.0973 10.9108L15.0717 10.9144C14.5458 10.9897 14.114 11.0515 13.8495 11.4293C13.4655 11.9669 13.5807 12.7926 14.0223 15.5765L14.099 16.0757C14.2526 17.0933 14.099 17.8228 13.619 18.2261ZM14.9247 16.3253C14.9148 16.2555 14.91 16.1909 14.905 16.1235C14.9004 16.0609 14.8955 15.9959 14.8863 15.922L14.8095 15.4228C14.8 15.3846 14.7952 15.3511 14.7904 15.3177C14.7856 15.2839 14.7808 15.2501 14.7711 15.2116C15.2703 15.3076 15.7503 15.3652 16.1535 15.4037L16.4223 16.5557C15.9807 16.5173 15.4815 16.4404 14.9247 16.3253ZM16.9983 15.442C18.2462 15.442 19.0528 15.1924 19.5135 14.962L19.8399 16.1141C19.5902 16.2868 18.8031 16.6517 17.2671 16.6325L16.9983 15.442ZM20.2238 18.1301C20.1278 18.2645 19.9935 18.3221 19.8206 18.3221H18.0926C17.8238 18.3221 17.5935 18.1493 17.5359 17.8805L17.4207 17.4197C18.7647 17.4197 19.6095 17.1318 20.0511 16.9013L20.2815 17.6885C20.3583 17.842 20.3199 17.9956 20.2238 18.1301ZM10.5087 7.20523C10.7199 7.20523 10.912 7.03246 10.912 6.80196C10.912 6.59075 10.7392 6.39869 10.5087 6.39869C10.3551 6.39869 10.2015 6.39869 10.0479 6.41784C7.20631 6.64847 4.88308 9.04848 4.74868 11.8902C4.72953 12.1014 4.9023 12.2935 5.13264 12.3126H5.1518C5.363 12.3126 5.53576 12.1398 5.55506 11.9286C5.67024 9.47102 7.66713 7.41662 10.1055 7.22462C10.2399 7.20534 10.3742 7.20523 10.5087 7.20523ZM9.10715 15.5764C9.10715 14.8084 9.74079 14.1748 10.5087 14.1748C11.2767 14.1748 11.9103 14.8085 11.9103 15.5764C11.9103 16.3444 11.2766 16.978 10.5087 16.978C9.74075 16.978 9.10715 16.3443 9.10715 15.5764ZM9.89425 15.5956C9.89425 15.9219 10.1823 16.1907 10.5087 16.1907C10.8351 16.1907 11.1039 15.9219 11.1232 15.5956C11.1232 15.2499 10.8351 14.9811 10.5087 14.9811C10.163 14.9811 9.89425 15.2692 9.89425 15.5956Z" fill="#191919"/>
<path fill-rule="evenodd" clip-rule="evenodd" d="M17.7747 10.3152C16.8524 6.79499 13.5583 4.44189 9.90577 4.7243C6.21871 5.00642 3.20566 8.13182 3.03607 11.8196C2.96089 13.7223 3.58257 15.5852 4.82343 17.014C5.18593 17.4308 5.69689 17.7427 6.28625 17.9086C7.13146 18.1391 8.70498 18.5806 9.93452 18.9454C9.9468 18.9487 9.9655 18.9544 9.9849 18.9604L9.99043 18.9621C9.99095 18.9623 9.99155 18.9625 9.99207 18.9626C10.2243 19.034 11.1084 19.3048 12.0638 19.3048C12.7751 19.3048 13.4844 19.1547 14.0232 18.7243C14.4669 18.3509 14.7203 17.8342 14.7752 17.1388L14.7883 16.9725L14.9523 17.0032C15.5668 17.1184 16.1162 17.2129 16.6254 17.2507L16.7359 17.2589L16.9145 18.0403C17.0336 18.5845 17.5283 18.9784 18.0928 18.9784H19.8207C20.1935 18.9784 20.5146 18.8105 20.7371 18.5204C20.9601 18.2109 21.0262 17.8557 20.9244 17.4992L20.9221 17.4909L19.984 14.2939L19.9837 14.2929C19.9595 14.2083 19.9025 14.1513 19.8179 14.1271M21.2546 17.608C21.3128 17.9927 21.2153 18.3708 20.979 18.6978L20.9767 18.7011C20.7002 19.0628 20.2921 19.2784 19.8207 19.2784H18.0928C17.3903 19.2784 16.7717 18.7895 16.6216 18.1052C16.6215 18.1049 16.6217 18.1054 16.6216 18.1052L16.4926 17.5409C16.0436 17.5012 15.5679 17.4221 15.0574 17.3279C14.9711 18.0124 14.6924 18.5539 14.2148 18.9551L14.212 18.9574C13.599 19.4479 12.8113 19.6048 12.0638 19.6048C11.0596 19.6048 10.1381 19.3214 9.90341 19.2492L9.9007 19.2484L9.87006 19.239C9.86094 19.2363 9.85785 19.2354 9.85789 19.2355L9.8515 19.2339C8.62399 18.8696 7.05081 18.4281 6.20675 18.1979L6.20558 18.1976C5.56629 18.0177 5.00229 17.6769 4.59698 17.2108C3.30348 15.7213 2.65815 13.7826 2.73633 11.8072C2.91258 7.96876 6.04359 4.71895 9.88277 4.42519C13.6798 4.13166 17.1058 6.57855 18.0649 10.2391C18.1551 10.5779 18.0627 10.9295 17.8704 11.2073L17.8661 11.2135C17.6464 11.4993 17.3366 11.6533 16.9884 11.675L16.9791 11.6755C16.8097 11.6755 16.5858 11.6881 16.3179 11.7144L16.9457 14.4872C18.6745 14.4988 19.3378 13.9918 19.3857 13.9552C19.3882 13.9533 19.389 13.9527 19.3882 13.9535L19.3941 13.9476L19.4006 13.9424C19.5294 13.8395 19.7131 13.7851 19.9003 13.8386C20.0842 13.8912 20.2191 14.0257 20.2719 14.2097C20.2719 14.2095 20.272 14.2099 20.2719 14.2097L21.2691 17.608H21.2546ZM10.4868 5.19289H10.4894C13.6679 5.19289 16.4547 7.33179 17.2397 10.4519C17.2707 10.5763 17.2188 10.674 17.1978 10.7134C17.1971 10.7147 17.1964 10.716 17.1958 10.7171C17.1957 10.7173 17.1959 10.717 17.1958 10.7171L17.1893 10.7297C17.1393 10.8281 17.0243 10.8867 16.9062 10.888C16.5047 10.9071 15.8594 10.9453 15.1201 11.059L15.1186 11.0593L15.0929 11.0629C14.5504 11.1406 14.193 11.2002 13.9724 11.5154L13.9715 11.5165C13.8099 11.7429 13.7407 12.0407 13.776 12.6519C13.8115 13.2642 13.9491 14.1577 14.1704 15.553L14.2473 16.0529C14.4031 17.0853 14.2575 17.8857 13.7155 18.3411L13.2946 18.6947L13.3365 18.576C12.877 18.7858 12.311 18.8287 11.787 18.8007C11.1008 18.7639 10.4453 18.6029 10.0975 18.484C8.85236 18.1009 7.26212 17.6603 6.41795 17.43L6.41541 17.4293C5.93144 17.288 5.52155 17.0439 5.21219 16.6933L5.21065 16.6915C4.05316 15.3378 3.46435 13.6302 3.54274 11.8451C3.69977 8.39102 6.50349 5.48818 9.93838 5.21263C10.1373 5.19289 10.3159 5.19289 10.4868 5.19289ZM13.5279 18.1068C13.9418 17.7546 14.1014 17.0968 13.9507 16.0984C13.9507 16.0983 13.9507 16.0986 13.9507 16.0984L13.8741 15.6C13.8741 15.5999 13.8741 15.6001 13.8741 15.6C13.6539 14.2116 13.5131 13.3001 13.4765 12.6692C13.44 12.0376 13.505 11.6539 13.727 11.3427C14.0291 10.9118 14.5208 10.8416 15.0192 10.7704C15.0296 10.7689 15.04 10.7674 15.0504 10.766C15.0504 10.766 15.0504 10.766 15.0504 10.766L15.0745 10.7625C15.0742 10.7626 15.0748 10.7625 15.0745 10.7625C15.8306 10.6463 16.4899 10.6074 16.895 10.5882L16.9021 10.5878C16.9143 10.5878 16.9227 10.5853 16.9274 10.5831L16.93 10.578C16.9509 10.5386 16.9504 10.5317 16.9487 10.5248C16.1976 7.53924 13.5316 5.49289 10.4894 5.49289C10.316 5.49289 10.1503 5.49299 9.96668 5.5113L9.96376 5.51159C6.67928 5.77435 3.99269 8.55459 3.84245 11.8584C3.76744 13.5672 4.33041 15.1999 5.43793 16.4957C5.70409 16.797 6.06149 17.0132 6.49819 17.1409C7.34352 17.3715 8.93817 17.8134 10.1879 18.1979L10.1925 18.1993C10.5172 18.3106 11.1467 18.4659 11.803 18.5011C12.4669 18.5367 13.1178 18.4471 13.5232 18.1107L13.5279 18.1068ZM10.5087 6.54869C10.3536 6.54869 10.2093 6.54888 10.0664 6.56669L10.06 6.56749C7.29344 6.79203 5.02934 9.13111 4.89851 11.8973L4.8982 11.9037C4.88764 12.0202 4.98459 12.1469 5.13947 12.1626H5.1518C5.27697 12.1626 5.39114 12.0582 5.4054 11.9179C5.52587 9.38802 7.57867 7.27556 10.089 7.07546C10.1699 7.06411 10.2502 7.05916 10.3282 7.057L10.3278 7.05523H10.5087C10.6418 7.05523 10.762 6.945 10.762 6.80196C10.762 6.6689 10.6518 6.54869 10.5087 6.54869ZM10.6841 7.32597C10.8966 7.2536 11.062 7.05368 11.062 6.80196C11.062 6.51261 10.8267 6.24869 10.5087 6.24869H10.5046C10.3547 6.24869 10.1943 6.24869 10.0326 6.26859C7.11846 6.50675 4.73839 8.96524 4.59899 11.8801C4.57355 12.1831 4.81881 12.437 5.12023 12.4621L5.1518 12.4626C5.44816 12.4626 5.67879 12.2229 5.70444 11.9423L5.7049 11.9356C5.81654 9.55355 7.75426 7.56022 10.1172 7.37416L10.1268 7.3731C10.2489 7.35558 10.3725 7.35534 10.5087 7.35534H10.6896L10.6841 7.32597ZM17.7747 10.3152C17.8377 10.5513 17.7774 10.8129 17.6258 11.0335L17.7747 10.3152ZM17.6258 11.0335C17.4628 11.244 17.2374 11.3578 16.9742 11.3753C16.7558 11.3756 16.4634 11.3953 16.1177 11.4338L15.9509 11.4523L16.7051 14.7833L16.8225 14.7856C18.7104 14.823 19.4813 14.2692 19.59 14.1751M15.3941 11.3813L16.1736 14.7664L15.9665 14.7466C15.5555 14.7074 15.108 14.6295 14.6265 14.5332L14.5243 14.5127L14.5078 14.4098C14.3927 13.6902 14.3101 13.118 14.2783 12.6958C14.2625 12.4848 14.2589 12.3057 14.2716 12.1616C14.2839 12.0228 14.3129 11.8926 14.3823 11.8001L14.3851 11.7964C14.4241 11.7475 14.478 11.7172 14.5239 11.6969C14.5722 11.6757 14.6278 11.6588 14.685 11.6446C14.7978 11.6166 14.9377 11.5939 15.0808 11.5707L15.0857 11.5699C15.1257 11.5634 15.1662 11.5569 15.2073 11.55L15.2195 11.548H15.2274L15.3941 11.3813ZM15.1955 11.856C15.1747 11.8594 15.154 11.8628 15.1337 11.8661C14.9847 11.8902 14.8567 11.9111 14.7573 11.9358C14.7079 11.948 14.6709 11.96 14.6449 11.9715C14.6292 11.9784 14.6215 11.9834 14.6186 11.9854C14.602 12.0115 14.5808 12.071 14.5704 12.188C14.5598 12.3085 14.5622 12.469 14.5775 12.6733C14.6067 13.0617 14.6811 13.5882 14.7876 14.2593C15.1448 14.3294 15.4776 14.3873 15.7872 14.4252L15.1955 11.856ZM8.95715 15.5764C8.95715 14.7256 9.65795 14.0248 10.5087 14.0248C11.3595 14.0248 12.0603 14.7256 12.0603 15.5764C12.0603 16.4272 11.3595 17.128 10.5087 17.128C9.65791 17.128 8.95715 16.4272 8.95715 15.5764ZM10.5087 14.3248C9.82363 14.3248 9.25715 14.8913 9.25715 15.5764C9.25715 16.2615 9.8236 16.828 10.5087 16.828C11.1938 16.828 11.7603 16.2615 11.7603 15.5764C11.7603 14.8913 11.1938 14.3248 10.5087 14.3248ZM19.6084 14.7468L20.0134 16.1764L19.9252 16.2374C19.6436 16.4323 18.8236 16.8019 17.2652 16.7825L17.1468 16.781L16.8107 15.292H16.9983C18.2263 15.292 19.0093 15.0464 19.4464 14.8278L19.6084 14.7468ZM17.1855 15.5901L17.3872 16.4832C18.6626 16.4826 19.3736 16.2098 19.6647 16.0462L19.4171 15.1722C18.9457 15.3765 18.2204 15.5692 17.1855 15.5901ZM10.5087 15.1311C10.2489 15.1311 10.0442 15.349 10.0442 15.5956C10.0442 15.833 10.2589 16.0407 10.5087 16.0407C10.7493 16.0407 10.9561 15.8413 10.9732 15.5911C10.9707 15.3334 10.7539 15.1311 10.5087 15.1311ZM9.74425 15.5956C9.74425 15.1894 10.0772 14.8311 10.5087 14.8311C10.9149 14.8311 11.2732 15.164 11.2732 15.5956V15.6044C11.2495 16.005 10.9195 16.3407 10.5087 16.3407C10.1057 16.3407 9.74425 16.0109 9.74425 15.5956ZM14.5682 15.0198L14.7994 15.0643C15.2923 15.1591 15.7672 15.2162 16.1677 15.2544L16.2751 15.2646L16.6154 16.7231L16.4093 16.7052C15.9605 16.6661 15.4553 16.5882 14.8943 16.4722L14.7911 16.4508L14.7762 16.3464C14.7655 16.2716 14.7605 16.2028 14.7555 16.1365L14.7554 16.135C14.7508 16.0729 14.7463 16.0115 14.7377 15.9427L14.6623 15.4521C14.652 15.4093 14.6466 15.3718 14.6422 15.3408L14.6419 15.3389C14.637 15.3047 14.6331 15.2782 14.6256 15.2482L14.5682 15.0198ZM14.958 15.3983L14.9584 15.3999L15.0352 15.9033C15.0449 15.981 15.0499 16.0492 15.0545 16.1112L15.0546 16.1124C15.0568 16.1429 15.059 16.1718 15.0615 16.2001C15.4865 16.2853 15.8755 16.3472 16.2286 16.3859L16.0318 15.5425C15.7089 15.51 15.342 15.4649 14.958 15.3983ZM20.1437 16.6837L20.4219 17.6344C20.5228 17.849 20.46 18.0574 20.3459 18.2172C20.2166 18.3983 20.0324 18.4721 19.8206 18.4721H18.0926C17.7584 18.4721 17.464 18.2553 17.3898 17.9146L17.2286 17.2697H17.4207C18.7432 17.2697 19.5638 16.9864 19.9817 16.7683L20.1437 16.6837ZM17.6123 17.5678L17.6827 17.8491C17.7245 18.0445 17.8901 18.1721 18.0926 18.1721H19.8206C19.9545 18.1721 20.039 18.1308 20.1018 18.0429C20.1774 17.937 20.1913 17.8435 20.1473 17.7557L20.1413 17.7436L19.9569 17.1136C19.4897 17.3246 18.7268 17.5449 17.6123 17.5678Z" fill="#191919"/>
</svg>
