<svg width="24" height="24" viewBox="0 0 24 24" fill="none" xmlns="http://www.w3.org/2000/svg">
<path d="M5.80826 9.75123C6.56147 9.75123 7.29776 9.52393 7.92402 9.09807C8.55029 8.67222 9.0384 8.06693 9.32664 7.35875C9.61488 6.65058 9.69029 5.87132 9.54335 5.11952C9.39641 4.36773 9.03371 3.67716 8.50111 3.13514C7.96852 2.59313 7.28995 2.22401 6.55122 2.07447C5.81249 1.92493 5.04677 2.00168 4.3509 2.29502C3.65503 2.58835 3.06027 3.0851 2.64181 3.72244C2.22335 4.35978 2 5.10909 2 5.87562C2.0011 6.90315 2.40267 7.88828 3.11662 8.61486C3.83058 9.34144 4.79859 9.75012 5.80826 9.75123ZM5.80826 3.34804C6.29948 3.34804 6.77967 3.49628 7.18811 3.77402C7.59654 4.05175 7.91488 4.4465 8.10286 4.90836C8.29084 5.37021 8.34002 5.87842 8.24419 6.36872C8.14836 6.85903 7.91181 7.3094 7.56447 7.66288C7.21712 8.01637 6.77458 8.2571 6.2928 8.35463C5.81102 8.45215 5.31164 8.4021 4.85781 8.21079C4.40398 8.01949 4.01609 7.69552 3.74318 7.27986C3.47028 6.86421 3.32461 6.37552 3.32461 5.87562C3.32536 5.2055 3.58727 4.56304 4.05288 4.08919C4.51849 3.61534 5.14979 3.3488 5.80826 3.34804ZM21.0801 2.93773C20.4901 2.33732 19.6899 2.00001 18.8556 2.00001C18.0212 2.00001 17.221 2.33732 16.6311 2.93773L16.4044 3.16837C15.5293 4.05929 14.688 4.98393 13.8823 5.94028L13.8691 5.95587L8.1224 13.6886L4.58912 17.2845C4.25621 17.0898 3.86514 17.0248 3.48868 17.1016C3.11221 17.1785 2.77598 17.3918 2.54254 17.7021C2.3091 18.0123 2.19434 18.3983 2.21962 18.7882C2.24489 19.1781 2.40848 19.5453 2.67994 19.8217L4.35723 21.5286C4.62888 21.8047 4.98978 21.9709 5.37284 21.9965C5.75591 22.0221 6.13508 21.9053 6.43986 21.6678C6.74465 21.4302 6.95431 21.0882 7.02989 20.7051C7.10546 20.3221 7.0418 19.9242 6.85073 19.5853L10.3792 15.9945L17.826 10.486L17.8608 10.4585C18.9775 9.51046 20.0516 8.51178 21.0801 7.46546C21.6692 6.86457 22 6.05042 22 5.20161C22 4.35279 21.6692 3.53863 21.0801 2.93773ZM20.1434 6.51227C19.1483 7.52459 18.1093 8.4911 17.0293 9.40892L9.51619 14.9665L5.01573 19.5464L5.66032 20.2025C5.68479 20.2269 5.70427 20.2559 5.71763 20.288C5.73099 20.3201 5.73796 20.3546 5.73814 20.3895C5.73832 20.4243 5.7317 20.4589 5.71868 20.4911C5.70565 20.5234 5.68647 20.5527 5.66225 20.5773C5.63803 20.602 5.60925 20.6215 5.57757 20.6348C5.54589 20.648 5.51194 20.6548 5.47768 20.6546C5.44343 20.6544 5.40955 20.6473 5.378 20.6337C5.34646 20.6201 5.31787 20.6003 5.2939 20.5754L3.61661 18.8685C3.56801 18.819 3.5407 18.752 3.5407 18.682C3.54069 18.6121 3.56799 18.545 3.61659 18.4955C3.66518 18.4461 3.7311 18.4183 3.79982 18.4183C3.86855 18.4183 3.93447 18.4461 3.98307 18.4955L4.6277 19.1516L9.12394 14.5761L14.9013 6.80206C15.6809 5.87739 16.4948 4.98324 17.3412 4.12156L17.5679 3.89097C17.7368 3.71784 17.9376 3.58035 18.1588 3.48638C18.3801 3.39242 18.6173 3.34382 18.8571 3.34339C19.0968 3.34295 19.3343 3.39068 19.5558 3.48384C19.7774 3.57701 19.9787 3.71376 20.1482 3.88628C20.3177 4.05879 20.4521 4.26366 20.5436 4.48914C20.6352 4.71462 20.6821 4.95628 20.6817 5.20025C20.6812 5.44422 20.6335 5.6857 20.5412 5.91085C20.4488 6.13599 20.3135 6.34038 20.1434 6.51227Z" fill="#191919"/>
</svg>
