<svg width="24" height="24" viewBox="0 0 24 24" fill="none" xmlns="http://www.w3.org/2000/svg">
<path d="M11.9999 3.7499C7.44407 3.7499 3.7499 7.44407 3.7499 11.9999C3.7499 16.5557 7.44407 20.2499 11.9999 20.2499C16.5557 20.2499 20.2499 16.5557 20.2499 11.9999C20.2499 7.44407 16.5557 3.7499 11.9999 3.7499ZM19.3149 11.5507C17.5091 11.6516 15.7307 12.3482 14.2916 13.6316L12.6507 11.9999L17.4999 7.15073C18.5449 8.3424 19.2049 9.87323 19.3149 11.5507ZM12.4491 4.6849C14.1357 4.78574 15.6574 5.4549 16.8491 6.4999L11.9999 11.3491L10.3591 9.70824C11.6516 8.27824 12.3482 6.4999 12.4491 4.6849ZM11.5232 4.69407C11.4224 6.27073 10.8174 7.81073 9.70824 9.06657L7.15074 6.50907C8.33324 5.46407 9.8549 4.7949 11.5232 4.69407ZM6.50907 7.15073L9.06657 9.70824C7.81074 10.8174 6.26157 11.4224 4.69407 11.5232C4.7949 9.8549 5.46407 8.33323 6.50907 7.15073ZM4.6849 12.4491C6.49074 12.3482 8.26907 11.6516 9.70824 10.3682L11.3491 11.9999L6.4999 16.8491C5.4549 15.6574 4.7949 14.1266 4.6849 12.4491ZM11.5507 19.3149C9.86407 19.2141 8.3424 18.5449 7.15074 17.4999L11.9999 12.6507L13.6407 14.2916C12.3482 15.7216 11.6516 17.4999 11.5507 19.3149ZM12.4766 19.3057C12.5774 17.7291 13.1824 16.1891 14.2916 14.9332L16.8491 17.4907C15.6666 18.5357 14.1449 19.2049 12.4766 19.3057ZM17.4907 16.8491L14.9332 14.2916C16.1891 13.1824 17.7382 12.5774 19.3057 12.4766C19.2049 14.1449 18.5357 15.6666 17.4907 16.8491Z" fill="#191919"/>
<path fill-rule="evenodd" clip-rule="evenodd" d="M3.6499 11.9999C3.6499 7.38884 7.38884 3.6499 11.9999 3.6499C16.611 3.6499 20.3499 7.38884 20.3499 11.9999C20.3499 16.611 16.611 20.3499 11.9999 20.3499C7.38884 20.3499 3.6499 16.611 3.6499 11.9999ZM11.9999 3.8499C7.4993 3.8499 3.8499 7.4993 3.8499 11.9999C3.8499 16.5005 7.4993 20.1499 11.9999 20.1499C16.5005 20.1499 20.1499 16.5005 20.1499 11.9999C20.1499 7.4993 16.5005 3.8499 11.9999 3.8499ZM12.3548 4.57909L12.455 4.58508C14.1649 4.6873 15.7074 5.36577 16.915 6.42472L16.9953 6.49511L11.9999 11.4905L10.2211 9.71172L10.2849 9.64118C11.5614 8.22881 12.2496 6.47243 12.3492 4.67936L12.3548 4.57909ZM12.5427 4.79136C12.4228 6.56336 11.7409 8.29581 10.4966 9.70437L11.9999 11.2076L16.7023 6.50524C15.5627 5.53455 14.1287 4.90794 12.5427 4.79136ZM11.6303 4.58742L11.623 4.70045C11.5208 6.29853 10.9075 7.85976 9.78319 9.13277L9.71276 9.21251L7.00481 6.50457L7.08452 6.43413C8.28301 5.375 9.82564 4.69649 11.5172 4.59425L11.6303 4.58742ZM7.29721 6.51412L9.70317 8.92008C10.7265 7.72695 11.2972 6.28364 11.4153 4.80169C9.85219 4.92121 8.42456 5.54683 7.29721 6.51412ZM17.5047 7.00452L17.5751 7.0848C18.6344 8.29274 19.3032 9.84436 19.4147 11.5442L19.4213 11.6449L19.3205 11.6506C17.5366 11.7502 15.78 12.4383 14.3581 13.7062L14.2878 13.7689L12.5091 12.0001L17.5047 7.00452ZM6.50457 7.00481L9.21251 9.71276L9.13277 9.78319C7.8597 10.9076 6.28928 11.5208 4.70049 11.623L4.58742 11.6303L4.59425 11.5172C4.69649 9.82564 5.375 8.28301 6.43414 7.08452L6.50457 7.00481ZM6.51412 7.29721C5.54684 8.42455 4.92122 9.85215 4.80169 11.4152C6.27561 11.297 7.72682 10.7263 8.92007 9.70316L6.51412 7.29721ZM12.7924 11.9997L14.2957 13.4946C15.7124 12.2593 17.4444 11.5773 19.2079 11.4572C19.0831 9.87882 18.4644 8.43689 17.4946 7.2975L12.7924 11.9997ZM9.71197 10.2309L11.4907 11.9997L6.49511 16.9953L6.42472 16.915C5.36545 15.7071 4.69658 14.1554 4.58512 12.4556L4.57851 12.3549L4.67933 12.3492C6.46318 12.2496 8.21986 11.5615 9.64168 10.2936L9.71197 10.2309ZM4.79193 12.5426C6.55537 12.4226 8.28744 11.7406 9.70413 10.5052L11.2074 12.0001L6.50525 16.7023C5.53544 15.5629 4.91671 14.121 4.79193 12.5426ZM19.4124 12.3695L19.4056 12.4826C19.3033 14.1742 18.6248 15.7168 17.5657 16.9153L17.4952 16.995L14.7873 14.287L14.867 14.2166C16.1401 13.0922 17.7105 12.479 19.2993 12.3768L19.4124 12.3695ZM15.0797 14.2966L17.4857 16.7026C18.453 15.5753 19.0786 14.1476 19.1981 12.5846C17.7242 12.7028 16.273 13.2735 15.0797 14.2966ZM11.9999 12.5093L13.7787 14.2881L13.7149 14.3586C12.4384 15.771 11.7502 17.5274 11.6506 19.3205L11.645 19.4207L11.5448 19.4147C9.8349 19.3125 8.29238 18.634 7.0848 17.5751L7.00453 17.5047L11.9999 12.5093ZM7.29749 17.4946C8.43706 18.4653 9.87107 19.0919 11.4571 19.2084C11.577 17.4364 12.2589 15.704 13.5032 14.2954L11.9999 12.7922L7.29749 17.4946ZM14.287 14.7873L16.995 17.4952L16.9153 17.5657C15.7168 18.6248 14.1742 19.3033 12.4826 19.4056L12.3695 19.4124L12.3768 19.2994C12.479 17.7013 13.0923 16.14 14.2166 14.867L14.287 14.7873ZM14.2966 15.0797C13.2733 16.2729 12.7026 17.7162 12.5846 19.1981C14.1476 19.0786 15.5752 18.453 16.7026 17.4857L14.2966 15.0797Z" fill="#191919"/>
</svg>
