<svg width="24" height="24" viewBox="0 0 24 24" fill="none" xmlns="http://www.w3.org/2000/svg">
<path d="M16.5832 6.3749H13.4941C12.9899 5.26865 11.8991 4.4999 10.6249 4.4999C9.01157 4.4999 7.6824 5.72803 7.4624 7.3124H5.58324C4.5749 7.3124 3.7499 8.14678 3.7499 9.1874V16.6874C3.7499 17.7187 4.56574 18.5624 5.58324 18.5624H7.41657C7.41657 19.078 7.82907 19.4999 8.33324 19.4999H16.5924C18.6182 19.4999 20.2499 17.8218 20.2499 15.7593V10.1249C20.2499 8.05303 18.6091 6.3749 16.5832 6.3749ZM5.58324 17.6249C5.07907 17.6249 4.66657 17.203 4.66657 16.6874V9.1874C4.66657 8.67178 5.07907 8.2499 5.58324 8.2499H7.41657V17.6249H5.58324ZM8.33324 18.5624V7.85615C8.33324 6.81553 8.9474 5.83115 9.91907 5.54053C11.3216 5.11865 12.6141 6.01865 12.8707 7.3124C12.8982 7.4624 12.9166 7.62178 12.9166 7.78115C12.9166 7.94053 12.9166 11.9999 12.9166 11.9999C12.9166 12.3562 12.7149 12.6562 12.4307 12.8155C12.3757 12.8437 12.3299 12.8624 12.2749 12.8812C12.1924 12.9093 12.1007 12.9374 11.9999 12.9374C11.8991 12.9374 11.8074 12.9093 11.7249 12.8812C11.6607 12.853 11.5966 12.8249 11.5324 12.7874C11.2666 12.6187 11.0832 12.3374 11.0832 11.9999V7.3124H10.1666V11.9999C10.1666 12.8718 10.7441 13.5937 11.5324 13.8093V15.7499C11.5324 16.8749 12.0274 17.878 12.7974 18.5624H8.33324ZM19.3332 15.7499C19.3332 17.3062 18.1049 18.5624 16.5832 18.5624H15.1807C13.6591 18.5624 12.4307 17.3062 12.4307 15.7499V13.8187C13.2374 13.6218 13.8332 12.8812 13.8332 11.9999C13.8332 11.9999 13.8332 7.94053 13.8332 7.78115C13.8332 7.62178 13.8057 7.4624 13.7874 7.3124H16.5832C18.0957 7.3124 19.3332 8.56865 19.3332 10.1249V15.7499Z" fill="#191919"/>
<path fill-rule="evenodd" clip-rule="evenodd" d="M7.37645 7.2124C7.63837 5.62322 8.98831 4.3999 10.6249 4.3999C11.9183 4.3999 13.027 5.16692 13.5577 6.2749H16.5832C18.6664 6.2749 20.3499 7.99993 20.3499 10.1249V15.7593C20.3499 17.8747 18.6757 19.5999 16.5924 19.5999H8.33324C7.80502 19.5999 7.3709 19.1851 7.32129 18.6624H5.58324C4.50808 18.6624 3.6499 17.7714 3.6499 16.6874V9.1874C3.6499 8.09335 4.51789 7.2124 5.58324 7.2124H7.37645ZM5.58324 8.3499C5.1364 8.3499 4.76657 8.72488 4.76657 9.1874V16.6874C4.76657 17.1499 5.1364 17.5249 5.58324 17.5249H7.31657V8.3499H5.58324ZM13.9332 11.9999C13.9332 12.8989 13.3435 13.6607 12.5307 13.8955V15.7499C12.5307 17.2531 13.7164 18.4624 15.1807 18.4624H16.5832C18.0476 18.4624 19.2332 17.2531 19.2332 15.7499V10.1249C19.2332 8.62197 18.0386 7.4124 16.5832 7.4124H13.9013C13.9169 7.52854 13.9332 7.65558 13.9332 7.78115V11.9999ZM9.94787 5.63629C11.2897 5.23266 12.5262 6.09165 12.7725 7.33113C12.7991 7.47653 12.8166 7.63044 12.8166 7.78213V11.9999C12.8166 12.3159 12.6383 12.5837 12.3835 12.7274C12.334 12.7526 12.2931 12.7693 12.2426 12.7865C12.1611 12.8143 12.083 12.8374 11.9999 12.8374C11.9182 12.8374 11.8412 12.815 11.7611 12.7879C11.6984 12.7604 11.6412 12.735 11.5844 12.702C11.3442 12.5488 11.1832 12.2978 11.1832 11.9999V7.2124H10.0666V11.9999C10.0666 12.89 10.639 13.6329 11.4324 13.884V15.7499C11.4324 16.8125 11.8627 17.7692 12.5468 18.4624H8.43324V7.85615C8.43324 6.85076 9.02655 5.91186 9.94787 5.63629Z" fill="#191919"/>
</svg>
