<svg width="24" height="24" viewBox="0 0 24 24" fill="none" xmlns="http://www.w3.org/2000/svg">
<path fill-rule="evenodd" clip-rule="evenodd" d="M6.62788 3.3501H17.3723V5.23245H21.1501V7.7648C21.1501 10.2051 19.1656 12.1795 16.7223 12.1795H16.0895C15.2362 13.1768 14.0225 13.858 12.6501 14.023V15.5854H13.889C15.289 15.5854 16.4279 16.717 16.4279 18.1177V20.6501H7.57232V18.1177C7.57232 16.717 8.71115 15.5854 10.1112 15.5854H11.3501V14.023C9.9777 13.858 8.76395 13.1768 7.91071 12.1795H7.27788C4.83461 12.1795 2.8501 10.2051 2.8501 7.7648V5.23245H6.62788V3.3501ZM6.62788 6.53245H4.1501V7.7648C4.1501 9.41889 5.44609 10.775 7.08603 10.8738C6.79152 10.2112 6.62788 9.47775 6.62788 8.70598V6.53245ZM16.9142 10.8738C18.5541 10.775 19.8501 9.41889 19.8501 7.7648V6.53245H17.3723V8.70598C17.3723 9.47775 17.2087 10.2112 16.9142 10.8738ZM7.92788 4.6501V8.70598C7.92788 10.9439 9.74895 12.7619 12.0001 12.7619C14.2512 12.7619 16.0723 10.9439 16.0723 8.70598V4.6501H7.92788ZM10.1112 16.8854C9.42486 16.8854 8.87232 17.4393 8.87232 18.1177V19.3501H15.1279V18.1177C15.1279 17.4393 14.5753 16.8854 13.889 16.8854H10.1112Z" fill="currentColor"/>
</svg>
