<svg width="24" height="24" viewBox="0 0 24 24" fill="none" xmlns="http://www.w3.org/2000/svg">
<path fill-rule="evenodd" clip-rule="evenodd" d="M4.31207 6.31447C5.11252 5.62649 6.14599 5.25024 7.21183 5.25H16.788C17.854 5.25026 18.8878 5.62666 19.6883 6.31486C20.4882 7.00254 20.9998 7.95473 21.1132 8.99153C21.1186 9.03515 21.1202 9.05186 21.1212 9.06325C21.1222 9.0738 21.1228 9.07977 21.1255 9.09835L21.1276 9.11353L21.128 9.11648C21.1983 9.67406 21.75 14.0459 21.75 15.4286C21.75 16.3216 21.3772 17.1702 20.7264 17.7899C20.0769 18.4085 19.2035 18.75 18.3 18.75C17.0995 18.75 16.4617 18.1423 16.0001 17.7025L14.7102 16.474C14.5158 16.2888 14.2447 16.1787 13.9548 16.1786M7.212 6.75C6.4964 6.7502 5.81186 7.00333 5.28979 7.45204C4.76863 7.89997 4.44764 8.50902 4.37745 9.15782L4.37642 9.16736C4.37642 9.16736 4.37591 9.17131 4.37539 9.17613C4.37281 9.19969 4.36576 9.2642 4.35998 9.30626C4.28074 9.93437 3.75 14.1693 3.75 15.4286C3.75 15.8995 3.94609 16.359 4.30805 16.7037C4.67125 17.0496 5.17134 17.25 5.7 17.25C6.28441 17.25 6.54572 17.016 6.98276 16.5998L8.25528 15.3878C8.73587 14.93 9.38032 14.6787 10.045 14.6786H13.9548C14.6195 14.6787 15.264 14.9299 15.7446 15.3878L17.0172 16.5998C17.4543 17.016 17.7156 17.25 18.3 17.25C18.8287 17.25 19.3287 17.0496 19.6919 16.7037C20.0539 16.359 20.25 15.8995 20.25 15.4286C20.25 14.1695 19.7202 9.94168 19.6402 9.30789C19.6356 9.2756 19.6323 9.24625 19.63 9.22482C19.6292 9.21728 19.6285 9.21087 19.6278 9.2052C19.6262 9.19048 19.6252 9.18086 19.6239 9.16995L19.6224 9.15849C19.5524 8.50957 19.2316 7.90036 18.7104 7.45229C18.1883 7.00345 17.5037 6.75022 16.788 6.75M16.788 6.75H7.212H16.788ZM4.31207 6.31447C3.51193 7.00218 3.00016 7.95455 2.88668 8.99159L4.31207 6.31447ZM2.88668 8.99159C2.88196 9.03081 2.88017 9.04869 2.87891 9.06135C2.87763 9.07416 2.87688 9.08163 2.87417 9.10045L2.87217 9.1154C2.80238 9.6684 2.25 14.0459 2.25 15.4286C2.25 16.3216 2.62283 17.1702 3.27357 17.7899C3.92306 18.4085 4.79649 18.75 5.7 18.75C6.90046 18.75 7.53829 18.1423 7.99988 17.7025L9.28984 16.474C9.48418 16.2888 9.75532 16.1787 10.0452 16.1786H13.9548M8.4 8.67857C8.81421 8.67857 9.15 9.01436 9.15 9.42857V10.3929H10.2C10.6142 10.3929 10.95 10.7286 10.95 11.1429C10.95 11.5571 10.6142 11.8929 10.2 11.8929H9.15V12.8571C9.15 13.2714 8.81421 13.6071 8.4 13.6071C7.98579 13.6071 7.65 13.2714 7.65 12.8571V11.8929H6.6C6.18579 11.8929 5.85 11.5571 5.85 11.1429C5.85 10.7286 6.18579 10.3929 6.6 10.3929H7.65V9.42857C7.65 9.01436 7.98579 8.67857 8.4 8.67857ZM16.65 10.2857C16.65 9.8715 16.9858 9.53571 17.4 9.53571H17.409C17.8232 9.53571 18.159 9.8715 18.159 10.2857C18.159 10.6999 17.8232 11.0357 17.409 11.0357H17.4C16.9858 11.0357 16.65 10.6999 16.65 10.2857ZM13.95 12C13.95 11.5858 14.2858 11.25 14.7 11.25H14.709C15.1232 11.25 15.459 11.5858 15.459 12C15.459 12.4142 15.1232 12.75 14.709 12.75H14.7C14.2858 12.75 13.95 12.4142 13.95 12Z" fill="#191919"/>
</svg>
