<svg width="24" height="24" viewBox="0 0 24 24" fill="none" xmlns="http://www.w3.org/2000/svg">
<path d="M6.08701 7.18803C6.02175 7.35073 5.96172 7.51548 5.90701 7.68203C6.37101 7.75203 6.87001 7.85003 7.39101 7.98103C7.64141 7.27681 8.0078 6.61941 8.47501 6.03603L12.689 10.25L12.437 10.502C12.8159 10.8289 13.1701 11.1832 13.497 11.562L13.75 11.311L17.963 15.524C17.38 15.9915 16.7229 16.3582 16.019 16.609C16.15 17.129 16.247 17.629 16.318 18.091C17.5499 17.6894 18.6688 17.0012 19.583 16.083C20.3219 15.3448 20.914 14.473 21.328 13.514C21.813 12.3867 22.0405 11.1654 21.994 9.93903C21.9721 9.35448 21.8883 8.7739 21.744 8.20703C21.3763 6.77292 20.6301 5.46392 19.5834 4.41688C18.5367 3.36983 17.228 2.6232 15.794 2.25503C14.2092 1.85119 12.5403 1.92601 10.998 2.47003C9.89156 2.86301 8.8814 3.48696 8.03467 4.30041C7.18793 5.11387 6.52401 6.09821 6.08701 7.18803ZM20.047 7.81503C19.6201 8.15055 19.1036 8.35235 18.5623 8.39506C18.021 8.43776 17.4792 8.31946 17.005 8.05503L19.024 6.03603C19.463 6.58403 19.804 7.18603 20.047 7.81503ZM15.917 9.14303C16.5748 9.6001 17.3482 9.86228 18.1483 9.89942C18.9484 9.93657 19.7427 9.74718 20.44 9.35303C20.5616 10.2563 20.4988 11.1748 20.2554 12.0531C20.012 12.9313 19.5931 13.7512 19.024 14.463L14.81 10.25L15.918 9.14303H15.917ZM14.857 8.08203L13.75 9.18903L9.53601 4.97603C10.2478 4.40675 11.0676 3.98767 11.9459 3.74412C12.8242 3.50057 13.7427 3.43761 14.646 3.55903C14.2519 4.25631 14.0625 5.05066 14.0996 5.85077C14.1368 6.65088 14.3989 7.42427 14.856 8.08203H14.857ZM15.944 6.99503C15.6795 6.52061 15.5613 5.97855 15.6041 5.43707C15.647 4.89559 15.8491 4.3789 16.185 3.95203C16.815 4.19603 17.415 4.53703 17.963 4.97603L15.944 6.99503ZM6.97001 13.47C7.11064 13.3296 7.30126 13.2507 7.50001 13.2507C7.69876 13.2507 7.88938 13.3296 8.03001 13.47L10.53 15.97C10.6037 16.0387 10.6628 16.1215 10.7038 16.2135C10.7448 16.3055 10.7668 16.4048 10.7686 16.5055C10.7704 16.6062 10.7519 16.7062 10.7141 16.7996C10.6764 16.893 10.6203 16.9778 10.549 17.0491C10.4778 17.1203 10.393 17.1764 10.2996 17.2142C10.2062 17.2519 10.1062 17.2704 10.0055 17.2686C9.90479 17.2668 9.80547 17.2448 9.71347 17.2038C9.62147 17.1628 9.53867 17.1037 9.47001 17.03L6.97001 14.53C6.82956 14.3894 6.75067 14.1988 6.75067 14C6.75067 13.8013 6.82956 13.6107 6.97001 13.47ZM2.02901 11.019C1.99933 10.6846 2.04335 10.3477 2.15799 10.0321C2.27263 9.71654 2.45509 9.42994 2.6925 9.19252C2.92992 8.9551 3.21652 8.77265 3.5321 8.65801C3.84768 8.54337 4.18457 8.49935 4.51901 8.52903C6.49701 8.67903 9.85901 9.29703 12.281 11.719C14.703 14.142 15.322 17.503 15.473 19.482C15.5027 19.8166 15.4587 20.1535 15.344 20.4692C15.2293 20.7849 15.0467 21.0715 14.8092 21.309C14.5717 21.5464 14.2849 21.7288 13.9692 21.8434C13.6535 21.958 13.3165 22.0019 12.982 21.972C11.004 21.822 7.64201 21.202 5.22001 18.78C2.79801 16.358 2.17901 12.997 2.02901 11.019ZM4.40601 10.024C4.28699 10.0105 4.16645 10.024 4.05336 10.0635C3.94026 10.1029 3.83752 10.1674 3.75277 10.252C3.66802 10.3367 3.60344 10.4394 3.56384 10.5524C3.52423 10.6655 3.51062 10.786 3.52401 10.905C3.66601 12.768 4.24301 15.682 6.28101 17.72C8.31901 19.758 11.233 20.335 13.095 20.476C13.214 20.4896 13.3346 20.4761 13.4477 20.4366C13.5608 20.3971 13.6635 20.3327 13.7483 20.248C13.833 20.1634 13.8976 20.0607 13.9372 19.9476C13.9768 19.8346 13.9904 19.7141 13.977 19.595C13.835 17.732 13.258 14.819 11.22 12.78C9.18201 10.742 6.26801 10.165 4.40601 10.024Z" fill="#191919"/>
</svg>
