<svg width="24" height="24" viewBox="0 0 24 24" fill="none" xmlns="http://www.w3.org/2000/svg">
<path d="M12 22C9.34784 22 6.8043 20.9464 4.92893 19.0711C3.05357 17.1957 2 14.6522 2 12C2 9.34784 3.05357 6.8043 4.92893 4.92893C6.8043 3.05357 9.34784 2 12 2C14.6522 2 17.1957 3.05357 19.0711 4.92893C20.9464 6.8043 22 9.34784 22 12C22 14.6522 20.9464 17.1957 19.0711 19.0711C17.1957 20.9464 14.6522 22 12 22ZM12 20.5714C13.1256 20.5714 14.2402 20.3497 15.2801 19.919C16.3201 19.4882 17.265 18.8568 18.0609 18.0609C18.8568 17.265 19.4882 16.3201 19.919 15.2801C20.3497 14.2402 20.5714 13.1256 20.5714 12C20.5714 10.8744 20.3497 9.75979 19.919 8.71986C19.4882 7.67992 18.8568 6.73502 18.0609 5.93908C17.265 5.14315 16.3201 4.51179 15.2801 4.08103C14.2402 3.65028 13.1256 3.42857 12 3.42857C9.72672 3.42857 7.54654 4.33163 5.93908 5.93908C4.33163 7.54654 3.42857 9.72672 3.42857 12C3.42857 14.2733 4.33163 16.4535 5.93908 18.0609C7.54654 19.6684 9.72672 20.5714 12 20.5714Z" fill="#191919"/>
<path d="M4.0803 6.20471C4.4453 5.81383 4.80154 5.44738 5.15194 5.10535C5.55052 5.83673 6.06005 6.49177 6.65719 7.0445L5.91551 8.39121C5.19686 7.76868 4.57739 7.03064 4.0803 6.20471ZM18.9927 6.07798C18.4834 6.95505 17.8374 7.7369 17.0816 8.39121L16.3399 7.04602C16.9684 6.46223 17.4968 5.77023 17.9021 5C18.2569 5.33591 18.6204 5.69473 18.9927 6.07798ZM10.4488 10.4265L10.7028 8.92104C11.2318 8.98101 11.7653 8.98101 12.2942 8.92104L12.5483 10.4265C11.8509 10.5137 11.1461 10.5137 10.4488 10.4265ZM9.01801 10.1212C8.35457 9.91556 7.71692 9.628 7.11855 9.26459L7.84855 7.94231C8.2996 8.21526 8.77731 8.43691 9.27351 8.60345L9.01801 10.1181V10.1212ZM15.88 9.26611C15.2811 9.62911 14.6429 9.91616 13.9791 10.1212L13.7236 8.60497C14.2198 8.43844 14.6975 8.21679 15.1485 7.94383L15.8785 9.26611H15.88ZM4 17.9694C4.50999 17.0892 5.15747 16.3047 5.91551 15.6485L6.65719 16.9921C6.04399 17.5632 5.51986 18.2411 5.1169 18.9969C4.7519 18.6763 4.3796 18.3358 4 17.9694ZM19 17.9724C18.6347 18.3237 18.2618 18.6663 17.8816 19C17.4796 18.2446 16.9584 17.5658 16.3399 16.9921L17.0816 15.6485C17.8393 16.3035 18.489 17.0883 19 17.9724ZM10.4473 13.6116C11.1447 13.5245 11.8495 13.5245 12.5468 13.6116L12.2928 15.1171C11.7639 15.0572 11.2303 15.0572 10.7014 15.1171L10.4473 13.6116ZM9.01655 13.917L9.27205 15.4332C8.77585 15.5997 8.29814 15.8214 7.84709 16.0943L7.11855 14.7721C7.71699 14.4092 8.35464 14.1221 9.01801 13.917H9.01655ZM15.8785 14.7721L15.1485 16.0943C14.6971 15.821 14.2189 15.5994 13.7221 15.4332L13.9776 13.9185C14.6492 14.1247 15.2843 14.4132 15.8771 14.7721H15.8785Z" fill="#191919"/>
</svg>
