<svg width="24" height="24" viewBox="0 0 24 24" fill="none" xmlns="http://www.w3.org/2000/svg">
<path d="M11.9999 3.7499C7.44407 3.7499 3.7499 7.44407 3.7499 11.9999C3.7499 16.5557 7.44407 20.2499 11.9999 20.2499C16.5557 20.2499 20.2499 16.5557 20.2499 11.9999C20.2499 7.44407 16.5557 3.7499 11.9999 3.7499ZM17.9582 7.7374C18.2699 8.1774 18.5449 8.6449 18.7557 9.14907L17.9582 8.6999V7.7374ZM17.0416 6.68324V8.6999L14.7499 9.9924L12.4582 8.6999V6.13324L14.3649 5.06074C15.3732 5.40907 16.2807 5.96824 17.0416 6.68324ZM14.2916 10.7166V13.2924L11.9999 14.5757L9.70824 13.2924V10.7166L11.9999 9.42407L14.2916 10.7166ZM11.9999 4.66657C12.3849 4.66657 12.7699 4.70324 13.1457 4.7674L11.9999 5.40907L10.8541 4.7674C11.2299 4.70324 11.6149 4.66657 11.9999 4.66657ZM6.95824 6.68324C7.71907 5.96824 8.62657 5.40907 9.6349 5.06074L11.5416 6.13324V8.6999L9.2499 9.9924L6.95824 8.6999V6.68324ZM6.04157 7.7374V8.6999L5.24407 9.14907C5.4549 8.6449 5.7299 8.1774 6.04157 7.7374ZM6.04157 16.2624C5.7299 15.8224 5.4549 15.3549 5.24407 14.8507L6.04157 15.2999V16.2624ZM4.85907 13.6499C4.7399 13.1182 4.66657 12.5682 4.66657 11.9999C4.66657 11.4316 4.7399 10.8816 4.85907 10.3499L6.4999 9.43324L8.79157 10.7166V13.2924L6.4999 14.5757L4.85907 13.6499ZM6.95824 17.3166V15.2999L9.2499 14.0166L11.5416 15.2999V17.8757L9.6349 18.9482C8.62657 18.5907 7.71907 18.0316 6.95824 17.3166ZM11.9999 19.3332C11.6149 19.3332 11.2299 19.2966 10.8541 19.2324L11.9999 18.5907L13.1457 19.2324C12.7699 19.2966 12.3849 19.3332 11.9999 19.3332ZM17.0416 17.3166C16.2807 18.0316 15.3732 18.5907 14.3649 18.9391L12.4582 17.8666V15.2999L14.7499 14.0166L17.0416 15.2999V17.3166ZM17.9582 16.2624V15.2999L18.7557 14.8507C18.5449 15.3549 18.2699 15.8224 17.9582 16.2624ZM17.4999 14.5757L15.2082 13.2924V10.7166L17.4999 9.43324L19.1407 10.3499C19.2599 10.8816 19.3332 11.4316 19.3332 11.9999C19.3332 12.5682 19.2599 13.1182 19.1407 13.6499L17.4999 14.5757Z" fill="#191919"/>
<path fill-rule="evenodd" clip-rule="evenodd" d="M3.6499 11.9999C3.6499 7.38884 7.38884 3.6499 11.9999 3.6499C16.611 3.6499 20.3499 7.38884 20.3499 11.9999C20.3499 16.611 16.611 20.3499 11.9999 20.3499C7.38884 20.3499 3.6499 16.611 3.6499 11.9999ZM11.9999 3.8499C7.4993 3.8499 3.8499 7.4993 3.8499 11.9999C3.8499 16.5005 7.4993 20.1499 11.9999 20.1499C16.5005 20.1499 20.1499 16.5005 20.1499 11.9999C20.1499 7.4993 16.5005 3.8499 11.9999 3.8499ZM11.1577 4.8228L11.9999 5.29446L12.8422 4.8228C12.5635 4.78652 12.2815 4.76657 11.9999 4.76657C11.7183 4.76657 11.4363 4.78652 11.1577 4.8228ZM10.8372 4.66883C11.2179 4.60383 11.6086 4.56657 11.9999 4.56657C12.3912 4.56657 12.7819 4.60383 13.1626 4.66883L13.4414 4.71644L11.9999 5.52368L10.5584 4.71644L10.8372 4.66883ZM9.64474 4.95154L11.6416 6.07475V8.75831L9.2499 10.1072L6.85824 8.75831V6.63998L6.88975 6.61036C7.66054 5.88601 8.58016 5.3193 9.60225 4.96622L9.64474 4.95154ZM14.3551 4.95154L14.3976 4.96622C15.4196 5.3193 16.3393 5.88601 17.1101 6.61036L17.1416 6.63998V8.75831L14.7499 10.1072L12.3582 8.75831V6.07475L14.3551 4.95154ZM7.05824 6.72666V8.64149L9.2499 9.87759L11.4416 8.64149V6.19172L9.62522 5.17003C8.66141 5.50966 7.79188 6.04507 7.05824 6.72666ZM14.3746 5.17003L12.5582 6.19172V8.64149L14.7499 9.87759L16.9416 8.64149V6.72666C16.2079 6.04507 15.3384 5.50966 14.3746 5.17003ZM17.8582 7.42322L18.0398 7.6796C18.3547 8.12416 18.6337 8.59809 18.848 9.11049L18.9603 9.37906L17.8582 8.75835V7.42322ZM6.14157 7.42322V8.75835L5.0395 9.37906L5.15181 9.11049C5.36609 8.59809 5.64507 8.12416 5.95997 7.6796L6.14157 7.42322ZM5.4591 8.91319L5.94157 8.64145V8.06151C5.76277 8.33441 5.59995 8.6176 5.4591 8.91319ZM18.0582 8.06151V8.64145L18.5407 8.91319C18.3999 8.6176 18.237 8.33441 18.0582 8.06151ZM11.9999 9.30926L14.3916 10.6582V13.351L11.9999 14.6903L9.60824 13.351V10.6582L11.9999 9.30926ZM6.49996 9.31866L8.89157 10.658V13.351L6.49972 14.6905L4.77121 13.7152L4.76149 13.6718C4.64102 13.1343 4.56657 12.5769 4.56657 11.9999C4.56657 11.4229 4.64102 10.8655 4.76149 10.328L4.77127 10.2844L6.49996 9.31866ZM17.4998 9.31866L19.2285 10.2844L19.2383 10.328C19.3588 10.8655 19.4332 11.4229 19.4332 11.9999C19.4332 12.5769 19.3588 13.1343 19.2383 13.6718L19.2286 13.7152L17.5001 14.6905L15.1082 13.351V10.658L17.4998 9.31866ZM9.80824 10.775V13.2338L11.9999 14.4611L14.1916 13.2338V10.775L11.9999 9.53888L9.80824 10.775ZM4.947 10.4153C4.83485 10.9276 4.76657 11.4556 4.76657 11.9999C4.76657 12.5442 4.83488 13.0724 4.94705 13.5847L6.50009 14.461L8.69157 13.2338V10.7752L6.49984 9.54782L4.947 10.4153ZM17.5 9.54782L15.3082 10.7752V13.2338L17.4997 14.461L19.0528 13.5847C19.1649 13.0724 19.2332 12.5442 19.2332 11.9999C19.2332 11.4556 19.165 10.9276 19.0528 10.4153L17.5 9.54782ZM9.2499 13.902L11.6416 15.2413V17.9342L9.64432 19.0577L9.60149 19.0425C8.57997 18.6803 7.66056 18.1138 6.88975 17.3894L6.85824 17.3598V15.2413L9.2499 13.902ZM14.7499 13.902L17.1416 15.2413V17.3598L17.1101 17.3894C16.3393 18.1138 15.4196 18.6805 14.3976 19.0336L14.3551 19.0483L12.3582 17.9251V15.2413L14.7499 13.902ZM7.05824 15.3585V17.2731C7.79179 17.9546 8.66141 18.4903 9.62564 18.8387L11.4416 17.8173V15.3585L9.2499 14.1312L7.05824 15.3585ZM12.5582 15.3585V17.8081L14.3746 18.8298C15.3384 18.4901 16.2079 17.9547 16.9416 17.2731V15.3585L14.7499 14.1312L12.5582 15.3585ZM5.0395 14.6207L6.14157 15.2415V16.5766L5.95997 16.3202C5.64507 15.8756 5.36609 15.4017 5.15181 14.8893L5.0395 14.6207ZM18.9603 14.6207L18.848 14.8893C18.6337 15.4017 18.3547 15.8756 18.0398 16.3202L17.8582 16.5766V15.2415L18.9603 14.6207ZM5.4591 15.0866C5.59995 15.3822 5.76277 15.6654 5.94157 15.9383V15.3584L5.4591 15.0866ZM18.0582 15.3584V15.9383C18.237 15.6654 18.3999 15.3822 18.5407 15.0866L18.0582 15.3584ZM11.9999 18.4761L13.4414 19.2834L13.1626 19.331C12.7819 19.396 12.3912 19.4332 11.9999 19.4332C11.6086 19.4332 11.2179 19.396 10.8372 19.331L10.5584 19.2834L11.9999 18.4761ZM11.1577 19.177C11.4363 19.2133 11.7183 19.2332 11.9999 19.2332C12.2815 19.2332 12.5635 19.2133 12.8422 19.177L11.9999 18.7053L11.1577 19.177Z" fill="#191919"/>
</svg>
