<svg width="24" height="24" viewBox="0 0 24 24" fill="none" xmlns="http://www.w3.org/2000/svg">
<path d="M11.9999 3.7499C7.44407 3.7499 3.7499 7.44407 3.7499 11.9999C3.7499 16.5557 7.44407 20.2499 11.9999 20.2499C16.5557 20.2499 20.2499 16.5557 20.2499 11.9999C20.2499 7.44407 16.5557 3.7499 11.9999 3.7499ZM6.81157 6.81157C8.2874 5.33573 10.2491 4.62074 12.1832 4.67574C12.2382 6.61907 11.5324 8.57157 10.0474 10.0566C8.5624 11.5416 6.6099 12.2474 4.66657 12.1924C4.6299 10.2491 5.33574 8.29657 6.81157 6.81157ZM6.81157 17.1882C5.66574 16.0424 4.9874 14.6032 4.75824 13.1091C6.90324 13.1366 9.06657 12.3391 10.7074 10.6982C12.3482 9.0574 13.1457 6.90323 13.1182 4.75823C14.6124 4.9874 16.0424 5.66573 17.1974 6.81157C18.3524 7.9574 19.0216 9.39657 19.2507 10.8907C17.1057 10.8632 14.9424 11.6607 13.3016 13.3016C11.6607 14.9424 10.8632 17.0966 10.8907 19.2507C9.39657 19.0124 7.96657 18.3341 6.81157 17.1882ZM17.1882 17.1882C15.7124 18.6641 13.7507 19.3791 11.8166 19.3241C11.7616 17.3807 12.4674 15.4282 13.9524 13.9432C15.4374 12.4582 17.3899 11.7524 19.3332 11.8074C19.3699 13.7507 18.6641 15.7032 17.1882 17.1882Z" fill="#191919"/>
<path fill-rule="evenodd" clip-rule="evenodd" d="M3.6499 11.9999C3.6499 7.38884 7.38884 3.6499 11.9999 3.6499C16.611 3.6499 20.3499 7.38884 20.3499 11.9999C20.3499 16.611 16.611 20.3499 11.9999 20.3499C7.38884 20.3499 3.6499 16.611 3.6499 11.9999ZM11.9999 3.8499C7.4993 3.8499 3.8499 7.4993 3.8499 11.9999C3.8499 16.5005 7.4993 20.1499 11.9999 20.1499C16.5005 20.1499 20.1499 16.5005 20.1499 11.9999C20.1499 7.4993 16.5005 3.8499 11.9999 3.8499ZM12.0853 4.77362C10.2085 4.74507 8.3138 5.45081 6.88238 6.88217C5.45109 8.32242 4.75381 10.2086 4.76535 12.0945C6.65066 12.1233 8.53648 11.4261 9.97669 9.98586C11.4171 8.54541 12.1143 6.65922 12.0853 4.77362ZM6.74086 6.74085C8.23693 5.24479 10.2255 4.52003 12.1861 4.57578L12.2805 4.57846L12.2832 4.67291C12.3389 6.64243 11.6235 8.62193 10.1181 10.1273C8.61276 11.6326 6.63327 12.3481 4.66374 12.2924L4.56839 12.2897L4.56659 12.1943C4.52944 10.2255 5.24484 8.24616 6.74086 6.74085ZM13.0167 4.6415L13.1334 4.65939C14.6476 4.89162 16.0972 5.57921 17.2678 6.74057C18.4393 7.9027 19.1174 9.362 19.3496 10.8756L19.3675 10.9922L19.2495 10.9907C17.13 10.9636 14.9931 11.7515 13.3723 13.3723C11.7515 14.9931 10.9636 17.1209 10.9907 19.2495L10.9922 19.3682L10.875 19.3495C9.36128 19.108 7.91181 18.4206 6.74114 17.2592C5.57936 16.0975 4.89159 14.6381 4.65939 13.1242L4.6415 13.0076L4.75952 13.0091C6.87897 13.0362 9.01591 12.2483 10.6367 10.6275C12.2576 9.00666 13.0454 6.87886 13.0182 4.75952L13.0167 4.6415ZM13.2189 4.87578C13.2163 7.00701 12.4086 9.13845 10.7781 10.7689C9.14754 12.3995 7.00723 13.2072 4.87578 13.2098C5.11861 14.6425 5.78195 16.0171 6.88212 17.1174C7.99141 18.2178 9.35777 18.8812 10.7901 19.1325C10.7927 16.9927 11.6004 14.8613 13.2309 13.2309C14.8614 11.6003 17.0018 10.7927 19.1332 10.7901C18.8908 9.35695 18.2357 7.98249 17.127 6.88256C16.0175 5.78189 14.651 5.11859 13.2189 4.87578ZM19.2345 11.9053C17.3491 11.8765 15.4633 12.5737 14.0231 14.0139C12.5827 15.4544 11.8855 17.3406 11.9145 19.2262C13.7913 19.2547 15.686 18.549 17.1175 17.1176C18.5487 15.6774 19.246 13.7912 19.2345 11.9053ZM13.8817 13.8725C15.387 12.3672 17.3665 11.6517 19.3361 11.7074L19.4314 11.7101L19.4332 11.8055C19.4704 13.7743 18.7552 15.7534 17.2592 17.2587C15.7631 18.7548 13.7743 19.4798 11.8137 19.424L11.7193 19.4213L11.7166 19.3269C11.6609 17.3574 12.3763 15.3779 13.8817 13.8725Z" fill="#191919"/>
</svg>
