<svg width="24" height="24" viewBox="0 0 24 24" fill="none" xmlns="http://www.w3.org/2000/svg">
<path d="M12 6C7.03071 6 2 7.14533 2 9.33333V14.6667C2 16.8547 7.03071 18 12 18C16.9693 18 22 16.8547 22 14.6667V9.33333C22 7.14533 16.9693 6 12 6ZM12 7.33333C17.3171 7.33333 20.5714 8.628 20.5714 9.33333C20.5714 9.95067 18.0793 11.0187 13.8943 11.276C13.2637 11.3145 12.6319 11.3336 12 11.3333C6.68286 11.3333 3.42857 10.0387 3.42857 9.33333C3.42857 8.628 6.68286 7.33333 12 7.33333ZM3.42857 11.138C3.47143 11.1613 3.52429 11.1807 3.56786 11.2033C3.80242 11.3242 4.04425 11.4324 4.29214 11.5273C4.53929 11.6233 4.79643 11.7153 5.07357 11.7993C5.65429 11.976 6.30571 12.1193 6.98857 12.242C7.195 12.2787 7.40786 12.3087 7.62071 12.34C8.22786 12.4313 8.85357 12.5047 9.50143 12.556C10.3229 12.6213 11.1579 12.6667 12 12.6667C12.8429 12.6667 13.6779 12.6213 14.4986 12.556C15.1282 12.5061 15.7555 12.4341 16.3793 12.34C16.5921 12.3087 16.805 12.2787 17.0114 12.242C17.6943 12.1193 18.3457 11.9753 18.9264 11.7993C19.265 11.6957 19.5976 11.5757 19.9229 11.44C20.096 11.3676 20.2659 11.2887 20.4321 11.2033C20.4757 11.1807 20.5293 11.1613 20.5714 11.138V14.6667C20.5714 15.372 17.3171 16.6667 12 16.6667C6.68286 16.6667 3.42857 15.372 3.42857 14.6667V11.138Z" fill="#191919"/>
</svg>
