<svg width="24" height="24" viewBox="0 0 24 24" fill="none" xmlns="http://www.w3.org/2000/svg">
<g clip-path="url(#clip0_1116_101)">
<path d="M17.2603 38.2727V38.8409H15.6179V38.2727H17.2603ZM15.9907 37.6193H16.7471V40.1619C16.7471 40.2318 16.7578 40.2862 16.7791 40.3253C16.8004 40.3632 16.83 40.3898 16.8679 40.4052C16.9069 40.4206 16.9519 40.4283 17.0028 40.4283C17.0383 40.4283 17.0738 40.4253 17.1094 40.4194C17.1449 40.4123 17.1721 40.407 17.191 40.4034L17.31 40.9663C17.2721 40.9781 17.2188 40.9917 17.1502 41.0071C17.0815 41.0237 16.9981 41.0337 16.8998 41.0373C16.7175 41.0444 16.5577 41.0201 16.4204 40.9645C16.2843 40.9089 16.1784 40.8224 16.1026 40.7053C16.0268 40.5881 15.9896 40.4401 15.9907 40.2614V37.6193Z" fill="#191919"/>
<path d="M14.1073 41.0533C13.828 41.0533 13.5877 40.9941 13.3864 40.8757C13.1864 40.7562 13.0325 40.5904 12.9248 40.3786C12.8182 40.1667 12.765 39.9228 12.765 39.647C12.765 39.3677 12.8188 39.1226 12.9266 38.9119C13.0355 38.7001 13.1899 38.5349 13.39 38.4165C13.59 38.297 13.828 38.2372 14.1038 38.2372C14.3417 38.2372 14.55 38.2804 14.7288 38.3668C14.9075 38.4532 15.049 38.5746 15.1531 38.7308C15.2573 38.8871 15.3147 39.0705 15.3254 39.2812H14.6116C14.5914 39.1451 14.5382 39.0356 14.4518 38.9528C14.3665 38.8687 14.2547 38.8267 14.1162 38.8267C13.999 38.8267 13.8966 38.8587 13.809 38.9226C13.7226 38.9853 13.6551 39.0771 13.6066 39.1978C13.5581 39.3185 13.5338 39.4647 13.5338 39.6364C13.5338 39.8104 13.5575 39.9583 13.6048 40.0803C13.6534 40.2022 13.7214 40.2951 13.809 40.359C13.8966 40.4229 13.999 40.4549 14.1162 40.4549C14.2026 40.4549 14.2801 40.4371 14.3488 40.4016C14.4186 40.3661 14.476 40.3146 14.521 40.2472C14.5672 40.1785 14.5974 40.0962 14.6116 40.0004H15.3254C15.3135 40.2087 15.2567 40.3922 15.1549 40.5508C15.0543 40.7082 14.9152 40.8313 14.7376 40.9201C14.5601 41.0089 14.35 41.0533 14.1073 41.0533Z" fill="#191919"/>
<path d="M11.1297 41.0533C10.8491 41.0533 10.6077 40.9964 10.4053 40.8828C10.204 40.768 10.049 40.6058 9.94005 40.3963C9.83115 40.1856 9.7767 39.9364 9.7767 39.6488C9.7767 39.3683 9.83115 39.122 9.94005 38.9102C10.049 38.6983 10.2022 38.5331 10.3999 38.4148C10.5988 38.2964 10.832 38.2372 11.0995 38.2372C11.2794 38.2372 11.4469 38.2662 11.602 38.3242C11.7582 38.381 11.8944 38.4669 12.0104 38.5817C12.1276 38.6965 12.2187 38.8409 12.2838 39.0149C12.3489 39.1877 12.3815 39.3902 12.3815 39.6222V39.8299H10.0785V39.3612H11.6695C11.6695 39.2523 11.6458 39.1558 11.5984 39.0717C11.5511 38.9877 11.4854 38.922 11.4013 38.8746C11.3185 38.8261 11.222 38.8018 11.1119 38.8018C10.9971 38.8018 10.8953 38.8285 10.8065 38.8817C10.7189 38.9338 10.6503 39.0043 10.6006 39.093C10.5508 39.1806 10.5254 39.2783 10.5242 39.386V39.8317C10.5242 39.9666 10.5491 40.0832 10.5988 40.1815C10.6497 40.2797 10.7213 40.3555 10.8136 40.4087C10.906 40.462 11.0155 40.4886 11.1421 40.4886C11.2262 40.4886 11.3031 40.4768 11.3729 40.4531C11.4428 40.4295 11.5026 40.3939 11.5523 40.3466C11.602 40.2992 11.6399 40.2412 11.6659 40.1726L12.3655 40.2188C12.33 40.3868 12.2572 40.5336 12.1471 40.6591C12.0382 40.7834 11.8973 40.8804 11.7245 40.9503C11.5529 41.0189 11.3546 41.0533 11.1297 41.0533Z" fill="#191919"/>
<path d="M8.52448 38.2727H9.28087V41.1349C9.28087 41.3456 9.23944 41.5161 9.15658 41.6463C9.07372 41.7765 8.95476 41.8718 8.79969 41.9322C8.64581 41.9925 8.46174 42.0227 8.24749 42.0227C8.22145 42.0227 8.19659 42.0221 8.17292 42.021C8.14806 42.021 8.12202 42.0204 8.09479 42.0192V41.4279C8.11492 41.4291 8.13267 41.4297 8.14806 41.4297C8.16227 41.4309 8.17765 41.4315 8.19423 41.4315C8.31615 41.4315 8.40137 41.4054 8.44991 41.3533C8.49962 41.3024 8.52448 41.2255 8.52448 41.1225V38.2727ZM8.9009 37.9212C8.78963 37.9212 8.69375 37.8839 8.61326 37.8093C8.53277 37.7335 8.49252 37.643 8.49252 37.5376C8.49252 37.4335 8.53277 37.3441 8.61326 37.2695C8.69375 37.1938 8.78963 37.1559 8.9009 37.1559C9.01454 37.1559 9.11101 37.1938 9.19032 37.2695C9.27081 37.3441 9.31106 37.4335 9.31106 37.5376C9.31106 37.643 9.27081 37.7335 9.19032 37.8093C9.11101 37.8839 9.01454 37.9212 8.9009 37.9212Z" fill="#191919"/>
<path d="M6.69032 41.0533C6.41451 41.0533 6.176 40.9947 5.97476 40.8775C5.77472 40.7591 5.62024 40.5946 5.51134 40.3839C5.40244 40.172 5.34799 39.9264 5.34799 39.647C5.34799 39.3653 5.40244 39.1191 5.51134 38.9084C5.62024 38.6965 5.77472 38.532 5.97476 38.4148C6.176 38.2964 6.41451 38.2372 6.69032 38.2372C6.96612 38.2372 7.20405 38.2964 7.4041 38.4148C7.60533 38.532 7.76039 38.6965 7.8693 38.9084C7.9782 39.1191 8.03265 39.3653 8.03265 39.647C8.03265 39.9264 7.9782 40.172 7.8693 40.3839C7.76039 40.5946 7.60533 40.7591 7.4041 40.8775C7.20405 40.9947 6.96612 41.0533 6.69032 41.0533ZM6.69387 40.4673C6.81934 40.4673 6.9241 40.4318 7.00815 40.3608C7.09219 40.2886 7.15552 40.1903 7.19813 40.0661C7.24193 39.9418 7.26383 39.8003 7.26383 39.6417C7.26383 39.4831 7.24193 39.3416 7.19813 39.2173C7.15552 39.093 7.09219 38.9948 7.00815 38.9226C6.9241 38.8504 6.81934 38.8143 6.69387 38.8143C6.56721 38.8143 6.46068 38.8504 6.37427 38.9226C6.28904 38.9948 6.22453 39.093 6.18073 39.2173C6.13812 39.3416 6.11681 39.4831 6.11681 39.6417C6.11681 39.8003 6.13812 39.9418 6.18073 40.0661C6.22453 40.1903 6.28904 40.2886 6.37427 40.3608C6.46068 40.4318 6.56721 40.4673 6.69387 40.4673Z" fill="#191919"/>
<path d="M3.53913 41V38.2727H4.27244V38.7486H4.30085C4.35056 38.5793 4.43402 38.4515 4.5512 38.3651C4.66839 38.2775 4.80333 38.2337 4.95603 38.2337C4.99391 38.2337 5.03475 38.236 5.07855 38.2408C5.12234 38.2455 5.16082 38.252 5.19396 38.2603V38.9315C5.15845 38.9208 5.10932 38.9113 5.04659 38.9031C4.98385 38.8948 4.92644 38.8906 4.87436 38.8906C4.76309 38.8906 4.66366 38.9149 4.57606 38.9634C4.48965 39.0108 4.42099 39.0771 4.3701 39.1623C4.32038 39.2475 4.29552 39.3458 4.29552 39.457V41H3.53913Z" fill="#191919"/>
<path d="M0.316029 41V37.3636H1.75069C2.02649 37.3636 2.26146 37.4163 2.45559 37.5217C2.64972 37.6258 2.79768 37.7708 2.89948 37.9567C3.00246 38.1413 3.05396 38.3544 3.05396 38.5959C3.05396 38.8374 3.00187 39.0504 2.89771 39.2351C2.79354 39.4197 2.64262 39.5636 2.44494 39.6665C2.24844 39.7695 2.01051 39.821 1.73116 39.821H0.816739V39.2049H1.60687C1.75483 39.2049 1.87675 39.1795 1.97263 39.1286C2.0697 39.0765 2.14191 39.0049 2.18925 38.9137C2.23779 38.8214 2.26205 38.7154 2.26205 38.5959C2.26205 38.4751 2.23779 38.3698 2.18925 38.2798C2.14191 38.1887 2.0697 38.1183 1.97263 38.0685C1.87557 38.0176 1.75246 37.9922 1.60332 37.9922H1.08485V41H0.316029Z" fill="#191919"/>
<path d="M10.9117 33.4233V35H10.1553V32.2727H10.8762V32.7539H10.9082C10.9686 32.5953 11.0698 32.4698 11.2118 32.3775C11.3538 32.284 11.5261 32.2372 11.7285 32.2372C11.9179 32.2372 12.083 32.2786 12.2239 32.3615C12.3647 32.4444 12.4742 32.5627 12.5524 32.7166C12.6305 32.8693 12.6695 33.0516 12.6695 33.2635V35H11.9132V33.3984C11.9143 33.2315 11.8717 33.1013 11.7853 33.0078C11.6989 32.9131 11.5799 32.8658 11.4284 32.8658C11.3266 32.8658 11.2367 32.8877 11.1585 32.9315C11.0816 32.9753 11.0212 33.0392 10.9774 33.1232C10.9348 33.2061 10.9129 33.3061 10.9117 33.4233Z" fill="#191919"/>
<path d="M8.79392 33.8388V32.2727H9.55032V35H8.82411V34.5046H8.7957C8.73415 34.6644 8.63175 34.7929 8.48853 34.8899C8.34648 34.987 8.17307 35.0355 7.96828 35.0355C7.78599 35.0355 7.6256 34.9941 7.4871 34.9112C7.34861 34.8284 7.2403 34.7106 7.16218 34.5579C7.08523 34.4052 7.04617 34.2223 7.04499 34.0092V32.2727H7.80138V33.8743C7.80256 34.0353 7.84577 34.1625 7.931 34.256C8.01622 34.3496 8.13045 34.3963 8.27368 34.3963C8.36483 34.3963 8.45006 34.3756 8.52936 34.3342C8.60867 34.2915 8.67259 34.2288 8.72112 34.146C8.77084 34.0631 8.79511 33.9607 8.79392 33.8388Z" fill="#191919"/>
<path d="M5.21083 35.0533C4.93502 35.0533 4.6965 34.9947 4.49527 34.8775C4.29523 34.7591 4.14075 34.5946 4.03185 34.3839C3.92295 34.172 3.8685 33.9264 3.8685 33.647C3.8685 33.3653 3.92295 33.1191 4.03185 32.9084C4.14075 32.6965 4.29523 32.532 4.49527 32.4148C4.6965 32.2964 4.93502 32.2372 5.21083 32.2372C5.48663 32.2372 5.72456 32.2964 5.92461 32.4148C6.12584 32.532 6.2809 32.6965 6.3898 32.9084C6.49871 33.1191 6.55316 33.3653 6.55316 33.647C6.55316 33.9264 6.49871 34.172 6.3898 34.3839C6.2809 34.5946 6.12584 34.7591 5.92461 34.8775C5.72456 34.9947 5.48663 35.0533 5.21083 35.0533ZM5.21438 34.4673C5.33985 34.4673 5.44461 34.4318 5.52865 34.3608C5.6127 34.2886 5.67603 34.1903 5.71864 34.0661C5.76244 33.9418 5.78434 33.8003 5.78434 33.6417C5.78434 33.4831 5.76244 33.3416 5.71864 33.2173C5.67603 33.093 5.6127 32.9948 5.52865 32.9226C5.44461 32.8504 5.33985 32.8143 5.21438 32.8143C5.08772 32.8143 4.98119 32.8504 4.89478 32.9226C4.80955 32.9948 4.74504 33.093 4.70124 33.2173C4.65863 33.3416 4.63732 33.4831 4.63732 33.6417C4.63732 33.8003 4.65863 33.9418 4.70124 34.0661C4.74504 34.1903 4.80955 34.2886 4.89478 34.3608C4.98119 34.4318 5.08772 34.4673 5.21438 34.4673Z" fill="#191919"/>
<path d="M3.35758 31.3636V35H2.69351L1.11148 32.7113H1.08485V35H0.316029V31.3636H0.990745L2.56035 33.6506H2.59231V31.3636H3.35758Z" fill="#191919"/>
<path d="M19.2986 29.0533C19.0181 29.0533 18.7766 28.9964 18.5742 28.8828C18.373 28.768 18.2179 28.6058 18.109 28.3963C18.0001 28.1856 17.9456 27.9364 17.9456 27.6488C17.9456 27.3683 18.0001 27.122 18.109 26.9102C18.2179 26.6983 18.3712 26.5331 18.5689 26.4148C18.7677 26.2964 19.0009 26.2372 19.2684 26.2372C19.4484 26.2372 19.6159 26.2662 19.7709 26.3242C19.9272 26.381 20.0633 26.4669 20.1793 26.5817C20.2965 26.6965 20.3876 26.8409 20.4527 27.0149C20.5179 27.1877 20.5504 27.3902 20.5504 27.6222V27.8299H18.2475V27.3612H19.8384C19.8384 27.2522 19.8147 27.1558 19.7674 27.0717C19.72 26.9877 19.6543 26.922 19.5703 26.8746C19.4874 26.8261 19.391 26.8018 19.2809 26.8018C19.1661 26.8018 19.0643 26.8285 18.9755 26.8817C18.8879 26.9338 18.8192 27.0043 18.7695 27.093C18.7198 27.1806 18.6943 27.2783 18.6932 27.386V27.8317C18.6932 27.9666 18.718 28.0832 18.7677 28.1815C18.8186 28.2797 18.8902 28.3555 18.9826 28.4087C19.0749 28.462 19.1844 28.4886 19.3111 28.4886C19.3951 28.4886 19.472 28.4768 19.5419 28.4531C19.6117 28.4295 19.6715 28.3939 19.7212 28.3466C19.7709 28.2992 19.8088 28.2412 19.8348 28.1726L20.5344 28.2188C20.4989 28.3868 20.4261 28.5336 20.316 28.6591C20.2071 28.7834 20.0663 28.8804 19.8934 28.9503C19.7218 29.0189 19.5235 29.0533 19.2986 29.0533Z" fill="#191919"/>
<path d="M15.692 27.4233V29H14.9356V25.3636H15.6707V26.7539H15.7027C15.7642 26.5929 15.8636 26.4669 16.001 26.3757C16.1383 26.2834 16.3105 26.2372 16.5176 26.2372C16.707 26.2372 16.8722 26.2786 17.013 26.3615C17.1551 26.4432 17.2652 26.561 17.3433 26.7148C17.4226 26.8675 17.4617 27.0504 17.4605 27.2635V29H16.7041V27.3984C16.7053 27.2304 16.6627 27.0996 16.5762 27.006C16.491 26.9125 16.3715 26.8658 16.2176 26.8658C16.1146 26.8658 16.0234 26.8877 15.9441 26.9315C15.866 26.9753 15.8045 27.0392 15.7595 27.1232C15.7157 27.2061 15.6932 27.3061 15.692 27.4233Z" fill="#191919"/>
<path d="M14.3843 26.2727V26.8409H12.7419V26.2727H14.3843ZM13.1148 25.6193H13.8712V28.1619C13.8712 28.2318 13.8818 28.2862 13.9031 28.3253C13.9244 28.3632 13.954 28.3898 13.9919 28.4052C14.031 28.4206 14.0759 28.4283 14.1268 28.4283C14.1624 28.4283 14.1979 28.4253 14.2334 28.4194C14.2689 28.4123 14.2961 28.407 14.3151 28.4034L14.434 28.9663C14.3961 28.9781 14.3429 28.9917 14.2742 29.0071C14.2056 29.0237 14.1221 29.0337 14.0239 29.0373C13.8416 29.0444 13.6818 29.0201 13.5445 28.9645C13.4083 28.9089 13.3024 28.8224 13.2266 28.7053C13.1509 28.5881 13.1136 28.4401 13.1148 28.2614V25.6193Z" fill="#191919"/>
<path d="M7.21589 29V26.2727H7.93677V26.7539H7.96873C8.02555 26.5941 8.12024 26.468 8.25282 26.3757C8.3854 26.2834 8.54401 26.2372 8.72867 26.2372C8.9157 26.2372 9.07491 26.284 9.2063 26.3775C9.33769 26.4698 9.42529 26.5953 9.46908 26.7539H9.49749C9.55313 26.5977 9.65374 26.4728 9.79934 26.3793C9.94612 26.2846 10.1195 26.2372 10.3196 26.2372C10.5741 26.2372 10.7806 26.3183 10.9393 26.4805C11.0991 26.6415 11.179 26.8699 11.179 27.1658V29H10.4243V27.315C10.4243 27.1635 10.3841 27.0498 10.3036 26.9741C10.2231 26.8983 10.1225 26.8604 10.0018 26.8604C9.86444 26.8604 9.75732 26.9042 9.68038 26.9918C9.60343 27.0782 9.56496 27.1925 9.56496 27.3345V29H8.83165V27.299C8.83165 27.1652 8.79318 27.0587 8.71624 26.9794C8.64048 26.9001 8.54046 26.8604 8.41617 26.8604C8.33213 26.8604 8.25637 26.8817 8.1889 26.9244C8.12261 26.9658 8.06994 27.0244 8.03087 27.1001C7.99181 27.1747 7.97228 27.2623 7.97228 27.3629V29H7.21589Z" fill="#191919"/>
<path d="M5.38173 29.0533C5.10592 29.0533 4.8674 28.9947 4.66617 28.8775C4.46612 28.7591 4.31165 28.5946 4.20275 28.3839C4.09385 28.172 4.0394 27.9264 4.0394 27.647C4.0394 27.3653 4.09385 27.1191 4.20275 26.9084C4.31165 26.6965 4.46612 26.532 4.66617 26.4148C4.8674 26.2964 5.10592 26.2372 5.38173 26.2372C5.65753 26.2372 5.89546 26.2964 6.0955 26.4148C6.29673 26.532 6.4518 26.6965 6.5607 26.9084C6.6696 27.1191 6.72405 27.3653 6.72405 27.647C6.72405 27.9264 6.6696 28.172 6.5607 28.3839C6.4518 28.5946 6.29673 28.7591 6.0955 28.8775C5.89546 28.9947 5.65753 29.0533 5.38173 29.0533ZM5.38528 28.4673C5.51075 28.4673 5.61551 28.4318 5.69955 28.3608C5.7836 28.2886 5.84692 28.1903 5.88954 28.0661C5.93334 27.9418 5.95523 27.8003 5.95523 27.6417C5.95523 27.4831 5.93334 27.3416 5.88954 27.2173C5.84692 27.093 5.7836 26.9948 5.69955 26.9226C5.61551 26.8504 5.51075 26.8143 5.38528 26.8143C5.25862 26.8143 5.15208 26.8504 5.06567 26.9226C4.98045 26.9948 4.91593 27.093 4.87214 27.2173C4.82952 27.3416 4.80822 27.4831 4.80822 27.6417C4.80822 27.8003 4.82952 27.9418 4.87214 28.0661C4.91593 28.1903 4.98045 28.2886 5.06567 28.3608C5.15208 28.4318 5.25862 28.4673 5.38528 28.4673Z" fill="#191919"/>
<path d="M2.23054 29V26.2727H2.96385V26.7486H2.99225C3.04197 26.5793 3.12542 26.4515 3.24261 26.3651C3.3598 26.2775 3.49474 26.2337 3.64744 26.2337C3.68532 26.2337 3.72616 26.236 3.76995 26.2408C3.81375 26.2455 3.85222 26.252 3.88537 26.2603V26.9315C3.84985 26.9208 3.80073 26.9113 3.73799 26.9031C3.67526 26.8948 3.61785 26.8906 3.56576 26.8906C3.45449 26.8906 3.35506 26.9149 3.26747 26.9634C3.18106 27.0108 3.1124 27.0771 3.0615 27.1623C3.01179 27.2475 2.98693 27.3458 2.98693 27.457V29H2.23054Z" fill="#191919"/>
<path d="M1.76844 26.2727V26.8409H0.0852051V26.2727H1.76844ZM0.470503 29V26.0756C0.470503 25.878 0.508974 25.714 0.585915 25.5838C0.66404 25.4536 0.770574 25.3559 0.905518 25.2908C1.04046 25.2257 1.19375 25.1932 1.36539 25.1932C1.48139 25.1932 1.58734 25.2021 1.68322 25.2198C1.78028 25.2376 1.85249 25.2536 1.89984 25.2678L1.76489 25.8359C1.7353 25.8265 1.6986 25.8176 1.65481 25.8093C1.61219 25.801 1.5684 25.7969 1.52342 25.7969C1.41215 25.7969 1.33461 25.8229 1.29082 25.875C1.24702 25.9259 1.22512 25.9975 1.22512 26.0898V29H0.470503Z" fill="#191919"/>
<path fill-rule="evenodd" clip-rule="evenodd" d="M19.2557 3.02713C19.2555 3.02766 19.2553 3.02818 19.2552 3.02871L16.7545 11.4198L16.7536 11.4228C16.2968 12.9333 14.9079 13.9652 13.3325 13.9652H6.01422C5.38901 13.9652 4.82285 14.2189 4.41329 14.6288C4.00327 15.0392 3.74998 15.6062 3.74998 16.2273C3.74998 17.1592 4.31313 17.9595 5.11922 18.3054C5.35208 16.0746 7.23453 14.3375 9.52701 14.3375C11.7334 14.3375 13.5615 15.9522 13.8987 18.0666C15.4986 17.4054 16.75 16.0257 17.2124 14.2727L20.0062 3.24856C20.008 3.24133 20.01 3.23413 20.012 3.22695C20.0144 3.21851 20.0198 3.19182 20.0198 3.13983C20.0198 2.92826 19.8493 2.75 19.6263 2.75C19.4608 2.75 19.3071 2.86076 19.2557 3.02713ZM17.8202 2.59174C18.062 1.7977 18.7952 1.25 19.6263 1.25C20.7023 1.25 21.5198 2.12456 21.5198 3.13983C21.5198 3.27687 21.5074 3.44689 21.4579 3.62613L18.6639 14.6512C17.9845 17.2327 15.9513 19.1757 13.4421 19.7894C13.4355 19.791 13.429 19.7925 13.4223 19.7939C13.4176 19.7951 13.4052 19.7982 13.3939 19.8007C13.3782 19.8043 13.3523 19.8099 13.3209 19.8147C13.29 19.8193 13.2448 19.8246 13.1908 19.8246C12.9801 19.8246 12.7791 19.736 12.637 19.5804C12.4949 19.4249 12.4248 19.2167 12.4438 19.0069C12.4509 18.9285 12.4545 18.8504 12.4545 18.7725C12.4545 17.1485 11.1425 15.8375 9.52701 15.8375C7.90639 15.8375 6.59499 17.1491 6.59499 18.7725C6.59499 18.8992 6.60244 19.0247 6.61698 19.1445C6.64354 19.3636 6.57231 19.5832 6.42226 19.7449C6.27221 19.9067 6.05856 19.9941 5.83816 19.984C3.83873 19.8926 2.24998 18.246 2.24998 16.2273C2.24998 15.1913 2.67362 14.2477 3.3522 13.5686C4.03125 12.889 4.97451 12.4652 6.01422 12.4652H13.3325C14.245 12.4652 15.0512 11.8681 15.3174 10.9899C15.3176 10.9894 15.3177 10.989 15.3179 10.9885L17.8189 2.59602L17.8202 2.59174Z" fill="#191919"/>
<path fill-rule="evenodd" clip-rule="evenodd" d="M9.52701 15.8375C7.90639 15.8375 6.59499 17.1491 6.59499 18.7725C6.59499 18.8986 6.60224 19.0235 6.61665 19.1429C6.79962 20.5902 8.03144 21.7075 9.52688 21.7075C11.0617 21.7075 12.3228 20.52 12.443 19.0149L12.4438 19.0069C12.4509 18.9285 12.4545 18.8504 12.4545 18.7725C12.4545 17.1485 11.1425 15.8375 9.52701 15.8375ZM5.09486 18.7725C5.09486 16.3218 7.07681 14.3375 9.52701 14.3375C11.9732 14.3375 13.9543 16.3224 13.9543 18.7725C13.9543 18.8946 13.9488 19.0166 13.9379 19.1383C13.7543 21.4125 11.8511 23.2075 9.52688 23.2075C7.26313 23.2075 5.40333 21.515 5.12817 19.3285L5.12775 19.3251C5.10566 19.1429 5.09486 18.9571 5.09486 18.7725Z" fill="#191919"/>
</g>
<defs>
<clipPath id="clip0_1116_101">
<rect width="24" height="24" fill="white"/>
</clipPath>
</defs>
</svg>
