<svg width="24" height="24" viewBox="0 0 24 24" fill="none" xmlns="http://www.w3.org/2000/svg">
<path d="M19.3886 4.99109C19.3153 4.82596 19.1778 4.68835 19.0128 4.61496C17.0973 3.80766 14.9251 3.5141 12.6338 3.95445C8.28026 4.78009 4.79746 8.27532 3.95425 12.6237C3.51432 14.9172 3.80761 17.1006 4.61415 19.0087C4.68748 19.183 4.82496 19.3115 4.98993 19.3848C6.90547 20.1921 9.07764 20.4857 11.369 20.0454C15.7225 19.2105 19.2053 15.7245 20.0393 11.3669C20.4884 9.08262 20.1951 6.89925 19.3886 4.99109ZM18.4171 5.34887C18.527 5.39474 18.6187 5.48648 18.6645 5.59656C19.2511 6.97264 19.4252 8.54137 19.2694 10.1927L13.8069 4.72505C13.9444 4.71587 14.0819 4.68835 14.2285 4.67918C15.7225 4.59661 17.1523 4.81679 18.4171 5.34887ZM5.61317 18.6693C5.50319 18.6234 5.4207 18.5317 5.37487 18.4216C4.83412 17.1556 4.61415 15.7245 4.68748 14.22C4.69664 14.0824 4.71497 13.9448 4.7333 13.798L10.1958 19.2656C8.55522 19.4307 6.98796 19.2564 5.61317 18.6693ZM11.3415 19.1188L4.89828 12.6696C5.71399 8.75236 8.76602 5.70665 12.6796 4.881L19.1228 11.3302C18.3254 15.2199 15.2184 18.3299 11.3415 19.1188Z" fill="#191919"/>
<path d="M14.5909 9.4086C14.411 9.22862 14.1193 9.22862 13.9395 9.4086L13.2937 10.055L13.0786 9.83978C12.8992 9.66017 12.6077 9.6612 12.4296 9.84208C12.2534 10.0209 12.2544 10.3083 12.4318 10.4859L12.6521 10.7064L12.0014 11.3486L11.7863 11.1333C11.6065 10.9533 11.3148 10.9533 11.1349 11.1333C10.9554 11.313 10.9554 11.6043 11.1349 11.784L11.3506 11.9999L10.7091 12.6512L10.4894 12.4314C10.3118 12.2536 10.0239 12.2525 9.84495 12.4291C9.66447 12.6072 9.66344 12.8982 9.84265 13.0775L10.0583 13.2934L9.41187 13.9405C9.2323 14.1202 9.2323 14.4115 9.41187 14.5912C9.59169 14.7712 9.8834 14.7712 10.0632 14.5912L10.7091 13.9448L10.9164 14.1559C11.095 14.3377 11.3876 14.3389 11.5677 14.1586C11.7465 13.9797 11.7465 13.6897 11.5677 13.5107L11.3506 13.2934L12.0014 12.6512L12.2164 12.8665C12.3963 13.0465 12.688 13.0465 12.8678 12.8665C13.0474 12.6868 13.0474 12.3955 12.8678 12.2158L12.6521 11.9999L13.2937 11.3486L13.5133 11.5684C13.691 11.7462 13.9789 11.7473 14.1578 11.5707C14.3383 11.3926 14.3393 11.1016 14.1601 10.9223L13.9444 10.7064L14.5909 10.0593C14.7704 9.87959 14.7704 9.58834 14.5909 9.4086Z" fill="#191919"/>
<path fill-rule="evenodd" clip-rule="evenodd" d="M12.615 3.85622C14.9266 3.41201 17.1188 3.70821 19.0516 4.52281L19.0535 4.52358C19.2411 4.60704 19.3966 4.76277 19.48 4.95051L19.4807 4.95215C20.2946 6.87772 20.5905 9.08125 20.1375 11.386C19.2957 15.7836 15.7815 19.301 11.3878 20.1436C9.07621 20.5878 6.88399 20.2916 4.95109 19.477L4.94928 19.4762C4.7636 19.3936 4.60622 19.2477 4.52201 19.0476C3.70809 17.1219 3.41224 14.9185 3.85604 12.6049C4.70697 8.21667 8.221 4.6896 12.615 3.85622ZM18.973 4.70672C17.0751 3.90703 14.9233 3.61628 12.6526 4.05265C8.33975 4.87059 4.88798 8.33414 4.05245 12.6426C3.61641 14.9159 3.90712 17.0791 4.70626 18.9698C4.76858 19.1179 4.88585 19.2289 5.02969 19.2931C6.92765 20.0928 9.07945 20.3835 11.3501 19.9472C15.6633 19.1201 19.1147 15.6655 19.9411 11.3481C20.3861 9.08469 20.0957 6.92137 19.2968 5.03089C19.2336 4.88901 19.1147 4.77002 18.973 4.70672ZM18.3783 5.44104C17.1293 4.91563 15.7151 4.69722 14.2344 4.77901C14.1651 4.78336 14.0974 4.79207 14.0273 4.80126L14.0248 4.8016L19.1882 9.96985C19.3087 8.40977 19.1259 6.93405 18.5725 5.63578C18.5368 5.55002 18.4639 5.47675 18.3783 5.44104ZM18.4558 5.25669C17.1753 4.71798 15.7301 4.49604 14.223 4.57933C14.1458 4.58416 14.0709 4.59383 14.0013 4.60296L13.9959 4.60366C13.9273 4.61268 13.8636 4.62105 13.8003 4.62527L13.5805 4.63993L19.349 10.4138L19.369 10.2021C19.526 8.53849 19.3511 6.95247 18.7567 5.55774C18.7007 5.42359 18.5899 5.31271 18.4558 5.25669ZM12.712 4.77196L19.2316 11.2976L19.2207 11.3503C18.4154 15.2791 15.2778 18.4198 11.3614 19.2168L11.3087 19.2275L4.78937 12.7021L4.80038 12.6492C5.62422 8.69291 8.70673 5.61696 12.659 4.78316L12.712 4.77196ZM5.00731 12.6372C5.82742 8.80213 8.81536 5.82005 12.6473 4.99017L19.0139 11.3627C18.2111 15.1712 15.1696 18.2154 11.3741 19.01L5.00731 12.6372ZM14.5201 9.47928C14.3794 9.33839 14.151 9.33839 14.0103 9.47928L13.2937 10.1965L13.0079 9.91045C12.8677 9.77014 12.64 9.77094 12.5008 9.91225C12.3632 10.052 12.364 10.2765 12.5026 10.4153L12.794 10.7069L12.0009 11.4895L11.7155 11.204C11.5748 11.0631 11.3464 11.0631 11.2057 11.204C11.0651 11.3447 11.0651 11.5726 11.2057 11.7133L11.4915 11.9994L10.7096 12.7932L10.4187 12.5021C10.2799 12.3631 10.055 12.3623 9.91519 12.5003C9.7742 12.6394 9.77339 12.8667 9.91339 13.0069L10.1997 13.2934L9.48262 14.0112C9.34205 14.1519 9.34205 14.3798 9.48262 14.5205C9.62337 14.6614 9.85172 14.6614 9.99247 14.5205L10.7097 13.8027L10.9877 14.0858C11.1274 14.228 11.3561 14.2289 11.497 14.088C11.6368 13.948 11.6368 13.7213 11.497 13.5814L11.2088 13.2929L12.0019 12.5103L12.2872 12.7958C12.4279 12.9367 12.6563 12.9367 12.797 12.7958C12.9376 12.6551 12.9376 12.4272 12.797 12.2865L12.5112 12.0004L13.2932 11.2066L13.5841 11.4977C13.7229 11.6367 13.9478 11.6375 14.0875 11.4995C14.2285 11.3604 14.2293 11.1331 14.0893 10.993L13.8031 10.7064L14.5201 9.98866C14.6607 9.84796 14.6607 9.61998 14.5201 9.47928ZM13.8688 9.33792C14.0876 9.11884 14.4427 9.11884 14.6616 9.33792C14.8802 9.55671 14.8802 9.91122 14.6616 10.13L14.0858 10.7064L14.2308 10.8516C14.4492 11.0702 14.448 11.4248 14.228 11.6419C14.01 11.8571 13.6591 11.8558 13.4426 11.6391L13.2942 11.4906L12.793 11.9994L12.9385 12.1451C13.1571 12.3639 13.1571 12.7184 12.9385 12.9372C12.7197 13.1563 12.3646 13.1563 12.1457 12.9372L12.0009 12.7922L11.4925 13.2939L11.6385 13.44C11.8563 13.658 11.8563 14.0113 11.6385 14.2293C11.419 14.449 11.0626 14.4474 10.8451 14.2259L10.7085 14.0869L10.134 14.6619C9.91508 14.881 9.56 14.881 9.34113 14.6619C9.12254 14.4431 9.12254 14.0886 9.34113 13.8698L9.91697 13.2934L9.7719 13.1482C9.55349 12.9296 9.55475 12.575 9.77471 12.3579C9.99276 12.1427 10.3436 12.144 10.5601 12.3607L10.7086 12.5093L11.2098 12.0004L11.0642 11.8547C10.8456 11.6359 10.8456 11.2814 11.0642 11.0626C11.2831 10.8435 11.6382 10.8435 11.857 11.0626L12.0019 11.2076L12.5102 10.7059L12.3611 10.5566C12.1449 10.3402 12.1436 9.98987 12.3583 9.7719C12.5755 9.55145 12.9306 9.5502 13.1493 9.7691L13.2937 9.91356L13.8688 9.33792ZM4.65943 13.5825L10.4155 19.344L10.2058 19.3651C8.55233 19.5315 6.96745 19.3564 5.57389 18.7613C5.43653 18.7037 5.33703 18.5906 5.28273 18.4604C4.73524 17.1785 4.51367 15.7321 4.58759 14.2151L4.58768 14.2133C4.59603 14.088 4.61181 13.9627 4.62794 13.8344C4.62999 13.8182 4.63203 13.8019 4.63407 13.7856L4.65943 13.5825ZM4.80747 14.0137C4.79911 14.0857 4.792 14.1558 4.78731 14.2257C4.71474 15.7173 4.93306 17.1326 5.46683 18.3823C5.50412 18.4719 5.56961 18.5428 5.65166 18.577C6.94886 19.131 8.42405 19.3141 9.97444 19.1855L4.80747 14.0137Z" fill="#191919"/>
</svg>
