<svg width="24" height="24" viewBox="0 0 24 24" fill="none" xmlns="http://www.w3.org/2000/svg">
<path d="M5.25 3C4.01625 3 3 4.01625 3 5.25C3 6.48375 4.01625 7.5 5.25 7.5C6.48375 7.5 7.5 6.48375 7.5 5.25C7.5 4.01625 6.48375 3 5.25 3ZM14.2035 3.6795C13.9683 3.68371 13.7335 3.69973 13.5 3.7275C11.6482 3.94425 9.92025 4.893 8.60175 6.2115C7.6755 7.134 6.90825 8.4615 6.65625 10.9222C6.64718 10.9453 6.63942 10.9688 6.633 10.9927V11.016C6.61417 11.0539 6.59837 11.0933 6.58575 11.1337C6.58275 11.151 6.58875 11.16 6.58575 11.1803V11.274C6.59272 11.3711 6.61658 11.4663 6.65625 11.5553C6.69375 12.2295 6.78825 12.918 7.03125 13.5712H7.008C7.01925 13.6357 7.09575 13.9575 7.10175 14.274C7.10475 14.5117 7.01925 14.7285 7.008 14.79C6.5505 15.2437 6.003 15.7185 5.48475 16.1257C4.96575 16.533 4.51725 16.8847 4.19475 17.2042H4.17225C3.97948 17.4073 3.83832 17.6537 3.76066 17.9227C3.683 18.1917 3.67111 18.4754 3.726 18.75C3.84 19.275 4.1415 19.7288 4.54575 20.133C4.94775 20.5343 5.4045 20.8328 5.92875 20.9528C6.45375 21.0728 7.089 20.9182 7.49925 20.508C7.82775 20.1795 8.14425 19.7167 8.55375 19.1955C8.964 18.6735 9.42975 18.108 9.8895 17.6483C9.837 17.7008 10.0658 17.5785 10.359 17.5785C10.596 17.5785 10.7925 17.601 10.944 17.625C10.983 17.631 11.0617 17.6453 11.085 17.6483C11.7382 17.8912 12.4275 17.9827 13.101 18.0233C13.1093 18.0233 13.116 18.0472 13.1243 18.0472C13.1768 18.0615 13.233 18.0675 13.2885 18.0697C13.3113 18.079 13.3346 18.0871 13.3583 18.0938H13.5C13.5472 18.0907 13.5938 18.0817 13.641 18.0705C13.6702 18.0675 13.6815 18.0495 13.7108 18.0465H13.7347C15.993 17.859 17.5072 17.0415 18.4688 16.0778C19.7873 14.76 20.736 13.0312 20.9535 11.1803C21.1702 9.32775 20.5928 7.35075 18.9608 5.71875C17.5343 4.29225 15.8438 3.66825 14.2035 3.6795ZM5.25 4.5C5.67225 4.5 6 4.8285 6 5.25C6 5.67225 5.6715 6 5.25 6C4.82775 6 4.5 5.6715 4.5 5.25C4.5 4.82775 4.8285 4.5 5.25 4.5ZM14.2035 5.1795C15.4688 5.15625 16.737 5.60475 17.9062 6.77325C19.245 8.109 19.6238 9.57075 19.4535 11.0153C19.2832 12.4598 18.5243 13.9132 17.4135 15.0233C16.6673 15.7703 15.5835 16.3538 13.6875 16.5233L8.15625 10.992C8.376 8.877 8.89725 8.0715 9.6795 7.28925C10.7895 6.17925 12.2168 5.39625 13.6642 5.22675C13.8457 5.20575 14.022 5.1825 14.2035 5.1795ZM8.50725 13.5L11.1788 16.1483C10.9078 16.1011 10.6333 16.0778 10.3582 16.0785C9.9015 16.0807 9.32175 16.1077 8.83575 16.5938C8.31901 17.1195 7.83367 17.6752 7.38225 18.258C6.963 18.7905 6.591 19.2833 6.4215 19.4528C6.333 19.5413 6.3765 19.5263 6.2565 19.5C6.1365 19.4737 5.8935 19.3245 5.62425 19.0545C5.36025 18.7913 5.229 18.5475 5.202 18.4222C5.17575 18.2962 5.1495 18.3308 5.226 18.2572C5.3835 18.0998 5.86125 17.7188 6.3975 17.2972C6.93375 16.875 7.54575 16.3822 8.085 15.8438C8.604 15.3255 8.61 14.7247 8.601 14.25C8.595 13.89 8.5395 13.6785 8.50725 13.5Z" fill="#191919"/>
</svg>
