<svg width="24" height="24" viewBox="0 0 24 24" fill="none" xmlns="http://www.w3.org/2000/svg">
<path d="M5.14 17.6889L4 16.6104L7.28 13.4519C7.69333 13.0538 7.9768 12.5562 8.1304 11.9589C8.284 11.3616 8.36053 10.4469 8.36 9.21484C8.36 8.47015 8.53333 7.7383 8.88 7.01929C9.22667 6.30028 9.72 5.63262 10.36 5.01633C11.5733 3.84793 12.9133 3.1867 14.38 3.03263C15.8467 2.87855 17.0533 3.27016 18 4.20744C18.96 5.13188 19.36 6.30028 19.2 7.71262C19.04 9.12496 18.36 10.4089 17.16 11.5645C16.52 12.1808 15.8267 12.6558 15.08 12.9896C14.3333 13.3235 13.5733 13.4904 12.8 13.4904C11.5067 13.4904 10.56 13.561 9.96 13.7022C9.36 13.8435 8.84667 14.1195 8.42 14.5304L5.14 17.6889ZM10.64 11.2563C11.2667 11.8469 12.1133 12.0652 13.18 11.9111C14.2467 11.7571 15.2 11.2756 16.04 10.4667C16.8933 9.64496 17.4035 8.7236 17.5704 7.7026C17.7373 6.68161 17.5072 5.88248 16.88 5.30522C16.24 4.68892 15.4032 4.45781 14.3696 4.61188C13.336 4.76596 12.3861 5.25386 11.52 6.07558C10.68 6.88447 10.1699 7.79941 9.9896 8.82041C9.80933 9.8414 10.0261 10.6534 10.64 11.2563ZM16.8 20C15.92 20 15.1667 19.6983 14.54 19.0948C13.9133 18.4914 13.6 17.7659 13.6 16.9185C13.6 16.0711 13.9133 15.3457 14.54 14.7422C15.1667 14.1388 15.92 13.8371 16.8 13.8371C17.68 13.8371 18.4333 14.1388 19.06 14.7422C19.6867 15.3457 20 16.0711 20 16.9185C20 17.7659 19.6867 18.4914 19.06 19.0948C18.4333 19.6983 17.68 20 16.8 20ZM16.8 18.4593C17.24 18.4593 17.6168 18.3083 17.9304 18.0063C18.244 17.7043 18.4005 17.3417 18.4 16.9185C18.4 16.4948 18.2432 16.132 17.9296 15.83C17.616 15.528 17.2395 15.3773 16.8 15.3778C16.36 15.3778 15.9832 15.5288 15.6696 15.8308C15.356 16.1327 15.1995 16.4953 15.2 16.9185C15.2 17.3422 15.3568 17.7051 15.6704 18.0071C15.984 18.309 16.3605 18.4598 16.8 18.4593Z" fill="#191919"/>
</svg>
