<svg width="24" height="24" viewBox="0 0 24 24" fill="none" xmlns="http://www.w3.org/2000/svg">
<path d="M11.9999 3.7499C7.44407 3.7499 3.7499 7.44407 3.7499 11.9999C3.7499 16.5557 7.44407 20.2499 11.9999 20.2499C16.5557 20.2499 20.2499 16.5557 20.2499 11.9999C20.2499 7.44407 16.5557 3.7499 11.9999 3.7499ZM18.1232 7.96657C17.0782 7.33407 15.7949 7.10491 14.5207 7.46241C12.3941 8.06741 11.0466 10.0932 11.2116 12.2199C10.6157 12.4216 9.97407 12.4582 9.3599 12.3391C8.77324 10.4507 9.21324 8.30573 10.7074 6.81157C11.8441 5.6749 13.3382 5.16157 14.8232 5.22574C16.1707 5.79407 17.3257 6.75657 18.1232 7.96657ZM7.27907 6.39907C8.55324 5.3174 10.2032 4.66657 11.9999 4.66657C12.1282 4.66657 12.2474 4.67574 12.3757 4.68491C11.5324 4.99657 10.7349 5.4824 10.0566 6.1699C8.4799 7.74657 7.9024 9.94657 8.3149 11.9907C8.0124 11.8257 7.71907 11.6149 7.4624 11.3582C6.10574 9.9924 6.05074 7.83824 7.27907 6.39907ZM4.66657 11.9999C4.66657 10.7716 4.96907 9.62574 5.50074 8.60824C5.4549 9.82741 5.87657 11.0649 6.81157 11.9999C7.48074 12.6691 8.30574 13.0724 9.1674 13.2374C9.18574 13.2374 9.20407 13.2466 9.23157 13.2466C9.3874 13.2741 9.54324 13.2924 9.69907 13.3107C9.7174 13.3107 9.73574 13.3199 9.75407 13.3199C9.75407 13.3199 9.75407 13.3199 9.75407 13.3107C10.2949 13.3474 10.8449 13.2924 11.3766 13.1274C11.3766 13.1274 11.3766 13.1274 11.3857 13.1274C11.6791 13.0357 11.9632 12.9166 12.2382 12.7699C12.2382 12.7699 12.2382 12.7699 12.2474 12.7699C12.3666 12.7057 12.4857 12.6599 12.5957 12.5866C13.0632 13.0082 13.4116 13.5399 13.6132 14.1266C12.2107 15.5749 10.0657 16.1982 8.0124 15.5474C6.49074 15.0707 5.33574 13.9799 4.7124 12.6416C4.6849 12.4307 4.66657 12.2107 4.66657 11.9999ZM9.4699 18.8749C7.6274 18.1966 6.1424 16.8124 5.33574 15.0432C6.0049 15.6574 6.81157 16.1341 7.72824 16.4274C9.9099 17.1149 12.1741 16.5741 13.8057 15.1991C13.8149 15.5566 13.7782 15.9141 13.6774 16.2807C13.1549 18.1141 11.3216 19.2232 9.4699 18.8749ZM15.9599 18.1691C14.8874 18.8566 13.6224 19.2691 12.2657 19.3241C13.3474 18.7649 14.2091 17.7841 14.5574 16.5191C15.1532 14.3741 14.1174 12.1649 12.1924 11.2024C12.3024 10.5974 12.5774 10.0291 12.9624 9.56157C14.9791 10.0841 16.6107 11.7249 17.0049 13.9066C17.2799 15.4649 16.8491 16.9957 15.9599 18.1691ZM17.7932 16.4916C18.0224 15.6207 18.0774 14.6857 17.9032 13.7324C17.4816 11.3857 15.8316 9.57991 13.7416 8.83741C14.0532 8.62657 14.3924 8.46157 14.7774 8.35157C16.6291 7.81991 18.5449 8.82824 19.2049 10.5974C19.2966 11.0557 19.3424 11.5232 19.3424 11.9999C19.3332 13.6957 18.7557 15.2449 17.7932 16.4916Z" fill="#191919"/>
<path fill-rule="evenodd" clip-rule="evenodd" d="M3.6499 11.9999C3.6499 7.38884 7.38884 3.6499 11.9999 3.6499C16.611 3.6499 20.3499 7.38884 20.3499 11.9999C20.3499 16.611 16.611 20.3499 11.9999 20.3499C7.38884 20.3499 3.6499 16.611 3.6499 11.9999ZM11.9999 3.8499C7.4993 3.8499 3.8499 7.4993 3.8499 11.9999C3.8499 16.5005 7.4993 20.1499 11.9999 20.1499C16.5005 20.1499 20.1499 16.5005 20.1499 11.9999C20.1499 7.4993 16.5005 3.8499 11.9999 3.8499ZM7.34994 6.47009C6.16027 7.8702 6.21582 9.96122 7.53325 11.2877C7.72968 11.4841 7.94862 11.6532 8.17707 11.7949C7.83984 9.7817 8.43956 7.64564 9.98563 6.09942C10.5583 5.51903 11.2144 5.08032 11.9107 4.76711C10.1761 4.78823 8.58471 5.42423 7.34994 6.47009ZM7.21435 6.32283C8.50593 5.22638 10.1787 4.56657 11.9999 4.56657C12.1239 4.56657 12.2394 4.57487 12.358 4.58338C12.3662 4.58397 12.3745 4.58457 12.3829 4.58516L12.4104 4.77871C11.5796 5.08573 10.7949 5.56395 10.1278 6.24014C8.57601 7.79188 8.0067 9.95788 8.41293 11.971L8.45536 12.1813L8.26702 12.0785C7.95709 11.9095 7.65584 11.6931 7.39169 11.4289C5.99781 10.0256 5.94139 7.81231 7.20301 6.33415L7.20822 6.32804L7.21435 6.32283ZM14.801 5.3249C13.348 5.26675 11.8891 5.77133 10.7781 6.88228C9.3268 8.33359 8.88818 10.4111 9.43786 12.2518C9.99249 12.3499 10.5676 12.3178 11.1064 12.149C10.9766 10.0049 12.3461 7.97708 14.4934 7.36622C15.6454 7.043 16.8048 7.189 17.7954 7.67374C17.0287 6.6483 15.9914 5.83049 14.801 5.3249ZM10.6367 6.74085C11.7945 5.58305 13.3165 5.06054 14.8276 5.12583L14.8455 5.12661L14.8621 5.1336C16.2278 5.70961 17.3983 6.68502 18.2067 7.91154L18.0715 8.05212C17.0484 7.43292 15.7935 7.2092 14.5479 7.55865C12.4682 8.15039 11.1499 10.1319 11.3113 12.2122L11.3173 12.2897L11.2436 12.3146C10.6307 12.5221 9.97139 12.5596 9.34085 12.4372L9.28215 12.4258L9.2644 12.3687C8.66734 10.4469 9.11483 8.26272 10.6367 6.74085ZM19.1084 10.6249C18.4636 8.9081 16.6027 7.93153 14.805 8.44769C14.4983 8.53533 14.2213 8.65889 13.9643 8.81372C15.9963 9.6073 17.586 11.4023 18.0016 13.7145C18.147 14.5103 18.1352 15.2936 17.9972 16.0381C17.9071 16.172 17.8126 16.3028 17.7141 16.4305L17.7932 16.4916L17.8899 16.517C17.9314 16.3594 17.9673 16.1997 17.9972 16.0381C18.7759 14.8818 19.2342 13.4989 19.2424 11.9997C19.2424 11.5323 19.1977 11.0741 19.1084 10.6249ZM19.1084 10.6249C19.1094 10.6274 19.1103 10.6299 19.1112 10.6324L19.2049 10.5974L19.1068 10.617C19.1074 10.6196 19.1079 10.6223 19.1084 10.6249ZM14.7498 8.25546C16.6529 7.70903 18.6208 8.74554 19.2986 10.5625L19.3014 10.5699L19.303 10.5778C19.3959 11.0427 19.4424 11.5168 19.4424 11.9999C19.4331 13.7186 18.8477 15.2894 17.8724 16.5527L17.6965 16.4661C17.9222 15.6086 17.9762 14.6884 17.8049 13.7504C17.3898 11.4407 15.7659 9.66269 13.7081 8.93164L13.5217 8.86541L13.6855 8.75458C14.0053 8.53827 14.354 8.36856 14.7498 8.25546ZM5.40377 9.03603C4.99508 9.94154 4.76657 10.9395 4.76657 11.9999C4.76657 12.2002 4.78358 12.4102 4.80958 12.6133C5.42331 13.9214 6.5544 14.9859 8.0423 15.452C10.0369 16.0842 12.1203 15.4919 13.4982 14.1011C13.3077 13.5764 12.9958 13.099 12.5837 12.7114C12.5451 12.7335 12.5066 12.7531 12.469 12.7715C12.452 12.7798 12.4354 12.7878 12.419 12.7957C12.3767 12.8161 12.3362 12.8357 12.2948 12.8579L12.2726 12.8699H12.2631C11.9896 13.0141 11.707 13.1318 11.4156 13.2228L11.401 13.2274H11.3916C10.8869 13.3821 10.3668 13.44 9.85407 13.4166V13.4199H9.75407C9.74131 13.4199 9.73021 13.4183 9.72187 13.4168C9.71426 13.4153 9.70712 13.4135 9.70293 13.4125L9.69556 13.4107H9.6873L9.68562 13.4098C9.53322 13.3919 9.37763 13.3736 9.22157 13.3463C9.20113 13.3454 9.18468 13.3419 9.17437 13.3396L9.16424 13.3374H9.15791L9.14859 13.3356C8.2688 13.1672 7.42525 12.755 6.74086 12.0706C5.89503 11.2248 5.46048 10.1372 5.40377 9.03603ZM9.65407 13.2047C9.51738 13.1885 9.38299 13.1717 9.24895 13.1481L9.24032 13.1466H9.23157C9.22914 13.1466 9.2264 13.1463 9.21773 13.1444C9.21433 13.1436 9.20641 13.1418 9.19917 13.1405C9.19378 13.1395 9.187 13.1384 9.17924 13.1379C8.33822 12.9755 7.53442 12.5813 6.88228 11.9292C5.96855 11.0155 5.55579 9.80569 5.60067 8.612L5.41211 8.56193C4.87327 9.59314 4.56657 10.7548 4.56657 11.9999C4.56657 12.2162 4.58536 12.4407 4.61324 12.6545L4.61524 12.6698L4.62175 12.6838C5.25617 14.0459 6.4322 15.1571 7.98219 15.6427C10.0733 16.3055 12.2574 15.6705 13.6851 14.1961L13.7277 14.1521L13.7078 14.0941C13.5007 13.4915 13.1429 12.9454 12.6627 12.5123L12.605 12.4602L12.5403 12.5034C12.4909 12.5363 12.4384 12.5638 12.381 12.5919C12.3664 12.599 12.3512 12.6063 12.3357 12.6138C12.2993 12.6314 12.2608 12.65 12.2226 12.6699H12.2132L12.1912 12.6817C11.9261 12.823 11.6526 12.9382 11.3704 13.0274H11.3614L11.3469 13.0319C10.828 13.193 10.2904 13.2469 9.76083 13.211L9.65407 13.2037V13.2047ZM12.9258 9.44877L12.9875 9.46476C15.0403 9.99662 16.7019 11.6671 17.1033 13.8888C17.3835 15.4763 16.9445 17.0354 16.0396 18.2295L16.0289 18.2436L16.0139 18.2533C14.9265 18.9503 13.6443 19.3683 12.2698 19.424L12.2198 19.2352C13.2784 18.688 14.1206 17.7288 14.461 16.4925C15.0437 14.3947 14.0309 12.2334 12.1477 11.2918L12.0806 11.2583L12.094 11.1845C12.2072 10.5617 12.49 9.97786 12.8852 9.49799L12.9258 9.44877ZM12.9994 9.67485C12.6609 10.1011 12.4155 10.6086 12.3049 11.1475C14.2282 12.1485 15.2557 14.379 14.6538 16.5458C14.3392 17.6878 13.6157 18.6028 12.6905 19.1945C13.8605 19.0798 14.9505 18.694 15.8909 18.0945C16.7571 16.9438 17.1751 15.447 16.9065 13.9242C16.5235 11.805 14.9512 10.2053 12.9994 9.67485ZM5.24475 15.0847L5.40335 14.9696C6.06189 15.574 6.85587 16.0432 7.7586 16.3321C9.90586 17.0087 12.1345 16.4766 13.7413 15.1226L13.9004 14.9886L13.9057 15.1965C13.9151 15.5628 13.8775 15.9302 13.7738 16.3073C13.237 18.1909 11.3532 19.3309 9.45141 18.9732L9.4432 18.9716L9.43535 18.9687C7.56777 18.2812 6.06247 16.8781 5.24475 15.0847ZM5.64203 15.4348C6.47051 16.9695 7.83594 18.1646 9.49658 18.7782C11.2952 19.1122 13.0736 18.0338 13.5811 16.2538C13.6595 15.9685 13.698 15.6889 13.7057 15.4097C12.0634 16.7061 9.8417 17.1983 7.69818 16.5228C6.93233 16.2777 6.24141 15.9063 5.64203 15.4348Z" fill="#191919"/>
</svg>
