<svg width="24" height="24" viewBox="0 0 24 24" fill="none" xmlns="http://www.w3.org/2000/svg">
<path fill-rule="evenodd" clip-rule="evenodd" d="M9.4624 2.01775C12.7643 0.614862 16.5818 2.16054 17.9826 5.45925C18.3669 6.36441 18.5298 7.30818 18.4957 8.23015C18.5035 8.29014 18.5005 8.35143 18.4864 8.41084C18.332 10.7812 16.8768 12.9805 14.5384 13.973C12.348 14.9036 9.93237 14.5366 8.1444 13.2216C8.11388 13.2035 8.08524 13.1821 8.05906 13.1577C7.19008 12.4964 6.47609 11.6072 6.01845 10.5318C4.61372 7.23119 6.16202 3.41997 9.4624 2.01775ZM9.47746 12.8753C10.1895 13.2427 10.9786 13.4541 11.7876 13.4863C13.3223 12.4519 14.0052 10.9841 14.3036 9.73517C14.4573 9.09189 14.5068 8.51366 14.5177 8.09712C14.5216 7.94944 14.5206 7.82274 14.5178 7.72146C13.7751 7.76413 13.0627 7.96201 12.4834 8.28678C12.3214 10.2388 11.1805 11.9666 9.47746 12.8753ZM12.0143 7.40335C12.8909 6.91733 13.964 6.68227 15.0214 6.71591C15.8576 6.74252 16.7074 6.9381 17.4597 7.33185C17.3989 6.83345 17.2681 6.33519 17.0622 5.85008C17.0026 5.70982 16.9379 5.57334 16.8683 5.4407C15.1504 4.54528 13.4921 4.67879 12.2418 5.04736C11.616 5.23181 11.0987 5.47377 10.7387 5.66925C10.675 5.70383 10.6164 5.73688 10.5631 5.7678C10.9103 6.40318 11.405 6.96724 12.0143 7.40335ZM10.1767 4.83712C10.2041 4.82185 10.2324 4.80627 10.2615 4.79045C10.6684 4.56951 11.2513 4.29679 11.959 4.08816C12.9924 3.78354 14.3052 3.61266 15.7216 3.95009C14.2335 2.58566 12.0519 2.10101 10.0594 2.85539C9.94212 3.52451 9.98988 4.19998 10.1767 4.83712ZM8.99894 3.39255C8.34803 3.81575 7.80882 4.36282 7.39996 4.98796C7.48473 6.92264 8.37853 8.22716 9.25932 9.05778C9.70246 9.47566 10.1411 9.7718 10.4677 9.96275C10.6307 10.058 10.7647 10.1264 10.856 10.1702C10.8618 10.173 10.8675 10.1757 10.873 10.1783C11.2059 9.59756 11.4183 8.94269 11.4826 8.25205C9.90525 7.14691 8.92596 5.31019 8.99894 3.39255ZM10.2776 10.9992C9.79543 11.5329 9.18984 11.9583 8.49523 12.2275C7.83688 11.6841 7.2956 10.9792 6.9386 10.1402C6.45437 9.00248 6.38515 7.79226 6.66255 6.67741C7.05594 8.06115 7.82298 9.07779 8.57325 9.78531C9.08299 10.266 9.58618 10.6058 9.96311 10.8261C10.0811 10.895 10.1871 10.9525 10.2776 10.9992ZM17.4746 8.51601C16.9198 8.10778 16.2383 7.85689 15.5189 7.75937C15.5209 7.86401 15.521 7.98619 15.5174 8.12337C15.505 8.59239 15.4496 9.24194 15.2762 9.96752C15.0286 11.0042 14.536 12.2105 13.5755 13.2594C13.7677 13.2017 13.9586 13.1328 14.1475 13.0526C16.0707 12.2363 17.2876 10.4559 17.4746 8.51601ZM7.81355 18.327C7.23596 18.8083 6.55607 19.3749 5.25001 19.3749C4.59244 19.3749 4.0871 19.2418 3.66371 19.0284C3.25898 18.8244 2.94894 18.5552 2.68708 18.3279L2.67224 18.315C2.46371 18.134 2.4414 17.8182 2.62242 17.6096C2.80344 17.4011 3.11924 17.3788 3.32777 17.5598C3.6028 17.7986 3.82871 17.9917 4.1138 18.1354C4.38792 18.2736 4.73758 18.3749 5.25001 18.3749C6.18901 18.3749 6.63392 18.0083 7.17992 17.5533L7.18646 17.5478C7.76405 17.0665 8.44394 16.4999 9.75001 16.4999C10.4076 16.4999 10.9129 16.633 11.3363 16.8464C11.741 17.0504 12.0511 17.3196 12.3129 17.5469L12.3278 17.5598C12.6028 17.7986 12.8287 17.9917 13.1138 18.1354C13.3879 18.2736 13.7376 18.3749 14.25 18.3749C15.189 18.3749 15.6339 18.0083 16.1799 17.5533L16.1865 17.5478C16.7641 17.0665 17.4439 16.4999 18.75 16.4999C19.4076 16.4999 19.9129 16.633 20.3363 16.8464C20.741 17.0504 21.0511 17.3196 21.3129 17.5469L21.3278 17.5598C21.5363 17.7408 21.5586 18.0566 21.3776 18.2652C21.1966 18.4737 20.8808 18.496 20.6722 18.315C20.3972 18.0762 20.1713 17.8831 19.8862 17.7394C19.6121 17.6012 19.2624 17.4999 18.75 17.4999C17.811 17.4999 17.3661 17.8665 16.8201 18.3215L16.8136 18.327C16.236 18.8083 15.5561 19.3749 14.25 19.3749C13.5924 19.3749 13.0871 19.2418 12.6637 19.0284C12.259 18.8244 11.9489 18.5552 11.6871 18.3279L11.6722 18.315C11.3972 18.0762 11.1713 17.8831 10.8862 17.7394C10.6121 17.6012 10.2624 17.4999 9.75001 17.4999C8.81101 17.4999 8.36609 17.8665 7.8201 18.3215L7.81355 18.327ZM7.81355 21.452C7.23596 21.9333 6.55607 22.4999 5.25001 22.4999C4.59244 22.4999 4.0871 22.3668 3.66371 22.1534C3.25898 21.9494 2.94894 21.6802 2.68708 21.4529L2.67224 21.44C2.46371 21.259 2.4414 20.9432 2.62242 20.7346C2.80344 20.5261 3.11924 20.5038 3.32777 20.6848C3.6028 20.9236 3.82871 21.1167 4.1138 21.2604C4.38792 21.3986 4.73758 21.4999 5.25001 21.4999C6.18901 21.4999 6.63392 21.1333 7.17992 20.6783L7.18646 20.6728C7.76406 20.1915 8.44395 19.6249 9.75001 19.6249C10.4076 19.6249 10.9129 19.758 11.3363 19.9714C11.741 20.1754 12.0511 20.4446 12.3129 20.6719L12.3278 20.6848C12.6028 20.9236 12.8287 21.1167 13.1138 21.2604C13.3879 21.3986 13.7376 21.4999 14.25 21.4999C15.189 21.4999 15.6339 21.1333 16.1799 20.6783L16.1865 20.6728C16.7641 20.1915 17.4439 19.6249 18.75 19.6249C19.4076 19.6249 19.9129 19.758 20.3363 19.9714C20.741 20.1754 21.0511 20.4446 21.3129 20.6719L21.3278 20.6848C21.5363 20.8658 21.5586 21.1816 21.3776 21.3902C21.1966 21.5987 20.8808 21.621 20.6722 21.44C20.3972 21.2012 20.1713 21.0081 19.8862 20.8644C19.6121 20.7262 19.2624 20.6249 18.75 20.6249C17.811 20.6249 17.3661 20.9915 16.8201 21.4465L16.8136 21.452C16.236 21.9333 15.5561 22.4999 14.25 22.4999C13.5924 22.4999 13.0871 22.3668 12.6637 22.1534C12.259 21.9494 11.9489 21.6802 11.6871 21.4529L11.6722 21.44C11.3972 21.2012 11.1713 21.0081 10.8862 20.8644C10.6121 20.7262 10.2624 20.6249 9.75001 20.6249C8.81101 20.6249 8.36609 20.9915 7.8201 21.4465L7.81355 21.452Z" fill="#191919"/>
</svg>
