<svg width="24" height="24" viewBox="0 0 24 24" fill="none" xmlns="http://www.w3.org/2000/svg">
<path fill-rule="evenodd" clip-rule="evenodd" d="M12.7499 2.99146C12.7499 2.57724 12.4141 2.24146 11.9999 2.24146C11.5857 2.24146 11.2499 2.57724 11.2499 2.99146V4.04316H10.1982C9.85037 4.04316 9.54818 4.28232 9.46827 4.62085C9.38835 4.95938 9.55168 5.30843 9.86279 5.46398L11.2499 6.15755V8.40455L9.26812 9.55672L7.31528 8.42925L7.4082 6.88119C7.42904 6.53398 7.20842 6.21801 6.87529 6.11795C6.54216 6.0179 6.18395 6.16002 6.01003 6.46126L5.48417 7.37206L4.57337 6.84621C4.21465 6.6391 3.75596 6.76201 3.54885 7.12073C3.34174 7.47945 3.46465 7.93814 3.82337 8.14525L4.73417 8.6711L4.20832 9.58191C4.0344 9.88314 4.09043 10.2644 4.34364 10.5029C4.59686 10.7414 4.98081 10.7744 5.27108 10.5828L6.56528 9.72829L8.5112 10.8518L8.51812 13.1442L6.56528 14.2717L5.27108 13.4172C4.98081 13.2256 4.59686 13.2586 4.34364 13.4971C4.09043 13.7356 4.0344 14.1169 4.20832 14.4181L4.73417 15.3289L3.82337 15.8548C3.46465 16.0619 3.34174 16.5206 3.54885 16.8793C3.75596 17.238 4.21465 17.3609 4.57337 17.1538L5.48417 16.6279L6.01003 17.5388C6.18395 17.84 6.54216 17.9821 6.87529 17.8821C7.20842 17.782 7.42904 17.466 7.4082 17.1188L7.31528 15.5708L9.26116 14.4473L11.2499 15.5875V17.8425L9.86279 18.536C9.55168 18.6916 9.38835 19.0406 9.46826 19.3792C9.54818 19.7177 9.85037 19.9568 10.1982 19.9568H11.2499V21.0086C11.2499 21.4228 11.5857 21.7586 11.9999 21.7586C12.4141 21.7586 12.7499 21.4228 12.7499 21.0086V19.9568H13.8016C14.1495 19.9568 14.4516 19.7177 14.5316 19.3792C14.6115 19.0406 14.4481 18.6916 14.137 18.536L12.7499 17.8425V15.5955L14.7317 14.4433L16.6845 15.5707L16.5916 17.1188C16.5708 17.466 16.7914 17.782 17.1245 17.882C17.4577 17.9821 17.8159 17.84 17.9898 17.5387L18.5156 16.6279L19.4265 17.1538C19.7852 17.3609 20.2439 17.238 20.451 16.8793C20.6581 16.5206 20.5352 16.0619 20.1765 15.8548L19.2656 15.3289L19.7915 14.4181C19.9654 14.1169 19.9094 13.7356 19.6562 13.4971C19.403 13.2586 19.019 13.2256 18.7287 13.4172L17.4345 14.2717L15.4886 13.1482L15.4817 10.8558L17.4345 9.7283L18.7287 10.5828C19.019 10.7744 19.403 10.7414 19.6562 10.5029C19.9094 10.2644 19.9654 9.88315 19.7915 9.58191L19.2656 8.67111L20.1765 8.14525C20.5352 7.93814 20.6581 7.47945 20.451 7.12073C20.2439 6.76201 19.7852 6.63911 19.4265 6.84621L18.5156 7.37207L17.9898 6.46126C17.8159 6.16003 17.4577 6.0179 17.1245 6.11796C16.7914 6.21801 16.5708 6.53399 16.5916 6.8812L16.6845 8.42926L14.7387 9.55271L12.7499 8.41249V6.15755L14.137 5.46398C14.4481 5.30843 14.6115 4.95938 14.5316 4.62085C14.4516 4.28232 14.1495 4.04316 13.8016 4.04316H12.7499V2.99146ZM10.0112 10.8598L10.0182 13.1523L12.0068 14.2924L13.9886 13.1402L13.9817 10.8477L11.993 9.70759L10.0112 10.8598Z" fill="#191919"/>
</svg>
