<svg width="24" height="24" viewBox="0 0 24 24" fill="none" xmlns="http://www.w3.org/2000/svg">
<path fill-rule="evenodd" clip-rule="evenodd" d="M11.3084 5.77916C12.5143 5.26235 13.8439 5.11989 15.1297 5.37034C16.4155 5.62077 17.5982 6.25243 18.5301 7.18377C18.8231 7.47657 18.8233 7.95144 18.5305 8.24443C18.2377 8.53743 17.7628 8.53759 17.4699 8.2448C16.747 7.52243 15.8329 7.03548 14.843 6.84267C13.8531 6.64988 12.8293 6.75929 11.8993 7.15787C10.9691 7.55653 10.1727 8.22743 9.61151 9.08873C9.05026 9.95019 8.75 10.963 8.75 12C8.75 13.037 9.05026 14.0498 9.61151 14.9113C10.1727 15.7726 10.9691 16.4435 11.8993 16.8421C12.8293 17.2407 13.8531 17.3501 14.843 17.1573C15.8329 16.9645 16.747 16.4776 17.4699 15.7552C17.7628 15.4624 18.2377 15.4626 18.5305 15.7556C18.8233 16.0486 18.8231 16.5234 18.5301 16.8162C17.5982 17.7476 16.4155 18.3792 15.1297 18.6297C13.8439 18.8801 12.5143 18.7377 11.3084 18.2208C10.1027 17.7041 9.0758 16.8369 8.35472 15.7301C7.63375 14.6235 7.25 13.3259 7.25 12C7.25 10.6741 7.63375 9.37651 8.35472 8.26991C9.0758 7.16315 10.1027 6.29589 11.3084 5.77916Z" fill="currentColor"/>
<path fill-rule="evenodd" clip-rule="evenodd" d="M5.25 10C5.25 9.58579 5.58579 9.25 6 9.25H14C14.4142 9.25 14.75 9.58579 14.75 10C14.75 10.4142 14.4142 10.75 14 10.75H6C5.58579 10.75 5.25 10.4142 5.25 10ZM5.25 14C5.25 13.5858 5.58579 13.25 6 13.25H14C14.4142 13.25 14.75 13.5858 14.75 14C14.75 14.4142 14.4142 14.75 14 14.75H6C5.58579 14.75 5.25 14.4142 5.25 14Z" fill="currentColor"/>
</svg>
