<svg width="24" height="24" viewBox="0 0 24 24" fill="none" xmlns="http://www.w3.org/2000/svg">
<path fill-rule="evenodd" clip-rule="evenodd" d="M7.88636 6C7.88636 5.58579 8.22215 5.25 8.63636 5.25H13.5455C14.4069 5.25 15.2256 5.60883 15.8236 6.2353C16.4205 6.86058 16.75 7.7015 16.75 8.57143C16.75 9.44136 16.4205 10.2823 15.8236 10.9076C15.2256 11.534 14.4069 11.8929 13.5455 11.8929H9.38636V18C9.38636 18.4142 9.05058 18.75 8.63636 18.75C8.22215 18.75 7.88636 18.4142 7.88636 18V11.8929H7C6.58579 11.8929 6.25 11.5571 6.25 11.1429C6.25 10.7286 6.58579 10.3929 7 10.3929H7.88636V6ZM9.38636 10.3929H13.5455C13.986 10.3929 14.4159 10.2099 14.7386 9.87185C15.0623 9.53265 15.25 9.06547 15.25 8.57143C15.25 8.07739 15.0623 7.6102 14.7386 7.27101C14.4159 6.93301 13.986 6.75 13.5455 6.75H9.38636V10.3929Z" fill="currentColor"/>
<path fill-rule="evenodd" clip-rule="evenodd" d="M6.25 14C6.25 13.5858 6.58579 13.25 7 13.25H14C14.4142 13.25 14.75 13.5858 14.75 14C14.75 14.4142 14.4142 14.75 14 14.75H7C6.58579 14.75 6.25 14.4142 6.25 14Z" fill="currentColor"/>
</svg>
