<svg width="24" height="24" viewBox="0 0 24 24" fill="none" xmlns="http://www.w3.org/2000/svg">
<path fill-rule="evenodd" clip-rule="evenodd" d="M8.1619 7.21283C8.75006 6.60017 9.55446 6.25 10.4 6.25H13.6C13.6112 6.25 13.6225 6.25025 13.6337 6.25076C14.2688 6.27932 14.8781 6.50523 15.3832 6.89499C15.8879 7.28445 16.2649 7.81881 16.4704 8.42629C16.6032 8.81866 16.3927 9.24435 16.0004 9.3771C15.608 9.50986 15.1823 9.2994 15.0496 8.90704C14.9366 8.57325 14.732 8.28716 14.4668 8.08257C14.2063 7.88149 13.8982 7.76735 13.5815 7.75H10.4C9.9725 7.75 9.556 7.92661 9.24398 8.25163C8.93097 8.57769 8.75 9.02622 8.75 9.5C8.75 9.97378 8.93097 10.4223 9.24398 10.7484C9.556 11.0734 9.9725 11.25 10.4 11.25H13.6C14.4455 11.25 15.2499 11.6002 15.8381 12.2128C16.4253 12.8245 16.75 13.6477 16.75 14.5C16.75 15.3523 16.4253 16.1755 15.8381 16.7872C15.2499 17.3998 14.4455 17.75 13.6 17.75H10.4C10.3888 17.75 10.3775 17.7497 10.3663 17.7492C9.73115 17.7207 9.12195 17.4948 8.61682 17.105C8.11208 16.7156 7.7351 16.1812 7.52956 15.5737C7.39681 15.1813 7.60726 14.7557 7.99963 14.6229C8.39199 14.4901 8.81768 14.7006 8.95044 15.093C9.06337 15.4267 9.268 15.7128 9.53315 15.9174C9.79374 16.1185 10.1018 16.2326 10.4185 16.25H13.6C14.0275 16.25 14.444 16.0734 14.756 15.7484C15.069 15.4223 15.25 14.9738 15.25 14.5C15.25 14.0262 15.069 13.5777 14.756 13.2516C14.444 12.9266 14.0275 12.75 13.6 12.75H10.4C9.55446 12.75 8.75006 12.3998 8.1619 11.7872C7.57474 11.1755 7.25 10.3523 7.25 9.5C7.25 8.6477 7.57474 7.82446 8.1619 7.21283Z" fill="currentColor"/>
<path fill-rule="evenodd" clip-rule="evenodd" d="M12 4.25C12.4142 4.25 12.75 4.58579 12.75 5V7.33333C12.75 7.74755 12.4142 8.08333 12 8.08333C11.5858 8.08333 11.25 7.74755 11.25 7.33333V5C11.25 4.58579 11.5858 4.25 12 4.25ZM12 15.9167C12.4142 15.9167 12.75 16.2525 12.75 16.6667V19C12.75 19.4142 12.4142 19.75 12 19.75C11.5858 19.75 11.25 19.4142 11.25 19V16.6667C11.25 16.2525 11.5858 15.9167 12 15.9167Z" fill="currentColor"/>
</svg>
