<svg width="16" height="16" viewBox="0 0 16 16" fill="none" xmlns="http://www.w3.org/2000/svg">
<path d="M12.9645 11.8336C12.7686 14.1657 10.7239 16 8.23012 16C5.73629 16 3.6916 14.1657 3.49569 11.8336C3.59576 12.0135 3.7005 12.1883 3.80992 12.3578C4.98702 14.176 6.55697 15.1774 8.22977 15.1774C9.90254 15.1774 11.4728 14.176 12.65 12.3567C12.7596 12.1882 12.8645 12.0138 12.9645 11.8336H12.9645ZM13.7971 6.15343C13.7971 8.29857 13.2019 10.4484 12.164 12.0512C11.0966 13.7 9.6994 14.6077 8.23189 14.6077C6.76437 14.6077 5.36578 13.6996 4.29978 12.0512C3.2619 10.4488 2.66669 8.29861 2.66669 6.15346C2.66669 4.51537 3.12698 3.0176 3.96246 1.93718C4.93864 0.670191 6.41553 0 8.23012 0C10.0447 0 11.5226 0.669461 12.5017 1.93649C13.3368 3.01725 13.7968 4.51464 13.7968 6.15308L13.7971 6.15343ZM7.60095 6.18904C7.6464 5.91697 5.59266 5.24751 5.00358 5.15172C4.41447 5.05593 4.01803 5.00929 3.92134 5.58974C3.89822 5.72781 3.90288 5.86903 3.93506 6.00533C3.96723 6.14162 4.0263 6.27033 4.10888 6.38408C4.19146 6.49784 4.29594 6.59442 4.41634 6.66831C4.53674 6.7422 4.67071 6.79195 4.8106 6.81471C5.39897 6.91158 7.55405 6.46967 7.6006 6.19012L7.60095 6.18904ZM10.2059 10.906C10.2059 10.5143 9.53707 10.1998 8.23009 10.1998C6.92311 10.1998 6.25429 10.516 6.25429 10.906C6.25429 11.2959 6.92308 11.6121 8.23009 11.6121C9.53707 11.6121 10.2059 11.297 10.2059 10.9071V10.906ZM12.5388 5.59078C12.4418 5.00998 12.0442 5.05663 11.4566 5.1528C10.8689 5.24894 8.81448 5.91805 8.85923 6.19012C8.90574 6.46967 11.0598 6.91123 11.6492 6.81544C11.7891 6.79272 11.9231 6.74301 12.0435 6.66916C12.1639 6.5953 12.2684 6.49876 12.351 6.38503C12.4337 6.27131 12.4928 6.14263 12.525 6.00635C12.5572 5.87007 12.5619 5.72886 12.5388 5.59078Z" fill="#CBBA7B"/>
</svg>
