<svg width="24" height="24" viewBox="0 0 24 24" fill="none" xmlns="http://www.w3.org/2000/svg">
<path fill-rule="evenodd" clip-rule="evenodd" d="M20.6364 12C20.6364 16.7697 16.7697 20.6364 12 20.6364C7.23027 20.6364 3.36364 16.7697 3.36364 12C3.36364 7.23027 7.23027 3.36364 12 3.36364C16.7697 3.36364 20.6364 7.23027 20.6364 12ZM22 12C22 17.5228 17.5228 22 12 22C6.47715 22 2 17.5228 2 12C2 6.47715 6.47715 2 12 2C17.5228 2 22 6.47715 22 12ZM11.333 5.67251C11.0315 5.58459 10.6788 5.65995 10.4415 5.86719C10.2106 6.07443 10.108 6.39471 10.0824 6.71499C10.0776 6.81858 10.1124 6.92217 10.1464 7.02312C10.1577 7.0568 10.169 7.09019 10.1786 7.12319C10.1593 7.15459 10.1273 7.18599 10.0952 7.21739C10.0815 7.20544 10.0681 7.19206 10.0547 7.17862C10.0116 7.13556 9.96788 7.09179 9.90923 7.09179C9.67194 7.08551 9.42183 7.16087 9.24867 7.32415C8.99215 7.56279 8.85106 7.88935 8.78692 8.22847C8.74203 8.48595 8.72279 8.76227 8.78692 9.03231C8.79127 9.06212 8.78972 9.09194 8.78828 9.11979C8.78759 9.13301 8.78692 9.14578 8.78692 9.15791C8.68431 9.18931 8.5817 9.21443 8.47909 9.20187C8.39572 9.18303 8.29311 9.20187 8.25463 9.27723C8.23897 9.38966 8.235 9.50209 8.23103 9.6141C8.22526 9.77737 8.21951 9.93974 8.17767 10.0999C8.15202 10.2381 8.13278 10.3762 8.13919 10.5144C8.2448 10.5462 8.35297 10.5654 8.46209 10.5848C8.52526 10.5961 8.58876 10.6073 8.65225 10.6212C8.51757 10.6274 8.37007 10.6777 8.29311 10.7907C8.26746 11.0042 8.27387 11.2303 8.33159 11.4438C8.33985 11.5302 8.34457 11.6177 8.34929 11.7053C8.35556 11.8217 8.36185 11.9384 8.37648 12.053C8.3683 12.045 8.34706 12.0395 8.32943 12.035C8.31943 12.0324 8.31058 12.0301 8.30594 12.0279C8.20176 12.0696 8.1815 12.173 8.16253 12.2697C8.15582 12.304 8.14926 12.3374 8.13919 12.367C8.16677 12.3832 8.19909 12.4087 8.22799 12.4315C8.2327 12.4352 8.23731 12.4388 8.24181 12.4424C8.22577 12.4643 8.20974 12.4895 8.19371 12.5146C8.17767 12.5397 8.16164 12.5648 8.14561 12.5868C8.15843 12.6056 8.16966 12.6245 8.18088 12.6433C8.1921 12.6622 8.20333 12.681 8.21615 12.6998C8.20333 12.7375 8.19691 12.7689 8.1905 12.8066C8.20533 12.8502 8.23541 12.8825 8.2631 12.9123C8.27133 12.9212 8.27935 12.9298 8.2867 12.9385C8.27754 12.9896 8.26824 13.0407 8.25895 13.0919C8.20319 13.3987 8.14744 13.7055 8.11995 14.0124C8.10983 14.0784 8.11746 14.1427 8.12509 14.2072C8.13197 14.2652 8.13886 14.3233 8.13278 14.3829C8.13278 14.4523 8.09303 14.5067 8.05365 14.5606C8.03599 14.5847 8.01841 14.6088 8.00452 14.6341C7.98642 14.6619 7.97562 14.6918 7.96498 14.7213C7.94921 14.7649 7.93378 14.8076 7.89549 14.8413C7.83275 14.9115 7.78566 14.994 7.73891 15.0759C7.71877 15.1112 7.69869 15.1464 7.67745 15.1804C7.66207 15.2105 7.64548 15.2401 7.62892 15.2695C7.56954 15.3751 7.5107 15.4798 7.5107 15.6075C7.50557 15.6351 7.50455 15.6627 7.50352 15.6904C7.50198 15.7318 7.50044 15.7733 7.48505 15.8147C7.45764 15.8818 7.4185 15.9443 7.37917 16.0072C7.3265 16.0913 7.27347 16.1761 7.24776 16.2732C7.22211 16.3736 7.2157 16.4804 7.22211 16.5809C7.22211 16.6299 7.25727 16.6598 7.291 16.6884C7.30048 16.6965 7.30986 16.7045 7.31831 16.7128C7.267 16.8917 7.22051 17.0723 7.17401 17.2528C7.12752 17.4334 7.08102 17.6139 7.02972 17.7929C6.98482 17.9248 6.99765 18.0692 7.0233 18.2074C7.02492 18.2153 7.02573 18.2237 7.02654 18.2321C7.02893 18.257 7.03141 18.2828 7.05537 18.3016C7.35037 18.3958 7.66462 18.3644 7.97245 18.3267C7.9749 18.3087 7.97781 18.291 7.98071 18.2734C7.99297 18.1987 8.00481 18.1266 7.97886 18.0504C7.97122 18.0339 7.96285 18.0178 7.95453 18.0018C7.92795 17.9507 7.90191 17.9006 7.90191 17.8432C7.88908 17.6736 7.88908 17.4978 7.91473 17.3282C7.9544 17.1922 8.00941 17.0638 8.06493 16.9341C8.08121 16.8961 8.09754 16.858 8.11354 16.8195C8.17767 16.8132 8.25463 16.8007 8.2867 16.7379C8.33722 16.643 8.37116 16.5401 8.40485 16.4379C8.42247 16.3845 8.44003 16.3312 8.45985 16.2794C8.46464 16.2703 8.46943 16.2612 8.47424 16.2521C8.5789 16.0534 8.68685 15.8485 8.74203 15.6263C8.75991 15.5773 8.74988 15.5244 8.73972 15.4708C8.73167 15.4283 8.72353 15.3854 8.72921 15.3437C8.74203 15.3144 8.75557 15.2858 8.76911 15.2572C8.79619 15.2 8.82327 15.1428 8.84464 15.08C8.85943 15.0401 8.8934 15.0191 8.92812 14.9976C8.95363 14.9818 8.97955 14.9657 8.99856 14.9418C9.05382 14.8778 9.08547 14.8023 9.11817 14.7243C9.12721 14.7027 9.13634 14.681 9.14606 14.6592C9.15949 14.6526 9.17321 14.6466 9.18685 14.6406C9.23834 14.618 9.2888 14.5958 9.31922 14.5462C9.35128 14.4708 9.37052 14.3892 9.37694 14.3075C9.38727 14.1709 9.43923 14.0425 9.48921 13.9189C9.50128 13.8891 9.51322 13.8595 9.52444 13.8302C9.56933 13.7046 9.61422 13.5853 9.67194 13.4597C9.69439 13.4295 9.72296 13.4017 9.75177 13.3736C9.78882 13.3376 9.82626 13.3011 9.85151 13.2588C9.89655 13.1999 9.91426 13.1258 9.93205 13.0514C9.93706 13.0304 9.94207 13.0094 9.94771 12.9887C10.0054 13.108 10.0631 13.2274 10.1465 13.3216C10.2153 13.3682 10.2973 13.3721 10.3707 13.3755C10.3862 13.3763 10.4013 13.377 10.4159 13.3781C10.6211 13.6732 10.8327 13.981 11.0379 14.2824C11.1153 14.4165 11.2977 14.399 11.4363 14.3858C11.447 14.3848 11.4575 14.3838 11.4676 14.3829C11.4792 14.4032 11.4932 14.4235 11.5076 14.4444C11.5333 14.4816 11.5602 14.5207 11.5767 14.565C11.5723 14.6546 11.562 14.7472 11.5518 14.8387C11.5471 14.8818 11.5423 14.9247 11.5382 14.9669C11.474 15.0234 11.4227 15.0862 11.4292 15.1679C11.4356 15.4693 11.4548 15.7708 11.5125 16.0596C11.5147 16.0668 11.5168 16.074 11.519 16.0812C11.5496 16.1823 11.5831 16.2933 11.5831 16.3988C11.5768 16.4416 11.6254 16.4606 11.6576 16.4731L11.66 16.4741C11.6664 16.5934 11.6745 16.7143 11.6825 16.8352C11.6905 16.9561 11.6985 17.077 11.7049 17.1963C11.7085 17.2348 11.6882 17.2655 11.6672 17.2971C11.6506 17.3222 11.6336 17.3479 11.628 17.3784C11.6166 17.438 11.6018 17.4976 11.5869 17.5573C11.5517 17.6991 11.5163 17.8418 11.5253 17.9876C11.6514 18.0778 11.8032 18.0603 11.9473 18.0437C11.9938 18.0384 12.0395 18.0331 12.0833 18.0316C12.1652 18.043 12.2424 18.0661 12.3207 18.0895C12.371 18.1046 12.4218 18.1197 12.4745 18.132C12.8144 18.176 13.1479 18.176 13.4878 18.132C13.4901 18.1209 13.4925 18.1097 13.495 18.0985C13.5133 18.0144 13.5323 17.9277 13.4814 17.8557C13.3858 17.7622 13.2668 17.7233 13.1481 17.6846C13.0915 17.6661 13.035 17.6477 12.9811 17.6234C12.8336 17.4789 12.6925 17.3156 12.5643 17.1461C12.4986 16.9702 12.5107 16.7944 12.5229 16.6165C12.5286 16.5339 12.5343 16.451 12.5322 16.3674C12.622 16.2912 12.628 16.1767 12.6336 16.0699C12.634 16.0623 12.6344 16.0546 12.6348 16.0471C12.6384 15.9775 12.6222 15.9098 12.6061 15.8419C12.593 15.7873 12.58 15.7326 12.5771 15.6766C12.5857 15.6036 12.5994 15.5319 12.6131 15.4604C12.6301 15.3718 12.647 15.2833 12.6541 15.193C12.6797 14.9606 12.699 14.7346 12.7118 14.5022C12.7118 14.4819 12.7126 14.4617 12.7133 14.4416C12.7164 14.362 12.7194 14.2848 12.6733 14.2196C12.6348 14.1631 12.631 14.0998 12.6271 14.0365C12.6246 13.9943 12.622 13.9521 12.6092 13.9119C12.5964 13.9119 12.5787 13.9134 12.5611 13.915C12.5434 13.9166 12.5258 13.9182 12.513 13.9182C12.4853 13.8473 12.4583 13.7764 12.4312 13.7057C12.3264 13.4316 12.2222 13.1591 12.0897 12.8945C11.923 12.5491 11.6985 12.2414 11.4292 11.9651C11.4028 11.9098 11.3919 11.8502 11.3809 11.79C11.3732 11.7477 11.3654 11.7051 11.3522 11.6636C11.3233 11.6022 11.356 11.548 11.3876 11.4954C11.398 11.4781 11.4084 11.461 11.4163 11.4438C11.422 11.4464 11.4276 11.4489 11.4332 11.4515C11.5102 11.4865 11.5832 11.5196 11.6729 11.5255C11.8139 11.381 11.9166 11.1801 11.9101 10.9791C11.9166 10.887 11.9244 10.7949 11.9322 10.7028C11.9479 10.5186 11.9636 10.3344 11.9679 10.1502C11.9679 10.0622 11.9358 9.98687 11.9037 9.91779C11.8673 9.84134 11.7802 9.80625 11.7041 9.7756C11.6864 9.76849 11.6693 9.76161 11.6536 9.75451C11.6584 9.7435 11.6634 9.7324 11.6685 9.72119C11.7039 9.64281 11.7418 9.55903 11.7306 9.46563C11.7966 9.50025 11.8617 9.53741 11.9269 9.57463C12.0391 9.63868 12.1516 9.70287 12.2693 9.75451C12.2835 9.76069 12.2977 9.76696 12.3121 9.77326C12.472 9.84362 12.6383 9.91676 12.8208 9.90523C12.8241 9.90795 12.8275 9.91072 12.8308 9.9135C12.8661 9.94278 12.9028 9.97322 12.9555 9.96175C13.103 9.95547 13.2248 9.84871 13.321 9.74195C13.4557 9.68543 13.5647 9.57239 13.5968 9.43423C13.6289 9.27723 13.6673 9.11395 13.7058 8.96323C13.7265 8.95771 13.7477 8.95164 13.7692 8.94552C13.8209 8.93074 13.874 8.91559 13.9239 8.90671C13.9148 8.87459 13.9053 8.8426 13.8958 8.81066C13.8385 8.6178 13.7818 8.42693 13.8149 8.22219C13.8662 8.20335 13.9111 8.17195 13.9431 8.12799C13.9601 8.09468 13.99 8.06949 14.0192 8.04489C14.067 8.00456 14.113 7.96585 14.097 7.89563C14.1548 7.88935 14.2061 7.86423 14.2509 7.82655H15.3733V7.68211C15.5079 7.70723 15.649 7.71351 15.7837 7.67583H16.4635C16.4827 7.68839 16.5004 7.69781 16.518 7.70723C16.5356 7.71665 16.5533 7.72607 16.5725 7.73863C16.5853 7.73235 16.611 7.70726 16.6174 7.70096L16.9958 7.70095C17.0022 7.65071 17.0022 7.58791 16.9894 7.52511H16.6238C16.6174 7.51883 16.5918 7.49999 16.5789 7.49371C16.5711 7.49753 16.5633 7.50109 16.5556 7.5046C16.5254 7.51842 16.4968 7.53148 16.4763 7.55651C16.3877 7.55651 16.3005 7.55722 16.2143 7.55793C16.0448 7.55932 15.879 7.56067 15.7132 7.55651C15.7003 7.51255 15.7132 7.47487 15.7452 7.44347C15.7324 7.41207 15.726 7.39323 15.7196 7.36811C15.6747 7.34927 15.6362 7.37439 15.6041 7.40579C15.6041 7.39542 15.6022 7.38124 15.6004 7.36849C15.599 7.35809 15.5977 7.34863 15.5977 7.34299C15.5849 7.34299 15.5656 7.33671 15.5592 7.33043C15.555 7.23856 15.5564 7.14946 15.5578 7.05945C15.5585 7.0141 15.5592 6.96852 15.5592 6.92223H15.4566V7.42463H15.3733V7.29275C15.0699 7.29275 14.7659 7.29205 14.4616 7.29136C13.8524 7.28996 13.2422 7.28856 12.6348 7.29275C12.6284 7.26135 12.6284 7.22995 12.6284 7.19855C12.6111 7.19371 12.591 7.19353 12.5706 7.19335C12.538 7.19305 12.5046 7.19274 12.4809 7.17343C12.4626 7.11523 12.4606 7.06023 12.4587 7.00614C12.4579 6.98435 12.4571 6.96271 12.4553 6.94107C12.436 6.94735 12.404 6.95363 12.3911 6.95363C12.3911 7.01169 12.3797 7.0679 12.3683 7.12427C12.3588 7.17154 12.3492 7.21893 12.3462 7.26763C12.3251 7.26951 12.3029 7.26801 12.2805 7.26651C12.2281 7.26299 12.175 7.25943 12.1346 7.29903C12.127 7.30059 12.1194 7.30214 12.1117 7.3037C11.9661 7.33348 11.8259 7.36214 11.6857 7.36811C11.6985 7.36183 11.7081 7.35398 11.7177 7.34613C11.7274 7.33828 11.737 7.33043 11.7498 7.32415C11.7455 7.28798 11.7382 7.25254 11.7309 7.21733C11.7168 7.14859 11.7029 7.08074 11.7113 7.01015C11.7339 7.00129 11.7583 6.99313 11.7833 6.98477C11.8646 6.95754 11.9524 6.92816 12.0063 6.86571C12.0897 6.61451 12.0384 6.35075 11.9358 6.11211C11.9358 6.09821 11.939 6.08369 11.9422 6.06934C11.949 6.03827 11.9557 6.00798 11.9294 5.98651C11.885 5.95309 11.8352 5.93212 11.7858 5.9113C11.7423 5.89299 11.699 5.87479 11.66 5.84835C11.6498 5.84188 11.6397 5.83542 11.6296 5.82898C11.5317 5.76661 11.4376 5.70666 11.333 5.67251ZM13.0057 8.0947C13.0038 8.08307 13.0018 8.07113 13.0004 8.05891C13.0773 8.03379 13.1992 7.99611 13.2505 8.05263C13.2505 8.06394 13.2513 8.07668 13.2522 8.09011C13.2562 8.15124 13.2611 8.22671 13.1928 8.24731C13.1201 8.2515 13.0474 8.2501 12.9747 8.2487C12.9384 8.24801 12.902 8.24731 12.8657 8.24731C12.8947 8.23111 12.9236 8.22536 12.9508 8.21995C12.9658 8.21697 12.9803 8.21409 12.994 8.20963C13.0191 8.17518 13.0127 8.13687 13.0057 8.0947ZM12.8268 8.54073C12.7966 8.48212 12.7662 8.42332 12.7246 8.37919C12.743 8.36116 12.7548 8.33989 12.7671 8.31771C12.772 8.30899 12.7769 8.30013 12.7823 8.29127C12.863 8.29845 12.9436 8.29742 13.0242 8.2964C13.0847 8.29563 13.1451 8.29486 13.2056 8.29755C13.1305 8.37114 13.0716 8.45537 13.0114 8.54158C12.9791 8.58781 12.9464 8.6346 12.9106 8.68063C12.8782 8.64023 12.8525 8.59055 12.8268 8.54073Z" fill="#191919"/>
</svg>
