<svg width="16" height="16" viewBox="0 0 16 16" fill="none" xmlns="http://www.w3.org/2000/svg">
<g clip-path="url(#clip0_1804_1242)">
<path d="M4.27232 13.479C4.29299 13.8313 4.07466 14.162 3.74199 14.2833L2.61632 14.693C2.14935 14.8631 1.62928 14.6944 1.35231 14.2816C0.620575 13.1906 0.150806 11.9253 0.00630541 10.5823C-0.0470282 10.0889 0.242306 9.62561 0.709975 9.45527L1.83565 9.04561C2.16831 8.92461 2.54865 9.03827 2.75998 9.32194C3.65909 10.5296 4.18526 11.9739 4.27232 13.479ZM15.29 9.45524L14.1644 9.04557C13.8314 8.92457 13.4514 9.03824 13.24 9.32191C12.3404 10.5313 11.8148 11.9739 11.7277 13.4789C11.707 13.8313 11.9254 14.1619 12.258 14.2833L13.3837 14.6929C13.8506 14.8631 14.3707 14.6943 14.6477 14.2816C15.3808 13.1885 15.8495 11.9226 15.9937 10.5822C16.047 10.0889 15.7574 9.62558 15.29 9.45524ZM11.9033 9.55101C11.7775 9.58908 11.646 9.66494 11.5294 9.80524C11.0237 10.4136 10.7431 11.1846 10.7394 11.9756C10.7387 12.1234 10.7791 12.2649 10.8514 12.3871C10.9759 12.5975 11.2943 12.5435 11.3424 12.3037C11.5126 11.4561 11.8115 10.6579 12.212 9.93471C12.3269 9.72718 12.1303 9.48228 11.9033 9.55101ZM4.47066 9.80524C4.26176 9.55388 3.90706 9.44394 3.57099 9.56591C4.08432 10.3879 4.45946 11.3157 4.65803 12.3058C4.70589 12.5445 5.02493 12.5964 5.14883 12.3869C5.22106 12.2648 5.26136 12.1234 5.26063 11.9756C5.25699 11.1846 4.97633 10.4136 4.47066 9.80524ZM13.9667 4.13792C13.9624 7.2525 13.982 7.7494 13.9515 8.22944C13.9434 8.35787 13.8437 8.45974 13.7161 8.47654C13.4004 8.51811 13.0886 8.66704 12.8423 8.96814C12.7764 9.04877 12.6689 9.08411 12.5685 9.05657C11.663 8.80857 11.202 9.36481 11.1194 9.46428C10.8067 9.84051 10.5685 10.2704 10.4139 10.7288C10.3729 10.8504 10.2001 10.8474 10.161 10.7251C9.98661 10.1795 9.59668 9.46531 9.00968 8.79094C8.47837 8.17984 7.52014 8.1813 6.99 8.79094C6.41757 9.44894 6.02336 10.1876 5.8439 10.7411C5.80403 10.864 5.63146 10.8638 5.59056 10.7412C5.43606 10.278 5.19629 9.84381 4.88066 9.46428C4.79799 9.36484 4.33706 8.80861 3.43169 9.05654C3.33099 9.08411 3.22339 9.04847 3.15735 8.96757C2.92212 8.67941 2.62365 8.52804 2.31075 8.48034C2.18608 8.46134 2.09028 8.35997 2.08218 8.23414C2.05081 7.74607 2.07095 7.24877 2.06665 4.13792C2.06488 2.87531 2.89052 1.75391 4.11132 1.39391C6.666 0.640237 9.36701 0.640237 11.9217 1.39357C13.1351 1.75141 13.9685 2.86815 13.9667 4.13792ZM6.38667 3.85488C5.82863 3.75802 5.24343 3.75425 4.65833 3.85688C3.89066 3.99222 3.33332 4.65789 3.33332 5.43989V6.40156C3.33332 7.5463 4.49789 8.32767 5.54866 7.89057C6.3323 7.56603 6.9867 7.016 7.44534 6.34389C8.09047 5.39816 7.5602 4.05899 6.38667 3.85488ZM12.6667 5.43989C12.6667 4.65789 12.1094 3.99222 11.3417 3.85688C10.768 3.75625 10.184 3.75582 9.61335 3.85488C8.43964 4.05902 7.90967 5.39829 8.55468 6.34389C8.92134 6.88123 9.41035 7.33423 9.96868 7.65357C10.3348 7.86333 10.6672 8.01224 11.0614 8.01224C11.9368 8.01224 12.6667 7.2985 12.6667 6.40156V5.43989ZM11.1945 13.4599C11.1988 13.3501 11.1337 13.2494 11.0325 13.2066C10.7777 13.099 10.3343 12.8521 10.2327 12.1688C10.2145 12.0463 10.0565 12.0111 9.98875 12.1148C9.06288 13.5323 6.8977 13.4595 6.012 12.1303C5.94433 12.0288 5.7881 12.0669 5.77006 12.1875C5.70603 12.6158 5.4814 12.9745 4.95963 13.2124C4.86266 13.2566 4.80159 13.3556 4.80563 13.4621C4.81276 13.6504 4.75966 13.7706 4.89353 13.8849C5.81866 14.6747 6.77623 15.1716 8.00001 15.1716C9.22891 15.1716 10.1857 14.6702 11.1065 13.8848C11.2404 13.7705 11.1872 13.651 11.1945 13.4599ZM9.37068 12.0446C8.31661 13.214 6.0667 12.4464 6.39167 11.0846C6.5628 10.3695 6.90907 9.69618 7.39234 9.14094C7.71044 8.77541 8.28817 8.77417 8.60734 9.14094C9.09101 9.69694 9.43701 10.3689 9.60835 11.0849C9.69068 11.4296 9.60168 11.7883 9.37068 12.0446ZM8.63334 11.1939C8.63334 11.0466 8.51401 10.9273 8.36667 10.9273H7.63334C7.486 10.9273 7.36667 11.0466 7.36667 11.1939C7.36667 11.3413 7.486 11.4606 7.63334 11.4606H8.36667C8.51401 11.4606 8.63334 11.3412 8.63334 11.1939Z" fill="#63A6DB"/>
</g>
<defs>
<clipPath id="clip0_1804_1242">
<rect width="16" height="16" fill="white"/>
</clipPath>
</defs>
</svg>
