<svg width="24" height="24" viewBox="0 0 24 24" fill="none" xmlns="http://www.w3.org/2000/svg">
<path d="M4.56143 2.86157C6.42326 2.86157 8.14496 2.86157 9.90544 2.86157C9.90544 8.10423 9.90544 13.3256 9.90544 18.6121C13.0936 18.6121 16.2679 18.6121 19.625 18.6121C18.7967 19.5079 18.0885 20.2812 17.3653 21.0407C17.2952 21.1145 17.1388 21.1333 17.0237 21.1345C12.8571 21.1396 8.6905 21.1383 4.375 21.1383C4.91303 20.4339 5.41102 19.837 5.84019 19.1939C6.03288 18.9061 6.18678 18.527 6.18928 18.1879C6.21306 13.9575 6.19304 9.72582 6.21681 5.49416C6.22056 4.89107 6.09669 4.4156 5.63874 4.00645C5.28464 3.69239 4.9831 3.31577 4.56143 2.86157Z" fill="#191919"/>
</svg>
