<svg width="24" height="24" viewBox="0 0 24 24" fill="none" xmlns="http://www.w3.org/2000/svg">
<path d="M0.521729 22.041L0.527069 10.048L23.3478 1.95654L23.3425 13.9506L0.521729 22.041Z" fill="#000105"/>
<path d="M2.15904 11.2581V19.6774L5.23926 18.5827V10.1644L2.15904 11.2581Z" fill="#FFF243"/>
<path d="M21.7159 4.32652L18.6752 5.4063V13.8256L21.7159 12.7459V4.32652Z" fill="#FFF243"/>
<path d="M11.0312 8.10844L7.98623 9.1893V12.1851L11.0312 16.0461V8.10844Z" fill="#FFF243"/>
<path d="M18.139 5.59108L15.094 6.67193V9.66778L18.139 13.5287V5.59108Z" fill="#FFF243"/>
<path d="M5.77647 15.2429L7.72029 17.7026L10.7824 16.6164L5.77647 10.3011V15.2429Z" fill="#FFF243"/>
<path d="M11.5588 7.91833V11.069L12.7625 12.5707L11.5588 12.999V15.2184L14.1307 14.3052L14.8196 15.1767L17.904 14.0873L12.6995 7.51461L11.5588 7.91833Z" fill="#FFF243"/>
</svg>
