<svg width="24" height="24" viewBox="0 0 24 24" fill="none" xmlns="http://www.w3.org/2000/svg">
<path d="M10.3324 19.6317C9.41497 18.034 8.66002 16.7195 8.65478 16.7107C8.64868 16.7004 8.5527 16.7353 8.38788 16.8077C7.37608 17.252 6.56935 17.4583 5.84275 17.4583C5.25611 17.4583 4.75913 17.3415 4.20116 17.0724C3.46813 16.7188 2.71468 16.1225 1.58099 14.9989L1.21463 14.6358L1.29565 14.4593C1.96048 13.0111 2.77924 11.584 3.58559 10.4679C3.68514 10.3301 3.76428 10.2156 3.76146 10.2134C3.75864 10.2113 3.7035 10.1813 3.63893 10.1467C3.45837 10.0501 3.32459 9.95477 3.19373 9.8294L3.07425 9.71494L3.11011 9.65066C3.22585 9.44323 3.65813 8.79161 3.85925 8.5214L3.90914 8.45438L1.17065 3.68969L1.28468 3.62373C2.44851 2.95056 3.86341 2.31803 5.19462 1.87579C5.64196 1.72718 6.58981 1.45002 6.60333 1.46388C6.6059 1.46652 6.99973 2.20932 7.47851 3.11456C7.95729 4.0198 8.35399 4.76589 8.36006 4.77255C8.36613 4.77921 8.44374 4.75342 8.53253 4.71525C8.84792 4.57965 9.0691 4.49529 9.41311 4.37938C10.1027 4.14704 10.7035 4.00413 11.4603 3.89247L11.7355 3.85186L11.8505 3.72227C11.9791 3.57734 12.1638 3.41483 12.2955 3.33063C12.5254 3.18366 12.9385 3.09967 13.4314 3.09967C14.0417 3.09967 14.5697 3.23514 14.8119 3.45382C14.9025 3.53572 14.9467 3.61063 14.9893 3.75504C15.0074 3.81648 15.0241 3.86949 15.0241 3.86949C15.0241 3.86949 15.1663 3.8928 15.3378 3.91795C15.5094 3.9431 15.7395 3.97976 15.8491 3.99941C15.9588 4.01906 16.0503 4.03287 16.0503 4.03287C16.0503 4.03287 16.3572 3.45416 16.73 2.74964C17.1028 2.04511 17.4096 1.46695 17.4116 1.46485C17.4172 1.4591 17.9767 1.61442 18.2606 1.70053C19.121 1.96153 19.9822 2.28362 20.834 2.66302C21.528 2.97213 22.8395 3.65743 22.8291 3.70553C22.8234 3.73205 12.0175 22.5365 12.008 22.5366C12.0039 22.5366 11.2499 21.2294 10.3324 19.6317Z" fill="#111821"/>
<path d="M17.7562 2.2612C17.7227 2.26239 17.6748 2.3505 17.2142 3.22329C16.9329 3.75649 16.7007 4.20103 16.6983 4.21115C16.6955 4.22328 16.7461 4.24119 16.8466 4.26372C17.0547 4.31033 17.482 4.42588 17.7777 4.51548C17.983 4.57768 18.4877 4.75023 18.5007 4.76264C18.5028 4.76469 18.4602 4.84483 18.4059 4.94074C18.351 5.03761 18.313 5.12022 18.3204 5.1266C18.3277 5.13292 18.4338 5.17337 18.5561 5.21647C19.2327 5.45486 20.0093 5.80591 20.4837 6.08773C20.5733 6.14101 20.651 6.17987 20.6563 6.1741C20.6615 6.16834 20.9504 5.66819 21.2983 5.06266C21.7702 4.2411 21.9258 3.95846 21.9115 3.94898C21.8533 3.91029 20.8584 3.41757 20.6311 3.31481C19.9988 3.02898 19.2636 2.7403 18.6333 2.53027C18.3268 2.42815 17.8479 2.28047 17.7628 2.2619C17.7606 2.26139 17.7584 2.26112 17.7562 2.2612ZM6.24197 2.26362C6.20879 2.26322 6.13169 2.28404 5.94 2.34167C5.09853 2.59463 4.22487 2.92236 3.37239 3.30483C2.97052 3.48514 2.06764 3.93899 2.06764 3.9607C2.06764 3.9856 4.29047 7.85302 4.30286 7.84969C4.30893 7.84806 4.42237 7.73152 4.55494 7.59069C4.93854 7.18318 5.37237 6.78042 5.80148 6.43348C5.9858 6.28446 6.00541 6.26417 5.99734 6.23066C5.99241 6.21018 5.98444 6.05857 5.97962 5.89375C5.97248 5.65 5.97556 5.56523 5.99618 5.43946C6.03167 5.223 6.09613 5.03618 6.17629 4.91729C6.35936 4.64576 6.73131 4.39278 7.13873 4.26273C7.22028 4.2367 7.2888 4.21405 7.29098 4.2124C7.29723 4.20767 6.28394 2.29328 6.26314 2.27054C6.25922 2.26626 6.25303 2.26375 6.24197 2.26362ZM8.80685 8.47874L8.72901 8.48814C8.28919 8.54115 7.84549 8.72791 7.47377 9.0165L7.33476 9.12443L7.37021 9.1518C7.50836 9.25847 7.98501 9.3179 8.25081 9.26159C8.60402 9.18677 8.80685 8.933 8.80685 8.5659V8.47874Z" fill="#FE5000"/>
<path d="M13.3229 3.7904C13.0039 3.79265 12.7356 3.84678 12.525 3.95159C12.142 4.14226 11.6018 4.66587 10.9045 5.52245C10.8242 5.62104 10.77 5.67647 10.7673 5.66258C10.7536 5.59096 10.9711 5.04669 11.1201 4.77968C11.1609 4.70666 11.1905 4.64317 11.1859 4.63859C11.1746 4.62721 10.8126 4.7015 10.4953 4.7803C9.47096 5.03471 8.4701 5.45063 7.53169 6.01189C6.17293 6.82456 4.91043 7.99703 3.96718 9.32222L3.84056 9.50011L3.93274 9.548C4.03029 9.59869 4.28041 9.6863 4.32762 9.6863C4.34821 9.6863 4.37347 9.64978 4.42299 9.54852C4.54514 9.29871 4.82501 8.97209 5.20373 8.63737C5.35801 8.50102 5.6076 8.30107 5.62352 8.30107C5.62701 8.30107 5.58692 8.36643 5.53443 8.4463C5.28931 8.81927 5.0855 9.34977 5.08523 9.61555L5.08506 9.71609H5.17208C5.3718 9.71609 5.66098 9.63884 5.92532 9.51489C6.12469 9.4214 6.29906 9.31529 6.82092 8.96992C7.07836 8.79954 7.39114 8.60308 7.516 8.53334C8.14844 8.18008 8.72068 8.02664 9.36929 8.03634L9.64146 8.04042L9.24862 8.30323L9.25919 8.3729C9.26501 8.41122 9.26927 8.50961 9.26863 8.59153C9.26604 8.9221 9.13297 9.21372 8.8937 9.41325C8.77753 9.51012 8.54907 9.61847 8.37899 9.65738C8.30032 9.67538 8.22595 9.69312 8.21371 9.6968C8.20148 9.70048 8.25486 9.72519 8.33234 9.75173C8.50721 9.81161 8.68365 9.90312 8.79698 9.99269C8.84457 10.0303 8.8812 10.0634 8.87842 10.0662C8.87563 10.069 8.78 10.0554 8.66587 10.0361C8.2944 9.97318 8.14907 9.96186 7.7244 9.96261C7.17437 9.9636 6.84456 10.0087 6.13783 10.1798C5.75011 10.2737 5.44726 10.338 5.26299 10.3654C5.08018 10.3927 4.70738 10.4013 4.5216 10.3825L4.41039 10.3713L4.19293 10.6816C3.51342 11.6509 2.9743 12.518 2.48722 13.4249C2.25943 13.8491 1.95202 14.4532 1.95996 14.4612C1.96374 14.465 2.01286 14.4485 2.06912 14.4246C2.42978 14.2711 2.89274 14.1955 3.48366 14.1937C3.962 14.1922 4.31162 14.235 4.62027 14.3329L4.72499 14.3661L4.73438 14.5323C4.76564 15.0859 4.76562 15.0618 4.7351 15.0718C4.71962 15.0768 4.65818 15.1044 4.59856 15.133C4.45405 15.2023 4.32969 15.3246 4.26571 15.4603C4.22016 15.557 4.21764 15.5713 4.21764 15.7336C4.21764 15.8994 4.21935 15.9085 4.27078 16.0166C4.3732 16.232 4.54538 16.3955 4.81816 16.5366C5.18688 16.7272 5.63671 16.8157 6.04264 16.7773C6.54267 16.7301 6.91385 16.5548 7.23708 16.2133C7.4805 15.9561 7.62641 15.6867 7.79932 15.1751C7.9951 14.5958 8.13434 14.247 8.34633 13.8047C8.99981 12.4415 9.91192 11.4653 11.0532 10.9078C11.2342 10.8195 11.5306 10.6947 11.6367 10.6622L11.6716 10.6515L11.635 10.7163C11.6149 10.7519 11.5685 10.838 11.5318 10.9077C11.4952 10.9773 11.4465 11.0695 11.4237 11.1125L11.3821 11.1907L11.5373 11.3508C12.1167 11.9486 12.6172 12.8767 12.839 13.7646C12.8813 13.9342 12.9438 14.2411 12.9438 14.2798C12.9438 14.2943 12.8893 14.3014 12.7251 14.3085C12.1347 14.3339 11.4983 14.4544 10.905 14.6533C10.0708 14.933 9.31349 15.3579 8.62733 15.9314C8.42399 16.1014 8.13472 16.3742 8.14589 16.3854C8.14973 16.3892 8.17488 16.3789 8.20182 16.3625C8.45951 16.2054 8.99049 15.9486 9.36287 15.801C10.2581 15.4461 11.1107 15.2746 12.2172 15.227C12.6975 15.2063 12.8913 15.1833 13.1693 15.1139C13.7751 14.9629 14.1942 14.6471 14.4139 14.1761C14.6036 13.7693 14.6234 13.2231 14.4708 12.598C14.4468 12.4996 14.4106 12.3702 14.3904 12.3105L14.3537 12.202L14.413 12.2492C14.4456 12.2751 14.5129 12.342 14.5626 12.3977C14.8054 12.6701 14.9664 13.0002 15.0523 13.4016C15.0953 13.6028 15.0989 14.021 15.0592 14.2199C14.8781 15.1277 14.2647 15.6531 13.1949 15.8168C13.0815 15.8342 12.8497 15.8439 12.3284 15.853C11.6034 15.8658 11.4484 15.8747 11.0162 15.9286C10.6872 15.9696 10.4245 16.0185 10.1034 16.0984C9.85877 16.1593 9.36262 16.3168 9.33762 16.3415C9.32571 16.3533 10.645 18.6556 10.6677 18.6627C10.6759 18.6653 10.776 18.5036 10.8901 18.3035C11.0043 18.1034 11.1023 17.9444 11.1079 17.9501C11.1135 17.9557 11.4017 18.4545 11.7483 19.0583C12.5131 20.391 12.5005 20.3694 12.5061 20.3633C12.5085 20.3607 14.2536 17.3255 16.3839 13.6186C18.5143 9.91159 20.2736 6.85058 20.2935 6.81633L20.3296 6.75405L20.162 6.65385C19.7987 6.43667 19.2166 6.16425 18.6377 5.94041C18.3417 5.82597 17.7563 5.62963 17.5256 5.56743C17.4399 5.54434 17.3645 5.52086 17.358 5.5153C17.3514 5.50973 17.3898 5.4296 17.4432 5.33723C17.4967 5.24485 17.5404 5.16384 17.5404 5.15721C17.5404 5.12889 16.7234 4.90371 16.1985 4.78734C15.8095 4.70111 15.0547 4.56623 15.0415 4.58059C15.0393 4.58289 15.03 4.65853 15.0207 4.74865C14.9818 5.12543 14.8932 5.53619 14.7811 5.85832C14.7484 5.95253 14.7187 6.03966 14.7151 6.05195C14.711 6.06621 14.7446 6.10122 14.8082 6.14877C14.8629 6.18973 14.9806 6.29362 15.0697 6.37964C15.488 6.78351 15.8202 7.30257 15.9377 7.73586L15.9678 7.84678L15.9348 7.80221C15.6856 7.46495 15.3623 7.1679 14.9455 6.89319C14.6448 6.69496 14.1441 6.4372 13.8605 6.33457L13.806 6.31485L13.85 6.22731C13.9178 6.09229 14.0169 5.84034 14.0828 5.63489C14.3131 4.91783 14.3736 4.24154 14.2255 4.03986C14.115 3.88941 13.8629 3.80773 13.4627 3.79261C13.4151 3.79081 13.3685 3.79007 13.3229 3.7904ZM13.4268 4.47309C13.546 4.47309 13.5705 4.48709 13.5152 4.52353C13.45 4.56643 13.2831 4.73083 13.1962 4.83772C12.9572 5.13164 12.7727 5.48496 12.6837 5.81895C12.6643 5.89187 12.6465 5.9529 12.6441 5.95458C12.6418 5.95625 12.5998 5.94879 12.5509 5.938C12.3915 5.90283 11.8716 5.81581 11.7576 5.80522C11.6965 5.79954 11.6416 5.79213 11.6358 5.78878C11.63 5.78543 11.6525 5.73785 11.6859 5.68304C12.0767 5.04163 12.8947 4.47309 13.4268 4.47309ZM10.6221 11.8932C10.5994 11.8944 10.3669 12.0507 10.2081 12.1719C10.0192 12.3162 9.63258 12.7012 9.47462 12.9023C9.0505 13.4424 8.76507 13.9985 8.38446 15.0261C8.30557 15.2391 8.21822 15.4688 8.19034 15.5364C8.16246 15.6041 8.13963 15.6636 8.13963 15.6686C8.13963 15.6811 8.1722 15.656 8.34148 15.5128C8.91154 15.0305 9.67622 14.5685 10.4009 14.2684C10.8644 14.0765 11.4992 13.8865 12.003 13.7891C12.1168 13.7671 12.2115 13.7477 12.2136 13.7459C12.2156 13.7441 12.1942 13.658 12.1659 13.5545C12.057 13.1552 11.8271 12.6535 11.5914 12.3005C11.4453 12.0816 11.4195 12.0466 11.4108 12.0557C11.4074 12.0592 11.4257 12.3847 11.4515 12.779L11.4984 13.496L10.9645 13.5057C10.6708 13.5111 10.4072 13.5191 10.3786 13.5234C10.3276 13.5312 10.3248 13.5356 10.2095 13.7828C10.1078 14.001 10.0872 14.0352 10.0538 14.0416C10.0327 14.0456 9.88189 14.0598 9.71878 14.0731C9.55568 14.0864 9.40888 14.1027 9.39257 14.1093C9.37626 14.1159 9.28618 14.232 9.1924 14.3674C9.09861 14.5027 9.0199 14.6116 9.01745 14.6093C9.01323 14.6053 9.20724 13.9595 9.21597 13.9484C9.21824 13.9456 9.35128 13.9145 9.5116 13.8793C9.67192 13.8441 9.80817 13.8096 9.81438 13.8026C9.82059 13.7956 9.85502 13.6133 9.89087 13.3975C9.92671 13.1818 9.95966 12.9993 9.96408 12.9921C9.96869 12.9845 10.1705 12.9881 10.4378 13.0004C10.6939 13.0122 10.9059 13.0193 10.9091 13.0162C10.915 13.0102 10.6337 11.9037 10.6236 11.8935L10.6221 11.8932Z" fill="white"/>
</svg>
